<?xml version="1.0" encoding="UTF-8" standalone="no"?>
<!-- Created with Inkscape (http://www.inkscape.org/) -->

<svg
   xmlns:dc="http://purl.org/dc/elements/1.1/"
   xmlns:cc="http://creativecommons.org/ns#"
   xmlns:rdf="http://www.w3.org/1999/02/22-rdf-syntax-ns#"
   xmlns:svg="http://www.w3.org/2000/svg"
   xmlns="http://www.w3.org/2000/svg"
   xmlns:sodipodi="http://sodipodi.sourceforge.net/DTD/sodipodi-0.dtd"
   xmlns:inkscape="http://www.inkscape.org/namespaces/inkscape"
   width="97.599968mm"
   height="27.696381mm"
   viewBox="0 0 97.599968 27.696381"
   version="1.1"
   id="svg2343"
   inkscape:version="0.92.4 (5da689c313, 2019-01-14)"
   sodipodi:docname="drawing.svg">
  <defs
     id="defs2337">
    <clipPath
       clipPathUnits="userSpaceOnUse"
       id="clipPath100">
      <path
         d="m 465.024,387.499 h 276.095 v 78.422 H 465.024 Z"
         id="path98"
         inkscape:connector-curvature="0" />
    </clipPath>
    <clipPath
       clipPathUnits="userSpaceOnUse"
       id="clipPath184">
      <path
         d="m 465.024,387.738 h 276.095 v 77.944 H 465.024 Z"
         id="path182"
         inkscape:connector-curvature="0" />
    </clipPath>
    <clipPath
       clipPathUnits="userSpaceOnUse"
       id="clipPath200">
      <path
         d="m 465.024,387.499 h 276.095 v 78.422 H 465.024 Z"
         id="path198"
         inkscape:connector-curvature="0" />
    </clipPath>
    <clipPath
       clipPathUnits="userSpaceOnUse"
       id="clipPath300">
      <path
         d="m 465.024,387.738 h 276.095 v 77.944 H 465.024 Z"
         id="path298"
         inkscape:connector-curvature="0" />
    </clipPath>
    <clipPath
       clipPathUnits="userSpaceOnUse"
       id="clipPath316">
      <path
         d="m 465.024,387.499 h 276.095 v 78.422 H 465.024 Z"
         id="path314"
         inkscape:connector-curvature="0" />
    </clipPath>
    <clipPath
       clipPathUnits="userSpaceOnUse"
       id="clipPath348">
      <path
         d="m 465.024,387.738 h 276.095 v 77.944 H 465.024 Z"
         id="path346"
         inkscape:connector-curvature="0" />
    </clipPath>
    <clipPath
       clipPathUnits="userSpaceOnUse"
       id="clipPath364">
      <path
         d="m 465.024,387.499 h 276.095 v 78.422 H 465.024 Z"
         id="path362"
         inkscape:connector-curvature="0" />
    </clipPath>
  </defs>
  <sodipodi:namedview
     id="base"
     pagecolor="#ffffff"
     bordercolor="#666666"
     borderopacity="1.0"
     inkscape:pageopacity="0.0"
     inkscape:pageshadow="2"
     inkscape:zoom="3.959798"
     inkscape:cx="235.8388"
     inkscape:cy="75.971895"
     inkscape:document-units="mm"
     inkscape:current-layer="layer1"
     showgrid="false"
     fit-margin-top="0.1"
     fit-margin-right="0.1"
     fit-margin-bottom="0.1"
     fit-margin-left="0.1"
     inkscape:window-width="1920"
     inkscape:window-height="1001"
     inkscape:window-x="-9"
     inkscape:window-y="-9"
     inkscape:window-maximized="1" />
  <metadata
     id="metadata2340">
    <rdf:RDF>
      <cc:Work
         rdf:about="">
        <dc:format>image/svg+xml</dc:format>
        <dc:type
           rdf:resource="http://purl.org/dc/dcmitype/StillImage" />
        <dc:title></dc:title>
      </cc:Work>
    </rdf:RDF>
  </metadata>
  <g
     inkscape:label="Layer 1"
     inkscape:groupmode="layer"
     id="layer1"
     transform="translate(-81.979779,-165.97919)">
    <g
       transform="matrix(0.35277777,0,0,-0.35277777,-81.970351,330.36095)"
       id="g2046">
      <g
         id="g94">
        <g
           clip-path="url(#clipPath100)"
           id="g96">
          <g
             transform="translate(556.8438,440.0645)"
             id="g102">
            <path
               inkscape:connector-curvature="0"
               id="path104"
               style="fill:#223264;fill-opacity:1;fill-rule:nonzero;stroke:none"
               d="m 0,0 c 11.78,0 17.872,-6.092 17.872,-6.092 l -4.332,-6.499 c 0,0 -5.145,4.603 -12.796,4.603 -10.763,0 -16.518,-7.446 -16.518,-16.518 0,-10.425 7.108,-17.196 16.113,-17.196 7.244,0 12.05,5.01 12.05,5.01 v 5.619 H 5.011 v 7.515 h 15.232 v -25.32 h -7.448 v 2.303 c 0,1.014 0.068,2.03 0.068,2.03 h -0.136 c 0,0 -5.01,-5.145 -13.945,-5.145 -12.66,0 -23.56,9.816 -23.56,24.914 C -24.778,-10.832 -14.284,0 0,0" />
          </g>
          <g
             transform="translate(612.623,440.4975)"
             id="g106">
            <path
               inkscape:connector-curvature="0"
               id="path108"
               style="fill:#223264;fill-opacity:1;fill-rule:nonzero;stroke:none"
               d="m 0,0 c 11.712,0 17.735,-6.566 17.735,-6.566 l -4.196,-6.499 c 0,0 -5.484,5.076 -13.135,5.076 -10.154,0 -16.11,-7.581 -16.11,-16.518 0,-9.14 6.16,-17.195 16.18,-17.195 8.328,0 13.945,6.093 13.945,6.093 l 4.603,-6.296 c 0,0 -6.634,-7.786 -18.886,-7.786 -14.691,0 -24.846,10.901 -24.846,25.048 C -24.71,-10.696 -14.149,0 0,0" />
          </g>
          <g
             transform="translate(672.1411,438.8192)"
             id="g110">
            <path
               inkscape:connector-curvature="0"
               id="path112"
               style="fill:#223264;fill-opacity:1;fill-rule:nonzero;stroke:none"
               d="M 0,0 V -20.377 H -22.001 V 0 h -8.733 v -48.065 h 8.733 v 20.174 H 0 V -48.065 H 8.733 V 0 Z" />
          </g>
          <g
             transform="translate(680.8741,390.7538)"
             id="g114">
            <path
               inkscape:connector-curvature="0"
               id="path116"
               style="fill:#223264;fill-opacity:1;fill-rule:nonzero;stroke:none"
               d="M 0,0 H -8.733 V 20.174 H -30.734 V 0 h -8.733 v 48.065 h 8.733 V 27.688 H -8.733 V 48.065 H 0 Z" />
          </g>
          <g
             transform="translate(720.0834,440.056)"
             id="g118">
            <path
               inkscape:connector-curvature="0"
               id="path120"
               style="fill:#223264;fill-opacity:1;fill-rule:nonzero;stroke:none"
               d="M 0,0 -0.072,0.008 -0.06,-8.19 0.011,-8.207 0,-8.203 C 0.414,-8.305 0.82,-8.426 1.219,-8.559 1.45,-8.64 1.678,-8.728 1.903,-8.819 l 0.192,-0.074 c 3.012,-1.263 5.551,-3.482 7.304,-6.363 l -0.004,-0.006 c 0.364,-0.598 0.689,-1.231 0.983,-1.883 0.067,-0.15 0.135,-0.298 0.198,-0.45 0.111,-0.266 0.217,-0.536 0.316,-0.809 0.076,-0.213 0.145,-0.43 0.214,-0.647 0.104,-0.327 0.203,-0.659 0.289,-0.997 0.091,-0.35 0.175,-0.704 0.245,-1.064 0.039,-0.2 0.07,-0.404 0.102,-0.608 0.054,-0.335 0.102,-0.672 0.138,-1.015 0.021,-0.185 0.041,-0.369 0.055,-0.557 0.036,-0.441 0.053,-0.888 0.061,-1.339 -0.008,-0.452 -0.025,-0.899 -0.061,-1.34 -0.014,-0.188 -0.034,-0.371 -0.055,-0.557 -0.036,-0.342 -0.084,-0.68 -0.138,-1.015 -0.032,-0.202 -0.063,-0.407 -0.102,-0.607 -0.07,-0.361 -0.154,-0.715 -0.245,-1.065 -0.086,-0.338 -0.185,-0.67 -0.289,-0.997 -0.069,-0.217 -0.138,-0.434 -0.214,-0.645 -0.099,-0.275 -0.205,-0.545 -0.316,-0.811 -0.063,-0.151 -0.131,-0.3 -0.198,-0.449 -0.294,-0.653 -0.619,-1.286 -0.983,-1.885 l 0.004,-0.004 c -0.13,-0.215 -0.275,-0.42 -0.414,-0.628 l -7.509,7.508 -5.284,-5.286 7.283,-7.283 C 3.025,-39.94 2.568,-40.171 2.095,-40.37 L 1.903,-40.444 C 1.678,-40.535 1.45,-40.623 1.219,-40.704 0.82,-40.837 0.414,-40.957 0,-41.059 v -0.007 c -1.218,-0.312 -2.492,-0.48 -3.808,-0.48 -1.319,0 -2.592,0.168 -3.81,0.48 v 0.007 c -0.413,0.102 -0.82,0.222 -1.22,0.355 -0.23,0.081 -0.457,0.169 -0.683,0.26 l -0.191,0.074 c -0.474,0.199 -0.932,0.43 -1.381,0.675 l -6.102,-6.102 c 2.103,-1.3 4.423,-2.307 6.926,-2.94 l 0.122,-0.035 c 0.384,-0.094 0.773,-0.168 1.165,-0.246 0.389,-0.08 0.778,-0.16 1.176,-0.221 l 0.188,-0.035 v 0.011 c 1.239,-0.183 2.507,-0.293 3.81,-0.293 1.302,0 2.57,0.11 3.808,0.293 v -0.011 l 0.188,0.035 c 0.397,0.061 0.788,0.141 1.176,0.221 0.391,0.078 0.782,0.152 1.165,0.246 l 0.122,0.035 c 2.503,0.633 4.823,1.64 6.927,2.94 l 5.348,-5.35 5.287,5.285 -4.953,4.954 c 3.622,4.27 5.775,9.824 5.775,16.003 l -0.001,0.015 h 0.001 l -0.011,0.259 0.011,0.258 h -0.001 l 0.001,0.015 c 0,11.639 -7.584,21.105 -18.384,23.833 l -0.122,0.034 c -0.383,0.095 -0.774,0.168 -1.165,0.246 -0.388,0.08 -0.779,0.16 -1.176,0.222 z" />
          </g>
          <g
             transform="translate(712.5367,431.869)"
             id="g122">
            <path
               inkscape:connector-curvature="0"
               id="path124"
               style="fill:#223264;fill-opacity:1;fill-rule:nonzero;stroke:none"
               d="M 0,0 V 8.195 L -0.072,8.187 -0.259,8.164 C -0.658,8.102 -1.046,8.022 -1.436,7.942 -1.827,7.865 -2.217,7.791 -2.601,7.696 L -2.722,7.662 C -13.523,4.934 -21.106,-4.532 -21.106,-16.171 v -0.015 l 0.01,-0.258 -0.01,-0.259 v -0.015 c 0,-6.179 2.153,-11.733 5.775,-16.003 l 6.276,6.274 c -0.141,0.208 -0.284,0.413 -0.416,0.628 l 0.006,0.004 c -0.366,0.599 -0.689,1.232 -0.985,1.885 -0.067,0.149 -0.134,0.298 -0.197,0.449 -0.111,0.266 -0.218,0.536 -0.317,0.811 -0.076,0.211 -0.143,0.428 -0.212,0.645 -0.106,0.327 -0.204,0.659 -0.29,0.997 -0.09,0.35 -0.176,0.704 -0.245,1.065 -0.04,0.2 -0.07,0.405 -0.104,0.607 -0.053,0.335 -0.1,0.673 -0.136,1.015 -0.02,0.186 -0.042,0.369 -0.056,0.557 -0.036,0.441 -0.053,0.888 -0.059,1.34 0.006,0.451 0.023,0.898 0.059,1.339 0.014,0.188 0.036,0.372 0.056,0.557 0.036,0.343 0.083,0.68 0.136,1.015 0.034,0.204 0.064,0.408 0.104,0.608 0.069,0.36 0.155,0.714 0.245,1.064 0.086,0.338 0.184,0.67 0.29,0.997 0.069,0.217 0.136,0.434 0.212,0.647 0.099,0.273 0.206,0.543 0.317,0.809 0.063,0.152 0.13,0.3 0.197,0.45 0.296,0.652 0.619,1.285 0.985,1.883 l -0.006,0.006 c 1.755,2.881 4.293,5.1 7.306,6.363 l 0.191,0.074 c 0.226,0.091 0.452,0.179 0.683,0.26 0.4,0.133 0.807,0.254 1.219,0.356 z" />
          </g>
          <g
             transform="translate(503.2164,460.9838)"
             id="g126">
            <path
               inkscape:connector-curvature="0"
               id="path128"
               style="fill:#223264;fill-opacity:1;fill-rule:evenodd;stroke:none"
               d="M 0,0 C 0.607,0 1.103,-0.495 1.103,-1.103 1.103,-1.71 0.607,-2.205 0,-2.205 c -0.607,0 -1.102,0.495 -1.102,1.102 C -1.102,-0.495 -0.607,0 0,0" />
          </g>
          <g
             transform="translate(505.4804,460.3478)"
             id="g130">
            <path
               inkscape:connector-curvature="0"
               id="path132"
               style="fill:#223264;fill-opacity:1;fill-rule:evenodd;stroke:none"
               d="M 0,0 C 0.607,0 1.103,-0.495 1.103,-1.103 1.103,-1.71 0.607,-2.205 0,-2.205 c -0.607,0 -1.103,0.495 -1.103,1.102 C -1.103,-0.495 -0.607,0 0,0" />
          </g>
          <g
             transform="translate(507.1175,458.6086)"
             id="g134">
            <path
               inkscape:connector-curvature="0"
               id="path136"
               style="fill:#223264;fill-opacity:1;fill-rule:evenodd;stroke:none"
               d="M 0,0 C 0.607,0 1.103,-0.495 1.103,-1.103 1.103,-1.71 0.607,-2.205 0,-2.205 c -0.607,0 -1.103,0.495 -1.103,1.102 C -1.103,-0.495 -0.607,0 0,0" />
          </g>
          <g
             transform="translate(507.6576,456.1774)"
             id="g138">
            <path
               inkscape:connector-curvature="0"
               id="path140"
               style="fill:#223264;fill-opacity:1;fill-rule:evenodd;stroke:none"
               d="M 0,0 C 0.607,0 1.103,-0.495 1.103,-1.103 1.103,-1.71 0.607,-2.205 0,-2.205 c -0.607,0 -1.103,0.495 -1.103,1.102 C -1.103,-0.495 -0.607,0 0,0" />
          </g>
          <g
             transform="translate(507.2854,453.7777)"
             id="g142">
            <path
               inkscape:connector-curvature="0"
               id="path144"
               style="fill:#223264;fill-opacity:1;fill-rule:evenodd;stroke:none"
               d="M 0,0 C 0.607,0 1.103,-0.495 1.103,-1.103 1.103,-1.71 0.607,-2.205 0,-2.205 c -0.607,0 -1.103,0.495 -1.103,1.102 C -1.103,-0.495 -0.607,0 0,0" />
          </g>
          <g
             transform="translate(500.7537,460.8536)"
             id="g146">
            <path
               inkscape:connector-curvature="0"
               id="path148"
               style="fill:#223264;fill-opacity:1;fill-rule:evenodd;stroke:none"
               d="M 0,0 C 0.607,0 1.103,-0.495 1.103,-1.103 1.103,-1.71 0.607,-2.205 0,-2.205 c -0.607,0 -1.102,0.495 -1.102,1.102 C -1.102,-0.495 -0.607,0 0,0" />
          </g>
          <g
             transform="translate(498.4345,460.2023)"
             id="g150">
            <path
               inkscape:connector-curvature="0"
               id="path152"
               style="fill:#223264;fill-opacity:1;fill-rule:evenodd;stroke:none"
               d="m 0,0 c 0.607,0 1.103,-0.495 1.103,-1.103 0,-0.606 -0.496,-1.101 -1.103,-1.101 -0.607,0 -1.103,0.495 -1.103,1.101 C -1.103,-0.495 -0.607,0 0,0" />
          </g>
          <g
             transform="translate(496.202,459.3655)"
             id="g154">
            <path
               inkscape:connector-curvature="0"
               id="path156"
               style="fill:#223264;fill-opacity:1;fill-rule:evenodd;stroke:none"
               d="M 0,0 C 0.607,0 1.103,-0.495 1.103,-1.103 1.103,-1.71 0.607,-2.205 0,-2.205 c -0.607,0 -1.103,0.495 -1.103,1.102 C -1.103,-0.495 -0.607,0 0,0" />
          </g>
          <g
             transform="translate(506.3793,451.5326)"
             id="g158">
            <path
               inkscape:connector-curvature="0"
               id="path160"
               style="fill:#223264;fill-opacity:1;fill-rule:evenodd;stroke:none"
               d="M 0,0 C 0.607,0 1.103,-0.495 1.103,-1.103 1.103,-1.71 0.607,-2.205 0,-2.205 c -0.607,0 -1.103,0.495 -1.103,1.102 C -1.103,-0.495 -0.607,0 0,0" />
          </g>
          <g
             transform="translate(494.6971,456.3236)"
             id="g162">
            <path
               inkscape:connector-curvature="0"
               id="path164"
               style="fill:#223264;fill-opacity:1;fill-rule:evenodd;stroke:none"
               d="m 0,0 c 2.453,0.836 5.479,2.335 7.806,2.335 3.305,0 5.359,-2.655 2.283,-8.557 l 0.762,-0.373 -0.835,-1.826 c 0.065,-0.186 0.069,-0.394 -0.002,-0.593 -0.086,-0.239 -0.265,-0.42 -0.481,-0.515 l -1.042,-2.824 c 0.258,-0.516 -0.317,-0.715 -0.282,-0.703 l -0.645,-1.935 c 0.364,-0.727 -0.375,-0.891 -0.375,-0.856 -3.099,0.976 -5.989,1.464 -8.901,1.484 -2.911,-0.02 -5.802,-0.508 -8.901,-1.484 0,-0.035 -0.738,0.129 -0.375,0.856 l -0.645,1.935 c 0.035,-0.012 -0.539,0.187 -0.281,0.703 l -1.042,2.824 c -0.216,0.095 -0.395,0.276 -0.482,0.515 -0.07,0.199 -0.066,0.407 -10e-4,0.593 l -0.829,1.812 c -0.202,-0.237 -0.503,-0.387 -0.838,-0.387 -0.607,0 -1.102,0.495 -1.102,1.102 0,0.608 0.495,1.103 1.102,1.103 0.608,0 1.103,-0.495 1.103,-1.103 0,-0.258 -0.09,-0.497 -0.241,-0.686 l 0.732,0.358 c -3.077,5.902 -1.023,8.557 2.282,8.557 2.327,0 5.354,-1.499 7.807,-2.335 -0.062,0.602 -0.135,1.131 -0.206,1.504 0.218,0.231 0.665,0.412 1.214,0.498 -0.771,0.284 -1.324,1.027 -1.324,1.894 0,0.607 0.27,1.153 0.697,1.523 C -2.7,5.912 -2.289,6.397 -2.12,6.942 -2.7,6.799 -3.278,6.51 -3.685,6.189 v 2.392 c 0.5,-0.347 0.994,-0.678 1.551,-0.811 -0.16,0.582 -0.469,1.191 -0.778,1.585 l 1.2,0.002 1.201,-0.002 C -0.82,8.961 -1.129,8.352 -1.289,7.77 c 0.557,0.133 1.05,0.464 1.551,0.811 V 6.189 C -0.146,6.51 -0.724,6.799 -1.304,6.942 -1.134,6.397 -0.723,5.912 -0.382,5.419 0.045,5.049 0.316,4.503 0.316,3.896 0.316,3.029 -0.237,2.286 -1.009,2.002 -0.46,1.916 -0.012,1.735 0.205,1.504 0.134,1.131 0.062,0.602 0,0 m -12.761,-5.854 c -2.915,5.622 -1.068,7.651 1.848,7.463 2.157,-0.139 5.178,-1.519 7.552,-2.295 0.094,-1.158 0.139,-2.453 0.059,-3.4 h 10e-4 l 0.002,-0.567 c 0.439,-0.381 0.785,-0.803 1.05,-1.311 l -0.267,-0.282 c -0.516,0.409 -0.944,0.873 -1.215,1.441 l -0.54,-0.363 v -3.107 l 0.611,-0.258 c 0.366,0.587 0.518,0.988 1.134,1.325 0.107,-0.182 0.275,-0.325 0.474,-0.402 -0.907,-2.55 -2.785,-2.511 -4.152,-1.46 l -0.09,0.024 0.104,-0.021 c 0.087,0.166 0.189,0.39 0.008,0.633 l -0.24,0.076 c 0.107,0.61 0.144,1.744 0.622,1.849 0.612,0.128 0.093,-1.402 0.286,-1.276 0.528,0.496 1.217,1.81 0.778,2.467 -0.322,0.487 -1.438,0.241 -1.762,-0.236 -0.198,-0.302 -0.304,-0.64 -0.364,-0.997 0.173,1.332 0.548,1.707 -1.168,3.073 -0.927,-1.587 -0.704,-2.016 -0.257,-2.791 -0.106,0.136 -0.226,0.261 -0.364,0.37 -0.457,0.352 -1.594,0.236 -1.747,-0.327 -0.212,-0.763 0.855,-1.794 1.512,-2.1 0.223,-0.058 -0.751,1.232 -0.129,1.302 0.506,0.052 0.906,-1.094 1.203,-1.618 l -0.169,-0.139 c -0.078,-0.293 0.101,-0.463 0.243,-0.585 l -10e-4,-0.001 c -1.509,-1.837 -3.151,-1.509 -4.479,-0.153 0.164,0.077 0.294,0.2 0.383,0.346 0.547,-0.062 0.983,-0.191 1.397,-0.518 l 0.487,0.449 -1.047,2.925 -0.63,0.16 c -0.062,-0.605 -0.301,-1.182 -0.634,-1.73 -0.126,0.051 -0.264,0.074 -0.404,0.063 0.056,0.628 0.213,1.225 0.509,1.752 l -0.125,0.453 z m 7.832,8.896 c -0.606,0 -1.102,-0.495 -1.102,-1.103 0,-0.607 0.496,-1.102 1.102,-1.102 0.607,0 1.103,0.495 1.103,1.102 0,0.608 -0.496,1.103 -1.103,1.103 m -2.232,0.837 c -0.607,0 -1.103,-0.495 -1.103,-1.103 0,-0.606 0.496,-1.102 1.103,-1.102 0.607,0 1.102,0.496 1.102,1.102 0,0.608 -0.495,1.103 -1.102,1.103 m -2.32,0.651 c -0.607,0 -1.102,-0.495 -1.102,-1.103 0,-0.607 0.495,-1.102 1.102,-1.102 0.608,0 1.103,0.495 1.103,1.102 0,0.608 -0.495,1.103 -1.103,1.103 m -6.531,-7.076 c -0.607,0 -1.102,-0.495 -1.102,-1.103 0,-0.607 0.495,-1.102 1.102,-1.102 0.607,0 1.102,0.495 1.102,1.102 0,0.608 -0.495,1.103 -1.102,1.103 m -0.372,2.4 c -0.607,0 -1.102,-0.496 -1.102,-1.103 0,-0.607 0.495,-1.102 1.102,-1.102 0.608,0 1.103,0.495 1.103,1.102 0,0.607 -0.495,1.103 -1.103,1.103 m 0.54,2.431 c -0.607,0 -1.102,-0.495 -1.102,-1.103 0,-0.607 0.495,-1.102 1.102,-1.102 0.607,0 1.102,0.495 1.102,1.102 0,0.608 -0.495,1.103 -1.102,1.103 m 1.637,1.739 c -0.607,0 -1.103,-0.495 -1.103,-1.102 0,-0.608 0.496,-1.103 1.103,-1.103 0.607,0 1.102,0.495 1.102,1.103 0,0.607 -0.495,1.102 -1.102,1.102 m 2.264,0.636 c -0.608,0 -1.103,-0.495 -1.103,-1.102 0,-0.608 0.495,-1.103 1.103,-1.103 0.607,0 1.102,0.495 1.102,1.103 0,0.607 -0.495,1.102 -1.102,1.102 M 9.337,-5.854 C 12.252,-0.232 10.405,1.797 7.49,1.609 5.333,1.47 2.312,0.09 -0.063,-0.686 -0.157,-1.844 -0.201,-3.139 -0.122,-4.086 H -0.123 L -0.124,-4.653 C -0.563,-5.034 -0.91,-5.456 -1.175,-5.964 l 0.268,-0.282 c 0.516,0.409 0.943,0.873 1.214,1.441 L 0.846,-5.168 V -8.275 L 0.237,-8.533 c -0.367,0.587 -0.519,0.988 -1.135,1.325 -0.107,-0.182 -0.274,-0.325 -0.473,-0.402 0.906,-2.55 2.785,-2.511 4.152,-1.46 l 0.09,0.024 -0.105,-0.021 c -0.086,0.166 -0.189,0.39 -0.007,0.633 l 0.24,0.076 c -0.108,0.61 -0.144,1.744 -0.622,1.849 -0.612,0.128 -0.093,-1.402 -0.286,-1.276 -0.529,0.496 -1.218,1.81 -0.778,2.467 0.321,0.487 1.438,0.241 1.762,-0.236 0.198,-0.302 0.303,-0.64 0.363,-0.997 -0.172,1.332 -0.547,1.707 1.168,3.073 0.927,-1.587 0.704,-2.016 0.258,-2.791 0.105,0.136 0.225,0.261 0.364,0.37 0.456,0.352 1.594,0.236 1.747,-0.327 C 7.186,-6.989 6.119,-8.02 5.463,-8.326 5.24,-8.384 6.213,-7.094 5.591,-7.024 5.086,-6.972 4.685,-8.118 4.389,-8.642 L 4.557,-8.781 C 4.635,-9.074 4.457,-9.244 4.315,-9.366 L 4.316,-9.367 C 5.825,-11.204 7.467,-10.876 8.794,-9.52 8.631,-9.443 8.5,-9.32 8.412,-9.174 7.865,-9.236 7.429,-9.365 7.014,-9.692 l -0.486,0.449 1.047,2.925 0.63,0.16 c 0.062,-0.605 0.3,-1.182 0.633,-1.73 0.126,0.051 0.265,0.074 0.405,0.063 -0.057,0.628 -0.214,1.225 -0.51,1.752 l 0.126,0.453 z" />
          </g>
          <g
             transform="translate(474.1325,400.3301)"
             id="g166">
            <path
               inkscape:connector-curvature="0"
               id="path168"
               style="fill:#223264;fill-opacity:1;fill-rule:evenodd;stroke:none"
               d="M 0,0 0.201,-0.201 0,-0.403 -0.202,-0.201 Z" />
          </g>
          <g
             transform="translate(474.1325,400.3301)"
             id="g170">
            <path
               inkscape:connector-curvature="0"
               id="path172"
               style="fill:#223264;fill-opacity:1;fill-rule:nonzero;stroke:none"
               d="M 0,0 0.201,-0.201 0,-0.403 -0.202,-0.201 Z" />
          </g>
          <g
             transform="translate(474.1325,400.3301)"
             id="g174">
            <path
               inkscape:connector-curvature="0"
               id="path176"
               style="fill:#ffffff;fill-opacity:1;fill-rule:nonzero;stroke:none"
               d="M 0,0 -0.016,-0.016 0.169,-0.201 0,-0.371 -0.17,-0.201 0.016,-0.016 0,0 -0.016,-0.016 0,0 -0.016,0.016 -0.217,-0.186 -0.233,-0.201 -0.016,-0.419 0,-0.435 0.217,-0.217 0.233,-0.201 0.016,0.016 0,0.032 -0.016,0.016 Z" />
          </g>
        </g>
      </g>
      <g
         id="g178">
        <g
           clip-path="url(#clipPath184)"
           id="g180">
          <g
             transform="translate(509.4997,400.9375)"
             id="g186">
            <path
               inkscape:connector-curvature="0"
               id="path188"
               style="fill:#223264;fill-opacity:1;fill-rule:evenodd;stroke:none"
               d="M 0,0 C -4.888,-1.97 -5.523,-4.409 -5.065,-7.45 -1.185,-4.843 -0.588,-3.463 0,0" />
          </g>
          <g
             transform="translate(505.5615,390.5214)"
             id="g190">
            <path
               inkscape:connector-curvature="0"
               id="path192"
               style="fill:#223264;fill-opacity:1;fill-rule:evenodd;stroke:none"
               d="M 0,0 C -4.253,-3.628 -6.859,-3.027 -9.491,-1.103 -5.135,1.265 -3.544,1.147 0,0" />
          </g>
        </g>
      </g>
      <g
         id="g194">
        <g
           clip-path="url(#clipPath200)"
           id="g196">
          <g
             transform="translate(513.6036,396.3941)"
             id="g202">
            <path
               inkscape:connector-curvature="0"
               id="path204"
               style="fill:#223264;fill-opacity:1;fill-rule:evenodd;stroke:none"
               d="M 0,0 C -3.512,-4.405 -6.204,-4.308 -9.176,-2.909 -5.32,0.269 -3.725,0.458 0,0" />
          </g>
          <g
             transform="translate(502.3432,395.4622)"
             id="g206">
            <path
               inkscape:connector-curvature="0"
               id="path208"
               style="fill:#223264;fill-opacity:1;fill-rule:evenodd;stroke:none"
               d="M 0,0 C -5.042,-0.932 -6.121,-3.136 -6.273,-6.122 -2.068,-4.389 -1.231,-3.189 0,0" />
          </g>
          <g
             transform="translate(514.006,417.482)"
             id="g210">
            <path
               inkscape:connector-curvature="0"
               id="path212"
               style="fill:#223264;fill-opacity:1;fill-rule:evenodd;stroke:none"
               d="M 0,0 C -1.118,-5.464 0.663,-7.45 3.612,-8.821 3.58,-3.876 2.711,-2.542 0,0" />
          </g>
          <g
             transform="translate(511.4034,423.8877)"
             id="g214">
            <path
               inkscape:connector-curvature="0"
               id="path216"
               style="fill:#223264;fill-opacity:1;fill-rule:evenodd;stroke:none"
               d="M 0,0 C 0.722,-4.452 3.038,-5.4 6.251,-5.527 4.618,-1.816 3.369,-1.08 0,0" />
          </g>
          <g
             transform="translate(507.5624,429.4525)"
             id="g218">
            <path
               inkscape:connector-curvature="0"
               id="path220"
               style="fill:#223264;fill-opacity:1;fill-rule:evenodd;stroke:none"
               d="M 0,0 C 2.381,-4.732 4.513,-4.997 6.981,-4.035 4.22,-0.446 2.978,-0.052 0,0" />
          </g>
          <g
             transform="translate(500.774,433.502)"
             id="g222">
            <path
               inkscape:connector-curvature="0"
               id="path224"
               style="fill:#223264;fill-opacity:1;fill-rule:evenodd;stroke:none"
               d="M 0,0 C 3.809,-3.244 5.783,-2.735 7.61,-1.056 3.88,1.075 2.643,0.985 0,0" />
          </g>
          <g
             transform="translate(495.0839,436.1151)"
             id="g226">
            <path
               inkscape:connector-curvature="0"
               id="path228"
               style="fill:#223264;fill-opacity:1;fill-rule:evenodd;stroke:none"
               d="M 0,0 C 4.399,-2.351 6.211,-1.51 7.629,0.404 3.546,1.723 2.361,1.412 0,0" />
          </g>
          <g
             transform="translate(520.0843,417.9297)"
             id="g230">
            <path
               inkscape:connector-curvature="0"
               id="path232"
               style="fill:#223264;fill-opacity:1;fill-rule:evenodd;stroke:none"
               d="M 0,0 C 1.944,-5.278 0.382,-7.499 -2.48,-9.268 -3.157,-4.346 -2.447,-2.901 0,0" />
          </g>
          <g
             transform="translate(517.092,427.6161)"
             id="g234">
            <path
               inkscape:connector-curvature="0"
               id="path236"
               style="fill:#223264;fill-opacity:1;fill-rule:evenodd;stroke:none"
               d="M 0,0 C 3.283,-4.317 2.558,-6.81 0.551,-9.255 -1.506,-4.906 -1.305,-3.371 0,0" />
          </g>
          <g
             transform="translate(510.4603,433.6888)"
             id="g238">
            <path
               inkscape:connector-curvature="0"
               id="path240"
               style="fill:#223264;fill-opacity:1;fill-rule:evenodd;stroke:none"
               d="M 0,0 C 4.675,-2.694 4.971,-5.258 4.073,-8.274 0.511,-5.079 0.103,-3.595 0,0" />
          </g>
          <g
             transform="translate(495.8368,440.7304)"
             id="g242">
            <path
               inkscape:connector-curvature="0"
               id="path244"
               style="fill:#223264;fill-opacity:1;fill-rule:evenodd;stroke:none"
               d="M 0,0 C 4.713,0.195 6.131,-1.562 6.877,-4.21 2.751,-3.514 1.755,-2.607 0,0" />
          </g>
          <g
             transform="translate(503.4382,438.768)"
             id="g246">
            <path
               inkscape:connector-curvature="0"
               id="path248"
               style="fill:#223264;fill-opacity:1;fill-rule:evenodd;stroke:none"
               d="M 0,0 C 4.623,-1.611 5.288,-3.705 4.948,-6.336 1.248,-4.158 0.651,-2.978 0,0" />
          </g>
          <g
             transform="translate(514.1046,408.0008)"
             id="g250">
            <path
               inkscape:connector-curvature="0"
               id="path252"
               style="fill:#223264;fill-opacity:1;fill-rule:evenodd;stroke:none"
               d="M 0,0 C -3.819,-3.567 -3.536,-6.05 -2.027,-8.699 0.632,-4.903 0.691,-3.413 0,0" />
          </g>
          <g
             transform="translate(520.0052,406.631)"
             id="g254">
            <path
               inkscape:connector-curvature="0"
               id="path256"
               style="fill:#223264;fill-opacity:1;fill-rule:evenodd;stroke:none"
               d="M 0,0 C -1.469,-6.155 -4.253,-7.345 -7.944,-7.342 -5.54,-2.27 -4.007,-1.315 0,0" />
          </g>
          <g
             transform="translate(504.2092,394.4911)"
             id="g258">
            <path
               inkscape:connector-curvature="0"
               id="path260"
               style="fill:#223264;fill-opacity:1;fill-rule:evenodd;stroke:none"
               d="m 0,0 c -0.49,0 -0.888,-0.397 -0.888,-0.889 0,-0.489 0.398,-0.887 0.888,-0.887 0.49,0 0.889,0.398 0.889,0.887 C 0.889,-0.397 0.49,0 0,0 m -0.196,-0.742 -0.201,0.202 0.201,0.201 0.201,-0.201 z" />
          </g>
          <g
             transform="translate(496.0704,390.2695)"
             id="g262">
            <path
               inkscape:connector-curvature="0"
               id="path264"
               style="fill:#223264;fill-opacity:1;fill-rule:evenodd;stroke:none"
               d="m 0,0 c -0.49,0 -0.887,-0.397 -0.887,-0.887 0,-0.491 0.397,-0.889 0.887,-0.889 0.49,0 0.888,0.398 0.888,0.889 C 0.888,-0.397 0.49,0 0,0 m -0.196,-0.74 -0.201,0.201 0.201,0.2 0.202,-0.2 z" />
          </g>
          <g
             transform="translate(511.4915,400.1735)"
             id="g266">
            <path
               inkscape:connector-curvature="0"
               id="path268"
               style="fill:#223264;fill-opacity:1;fill-rule:evenodd;stroke:none"
               d="m 0,0 c -0.427,-0.239 -0.58,-0.781 -0.341,-1.209 0.24,-0.427 0.781,-0.579 1.209,-0.34 0.428,0.239 0.581,0.781 0.341,1.209 C 0.969,0.087 0.428,0.239 0,0 m 0.191,-0.742 -0.274,0.077 0.077,0.275 0.274,-0.079 z" />
          </g>
          <g
             transform="translate(516.8359,409.2573)"
             id="g270">
            <path
               inkscape:connector-curvature="0"
               id="path272"
               style="fill:#223264;fill-opacity:1;fill-rule:evenodd;stroke:none"
               d="m 0,0 c -0.434,-0.228 -0.602,-0.765 -0.374,-1.199 0.227,-0.434 0.764,-0.602 1.198,-0.375 0.435,0.228 0.602,0.765 0.374,1.199 C 0.971,0.06 0.434,0.227 0,0 m 0.17,-0.747 -0.272,0.084 0.085,0.271 0.272,-0.084 z" />
          </g>
          <g
             transform="translate(517.0682,418.628)"
             id="g274">
            <path
               inkscape:connector-curvature="0"
               id="path276"
               style="fill:#223264;fill-opacity:1;fill-rule:evenodd;stroke:none"
               d="M 0,0 C -0.385,-0.304 -0.451,-0.862 -0.147,-1.248 0.157,-1.633 0.715,-1.699 1.1,-1.395 1.485,-1.091 1.551,-0.532 1.247,-0.147 0.943,0.238 0.385,0.304 0,0 m 0.304,-0.704 -0.282,0.034 0.033,0.282 0.283,-0.033 z" />
          </g>
          <g
             transform="translate(513.7681,425.2562)"
             id="g278">
            <path
               inkscape:connector-curvature="0"
               id="path280"
               style="fill:#223264;fill-opacity:1;fill-rule:evenodd;stroke:none"
               d="M 0,0 C -0.159,-0.465 0.089,-0.97 0.553,-1.128 1.017,-1.286 1.522,-1.038 1.68,-0.575 1.839,-0.11 1.591,0.395 1.127,0.553 0.663,0.711 0.158,0.463 0,0 m 0.637,-0.425 -0.255,-0.126 -0.126,0.256 0.255,0.124 z" />
          </g>
          <g
             transform="translate(507.8165,431.8767)"
             id="g282">
            <path
               inkscape:connector-curvature="0"
               id="path284"
               style="fill:#223264;fill-opacity:1;fill-rule:evenodd;stroke:none"
               d="M 0,0 C 0.178,-0.457 0.694,-0.682 1.15,-0.503 1.607,-0.324 1.832,0.191 1.653,0.648 1.474,1.105 0.958,1.329 0.502,1.15 0.045,0.971 -0.179,0.456 0,0 M 0.761,0.088 0.647,-0.173 0.386,-0.059 0.5,0.201 Z" />
          </g>
          <g
             transform="translate(502.1998,435.6253)"
             id="g286">
            <path
               inkscape:connector-curvature="0"
               id="path288"
               style="fill:#223264;fill-opacity:1;fill-rule:evenodd;stroke:none"
               d="M 0,0 C 0.348,-0.344 0.911,-0.341 1.255,0.008 1.6,0.357 1.597,0.919 1.247,1.264 0.898,1.608 0.337,1.605 -0.008,1.256 -0.353,0.907 -0.349,0.345 0,0 M 0.66,0.389 0.662,0.104 0.377,0.103 0.375,0.388 Z" />
          </g>
          <g
             transform="translate(499.9561,437.387)"
             id="g290">
            <path
               inkscape:connector-curvature="0"
               id="path292"
               style="fill:#223264;fill-opacity:1;fill-rule:evenodd;stroke:none"
               d="m 0,0 c -2.971,2.747 -6.008,1.092 -6.008,1.092 l 0.004,0.018 c 0,0 2.259,-2.618 6.007,-1.093 z" />
          </g>
        </g>
      </g>
      <g
         id="g294">
        <g
           clip-path="url(#clipPath300)"
           id="g296">
          <g
             transform="translate(476.4706,400.7919)"
             id="g302">
            <path
               inkscape:connector-curvature="0"
               id="path304"
               style="fill:#223264;fill-opacity:1;fill-rule:evenodd;stroke:none"
               d="M 0,0 C 4.888,-1.97 5.523,-4.41 5.065,-7.45 1.185,-4.843 0.588,-3.463 0,0" />
          </g>
          <g
             transform="translate(480.4094,390.376)"
             id="g306">
            <path
               inkscape:connector-curvature="0"
               id="path308"
               style="fill:#223264;fill-opacity:1;fill-rule:evenodd;stroke:none"
               d="M 0,0 C 4.253,-3.628 6.858,-3.027 9.49,-1.103 5.135,1.265 3.544,1.147 0,0" />
          </g>
        </g>
      </g>
      <g
         id="g310">
        <g
           clip-path="url(#clipPath316)"
           id="g312">
          <g
             transform="translate(472.3673,396.2485)"
             id="g318">
            <path
               inkscape:connector-curvature="0"
               id="path320"
               style="fill:#223264;fill-opacity:1;fill-rule:evenodd;stroke:none"
               d="M 0,0 C 3.512,-4.405 6.204,-4.308 9.175,-2.909 5.32,0.269 3.724,0.458 0,0" />
          </g>
          <g
             transform="translate(483.6277,395.3167)"
             id="g322">
            <path
               inkscape:connector-curvature="0"
               id="path324"
               style="fill:#223264;fill-opacity:1;fill-rule:evenodd;stroke:none"
               d="M 0,0 C 5.042,-0.932 6.121,-3.136 6.272,-6.122 2.067,-4.389 1.231,-3.189 0,0" />
          </g>
          <g
             transform="translate(471.965,417.3365)"
             id="g326">
            <path
               inkscape:connector-curvature="0"
               id="path328"
               style="fill:#223264;fill-opacity:1;fill-rule:evenodd;stroke:none"
               d="M 0,0 C 1.118,-5.464 -0.663,-7.45 -3.613,-8.821 -3.581,-3.876 -2.711,-2.542 0,0" />
          </g>
          <g
             transform="translate(474.5669,423.7423)"
             id="g330">
            <path
               inkscape:connector-curvature="0"
               id="path332"
               style="fill:#223264;fill-opacity:1;fill-rule:evenodd;stroke:none"
               d="M 0,0 C -0.721,-4.452 -3.037,-5.4 -6.251,-5.527 -4.617,-1.816 -3.369,-1.08 0,0" />
          </g>
          <g
             transform="translate(478.4085,429.3071)"
             id="g334">
            <path
               inkscape:connector-curvature="0"
               id="path336"
               style="fill:#223264;fill-opacity:1;fill-rule:evenodd;stroke:none"
               d="M 0,0 C -2.382,-4.732 -4.513,-4.997 -6.981,-4.035 -4.221,-0.447 -2.978,-0.052 0,0" />
          </g>
          <g
             transform="translate(485.1963,433.3564)"
             id="g338">
            <path
               inkscape:connector-curvature="0"
               id="path340"
               style="fill:#223264;fill-opacity:1;fill-rule:evenodd;stroke:none"
               d="M 0,0 C -3.809,-3.244 -5.783,-2.735 -7.609,-1.056 -3.88,1.075 -2.643,0.985 0,0" />
          </g>
        </g>
      </g>
      <g
         id="g342">
        <g
           clip-path="url(#clipPath348)"
           id="g344">
          <g
             transform="translate(490.8862,435.9696)"
             id="g350">
            <path
               inkscape:connector-curvature="0"
               id="path352"
               style="fill:#223264;fill-opacity:1;fill-rule:evenodd;stroke:none"
               d="M 0,0 C -4.398,-2.351 -6.21,-1.51 -7.629,0.404 -3.545,1.723 -2.361,1.412 0,0" />
          </g>
          <g
             transform="translate(465.8867,417.7844)"
             id="g354">
            <path
               inkscape:connector-curvature="0"
               id="path356"
               style="fill:#223264;fill-opacity:1;fill-rule:evenodd;stroke:none"
               d="M 0,0 C -1.944,-5.278 -0.383,-7.499 2.479,-9.269 3.157,-4.346 2.447,-2.901 0,0" />
          </g>
        </g>
      </g>
      <g
         id="g358">
        <g
           clip-path="url(#clipPath364)"
           id="g360">
          <g
             transform="translate(468.879,427.4698)"
             id="g366">
            <path
               inkscape:connector-curvature="0"
               id="path368"
               style="fill:#223264;fill-opacity:1;fill-rule:evenodd;stroke:none"
               d="M 0,0 C -3.283,-4.317 -2.559,-6.809 -0.551,-9.255 1.505,-4.906 1.305,-3.371 0,0" />
          </g>
          <g
             transform="translate(475.5107,433.5425)"
             id="g370">
            <path
               inkscape:connector-curvature="0"
               id="path372"
               style="fill:#223264;fill-opacity:1;fill-rule:evenodd;stroke:none"
               d="M 0,0 C -4.675,-2.693 -4.971,-5.258 -4.073,-8.274 -0.511,-5.079 -0.103,-3.594 0,0" />
          </g>
          <g
             transform="translate(490.1335,440.585)"
             id="g374">
            <path
               inkscape:connector-curvature="0"
               id="path376"
               style="fill:#223264;fill-opacity:1;fill-rule:evenodd;stroke:none"
               d="M 0,0 C -4.713,0.194 -6.13,-1.562 -6.876,-4.21 -2.751,-3.514 -1.755,-2.608 0,0" />
          </g>
          <g
             transform="translate(482.5322,438.6224)"
             id="g378">
            <path
               inkscape:connector-curvature="0"
               id="path380"
               style="fill:#223264;fill-opacity:1;fill-rule:evenodd;stroke:none"
               d="M 0,0 C -4.622,-1.611 -5.287,-3.705 -4.948,-6.336 -1.248,-4.158 -0.65,-2.978 0,0" />
          </g>
          <g
             transform="translate(471.8664,407.8553)"
             id="g382">
            <path
               inkscape:connector-curvature="0"
               id="path384"
               style="fill:#223264;fill-opacity:1;fill-rule:evenodd;stroke:none"
               d="M 0,0 C 3.818,-3.567 3.536,-6.05 2.027,-8.699 -0.632,-4.903 -0.692,-3.413 0,0" />
          </g>
          <g
             transform="translate(465.9651,406.4854)"
             id="g386">
            <path
               inkscape:connector-curvature="0"
               id="path388"
               style="fill:#223264;fill-opacity:1;fill-rule:evenodd;stroke:none"
               d="M 0,0 C 1.469,-6.155 4.253,-7.345 7.945,-7.342 5.541,-2.27 4.008,-1.315 0,0" />
          </g>
          <g
             transform="translate(480.8734,393.4572)"
             id="g390">
            <path
               inkscape:connector-curvature="0"
               id="path392"
               style="fill:#223264;fill-opacity:1;fill-rule:evenodd;stroke:none"
               d="m 0,0 c 0,-0.49 0.397,-0.887 0.888,-0.887 0.49,0 0.888,0.397 0.888,0.887 0,0.491 -0.398,0.888 -0.888,0.888 C 0.397,0.888 0,0.491 0,0 M 0.883,0.348 1.084,0.55 1.286,0.348 1.084,0.147 Z" />
          </g>
          <g
             transform="translate(489.0119,389.2369)"
             id="g394">
            <path
               inkscape:connector-curvature="0"
               id="path396"
               style="fill:#223264;fill-opacity:1;fill-rule:evenodd;stroke:none"
               d="m 0,0 c 0,-0.491 0.397,-0.888 0.888,-0.888 0.49,0 0.888,0.397 0.888,0.888 0,0.49 -0.398,0.887 -0.888,0.887 C 0.397,0.887 0,0.49 0,0 M 0.883,0.348 1.085,0.55 1.286,0.348 1.085,0.147 Z" />
          </g>
          <g
             transform="translate(473.2705,399.6879)"
             id="g398">
            <path
               inkscape:connector-curvature="0"
               id="path400"
               style="fill:#223264;fill-opacity:1;fill-rule:evenodd;stroke:none"
               d="M 0,0 C -0.24,-0.428 -0.087,-0.97 0.341,-1.209 0.768,-1.448 1.31,-1.296 1.549,-0.869 1.789,-0.441 1.636,0.101 1.208,0.34 0.781,0.579 0.239,0.427 0,0 M 0.94,-0.129 1.215,-0.05 1.291,-0.325 1.018,-0.402 Z" />
          </g>
          <g
             transform="translate(467.9359,408.7368)"
             id="g402">
            <path
               inkscape:connector-curvature="0"
               id="path404"
               style="fill:#223264;fill-opacity:1;fill-rule:evenodd;stroke:none"
               d="M 0,0 C -0.227,-0.434 -0.06,-0.971 0.374,-1.199 0.809,-1.426 1.345,-1.258 1.573,-0.824 1.801,-0.39 1.633,0.147 1.199,0.375 0.765,0.602 0.228,0.435 0,0 m 0.944,-0.101 0.272,0.084 0.085,-0.271 -0.272,-0.086 z" />
          </g>
          <g
             transform="translate(467.6554,418.3356)"
             id="g406">
            <path
               inkscape:connector-curvature="0"
               id="path408"
               style="fill:#223264;fill-opacity:1;fill-rule:evenodd;stroke:none"
               d="M 0,0 C -0.304,-0.386 -0.238,-0.944 0.147,-1.248 0.532,-1.552 1.091,-1.486 1.394,-1.101 1.698,-0.715 1.632,-0.157 1.247,0.147 0.862,0.451 0.304,0.385 0,0 m 0.91,-0.274 0.282,0.033 0.033,-0.282 -0.283,-0.034 z" />
          </g>
          <g
             transform="translate(471.0758,425.6635)"
             id="g410">
            <path
               inkscape:connector-curvature="0"
               id="path412"
               style="fill:#223264;fill-opacity:1;fill-rule:evenodd;stroke:none"
               d="m 0,0 c -0.465,-0.158 -0.712,-0.663 -0.553,-1.128 0.158,-0.463 0.663,-0.711 1.127,-0.553 0.464,0.159 0.711,0.664 0.553,1.128 C 0.968,-0.09 0.464,0.158 0,0 M 0.615,-0.723 0.87,-0.848 0.745,-1.104 0.49,-0.978 Z" />
          </g>
          <g
             transform="translate(477.6523,432.8814)"
             id="g414">
            <path
               inkscape:connector-curvature="0"
               id="path416"
               style="fill:#223264;fill-opacity:1;fill-rule:evenodd;stroke:none"
               d="m 0,0 c -0.457,0.179 -0.972,-0.046 -1.151,-0.502 -0.179,-0.457 0.046,-0.972 0.502,-1.151 0.457,-0.179 0.972,0.046 1.151,0.502 C 0.681,-0.694 0.457,-0.179 0,0 m 0.002,-0.949 0.114,-0.261 -0.261,-0.114 -0.114,0.261 z" />
          </g>
          <g
             transform="translate(483.7788,436.7356)"
             id="g418">
            <path
               inkscape:connector-curvature="0"
               id="path420"
               style="fill:#223264;fill-opacity:1;fill-rule:evenodd;stroke:none"
               d="m 0,0 c -0.344,0.349 -0.907,0.353 -1.255,0.008 -0.349,-0.344 -0.353,-0.907 -0.008,-1.256 0.344,-0.349 0.906,-0.353 1.255,-0.008 C 0.341,-0.912 0.345,-0.349 0,0 m -0.383,-0.869 -0.002,-0.284 -0.285,0.001 0.002,0.285 z" />
          </g>
          <g
             transform="translate(486.0147,437.2415)"
             id="g422">
            <path
               inkscape:connector-curvature="0"
               id="path424"
               style="fill:#223264;fill-opacity:1;fill-rule:evenodd;stroke:none"
               d="M 0,0 C 2.971,2.747 6.007,1.092 6.007,1.092 L 6.004,1.11 c 0,0 -2.259,-2.618 -6.007,-1.093 z" />
          </g>
          <g
             transform="translate(493.2531,390.5411)"
             id="g426">
            <path
               inkscape:connector-curvature="0"
               id="path428"
               style="fill:#223264;fill-opacity:1;fill-rule:evenodd;stroke:none"
               d="M 0,0 H 1.54 L -0.7,-2.803 h -1.486 z" />
          </g>
          <g
             transform="translate(492.6891,390.5411)"
             id="g430">
            <path
               inkscape:connector-curvature="0"
               id="path432"
               style="fill:#223264;fill-opacity:1;fill-rule:evenodd;stroke:none"
               d="M 0,0 H -1.54 L 0.7,-2.803 h 1.486 z" />
          </g>
          <g
             transform="translate(508.5741,405.8935)"
             id="g434">
            <path
               inkscape:connector-curvature="0"
               id="path436"
               style="fill:#223264;fill-opacity:1;fill-rule:evenodd;stroke:none"
               d="m 0,0 -1.938,-1.58 5.705,-0.883 -1.039,-1.987 -6.681,2.039 1.699,1.196 -5.78,0.065 0.788,0.702 z" />
          </g>
          <g
             transform="translate(476.4958,405.8935)"
             id="g438">
            <path
               inkscape:connector-curvature="0"
               id="path440"
               style="fill:#223264;fill-opacity:1;fill-rule:evenodd;stroke:none"
               d="m 0,0 1.939,-1.58 -5.705,-0.883 1.038,-1.987 6.681,2.039 -1.7,1.196 6.405,0.196 -1.092,0.76 z" />
          </g>
          <g
             transform="translate(489.564,435.7296)"
             id="g442">
            <path
               inkscape:connector-curvature="0"
               id="path444"
               style="fill:#223264;fill-opacity:1;fill-rule:evenodd;stroke:none"
               d="M 0,0 3.12,-1.286 2.046,5.016 H 4.85 L 4.406,-4.013 2.321,-2.265 4.864,-8.519 4.071,-8.941 Z" />
          </g>
          <g
             transform="translate(500.264,414.4219)"
             id="g446">
            <path
               inkscape:connector-curvature="0"
               id="path448"
               style="fill:#223264;fill-opacity:1;fill-rule:nonzero;stroke:none"
               d="M 0,0 V 0.003 L -0.015,0 Z" />
          </g>
          <g
             transform="translate(497.1584,402.3283)"
             id="g450">
            <path
               inkscape:connector-curvature="0"
               id="path452"
               style="fill:#223264;fill-opacity:1;fill-rule:nonzero;stroke:none"
               d="M 0,0 C 1.08,0.812 2.051,1.721 2.889,2.703 2.281,2.941 1.627,3.151 0.944,3.329 0.409,2.347 -0.22,1.363 -0.927,0.397 -0.593,0.281 -0.282,0.148 0,0" />
          </g>
          <g
             transform="translate(495.7137,406.1216)"
             id="g454">
            <path
               inkscape:connector-curvature="0"
               id="path456"
               style="fill:#223264;fill-opacity:1;fill-rule:nonzero;stroke:none"
               d="m 0,0 c -0.255,-1.031 -0.563,-2.049 -0.916,-3.028 0.343,-0.061 0.675,-0.137 0.992,-0.228 0.708,0.954 1.336,1.928 1.872,2.899 C 1.32,-0.21 0.665,-0.091 0,0" />
          </g>
          <g
             transform="translate(493.3329,410.2662)"
             id="g458">
            <path
               inkscape:connector-curvature="0"
               id="path460"
               style="fill:#223264;fill-opacity:1;fill-rule:nonzero;stroke:none"
               d="M 0,0 0.001,-3.509 C 0.689,-3.53 1.375,-3.581 2.046,-3.66 2.317,-2.502 2.527,-1.307 2.67,-0.102 1.79,-0.046 0.893,-0.013 0,0" />
          </g>
          <g
             transform="translate(497.5683,402.0891)"
             id="g462">
            <path
               inkscape:connector-curvature="0"
               id="path464"
               style="fill:#223264;fill-opacity:1;fill-rule:nonzero;stroke:none"
               d="M 0,0 0.076,-0.05 C 1.483,0.501 2.775,1.284 3.919,2.282 3.596,2.454 3.257,2.618 2.906,2.768 2.063,1.763 1.087,0.832 0,0" />
          </g>
          <g
             transform="translate(493.3349,406.3175)"
             id="g466">
            <path
               inkscape:connector-curvature="0"
               id="path468"
               style="fill:#223264;fill-opacity:1;fill-rule:nonzero;stroke:none"
               d="M 0,0 0.001,-3.064 C 0.346,-3.08 0.688,-3.111 1.022,-3.155 1.376,-2.18 1.684,-1.168 1.94,-0.141 1.303,-0.067 0.651,-0.02 0,0" />
          </g>
          <g
             transform="translate(496.0515,410.5992)"
             id="g470">
            <path
               inkscape:connector-curvature="0"
               id="path472"
               style="fill:#223264;fill-opacity:1;fill-rule:nonzero;stroke:none"
               d="M 0,0 C 0.13,1.227 0.193,2.482 0.19,3.737 L -2.721,3.763 -2.719,0.105 C -1.811,0.094 -0.898,0.059 0,0" />
          </g>
          <g
             transform="translate(500.3417,405.387)"
             id="g474">
            <path
               inkscape:connector-curvature="0"
               id="path476"
               style="fill:#223264;fill-opacity:1;fill-rule:nonzero;stroke:none"
               d="M 0,0 C 0.972,1.205 1.745,2.506 2.3,3.873 1.405,4.069 0.458,4.24 -0.52,4.382 -0.885,3.139 -1.392,1.89 -2.028,0.667 -1.314,0.479 -0.633,0.255 0,0" />
          </g>
          <g
             transform="translate(503.2332,419.2675)"
             id="g478">
            <path
               inkscape:connector-curvature="0"
               id="path480"
               style="fill:#223264;fill-opacity:1;fill-rule:nonzero;stroke:none"
               d="M 0,0 C 0.545,0.13 1.082,0.276 1.6,0.432 0.906,1.966 -0.064,3.334 -1.284,4.504 -1.589,4.328 -1.91,4.161 -2.24,4.007 -1.274,2.758 -0.521,1.412 0,0" />
          </g>
          <g
             transform="translate(496.8092,426.822)"
             id="g482">
            <path
               inkscape:connector-curvature="0"
               id="path484"
               style="fill:#223264;fill-opacity:1;fill-rule:nonzero;stroke:none"
               d="m 0,0 c -1.277,0.403 -2.606,0.607 -3.957,0.607 -1.233,0 -2.452,-0.17 -3.628,-0.508 1.032,-0.481 2.402,-0.761 3.823,-0.773 C -2.379,-0.681 -1.03,-0.441 0,0" />
          </g>
          <g
             transform="translate(504.0985,414.7073)"
             id="g486">
            <path
               inkscape:connector-curvature="0"
               id="path488"
               style="fill:#223264;fill-opacity:1;fill-rule:nonzero;stroke:none"
               d="M 0,0 1.893,-0.017 C 1.844,1.577 1.514,3.125 0.91,4.587 0.383,4.426 -0.164,4.278 -0.719,4.145 -0.271,2.805 -0.03,1.413 0,0" />
          </g>
          <g
             transform="translate(502.8029,409.6728)"
             id="g490">
            <path
               inkscape:connector-curvature="0"
               id="path492"
               style="fill:#223264;fill-opacity:1;fill-rule:nonzero;stroke:none"
               d="M 0,0 C 0.556,1.497 0.844,3.042 0.86,4.599 L -2.259,4.627 C -2.295,3.26 -2.498,1.881 -2.862,0.522 -1.869,0.376 -0.907,0.202 0,0" />
          </g>
          <g
             transform="translate(496.237,414.7759)"
             id="g494">
            <path
               inkscape:connector-curvature="0"
               id="path496"
               style="fill:#223264;fill-opacity:1;fill-rule:nonzero;stroke:none"
               d="M 0,0 C -0.015,1.007 -0.074,2.03 -0.175,3.045 -1.072,2.993 -1.99,2.964 -2.909,2.958 l 10e-4,-2.933 z" />
          </g>
          <g
             transform="translate(496.6757,414.7717)"
             id="g498">
            <path
               inkscape:connector-curvature="0"
               id="path500"
               style="fill:#223264;fill-opacity:1;fill-rule:nonzero;stroke:none"
               d="M 0,0 3.435,-0.029 C 3.436,1.124 3.313,2.278 3.071,3.404 2.023,3.26 0.932,3.151 -0.176,3.077 -0.074,2.05 -0.015,1.016 0,0" />
          </g>
          <g
             transform="translate(497.8763,406.165)"
             id="g502">
            <path
               inkscape:connector-curvature="0"
               id="path504"
               style="fill:#223264;fill-opacity:1;fill-rule:nonzero;stroke:none"
               d="M 0,0 C 0.635,1.208 1.141,2.439 1.506,3.665 0.553,3.793 -0.435,3.895 -1.435,3.968 -1.579,2.754 -1.789,1.55 -2.06,0.385 -1.354,0.288 -0.663,0.158 0,0" />
          </g>
          <g
             transform="translate(499.6476,418.6056)"
             id="g506">
            <path
               inkscape:connector-curvature="0"
               id="path508"
               style="fill:#223264;fill-opacity:1;fill-rule:nonzero;stroke:none"
               d="M 0,0 C -0.305,1.254 -0.766,2.5 -1.371,3.712 -2.132,3.515 -2.934,3.36 -3.759,3.249 -3.515,2.065 -3.325,0.866 -3.193,-0.32 -2.1,-0.248 -1.028,-0.14 0,0" />
          </g>
          <g
             transform="translate(500.7131,423.6289)"
             id="g510">
            <path
               inkscape:connector-curvature="0"
               id="path512"
               style="fill:#223264;fill-opacity:1;fill-rule:nonzero;stroke:none"
               d="M 0,0 C 0.311,0.141 0.612,0.294 0.899,0.455 -0.239,1.473 -1.522,2.274 -2.926,2.842 -1.818,1.976 -0.835,1.023 0,0" />
          </g>
          <g
             transform="translate(496.4896,410.5698)"
             id="g514">
            <path
               inkscape:connector-curvature="0"
               id="path516"
               style="fill:#223264;fill-opacity:1;fill-rule:nonzero;stroke:none"
               d="m 0,0 c 1.026,-0.076 2.039,-0.181 3.014,-0.313 0.363,1.34 0.565,2.7 0.602,4.046 L 0.19,3.763 C 0.194,2.499 0.13,1.234 0,0" />
          </g>
          <g
             transform="translate(500.5494,414.7381)"
             id="g518">
            <path
               inkscape:connector-curvature="0"
               id="path520"
               style="fill:#223264;fill-opacity:1;fill-rule:nonzero;stroke:none"
               d="M 0,0 3.111,-0.027 C 3.08,1.35 2.841,2.709 2.4,4.013 1.524,3.814 0.593,3.642 -0.368,3.5 -0.123,2.352 0.001,1.175 0,0" />
          </g>
          <g
             transform="translate(500.2941,423.447)"
             id="g522">
            <path
               inkscape:connector-curvature="0"
               id="path524"
               style="fill:#223264;fill-opacity:1;fill-rule:nonzero;stroke:none"
               d="M 0,0 C -0.907,1.093 -1.988,2.106 -3.215,3.011 -3.447,2.906 -3.695,2.812 -3.956,2.727 -3.11,1.641 -2.382,0.519 -1.789,-0.614 -1.159,-0.438 -0.559,-0.232 0,0" />
          </g>
          <g
             transform="translate(500.0842,418.6672)"
             id="g526">
            <path
               inkscape:connector-curvature="0"
               id="path528"
               style="fill:#223264;fill-opacity:1;fill-rule:nonzero;stroke:none"
               d="M 0,0 C 0.945,0.139 1.858,0.306 2.718,0.499 2.201,1.883 1.454,3.202 0.497,4.424 -0.088,4.177 -0.716,3.956 -1.376,3.768 -0.769,2.538 -0.306,1.273 0,0" />
          </g>
          <g
             transform="translate(495.3596,422.2311)"
             id="g530">
            <path
               inkscape:connector-curvature="0"
               id="path532"
               style="fill:#223264;fill-opacity:1;fill-rule:nonzero;stroke:none"
               d="M 0,0 C -0.26,1.185 -0.581,2.376 -0.953,3.544 -1.308,3.506 -1.671,3.484 -2.037,3.478 l 0.003,-3.617 C -1.35,-0.122 -0.667,-0.076 0,0" />
          </g>
          <g
             transform="translate(496.0159,418.2572)"
             id="g534">
            <path
               inkscape:connector-curvature="0"
               id="path536"
               style="fill:#223264;fill-opacity:1;fill-rule:nonzero;stroke:none"
               d="M 0,0 C -0.131,1.177 -0.32,2.366 -0.564,3.543 -1.259,3.463 -1.973,3.414 -2.69,3.397 l 10e-4,-3.482 C -1.788,-0.08 -0.886,-0.05 0,0" />
          </g>
          <g
             transform="translate(498.0699,422.718)"
             id="g538">
            <path
               inkscape:connector-curvature="0"
               id="path540"
               style="fill:#223264;fill-opacity:1;fill-rule:nonzero;stroke:none"
               d="M 0,0 C -0.597,1.126 -1.331,2.243 -2.186,3.325 -2.516,3.238 -2.863,3.167 -3.221,3.113 -2.851,1.944 -2.532,0.753 -2.273,-0.434 -1.488,-0.329 -0.725,-0.183 0,0" />
          </g>
          <g
             transform="translate(483.0918,409.3357)"
             id="g542">
            <path
               inkscape:connector-curvature="0"
               id="path544"
               style="fill:#223264;fill-opacity:1;fill-rule:nonzero;stroke:none"
               d="M 0,0 C -0.752,-0.162 -1.484,-0.348 -2.181,-0.555 -1.496,-2.04 -0.551,-3.369 0.63,-4.51 1.131,-4.243 1.669,-4 2.23,-3.788 1.295,-2.603 0.546,-1.331 0,0" />
          </g>
          <g
             transform="translate(485.6174,423.2609)"
             id="g546">
            <path
               inkscape:connector-curvature="0"
               id="path548"
               style="fill:#223264;fill-opacity:1;fill-rule:nonzero;stroke:none"
               d="M 0,0 C 0.651,-0.238 1.349,-0.443 2.077,-0.613 2.691,0.577 3.456,1.759 4.353,2.905 4.023,3.008 3.713,3.126 3.428,3.259 2.102,2.282 0.949,1.187 0,0" />
          </g>
          <g
             transform="translate(488.5986,405.9817)"
             id="g550">
            <path
               inkscape:connector-curvature="0"
               id="path552"
               style="fill:#223264;fill-opacity:1;fill-rule:nonzero;stroke:none"
               d="m 0,0 c 0.546,-0.985 1.189,-1.976 1.915,-2.948 0.286,0.06 0.583,0.109 0.884,0.145 C 2.442,-1.814 2.132,-0.788 1.872,0.252 1.237,0.193 0.609,0.109 0,0" />
          </g>
          <g
             transform="translate(485.6133,405.1884)"
             id="g554">
            <path
               inkscape:connector-curvature="0"
               id="path556"
               style="fill:#223264;fill-opacity:1;fill-rule:nonzero;stroke:none"
               d="m 0,0 c -0.544,-0.2 -1.064,-0.427 -1.551,-0.679 1.173,-1.056 2.508,-1.883 3.972,-2.461 0.161,0.112 0.338,0.218 0.526,0.316 C 1.843,-1.973 0.852,-1.024 0,0" />
          </g>
          <g
             transform="translate(486.0562,405.3423)"
             id="g558">
            <path
               inkscape:connector-curvature="0"
               id="path560"
               style="fill:#223264;fill-opacity:1;fill-rule:nonzero;stroke:none"
               d="m 0,0 c 0.855,-1.006 1.848,-1.937 2.954,-2.769 0.319,0.134 0.668,0.252 1.039,0.35 C 3.271,-1.438 2.631,-0.439 2.089,0.553 1.359,0.404 0.658,0.218 0,0" />
          </g>
          <g
             transform="translate(485.7266,414.4289)"
             id="g562">
            <path
               inkscape:connector-curvature="0"
               id="path564"
               style="fill:#223264;fill-opacity:1;fill-rule:nonzero;stroke:none"
               d="m 0,0 -3.251,0.028 c 0.017,-1.562 0.316,-3.112 0.888,-4.616 0.944,0.193 1.942,0.355 2.97,0.485 C 0.236,-2.74 0.031,-1.361 0,0" />
          </g>
          <g
             transform="translate(480.7026,419.3109)"
             id="g566">
            <path
               inkscape:connector-curvature="0"
               id="path568"
               style="fill:#223264;fill-opacity:1;fill-rule:nonzero;stroke:none"
               d="m 0,0 c -0.579,-1.396 -0.907,-2.873 -0.98,-4.392 l 2.316,-0.02 c 0.029,1.324 0.249,2.634 0.655,3.896 C 1.307,-0.362 0.639,-0.189 0,0" />
          </g>
          <g
             transform="translate(485.1879,423.4261)"
             id="g570">
            <path
               inkscape:connector-curvature="0"
               id="path572"
               style="fill:#223264;fill-opacity:1;fill-rule:nonzero;stroke:none"
               d="M 0,0 C 0.94,1.196 2.079,2.302 3.39,3.291 1.699,2.71 0.115,1.767 -1.21,0.554 -0.825,0.353 -0.419,0.166 0,0" />
          </g>
          <g
             transform="translate(492.899,402.825)"
             id="g574">
            <path
               inkscape:connector-curvature="0"
               id="path576"
               style="fill:#223264;fill-opacity:1;fill-rule:nonzero;stroke:none"
               d="m 0,0 c -1.412,0.017 -2.772,-0.234 -3.827,-0.701 l -0.067,-0.088 -0.05,0.035 c -0.142,-0.067 -0.277,-0.139 -0.405,-0.213 1.381,-0.478 2.827,-0.72 4.302,-0.72 1.465,0 2.901,0.237 4.272,0.709 -0.341,0.196 -0.732,0.367 -1.169,0.509 L 3.029,-0.504 2.922,-0.425 C 2.045,-0.155 1.035,-0.008 0,0" />
          </g>
          <g
             transform="translate(501.8311,404.6817)"
             id="g578">
            <path
               inkscape:connector-curvature="0"
               id="path580"
               style="fill:#223264;fill-opacity:1;fill-rule:nonzero;stroke:none"
               d="M 0,0 C 1.235,1.156 2.221,2.512 2.934,4.035 2.386,4.196 1.819,4.346 1.245,4.479 0.686,3.087 -0.091,1.759 -1.068,0.529 -0.699,0.365 -0.341,0.189 0,0" />
          </g>
          <g
             transform="translate(504.9452,409.1202)"
             id="g582">
            <path
               inkscape:connector-curvature="0"
               id="path584"
               style="fill:#223264;fill-opacity:1;fill-rule:nonzero;stroke:none"
               d="M 0,0 C 0.695,1.626 1.049,3.351 1.053,5.132 L -0.844,5.148 C -0.86,3.558 -1.151,1.981 -1.711,0.455 -1.129,0.318 -0.554,0.165 0,0" />
          </g>
          <g
             transform="translate(482.0368,414.4598)"
             id="g586">
            <path
               inkscape:connector-curvature="0"
               id="path588"
               style="fill:#223264;fill-opacity:1;fill-rule:nonzero;stroke:none"
               d="m 0,0 -2.329,0.021 -0.002,-0.197 c 0,-1.768 0.345,-3.482 1.026,-5.098 0.703,0.21 1.44,0.399 2.198,0.564 C 0.316,-3.175 0.017,-1.592 0,0" />
          </g>
          <g
             transform="translate(492.5192,418.1733)"
             id="g590">
            <path
               inkscape:connector-curvature="0"
               id="path592"
               style="fill:#223264;fill-opacity:1;fill-rule:nonzero;stroke:none"
               d="M 0,0 0.369,-0.001 0.368,3.474 H 0.015 C -0.607,3.48 -1.233,3.511 -1.85,3.564 -2.085,2.408 -2.266,1.236 -2.39,0.076 -1.603,0.032 -0.8,0.007 0,0" />
          </g>
          <g
             transform="translate(492.8004,406.3286)"
             id="g594">
            <path
               inkscape:connector-curvature="0"
               id="path596"
               style="fill:#223264;fill-opacity:1;fill-rule:nonzero;stroke:none"
               d="m 0,0 c -0.634,0.006 -1.268,-0.015 -1.886,-0.059 0.26,-1.035 0.574,-2.057 0.933,-3.045 0.348,0.03 0.7,0.042 1.05,0.04 l -0.001,3.063 z" />
          </g>
          <g
             transform="translate(486.5164,418.1326)"
             id="g598">
            <path
               inkscape:connector-curvature="0"
               id="path600"
               style="fill:#223264;fill-opacity:1;fill-rule:nonzero;stroke:none"
               d="m 0,0 c -0.232,-1.076 -0.351,-2.174 -0.356,-3.27 l 3.328,-0.028 c 0.011,0.992 0.064,2.001 0.159,3.003 C 2.069,-0.229 1.017,-0.13 0,0" />
          </g>
          <g
             transform="translate(483.1247,418.7008)"
             id="g602">
            <path
               inkscape:connector-curvature="0"
               id="path604"
               style="fill:#223264;fill-opacity:1;fill-rule:nonzero;stroke:none"
               d="m 0,0 c -0.401,-1.233 -0.619,-2.512 -0.647,-3.806 l 3.245,-0.028 c 0.004,1.113 0.124,2.229 0.357,3.323 C 1.932,-0.371 0.939,-0.2 0,0" />
          </g>
          <g
             transform="translate(487.9324,422.1457)"
             id="g606">
            <path
               inkscape:connector-curvature="0"
               id="path608"
               style="fill:#223264;fill-opacity:1;fill-rule:nonzero;stroke:none"
               d="m 0,0 c -0.58,-1.174 -1.023,-2.379 -1.317,-3.583 0.998,-0.126 2.031,-0.223 3.075,-0.289 0.124,1.167 0.305,2.345 0.54,3.507 C 1.514,-0.283 0.742,-0.159 0,0" />
          </g>
          <g
             transform="translate(490.3203,422.2115)"
             id="g610">
            <path
               inkscape:connector-curvature="0"
               id="path612"
               style="fill:#223264;fill-opacity:1;fill-rule:nonzero;stroke:none"
               d="M 0,0 C 0.261,1.22 0.587,2.446 0.968,3.648 0.674,3.695 0.386,3.756 0.107,3.825 -0.795,2.689 -1.564,1.518 -2.181,0.339 -1.476,0.192 -0.744,0.078 0,0" />
          </g>
          <g
             transform="translate(492.5374,422.087)"
             id="g614">
            <path
               inkscape:connector-curvature="0"
               id="path616"
               style="fill:#223264;fill-opacity:1;fill-rule:nonzero;stroke:none"
               d="M 0,0 H 0.349 L 0.347,3.624 C -0.041,3.634 -0.429,3.662 -0.809,3.708 -1.19,2.516 -1.516,1.297 -1.778,0.083 -1.189,0.032 -0.591,0.006 0,0" />
          </g>
          <g
             transform="translate(483.6417,423.6611)"
             id="g618">
            <path
               inkscape:connector-curvature="0"
               id="path620"
               style="fill:#223264;fill-opacity:1;fill-rule:nonzero;stroke:none"
               d="m 0,0 c -1.163,-1.142 -2.092,-2.468 -2.763,-3.946 0.628,-0.183 1.284,-0.352 1.957,-0.503 0.482,1.35 1.18,2.644 2.076,3.851 C 0.829,-0.417 0.403,-0.216 0,0" />
          </g>
          <g
             transform="translate(485.3355,422.8971)"
             id="g622">
            <path
               inkscape:connector-curvature="0"
               id="path624"
               style="fill:#223264;fill-opacity:1;fill-rule:nonzero;stroke:none"
               d="m 0,0 c -0.892,-1.182 -1.587,-2.453 -2.067,-3.779 0.925,-0.195 1.902,-0.363 2.909,-0.498 0.294,1.22 0.736,2.438 1.315,3.625 C 1.399,-0.472 0.675,-0.252 0,0" />
          </g>
          <g
             transform="translate(489.9249,414.3911)"
             id="g626">
            <path
               inkscape:connector-curvature="0"
               id="path628"
               style="fill:#223264;fill-opacity:1;fill-rule:nonzero;stroke:none"
               d="m 0,0 c 0.001,-1.255 0.07,-2.512 0.205,-3.74 0.914,0.043 1.843,0.063 2.764,0.057 l -0.002,3.658 z" />
          </g>
          <g
             transform="translate(492.515,417.7353)"
             id="g630">
            <path
               inkscape:connector-curvature="0"
               id="path632"
               style="fill:#223264;fill-opacity:1;fill-rule:nonzero;stroke:none"
               d="M 0,0 C -0.808,0.007 -1.625,0.032 -2.43,0.076 -2.524,-0.917 -2.577,-1.918 -2.588,-2.905 L 0.376,-2.93 0.374,-0.003 Z" />
          </g>
          <g
             transform="translate(489.4857,414.3953)"
             id="g634">
            <path
               inkscape:connector-curvature="0"
               id="path636"
               style="fill:#223264;fill-opacity:1;fill-rule:nonzero;stroke:none"
               d="m 0,0 -3.32,0.029 c 0.032,-1.341 0.237,-2.701 0.608,-4.045 0.946,0.111 1.926,0.195 2.918,0.249 C 0.071,-2.53 0.001,-1.265 0,0" />
          </g>
          <g
             transform="translate(490.1811,410.2145)"
             id="g638">
            <path
               inkscape:connector-curvature="0"
               id="path640"
               style="fill:#223264;fill-opacity:1;fill-rule:nonzero;stroke:none"
               d="m 0,0 c 0.146,-1.188 0.357,-2.368 0.627,-3.512 0.655,0.047 1.326,0.07 1.996,0.064 H 2.714 L 2.712,0.056 C 1.806,0.06 0.895,0.042 0,0" />
          </g>
          <g
             transform="translate(486.8978,409.9527)"
             id="g642">
            <path
               inkscape:connector-curvature="0"
               id="path644"
               style="fill:#223264;fill-opacity:1;fill-rule:nonzero;stroke:none"
               d="m 0,0 c 0.36,-1.188 0.858,-2.386 1.481,-3.565 0.645,0.12 1.313,0.212 1.988,0.277 C 3.2,-2.138 2.99,-0.953 2.844,0.239 1.878,0.186 0.922,0.106 0,0" />
          </g>
          <g
             transform="translate(486.4556,409.8995)"
             id="g646">
            <path
               inkscape:connector-curvature="0"
               id="path648"
               style="fill:#223264;fill-opacity:1;fill-rule:nonzero;stroke:none"
               d="m 0,0 c -1.014,-0.126 -1.997,-0.285 -2.927,-0.473 0.545,-1.308 1.295,-2.559 2.229,-3.722 0.683,0.234 1.412,0.434 2.173,0.593 C 0.854,-2.411 0.359,-1.201 0,0" />
          </g>
        </g>
      </g>
    </g>
  </g>
</svg>
