<svg
    xmlns="http://www.w3.org/2000/svg"
    id="Layer_1"
    viewBox="0 0 2460.99 750.03"
>
    <path
    class="cls-2"
    d="m818.49,283.6c105,0,159.32,54.32,159.32,54.32l-38.62,57.95s-45.88-41.02-114.08-41.02c-95.93,0-147.25,66.39-147.25,147.25,0,92.93,63.35,153.28,143.62,153.28,64.57,0,107.41-44.65,107.41-44.65v-50.1h-65.75v-66.98h135.77v225.71h-66.39v-20.51c0-9.03.59-18.11.59-18.11h-1.23s-44.65,45.88-124.29,45.88c-112.85,0-210.01-87.49-210.01-222.08,0-124.29,93.52-220.85,220.85-220.85l.05-.1Z"
    />
    <path
    class="cls-2"
    d="m1315.68,279.72c104.41,0,158.09,58.54,158.09,58.54l-37.39,57.95s-48.87-45.24-117.07-45.24c-90.53,0-143.62,67.56-143.62,147.25s54.91,153.28,144.21,153.28c74.24,0,124.29-54.32,124.29-54.32l41.02,56.13s-59.13,69.38-168.35,69.38c-130.96,0-221.49-97.15-221.49-223.25s94.11-219.67,220.26-219.67l.05-.05Z"
    />
    <polygon
    class="cls-2"
    points="1846.19 294.69 1846.19 476.34 1650.07 476.34 1650.07 294.69 1572.25 294.69 1572.25 723.14 1650.07 723.14 1650.07 543.31 1846.19 543.31 1846.19 723.14 1924.06 723.14 1924.06 294.69 1846.19 294.69"
    />
    <polygon
    class="cls-2"
    points="1924.06 723.14 1846.19 723.14 1846.19 543.31 1650.07 543.31 1650.07 723.14 1572.25 723.14 1572.25 294.69 1650.07 294.69 1650.07 476.34 1846.19 476.34 1846.19 294.69 1924.06 294.69 1924.06 723.14"
    />
    <path
    class="cls-2"
    d="m2273.56,283.65l-.64-.1.1,73.06.64.15-.1-.05c3.68.93,7.31,2.01,10.84,3.19,2.06.74,4.07,1.52,6.08,2.31l1.72.69c26.84,11.24,49.46,31.01,65.11,56.72l-.05.05c3.24,5.35,6.13,10.99,8.78,16.78.59,1.32,1.18,2.65,1.77,4.02.98,2.36,1.96,4.76,2.8,7.21.69,1.91,1.28,3.83,1.91,5.74.93,2.89,1.82,5.89,2.6,8.88.79,3.14,1.57,6.28,2.16,9.47.34,1.77.64,3.58.88,5.45.49,2.99.93,5.99,1.23,9.03.2,1.62.39,3.29.49,4.96.29,3.93.49,7.9.54,11.92-.05,4.02-.2,8.05-.54,11.97-.15,1.67-.29,3.29-.49,4.96-.29,3.04-.74,6.08-1.23,9.03-.29,1.82-.54,3.63-.88,5.4-.64,3.24-1.37,6.38-2.16,9.47-.79,3.04-1.67,5.99-2.6,8.88-.59,1.91-1.23,3.88-1.91,5.74-.88,2.45-1.82,4.86-2.8,7.21-.54,1.32-1.18,2.7-1.77,4.02-2.6,5.84-5.5,11.48-8.78,16.78l.05.05c-1.18,1.91-2.45,3.73-3.68,5.59l-66.93-66.93-47.1,47.1,64.92,64.92c-4.02,2.21-8.1,4.22-12.32,6.04l-1.72.69c-2.01.79-4.02,1.62-6.08,2.31-3.58,1.18-7.16,2.26-10.84,3.19v.05c-10.84,2.8-22.23,4.27-33.95,4.27s-23.11-1.52-33.95-4.27v-.05c-3.68-.93-7.31-2.01-10.89-3.19-2.06-.74-4.07-1.52-6.08-2.31l-1.72-.69c-4.22-1.77-8.29-3.83-12.32-6.04l-54.42,54.42c18.74,11.58,39.45,20.56,61.73,26.2l1.08.29c3.43.83,6.92,1.52,10.4,2.21,3.48.69,6.92,1.42,10.5,1.96l1.67.29v-.1c11.04,1.62,22.37,2.6,33.95,2.6s22.91-.98,33.95-2.6v.1l1.67-.29c3.53-.54,7.02-1.28,10.5-1.96,3.48-.69,6.97-1.37,10.4-2.21l1.08-.29c22.33-5.64,42.98-14.62,61.73-26.2l47.64,47.69,47.15-47.1-44.16-44.16c32.29-38.08,51.47-87.58,51.47-142.64v-.15h0l-.1-2.31.1-2.31h0v-.15c0-103.73-67.61-188.12-163.88-212.46l-1.08-.29c-3.39-.83-6.92-1.52-10.4-2.21-3.48-.69-6.97-1.42-10.5-1.96l-1.67-.2.1.15Z"
    />
    <path
    class="cls-2"
    d="m2206.29,356.66v-73.06l-.64.1-1.67.2c-3.53.54-7.02,1.28-10.5,1.96-3.48.69-6.97,1.37-10.4,2.21l-1.08.29c-96.27,24.29-163.88,108.68-163.88,212.46v.15l.1,2.31-.1,2.31v.15c0,55.05,19.19,104.56,51.47,142.64l55.94-55.94c-1.28-1.86-2.55-3.68-3.68-5.59l.05-.05c-3.24-5.35-6.13-10.99-8.78-16.78-.59-1.32-1.18-2.65-1.77-4.02-.98-2.36-1.96-4.76-2.85-7.21-.69-1.86-1.28-3.83-1.91-5.74-.93-2.94-1.82-5.89-2.6-8.88-.79-3.14-1.57-6.28-2.16-9.47-.34-1.77-.64-3.58-.93-5.4-.49-2.99-.88-5.99-1.23-9.03-.2-1.67-.39-3.29-.49-4.96-.29-3.93-.49-7.9-.54-11.97.05-4.02.2-8,.54-11.92.15-1.67.29-3.34.49-4.96.29-3.04.74-6.08,1.23-9.03.29-1.82.59-3.63.93-5.45.59-3.19,1.37-6.38,2.16-9.47.79-2.99,1.62-5.99,2.6-8.88.59-1.91,1.23-3.88,1.91-5.74.88-2.45,1.82-4.86,2.85-7.21.54-1.37,1.18-2.7,1.77-4.02,2.65-5.79,5.5-11.43,8.78-16.78l-.05-.05c15.65-25.66,38.27-45.48,65.11-56.72l1.72-.69c2.01-.79,4.02-1.62,6.08-2.31,3.58-1.18,7.21-2.26,10.89-3.19l.64-.15v-.1Z"
    />
    <path
    class="cls-1"
    d="m342.94,311.91c-2.21-2.21-5.39-2.81-8.16-1.84-7.09-20.7-20.82-33.99-59.7-32.41,4.53,6.74,8.49,12.2,12.73,16.72-11.7-2.58-21.53.11-26.36,1.94l.92-18.8h-24.97l3.66,21.47v.06s.01.01.01.01l5.9,34.64-23.63-9.75c2.43-1.16,4.95-2.44,7.58-3.84-5.61-3.34-10.47-6-15.28-7.86,15.41-2.59,24.45-12.29,25.32-13.26-1.33-.68-13.71-6.78-29.51-3.27,4.26-4.52,8.24-10.01,12.8-16.78-38.87-1.59-52.61,11.7-59.69,32.4-2.76-.96-5.97-.35-8.17,1.85-3.09,3.09-3.14,8.09-.1,11.19,3.09,3.09,8.1,3.14,11.19.04.41-.41.76-.85,1.05-1.31,10.74,10.69,25.15,14.24,52,2.14l32.36,71.04c-1.46-.05-2.93-.08-4.4-.08-10.99,0-21.84,1.52-32.34,4.51,9.23,4.32,21.44,6.77,34.1,6.92,12.32.05,24.34-2.11,33.52-5.98v-.05c-7.09-2.23-14.35-3.77-21.73-4.63l-22.19-54.55,18.6,15.56,2.8-57.56c3.9,3.34,11.55,8.67,22.34,10.5-4.79,1.87-9.64,4.52-15.23,7.85,33.66,17.99,50.33,15,62.38,3.01.3.48.68.94,1.11,1.36h-.05c3.09,3.09,8.1,3.04,11.19-.05,3.09-3.09,3.04-8.1-.05-11.19Zm-178.8,11.63h-2.55v-2.55h2.55v2.55Zm94.11-25.81l.05-.14s.02.03.07.08c-.08.04-.12.06-.12.06Zm79.44,24.49h-2.55v-2.55h2.55v2.55Z"
    />
    <path
    class="cls-1"
    d="m371.66,683.8c17.15-15.08,21.19-27.83,25.2-51.43-38.71,15.6-47.48,34.5-46.1,57.52-.34-.05-.69-.07-1.05-.07-4.37,0-7.9,3.54-7.9,7.9s3.53,7.9,7.9,7.9c3.17,0,5.89-1.86,7.15-4.54,24.47,10.12,47.33,8.42,76.56-28.23-25.96-3.22-40.33-2.88-61.76,10.95Zm-23.71,12.65l-1.82-1.82,1.82-1.81,1.81,1.81-1.81,1.82Z"
    />
    <path
    class="cls-1"
    d="m303.2,722.81c16.14-10.33,22.14-21.56,29.88-41.67-40.19,7.41-52.13,23.93-55.15,46.36-.26-.03-.52-.04-.79-.04-4.36,0-7.9,3.53-7.9,7.9s3.54,7.95,7.9,7.95c2.83,0,5.31-1.49,6.7-3.74,21.31,13.3,43.57,14.89,77.89-14.37-23.37-7.58-37.21-10.12-58.53-2.39Zm-27.82,11.27l-1.82-1.81,1.82-1.77,1.81,1.77-1.81,1.81Z"
    />
    <path
    class="cls-1"
    d="m437.75,615.08c5.21-14.61,3.96-26.85.13-45.66-15.78,14.72-23.7,27.38-26.32,39.07l-40.21-6.25,17.27-14.08-52.76,3.28c7.64-8.51,13.96-18.04,18.81-28.45-4.91-1.43-9.96-2.75-15.07-3.98-4.95,12.42-11.92,24.24-20.6,35.23.59.27,1.18.54,1.77.81l-3.24,2.87c-.37-.17-.75-.33-1.13-.49-7.51,8.93-16.2,17.22-25.91,24.68l.69.44c12.56-4.9,24.09-11.87,34.24-20.8-2.18-1.15-4.42-2.27-6.74-3.32l9.05.1,1.2.02,39.57.45-15.11,10.65,58.33,17.84c.87,3.76,2.2,7.48,3.87,11.2-.33.13-.65.28-.96.45-3.83,2.16-5.15,6.97-3.05,10.79,2.11,3.83,6.97,5.16,10.8,3.05,2.34-1.32,3.74-3.63,3.99-6.1,29.56-1.51,51.91-14.23,64.11-65.3-24.95,8.19-39.13,14.83-52.73,33.5Zm-21.41,30.68l-2.45-.68.69-2.46,2.45.69-.69,2.45Z"
    />
    <path
    class="cls-1"
    d="m491.22,480.9c-15.73,18.66-23.39,30.58-24.17,52.26-3.71-21.23-12.6-31.98-30-48.29-8.85,43.29,2.67,62.06,23.79,74.27-2.78,2.33-3.65,6.38-1.91,9.74,2.02,3.87,6.82,5.34,10.7,3.33,3.88-2.06,5.35-6.82,3.34-10.69-.06-.12-.12-.23-.19-.34,23.11-15.44,34.92-35.52,18.44-80.28Zm-27.43,83.95l-2.4-.73.73-2.41,2.41.74-.74,2.4Z"
    />
    <path
    class="cls-1"
    d="m472.17,473.55c15.75-20.71,20.05-42.58-7.64-79.01-10.63,27.45-13.07,41.25.62,73.03-12.64-25.01-24.34-31.19-51.31-39.81,5.89,36.39,23.75,46.51,48.76,48.81-1.8,2.77-1.74,6.5.41,9.24,2.7,3.43,7.7,4.02,11.09,1.32,3.43-2.7,4.02-7.7,1.32-11.14-.88-1.12-2.01-1.94-3.25-2.44Zm-5.14,7.4l-2.5-.3.29-2.5,2.5.3-.29,2.5Z"
    />
    <path
    class="cls-1"
    d="m444.95,410.68c-.71-.24-1.43-.38-2.15-.41,6.56-25.22,2.23-47.03-37.4-69.85.6,20.74,2.34,33.61,12.11,47.83-11.27-8.36-21.7-9.78-37.92-10.05,18.9,37.54,36.02,43.54,55.04,38.37-.8,3.83,1.37,7.77,5.17,9.08,4.12,1.42,8.63-.79,10.06-4.91,1.42-4.12-.79-8.63-4.91-10.06Zm-4.37,8.69l-2.25,1.13-1.13-2.31,2.25-1.13,1.13,2.26v.05Z"
    />
    <path
    class="cls-1"
    d="m396.57,350.77c-1.46-3.68-5.33-5.68-9.07-4.82,1.29-20.82-6.81-37.62-44.66-50.82,5.54,25.38,10.67,36.1,39.92,53.97-.02.02-.03.04-.04.06-30.05-16.56-41.09-15.47-63.63-7.07,30.33,25.82,47.62,24.97,62.54,13.83.06.21.14.43.22.64,1.57,4.08,6.18,6.09,10.26,4.47,4.07-1.62,6.08-6.18,4.46-10.26Zm-7.95,5.06h-.02s-1.01,2.3-1.01,2.3l-2.3-1.03,1.03-2.3,2.28,1.02.02-.04v.05Z"
    />
    <path
    class="cls-1"
    d="m258.37,297.67c-.08.04-.12.06-.12.06l.05-.14s.02.03.07.08Z"
    />
    <path
    class="cls-1"
    d="m62.28,486.2c-17.4,16.34-26.28,27.07-30,48.28-.77-21.7-8.44-33.63-24.17-52.31-5.4,14.72-7.8,26.75-7.7,36.85.18,20.62,10.62,33.09,26.16,43.45-.07.12-.14.24-.21.37-2.01,3.88-.54,8.64,3.34,10.7,3.87,2.01,8.63.54,10.7-3.34,1.74-3.36.87-7.37-1.91-9.73,21.12-12.22,32.64-30.99,23.79-74.27Zm-26.74,79.98l-.74-2.46,2.41-.73.73,2.4-2.4.79Z"
    />
    <path
    class="cls-1"
    d="m116.55,350.47s0-.02-.02-.03c29.29-17.88,34.42-28.6,39.96-53.98-37.86,13.2-45.92,30.01-44.65,50.83-3.75-.9-7.66,1.11-9.13,4.81-1.62,4.07.39,8.63,4.46,10.25,4.08,1.62,8.69-.39,10.26-4.46.09-.24.18-.47.25-.71,14.92,11.15,32.21,12.02,62.56-13.82-22.56-8.41-33.64-9.48-63.69,7.11Zm-4.86,8.94l-1.03-2.31,2.3-1.03,1.04,2.31-2.31,1.03Z"
    />
    <path
    class="cls-1"
    d="m149.57,691.15c-.34,0-.67.02-1,.06,1.39-23.04-7.37-41.95-46.11-57.57,4.05,23.81,8.13,36.55,25.67,51.81-21.71-14.15-36.1-14.53-62.27-11.28,29.23,36.65,52.08,38.35,76.55,28.23,1.26,2.69,3.99,4.55,7.16,4.55,4.37,0,7.9-3.53,7.9-7.9s-3.53-7.9-7.9-7.9Zm1.76,6.62l-1.81-1.81,1.81-1.82,1.82,1.82-1.82,1.81Z"
    />
    <path
    class="cls-1"
    d="m222.14,728.73c-.25,0-.49.01-.74.03-3.04-22.4-15-38.89-55.15-46.3,7.72,20.05,13.71,31.28,29.76,41.59-21.28-7.69-35.12-5.15-58.46,2.43,34.33,29.26,56.59,27.66,77.9,14.36,1.4,2.22,3.87,3.69,6.69,3.69,4.37,0,7.9-3.53,7.9-7.9s-3.53-7.9-7.9-7.9Zm1.76,6.63l-1.81-1.82,1.81-1.81,1.82,1.81-1.82,1.82Z"
    />
    <path
    class="cls-1"
    d="m85.49,429.08c-27.21,8.72-38.92,14.94-51.71,40.64,14.08-32.37,11.69-46.17.97-73.85-27.68,36.4-23.4,58.27-7.67,78.98-1.22.5-2.33,1.31-3.22,2.42-2.7,3.43-2.11,8.44,1.32,11.14,3.44,2.69,8.39,2.11,11.14-1.33,2.14-2.71,2.21-6.42.45-9.18,24.99-2.31,42.83-12.44,48.72-48.82Zm-53.24,53.14l-.29-2.5,2.5-.29.29,2.5-2.5.29Z"
    />
    <path
    class="cls-1"
    d="m81.74,389.58c9.8-14.24,11.54-27.11,12.14-47.88-39.64,22.83-43.96,44.64-37.4,69.85-.68.04-1.37.18-2.05.41h-.05c-4.12,1.42-6.33,5.89-4.91,10.06,1.43,4.12,5.89,6.33,10.06,4.91,3.8-1.32,5.97-5.21,5.21-9.07,19,5.16,36.11-.86,55-38.38-16.25.27-26.7,1.7-38,10.1Zm-20.74,32.19l-2.25-1.13,1.12-2.25,2.26,1.13-1.13,2.25Z"
    />
    <path
    class="cls-1"
    d="m241.07,299.05s-.05-.02-.11-.06c.05-.05.07-.08.07-.08l.03.08v.06Z"
    />
    <polygon
    class="cls-1"
    points="266.49 750.03 253.25 750.03 249.52 745.36 245.79 750.03 232.54 750.03 242.77 736.9 233.28 725.01 247.02 725.01 249.52 728.22 252.02 725.01 265.76 725.01 256.27 736.9 266.49 750.03"
    />
    <path
    class="cls-1"
    d="m258.37,297.67c-.08.04-.12.06-.12.06l.05-.14s.02.03.07.08Z"
    />
    <path
    class="cls-2"
    d="m286.85,619.95c9.62-7.21,18.25-15.36,25.76-24.09-5.45-2.11-11.24-3.97-17.32-5.59-4.76,8.73-10.35,17.52-16.68,26.15,2.99,1.03,5.74,2.21,8.24,3.53Z"
    />
    <path
    class="cls-2"
    d="m273.95,586.15c-2.26,9.18-5,18.25-8.15,26.99,3.04.54,6.04,1.23,8.83,2.01,6.33-8.49,11.92-17.17,16.68-25.86-5.59-1.32-11.43-2.36-17.37-3.19v.05Z"
    />
    <path
    class="cls-2"
    d="m252.75,549.2v31.26c6.13.2,12.27.64,18.2,1.32,2.4-10.3,4.32-21,5.54-31.7-7.85-.49-15.85-.79-23.8-.93l.05.05Z"
    />
    <path
    class="cls-2"
    d="m252.75,584.38v27.33c3.09.15,6.13.39,9.08.79,3.14-8.68,5.89-17.71,8.19-26.89-5.69-.64-11.48-1.08-17.32-1.28l.05.05Z"
    />
    <path
    class="cls-2"
    d="m276.99,546.26c1.13-10.94,1.72-22.13,1.67-33.32l-25.96-.25v32.63c8.1.1,16.24.39,24.24.93h.05Z"
    />
    <path
    class="cls-2"
    d="m315.21,592.67c8.68-10.75,15.55-22.33,20.51-34.49-8-1.77-16.44-3.29-25.12-4.56-3.24,11.09-7.75,22.23-13.44,33.12,6.38,1.67,12.41,3.68,18.06,5.94Z"
    />
    <path
    class="cls-2"
    d="m340.97,468.98c4.86-1.18,9.67-2.45,14.28-3.88-6.18-13.69-14.82-25.86-25.71-36.31-2.75,1.57-5.59,3.04-8.54,4.42,8.59,11.14,15.31,23.16,19.97,35.72v.05Z"
    />
    <path
    class="cls-2"
    d="m348.73,509.6l16.88.15c-.44-14.23-3.39-28.02-8.73-41.02-4.71,1.42-9.57,2.75-14.52,3.93,3.97,11.92,6.13,24.34,6.43,36.95h-.05Z"
    />
    <path
    class="cls-2"
    d="m337.15,554.5c4.96-13.35,7.51-27.13,7.65-41.02l-27.82-.25c-.34,12.17-2.11,24.48-5.35,36.6,8.83,1.28,17.42,2.85,25.51,4.66Z"
    />
    <path
    class="cls-2"
    d="m278.61,509.01c-.15-8.98-.64-18.11-1.57-27.13-8,.44-16.19.74-24.39.79v26.15l25.91.25.05-.05Z"
    />
    <path
    class="cls-2"
    d="m282.54,509.06l30.62.25c0-10.25-1.08-20.56-3.24-30.62-9.32,1.28-19.04,2.26-28.95,2.89.93,9.18,1.42,18.4,1.57,27.43v.05Z"
    />
    <path
    class="cls-2"
    d="m293.23,585.75c5.64-10.75,10.16-21.74,13.44-32.68-8.49-1.13-17.32-2.06-26.2-2.7-1.28,10.84-3.14,21.54-5.59,31.94,6.28.83,12.46,2.01,18.35,3.43Z"
    />
    <path
    class="cls-2"
    d="m309.03,474.86c-2.7-11.19-6.82-22.28-12.22-33.07-6.77,1.77-13.93,3.14-21.29,4.12,2.16,10.55,3.88,21.25,5.05,31.8,9.76-.64,19.28-1.62,28.46-2.85Z"
    />
    <path
    class="cls-2"
    d="m318.55,430.07c2.75-1.28,5.45-2.6,8-4.07-10.16-9.08-21.59-16.19-34.1-21.29,9.86,7.7,18.65,16.19,26.1,25.32v.05Z"
    />
    <path
    class="cls-2"
    d="m280.87,546.5c9.13.69,18.15,1.62,26.89,2.8,3.24-11.92,5.05-24.09,5.35-36.06l-30.52-.25c.05,11.24-.54,22.52-1.72,33.51Z"
    />
    <path
    class="cls-2"
    d="m317.08,509.36l27.72.25c-.29-12.27-2.4-24.39-6.33-36.01-7.8,1.77-16.09,3.29-24.68,4.56,2.21,10.21,3.29,20.71,3.29,31.21Z"
    />
    <path
    class="cls-2"
    d="m314.82,431.68c-8.1-9.76-17.71-18.79-28.65-26.84-2.06.93-4.27,1.77-6.62,2.55,7.56,9.67,14.03,19.68,19.33,29.78,5.59-1.57,10.94-3.39,15.95-5.5Z"
    />
    <path
    class="cls-2"
    d="m312.91,474.32c8.44-1.23,16.54-2.75,24.24-4.47-4.61-12.32-11.29-24.09-19.82-34.98-5.2,2.21-10.79,4.17-16.68,5.84,5.4,10.94,9.52,22.23,12.27,33.61Z"
    />
    <path
    class="cls-2"
    d="m270.81,442.53c-2.31-10.55-5.2-21.2-8.49-31.6-3.14.34-6.38.54-9.67.59v32.24c6.08-.15,12.22-.54,18.15-1.23Z"
    />
    <path
    class="cls-2"
    d="m276.65,477.95c-1.18-10.5-2.85-21.1-5-31.6-6.18.74-12.56,1.13-18.94,1.28v31.06c8.05-.05,16.09-.29,23.94-.74Z"
    />
    <path
    class="cls-2"
    d="m294.95,438.21c-5.3-10.06-11.87-19.97-19.48-29.64-2.94.79-6.04,1.42-9.22,1.86,3.29,10.4,6.13,21.05,8.44,31.6,7.02-.93,13.79-2.26,20.26-3.88v.05Z"
    />
    <path
    class="cls-2"
    d="m183.92,594.44c-1.76.64-3.49,1.32-5.18,2.03l-3.75-2.62-4.86-3.39-10.23-.35-57.24-1.95,17.27,14.08-32.84,5.1c-3.12-11.01-11-22.93-25.69-36.65-3.83,18.84-5.09,31.1.15,45.75-13.6-18.69-27.78-25.33-52.75-33.53,12.2,51.09,34.57,63.79,64.14,65.29.25,2.47,1.67,4.78,4.01,6.1,3.83,2.11,8.64.79,10.79-3.04,2.16-3.83.79-8.64-3.04-10.8-.33-.18-.67-.34-1.02-.47,2.26-5.03,3.89-10.05,4.62-15.18l49.59-15.16-15.11-10.65,44.26-1.37h.15l9.52-.29c-2.27,1-4.48,2.05-6.63,3.13,10.45,9.43,22.37,16.79,35.38,21.94,1.42-.98,3.04-1.97,4.71-2.8-9.87-7.6-18.7-16.04-26.25-25.17Zm-99.17,49.51l.69,2.45-2.45.69-.69-2.46,2.45-.68Z"
    />
    <path
    class="cls-2"
    d="m167.19,597.63s-.07.03-.1.05c-.02-.02-.03-.03-.05-.05h.15Z"
    />
    <path
    class="cls-2"
    d="m181.36,591.25c-2.16.8-4.29,1.67-6.37,2.6l-4.86-3.39-10.23-.35c-7.26-8.32-13.26-17.58-17.89-27.66,6.18-1.87,12.71-3.49,19.43-4.96h.05c4.86,11.88,11.53,23.21,19.87,33.76Z"
    />
    <path
    class="cls-2"
    d="m183.96,433.35c5.79,2.11,12.02,3.97,18.5,5.45,5.5-10.6,12.32-21.15,20.26-31.35-2.94-.93-5.69-1.96-8.24-3.14-11.83,8.68-22.08,18.45-30.57,29.05h.05Z"
    />
    <path
    class="cls-2"
    d="m210.55,587.37c4.86,8.78,10.6,17.61,17.08,26.3,2.55-.54,5.2-.98,7.9-1.28-3.19-8.83-5.94-17.96-8.24-27.23-5.64.54-11.29,1.28-16.68,2.26l-.05-.05Z"
    />
    <path
    class="cls-2"
    d="m187.89,593.11c7.61,8.98,16.49,17.27,26.35,24.68,2.85-1.18,5.94-2.26,9.27-3.14-6.43-8.73-12.12-17.66-16.98-26.5-6.53,1.32-12.76,2.99-18.65,4.91v.05Z"
    />
    <path
    class="cls-2"
    d="m184.94,512.1l-29-.25c.15,13.93,2.8,27.72,7.9,41.17,8.44-1.72,17.32-3.19,26.45-4.32-3.29-12.17-5.1-24.44-5.4-36.55l.05-.05Z"
    />
    <path
    class="cls-2"
    d="m140.14,468.58c-5.15,12.46-8.1,25.61-8.73,39.16l20.66.2c.25-11.78,2.21-23.45,5.84-34.74-6.08-1.37-12.07-2.94-17.76-4.61Z"
    />
    <path
    class="cls-2"
    d="m180.13,431.88c8.39-10.65,18.55-20.51,30.23-29.34-15.06,5.2-29.19,13.59-41.02,24.39,3.43,1.82,7.07,3.43,10.79,4.96Z"
    />
    <path
    class="cls-2"
    d="m248.88,615.54c-12.61-.15-24.73,2.06-34.1,6.23l-1.03.49h0c-1.28.59-2.45,1.23-3.63,1.91,12.32,4.27,25.22,6.43,38.37,6.43s25.86-2.11,38.08-6.33c-3.04-1.77-6.53-3.29-10.4-4.51h0l-1.18-.39c-7.8-2.4-16.83-3.73-26.05-3.78l-.05-.05Z"
    />
    <path
    class="cls-2"
    d="m356.23,559.41c6.18-14.47,9.37-29.88,9.37-45.73l-16.88-.15c-.15,14.18-2.75,28.21-7.7,41.85,5.2,1.23,10.3,2.6,15.26,4.07l-.05-.05Z"
    />
    <path
    class="cls-2"
    d="m152.07,511.81l-20.76-.2v1.77c0,15.75,3.09,31.01,9.13,45.44,6.28-1.86,12.81-3.53,19.58-5-5.15-13.69-7.8-27.77-7.95-42Z"
    />
    <path
    class="cls-2"
    d="m245.49,478.74h3.29v-30.96h-3.14c-5.54-.05-11.14-.34-16.63-.79-2.11,10.3-3.73,20.76-4.81,31.11,7.02.39,14.18.59,21.29.69v-.05Z"
    />
    <path
    class="cls-2"
    d="m247.99,584.28c-5.64-.05-11.29.15-16.83.54,2.31,9.22,5.1,18.35,8.34,27.13,3.09-.25,6.23-.39,9.37-.34v-27.28h-.83l-.05-.05Z"
    />
    <path
    class="cls-2"
    d="m192.01,479.08c-2.06,9.57-3.14,19.38-3.19,29.15l29.69.25c.1-8.83.59-17.81,1.42-26.74-9.47-.59-18.84-1.47-27.92-2.65Z"
    />
    <path
    class="cls-2"
    d="m161.73,474.03c-3.58,10.99-5.5,22.37-5.79,33.91l28.9.25c.05-9.91,1.13-19.87,3.19-29.64-9.13-1.23-17.96-2.75-26.35-4.56l.05.05Z"
    />
    <path
    class="cls-2"
    d="m204.62,443.31c-5.15,10.45-9.13,21.2-11.73,31.94,8.88,1.13,18.11,2.01,27.43,2.55,1.13-10.4,2.7-20.9,4.81-31.26-6.97-.74-13.89-1.82-20.46-3.24h-.05Z"
    />
    <path
    class="cls-2"
    d="m225.91,442.72c2.31-10.89,5.25-21.79,8.64-32.53-2.6-.44-5.2-.98-7.65-1.57-8.05,10.11-14.92,20.56-20.41,31.06,6.28,1.32,12.81,2.31,19.43,2.99v.05Z"
    />
    <path
    class="cls-2"
    d="m245.64,443.85h3.09v-32.29c-3.43-.1-6.92-.34-10.3-.74-3.39,10.65-6.28,21.49-8.64,32.33,5.25.44,10.6.69,15.85.74v-.05Z"
    />
    <path
    class="cls-2"
    d="m166.35,429.82c-10.35,10.16-18.65,21.98-24.63,35.18,5.59,1.62,11.43,3.14,17.47,4.51,4.32-12.02,10.5-23.55,18.5-34.35-3.93-1.62-7.7-3.39-11.33-5.35Z"
    />
    <path
    class="cls-2"
    d="m181.46,436.59c-7.95,10.55-14.13,21.88-18.4,33.71,8.24,1.72,16.93,3.24,25.91,4.47,2.6-10.89,6.57-21.74,11.73-32.33-6.77-1.62-13.2-3.58-19.23-5.84Z"
    />
    <path
    class="cls-2"
    d="m222.38,512.45c0,11.19.64,22.37,1.82,33.32,8.15-.39,16.44-.54,24.63-.49v-32.58l-26.45-.25Z"
    />
    <path
    class="cls-2"
    d="m245.44,482.62c-7.21-.05-14.47-.29-21.64-.69-.83,8.83-1.32,17.76-1.42,26.55l26.4.25v-26.1l-3.34-.05v.05Z"
    />
    <path
    class="cls-2"
    d="m218.45,512.4l-29.59-.25c.29,11.97,2.11,24.09,5.45,36.06,8.44-.98,17.17-1.72,26.01-2.21-1.18-11.04-1.82-22.33-1.82-33.56l-.05-.05Z"
    />
    <path
    class="cls-2"
    d="m224.64,549.64c1.32,10.6,3.19,21.1,5.59,31.3,5.84-.44,11.83-.64,17.81-.59h.79v-31.21c-8.1-.05-16.19.15-24.19.49Z"
    />
    <path
    class="cls-2"
    d="m195.39,552c3.24,10.6,7.65,21.25,13.2,31.8,5.74-1.08,11.73-1.91,17.71-2.45-2.4-10.25-4.27-20.8-5.59-31.45-8.64.49-17.12,1.18-25.37,2.16l.05-.05Z"
    />
    <path
    class="cls-2"
    d="m191.47,552.49c-9.03,1.13-17.81,2.55-26.1,4.22,4.86,11.68,11.53,22.82,19.87,33.17,6.08-2.11,12.61-3.88,19.38-5.3-5.54-10.6-9.96-21.39-13.15-32.09Z"
    />
    <path
    class="cls-2"
    d="m361.18,167.33l-.54,2c7.76,5.64,10.28,14.99,6.75,25.94-8.21-3.54-12.88-11.31-12-18.25-.15-.05-2.03-.59-2.03-.59l-10.28,34.12s1.48.44,1.64.49c4.04-5.84,11.08-9.12,19.22-7.76-6.85,13.67-13.37,21.2-28.19,18.53-16.03-2.88-20.07-16.3-16.41-23.4,2.67-5.17,5.47-5.85,8.57-4.74,3.09,1.1,4.95,5.51,2.24,12.04,5.98-1.19,12.21-9.12,12.89-16.16.68-7.03-5.36-11.84-10.43-12.33-4.79-.47-9.16,1.1-13.14,6.15,6.78-13.91,10.64-24.82,2.12-38.25-11.05,7.1-13.88,19.95-11.76,37.07-4.77-15.1-17.62-15.95-23.26-6.75-5.63,9.2,1.36,20.13,5.3,23.82-1.95-7.12.98-12.55,7.46-11.15,6.49,1.4,6.57,14.92-1.78,21.88-8.35,6.95-21.06,5.83-29.37-.33-7.66-5.67-10.49-11.97-12.08-24.46,10.57.93,18.64,7.22,19.73,15.05.18,0,1.94.06,1.94.06l1.31-39s-2.21-.11-2.4-.11c-1.64,7.89-10.22,14.59-21.08,14.79.74-12.02,7.64-21.4,16.56-22.93v-2.23h-45.01v2.23c8.92,1.53,15.81,10.91,16.56,22.93-10.86-.2-19.44-6.9-21.09-14.79-.18,0-2.39.11-2.39.11l1.31,39s1.75-.06,1.94-.06c1.09-7.83,9.16-14.12,19.73-15.05-1.59,12.49-4.42,18.79-12.08,24.46-8.31,6.16-21.02,7.28-29.38.33-8.35-6.96-8.26-20.48-1.78-21.88,6.49-1.4,9.41,4.03,7.46,11.15,3.95-3.69,10.94-14.62,5.3-23.82-5.63-9.2-18.48-8.35-23.25,6.75,2.12-17.12-.71-29.97-11.76-37.07-8.52,13.43-4.66,24.34,2.12,38.25-3.99-5.05-8.35-6.62-13.14-6.15-5.07.49-11.11,5.3-10.43,12.33.68,7.04,6.91,14.97,12.89,16.16-2.72-6.53-.85-10.94,2.24-12.04,3.1-1.11,5.9-.43,8.57,4.74,3.66,7.1-.39,20.52-16.41,23.4-14.82,2.67-21.34-4.86-28.2-18.53,8.15-1.36,15.18,1.92,19.23,7.76.15-.05,1.64-.49,1.64-.49l-10.28-34.12s-1.88.54-2.04.59c.89,6.94-3.78,14.71-11.99,18.25-3.53-10.95-1.01-20.3,6.74-25.94l-.53-2-30.72,9.83.45,1.59c8.4,1.24,13.79,4.44,30.4,61.56l-5.62,11.34-1.88,3.77,3.56,2.27,10.76,6.85c1.73,6.28,3.55,13.02,5.49,20.27,23.19-13.28,58.94-21.8,99.08-21.8s75.9,8.52,99.09,21.8c1.94-7.25,3.76-13.99,5.49-20.27l10.76-6.85,3.55-2.27-1.87-3.77-5.62-11.34c16.6-57.12,22-60.32,30.4-61.56l.45-1.59-30.72-9.83Zm-209.88,95.61l-14.46-9.21,7.63-15.39,20.84,7.43-14.01,17.17Zm47.21-11.94c-9.64,1.85-18.51-2.12-19.8-8.87-1.3-6.75,5.46-13.73,15.1-15.59,9.64-1.85,18.5,2.12,19.8,8.87s-5.46,13.73-15.1,15.59Zm51.11-1.95l-22.28-15.72,22.32-15.75,22.28,15.72-22.32,15.75Zm70.98-6.92c-1.3,6.75-10.16,10.72-19.8,8.87-9.64-1.86-16.4-8.84-15.1-15.59s10.16-10.72,19.8-8.87c9.64,1.86,16.4,8.84,15.1,15.59Zm41.87,11.6l-14.46,9.21-14.01-17.17,20.84-7.43,7.63,15.39Z"
    />
    <path
    class="cls-2"
    d="m278.8,98.06c34.01,8.55,62.7,31.7,79.93,62.91l11.11,3.55c-17.56-37-49.72-64.77-88.44-74.74-.95,2.58-1.81,5.34-2.59,8.28Z"
    />
    <path
    class="cls-2"
    d="m140.57,160.98c17.23-31.21,45.92-54.36,79.93-62.91-.78-2.93-1.65-5.7-2.59-8.28-38.72,9.97-70.88,37.74-88.44,74.74l11.11-3.55Z"
    />
    <path
    class="cls-2"
    d="m383.73,154.73c-3.38,0-6.12,2.74-6.12,6.12s2.74,6.11,6.12,6.11,6.12-2.73,6.12-6.11-2.74-6.12-6.12-6.12Zm-7.4-14.39c-3.38,0-6.12,2.74-6.12,6.12s2.74,6.12,6.12,6.12,6.12-2.74,6.12-6.12-2.74-6.12-6.12-6.12Zm-8.85-13.62c-3.38,0-6.12,2.74-6.12,6.12s2.74,6.11,6.12,6.11,6.12-2.74,6.12-6.11-2.74-6.12-6.12-6.12Zm-10.19-12.63c-3.38,0-6.12,2.73-6.12,6.11s2.74,6.12,6.12,6.12,6.12-2.74,6.12-6.12-2.74-6.11-6.12-6.11Zm-11.42-11.47c-3.38,0-6.12,2.74-6.12,6.12s2.74,6.11,6.12,6.11,6.12-2.73,6.12-6.11-2.74-6.12-6.12-6.12Zm-12.56-10.19c-3.38,0-6.11,2.74-6.11,6.12s2.73,6.12,6.11,6.12,6.12-2.74,6.12-6.12-2.74-6.12-6.12-6.12Zm-13.6-8.78c-3.38,0-6.12,2.74-6.12,6.12s2.74,6.12,6.12,6.12,6.12-2.74,6.12-6.12-2.74-6.12-6.12-6.12Zm-14.47-7.2c-3.38,0-6.11,2.74-6.11,6.12s2.73,6.12,6.11,6.12,6.12-2.74,6.12-6.12-2.74-6.12-6.12-6.12Zm-15.21-5.53c-3.38,0-6.12,2.74-6.12,6.12s2.74,6.12,6.12,6.12,6.12-2.74,6.12-6.12-2.74-6.12-6.12-6.12Z"
    />
    <path
    class="cls-2"
    d="m115.58,154.73c-3.38,0-6.12,2.74-6.12,6.12s2.74,6.11,6.12,6.11,6.12-2.73,6.12-6.11-2.74-6.12-6.12-6.12Zm7.4-14.39c-3.38,0-6.12,2.74-6.12,6.12s2.74,6.12,6.12,6.12,6.11-2.74,6.11-6.12-2.73-6.12-6.11-6.12Zm8.85-13.62c-3.38,0-6.12,2.74-6.12,6.12s2.74,6.11,6.12,6.11,6.12-2.74,6.12-6.11-2.74-6.12-6.12-6.12Zm10.19-12.63c-3.38,0-6.12,2.73-6.12,6.11s2.74,6.12,6.12,6.12,6.12-2.74,6.12-6.12-2.74-6.11-6.12-6.11Zm11.42-11.47c-3.38,0-6.12,2.74-6.12,6.12s2.74,6.11,6.12,6.11,6.12-2.73,6.12-6.11-2.74-6.12-6.12-6.12Zm12.55-10.19c-3.38,0-6.11,2.74-6.11,6.12s2.73,6.12,6.11,6.12,6.12-2.74,6.12-6.12-2.74-6.12-6.12-6.12Zm13.61-8.78c-3.38,0-6.12,2.74-6.12,6.12s2.74,6.12,6.12,6.12,6.12-2.74,6.12-6.12-2.74-6.12-6.12-6.12Zm14.46-7.2c-3.37,0-6.11,2.74-6.11,6.12s2.74,6.12,6.11,6.12,6.12-2.74,6.12-6.12-2.74-6.12-6.12-6.12Zm15.22-5.53c-3.38,0-6.12,2.74-6.12,6.12s2.74,6.12,6.12,6.12,6.12-2.74,6.12-6.12-2.74-6.12-6.12-6.12Z"
    />
    <path
    class="cls-2"
    d="m268.34,145.53c.01-25.82,3.73-48.17,10.48-62.94.94-2.05.03-4.47-2.02-5.41-.55-.25-1.13-.37-1.69-.37-1.55,0-3.03.89-3.71,2.39-9.73,21.31-11.21,50.65-11.22,66.33h8.16Z"
    />
    <path
    class="cls-2"
    d="m230.96,145.53h8.16c0-15.68-1.48-45.02-11.22-66.33-.68-1.5-2.16-2.39-3.71-2.39-.57,0-1.14.12-1.69.37-2.05.94-2.95,3.36-2.02,5.41,6.75,14.77,10.47,37.12,10.48,62.94Z"
    />
    <circle class="cls-2" cx="249.65" cy="138.8" r="6.63" />
    <circle class="cls-2" cx="249.65" cy="122.18" r="6.63" />
    <circle class="cls-2" cx="249.65" cy="105.57" r="6.63" />
    <path
    class="cls-2"
    d="m249.65,94.86c1.69,0,3.27.43,4.69,1.13,1.2-1.2,1.94-2.85,1.94-4.68,0-3.66-2.97-6.63-6.63-6.63s-6.63,2.97-6.63,6.63c0,1.83.74,3.48,1.94,4.68,1.42-.7,3-1.13,4.69-1.13Z"
    />
    <path
    class="cls-2"
    d="m249.65,80.6c1.93,0,3.71.55,5.27,1.44.84-1.11,1.36-2.48,1.36-3.98,0-3.66-2.97-6.63-6.63-6.63s-6.63,2.97-6.63,6.63c0,1.5.52,2.87,1.36,3.98,1.56-.89,3.35-1.44,5.27-1.44Z"
    />
    <path
      class="cls-2"
      d="m269.7,37.25h2.16V7.18h-2.16c-1.02,5.51-7.57,9.95-16.05,11.03,1.08-8.48,5.52-15.03,11.03-16.05V0h-30.07v2.16c5.51,1.02,9.95,7.57,11.03,16.05-8.48-1.08-15.03-5.52-16.05-11.03h-2.16v30.07h2.16c1.02-5.51,7.57-9.95,16.05-11.03-1.08,8.48-5.52,15.03-11.03,16.05v2.16h10.76c-.51.38-.95.83-1.34,1.33-9.12,2.47-15.85,10.79-15.85,20.7,0,8.86,5.37,16.46,13.03,19.74-2.03-2.11-3.29-4.97-3.29-8.12,0-6.47,5.26-11.73,11.73-11.73s11.73,5.26,11.73,11.73c0,3.15-1.26,6.01-3.29,8.12,7.66-3.28,13.03-10.88,13.03-19.74,0-9.91-6.72-18.22-15.85-20.7-.39-.5-.84-.95-1.34-1.33h10.76v-2.16c-5.51-1.02-9.95-7.57-11.03-16.05,8.48,1.08,15.03,5.52,16.05,11.03Z"
    />
</svg>