<?xml version="1.0" encoding="UTF-8" standalone="no"?>
<!-- Generator: Adobe Illustrator 27.3.1, SVG Export Plug-In . SVG Version: 6.00 Build 0)  -->

<svg
   version="1.1"
   id="Layer_1"
   x="0px"
   y="0px"
   viewBox="0 0 708.99998 228.60001"
   xml:space="preserve"
   sodipodi:docname="HMGCCMasterLogo_White.svg"
   inkscape:version="1.3 (0e150ed6c4, 2023-07-21)"
   width="709"
   height="228.60001"
   xmlns:inkscape="http://www.inkscape.org/namespaces/inkscape"
   xmlns:sodipodi="http://sodipodi.sourceforge.net/DTD/sodipodi-0.dtd"
   xmlns="http://www.w3.org/2000/svg"
   xmlns:svg="http://www.w3.org/2000/svg"><defs
   id="defs2" /><sodipodi:namedview
   id="namedview2"
   pagecolor="#000000"
   bordercolor="#000000"
   borderopacity="0.25"
   inkscape:showpageshadow="2"
   inkscape:pageopacity="0.0"
   inkscape:pagecheckerboard="0"
   inkscape:deskcolor="#d1d1d1"
   inkscape:zoom="1.9099614"
   inkscape:cx="360.74027"
   inkscape:cy="126.96592"
   inkscape:window-width="2560"
   inkscape:window-height="1351"
   inkscape:window-x="-9"
   inkscape:window-y="-9"
   inkscape:window-maximized="1"
   inkscape:current-layer="Layer_1" />&#10;<style
   type="text/css"
   id="style1">&#10;	.st0{fill:#FFFFFF;}&#10;</style>&#10;<path
   class="st0"
   d="m 560.7,174.3 c -25.1,0 -45.6,-20.1 -45.6,-44.8 0,-24.7 20.5,-44.8 45.6,-44.8 18.4,0 34.9,10.7 42,27.3 l -8.2,3.4 c -5.8,-13.4 -19,-22 -33.8,-22 -20.2,0 -36.7,16.1 -36.7,36 0,19.9 16.4,36 36.7,36 16.4,0 31,-10.9 35.3,-26.4 l 8.6,2.3 c -5.4,19.5 -23.5,33 -43.9,33 z m 148.3,-32.9 -8.6,-2.3 c -4.4,15.5 -18.9,26.4 -35.3,26.4 -20.2,0 -36.7,-16.1 -36.7,-36 0,-19.9 16.4,-36 36.7,-36 14.8,0 28,8.6 33.8,22 l 8.2,-3.4 c -7.2,-16.6 -23.6,-27.3 -42,-27.3 -25.1,0 -45.6,20.1 -45.6,44.8 0,24.7 20.5,44.8 45.6,44.8 20.4,-0.1 38.5,-13.6 43.9,-33 z M 452.4,125.1 v 8.8 h 38.8 c -2.2,17.8 -17.4,31.6 -35.7,31.6 -19.8,0 -36,-16.1 -36,-36 0,-19.9 16.1,-36 36,-36 14.5,0 27.5,8.6 33.2,22 l 8.1,-3.4 c -7,-16.6 -23.2,-27.3 -41.2,-27.3 -24.7,0 -44.8,20.1 -44.8,44.8 0,24.7 20.1,44.8 44.8,44.8 14.7,0 27.8,-7.2 36,-18.2 V 170 h 8.8 v -44.8 h -48 z M 280.2,86.7 v 37.9 H 213.3 V 86.7 H 204 v 85.6 h 9.3 v -38.6 h 66.9 v 38.6 h 9.3 V 86.7 Z m 113.7,0 h -9.6 l -33.2,74.4 -33.2,-74.4 h -9.6 v 85.6 h 9.1 v -64.2 l 28.6,64.2 h 10 l 28.6,-64.2 v 64.2 h 9.1 z"
   id="path1"
   style="fill:#ffffff;fill-opacity:1" />&#10;<path
   class="st0"
   d="m 93.2,15.4 c 0,-0.7 0.5,-1.2 1.2,-1.2 0.7,0 1.2,0.5 1.2,1.2 0,0.7 -0.5,1.2 -1.2,1.2 -0.7,0 -1.2,-0.5 -1.2,-1.2 z M 88.4,29.1 H 90 c 0,-5.2 0.7,-9.6 2.1,-12.6 0.2,-0.4 0,-0.9 -0.4,-1.1 -0.1,-0.1 -0.2,-0.1 -0.3,-0.1 -0.3,0 -0.6,0.2 -0.7,0.5 -2,4.3 -2.3,10.2 -2.3,13.3 z m 19.8,3.1 2.2,0.7 c -3.5,-7.4 -10,-13 -17.7,-15 -0.2,0.5 -0.4,1.1 -0.5,1.7 6.8,1.7 12.5,6.4 16,12.6 z M 85.5,5.2 c -0.2,1.7 -1.1,3 -2.2,3.2 v 0.4 h 2.2 C 85.4,8.9 85.3,9 85.2,9.1 83.4,9.6 82,11.3 82,13.2 c 0,1.8 1.1,3.3 2.6,4 -0.4,-0.4 -0.7,-1 -0.7,-1.6 0,-1.3 1.1,-2.3 2.3,-2.3 1.3,0 2.3,1.1 2.3,2.3 0,0.6 -0.3,1.2 -0.7,1.6 1.5,-0.7 2.6,-2.2 2.6,-4 0,-2 -1.3,-3.7 -3.2,-4.1 C 87.1,9 87,8.9 86.9,8.8 h 2.2 V 8.4 C 88,8.2 87.1,6.9 86.9,5.2 c 1.7,0.2 3,1.1 3.2,2.2 h 0.4 v -6 h -0.4 c -0.2,1.1 -1.5,2 -3.2,2.2 0.2,-1.7 1.1,-3 2.2,-3.2 V 0 h -6 v 0.4 c 1.1,0.2 2,1.5 2.2,3.2 -1.7,-0.2 -3,-1.1 -3.2,-2.2 h -0.2 v 6 h 0.4 c 0.2,-1.1 1.5,-2 3.2,-2.2 z m 11.9,12.5 c 0.7,0 1.2,-0.5 1.2,-1.2 0,-0.7 -0.5,-1.2 -1.2,-1.2 -0.7,0 -1.2,0.5 -1.2,1.2 0,0.7 0.6,1.2 1.2,1.2 z m -11.1,5.4 c -0.7,0 -1.3,0.6 -1.3,1.3 0,0.7 0.6,1.3 1.3,1.3 0.7,0 1.3,-0.6 1.3,-1.3 0,-0.7 -0.6,-1.3 -1.3,-1.3 z m 0,3.3 c -0.7,0 -1.3,0.6 -1.3,1.3 0,0.7 0.6,1.3 1.3,1.3 0.7,0 1.3,-0.6 1.3,-1.3 0,-0.7 -0.6,-1.3 -1.3,-1.3 z m 0,-6.6 c -0.7,0 -1.3,0.6 -1.3,1.3 0,0.7 0.6,1.3 1.3,1.3 0.7,0 1.3,-0.6 1.3,-1.3 0,-0.7 -0.6,-1.3 -1.3,-1.3 z m 22.4,6.8 c 0,0.7 0.5,1.2 1.2,1.2 0.7,0 1.2,-0.5 1.2,-1.2 0,-0.7 -0.5,-1.2 -1.2,-1.2 -0.7,0 -1.2,0.5 -1.2,1.2 z m 3.2,5.6 c 0,0.7 0.5,1.2 1.2,1.2 0.7,0 1.2,-0.5 1.2,-1.2 0,-0.7 -0.5,-1.2 -1.2,-1.2 -0.6,0 -1.2,0.5 -1.2,1.2 z m -11.6,-13 c 0.7,0 1.2,-0.5 1.2,-1.2 0,-0.7 -0.5,-1.2 -1.2,-1.2 -0.7,0 -1.2,0.5 -1.2,1.2 0,0.6 0.6,1.2 1.2,1.2 z m 10.2,10.1 c 0,0.7 0.5,1.2 1.2,1.2 0.7,0 1.2,-0.5 1.2,-1.2 0,-0.7 -0.5,-1.2 -1.2,-1.2 -0.7,0 -1.2,0.5 -1.2,1.2 z m -7.4,-8.4 c 0.7,0 1.2,-0.5 1.2,-1.2 0,-0.7 -0.5,-1.2 -1.2,-1.2 -0.7,0 -1.2,0.5 -1.2,1.2 -0.1,0.7 0.5,1.2 1.2,1.2 z m 4.8,4.4 c 0.7,0 1.2,-0.5 1.2,-1.2 0,-0.7 -0.5,-1.2 -1.2,-1.2 -0.7,0 -1.2,0.5 -1.2,1.2 -0.1,0.6 0.5,1.2 1.2,1.2 z M 105.6,23 c 0.7,0 1.2,-0.5 1.2,-1.2 0,-0.7 -0.5,-1.2 -1.2,-1.2 -0.7,0 -1.2,0.5 -1.2,1.2 0,0.6 0.5,1.2 1.2,1.2 z M 78.2,16.6 c 0.7,0 1.2,-0.5 1.2,-1.2 0,-0.7 -0.5,-1.2 -1.2,-1.2 -0.7,0 -1.2,0.5 -1.2,1.2 0,0.7 0.5,1.2 1.2,1.2 z M 62.7,27.8 c 0.7,0 1.2,-0.5 1.2,-1.2 0,-0.7 -0.5,-1.2 -1.2,-1.2 -0.7,0 -1.2,0.5 -1.2,1.2 0,0.7 0.5,1.2 1.2,1.2 z m -1.8,2.7 c 0.7,0 1.2,-0.5 1.2,-1.2 0,-0.7 -0.5,-1.2 -1.2,-1.2 -0.7,0 -1.2,0.5 -1.2,1.2 0,0.7 0.5,1.2 1.2,1.2 z M 67,23 c 0.7,0 1.2,-0.5 1.2,-1.2 0,-0.7 -0.5,-1.2 -1.2,-1.2 -0.7,0 -1.2,0.5 -1.2,1.2 0,0.6 0.6,1.2 1.2,1.2 z m -2.3,2.3 c 0.7,0 1.2,-0.5 1.2,-1.2 0,-0.7 -0.5,-1.2 -1.2,-1.2 -0.7,0 -1.2,0.5 -1.2,1.2 0,0.6 0.6,1.2 1.2,1.2 z m 107.6,103.2 v 0.7 h -4.4 V 140 c -2.1,1.2 -4.4,2 -6.5,2.5 -1.9,10.9 -6.2,21.2 -12.5,30.2 1.1,1.9 2.1,4 2.8,6.4 l -7.4,7.4 3,3 -0.5,0.5 -3,-3 -7.6,7.6 c -2.4,-0.7 -4.5,-1.7 -6.4,-2.8 -9.1,6.4 -19.4,10.7 -30.3,12.6 -0.5,2.1 -1.3,4.3 -2.5,6.4 H 86.5 V 221 c 1.9,0.2 3.4,1.8 3.4,3.8 0,2.1 -1.7,3.8 -3.8,3.8 -2.1,0 -3.8,-1.7 -3.8,-3.8 0,-2 1.6,-3.7 3.6,-3.8 V 210.8 H 75.3 c -1.1,-2.1 -1.9,-4.3 -2.5,-6.3 -11,-1.9 -21.4,-6.2 -30.6,-12.6 -1.8,1 -3.9,2 -6.1,2.6 l -7.6,-7.6 -3,3 -0.5,-0.5 3,-3 -7.4,-7.4 c 0.6,-2.2 1.6,-4.2 2.6,-6 -6.5,-9.2 -10.9,-19.7 -12.8,-30.8 -1.9,-0.5 -4,-1.3 -6,-2.4 V 129.1 H 0 v -0.6 h 4.4 v -10.4 c 2,-1.1 4,-1.8 6,-2.4 1.9,-11.2 6.3,-21.7 12.8,-30.9 -1,-1.7 -1.9,-3.7 -2.5,-5.9 l 7.6,-7.6 -3.2,-3.2 0.5,-0.5 3.2,3.2 7.4,-7.4 c 2.2,0.6 4.2,1.5 5.9,2.5 7.2,-5.1 15.3,-8.8 23.8,-11.1 -0.2,-0.7 -0.3,-1.2 -0.6,-2.1 L 63.1,51.3 62.4,50.8 62.8,50 63.9,47.7 C 60.6,36.3 59.5,35.6 57.8,35.4 l -0.1,-0.3 6.2,-2 0.1,0.4 c -1.6,1.1 -2.1,3 -1.4,5.2 1.6,-0.7 2.6,-2.3 2.4,-3.7 0,0 0.4,-0.1 0.4,-0.1 l 2.1,6.8 c 0,0 -0.3,0.1 -0.3,0.1 -0.8,-1.2 -2.2,-1.8 -3.9,-1.6 1.4,2.7 2.7,4.2 5.6,3.7 3.2,-0.6 4,-3.3 3.3,-4.7 -0.5,-1 -1.1,-1.2 -1.7,-1 -0.6,0.2 -1,1.1 -0.5,2.4 -1.2,-0.2 -2.4,-1.8 -2.6,-3.2 -0.2,-1.4 1.1,-2.4 2.1,-2.5 1,-0.1 1.8,0.2 2.6,1.2 -1.4,-2.8 -2.1,-5 -0.4,-7.7 2.2,1.4 2.8,4 2.4,7.4 1,-3 3.5,-3.2 4.7,-1.4 1.1,1.8 -0.3,4 -1.1,4.8 0.4,-1.4 -0.2,-2.5 -1.5,-2.2 -1.3,0.3 -1.3,3 0.4,4.4 1.7,1.4 4.2,1.2 5.9,-0.1 1.5,-1.1 2.1,-2.4 2.4,-4.9 -2.1,0.2 -3.7,1.4 -4,3 0,0 -0.4,0 -0.4,0 l -0.3,-7.8 c 0,0 0.4,0 0.5,0 0.3,1.6 2,2.9 4.2,3 -0.1,-2.4 -1.5,-4.3 -3.3,-4.6 0,0 0,-0.4 0,-0.4 h 9 c 0,0 0,0.4 0,0.4 -1.8,0.3 -3.2,2.2 -3.3,4.6 2.2,0 3.9,-1.4 4.2,-3 0,0 0.5,0 0.5,0 l -0.3,7.8 c 0,0 -0.4,0 -0.4,0 -0.2,-1.6 -1.8,-2.8 -4,-3 0.3,2.5 0.9,3.8 2.4,4.9 1.7,1.2 4.2,1.5 5.9,0.1 1.7,-1.4 1.7,-4.1 0.4,-4.4 -1.3,-0.3 -1.9,0.8 -1.5,2.2 -0.8,-0.7 -2.2,-2.9 -1.1,-4.8 1.1,-1.8 3.7,-1.7 4.7,1.4 -0.4,-3.4 0.1,-6 2.4,-7.4 1.7,2.7 0.9,4.9 -0.4,7.7 0.8,-1 1.7,-1.3 2.6,-1.2 1,0.1 2.2,1.1 2.1,2.5 -0.1,1.4 -1.4,3 -2.6,3.2 0.5,-1.3 0.2,-2.2 -0.5,-2.4 -0.6,-0.2 -1.2,-0.1 -1.7,1 -0.7,1.4 0.1,4.1 3.3,4.7 3,0.5 4.3,-1 5.6,-3.7 -1.6,-0.3 -3,0.4 -3.9,1.6 0,0 -0.3,-0.1 -0.3,-0.1 l 2.1,-6.8 c 0,0 0.4,0.1 0.4,0.1 -0.2,1.4 0.8,2.9 2.4,3.7 0.7,-2.2 0.2,-4.1 -1.4,-5.2 l 0.1,-0.4 6.2,2 -0.1,0.3 c -1.7,0.2 -2.8,0.9 -6.1,12.3 l 1.1,2.3 0.4,0.8 -0.7,0.5 -2.2,1.4 c -0.2,0.9 -0.4,1.4 -0.6,2.2 8.4,2.3 16.4,6.1 23.5,11.2 1.8,-1 3.9,-2 6.2,-2.7 l 7.4,7.4 3.2,-3.2 0.5,0.5 -3.2,3.2 7.6,7.6 c -0.7,2.3 -1.7,4.4 -2.7,6.3 6.3,9.1 10.6,19.4 12.5,30.4 2.1,0.5 4.3,1.3 6.5,2.5 v 10.4 z m -32.9,-52.2 -3.5,3.5 c 12.9,13.1 20.1,30.4 20.2,48.8 h 4.9 c -0.1,-19.8 -7.8,-38.3 -21.6,-52.3 z m -12.2,93 c 7.4,-7.6 12.8,-17.2 15.2,-27.9 -2.3,3.4 -5.1,6.4 -8.3,8.8 -0.7,1.6 -1.5,3.2 -2.4,4.7 -0.7,5 -2.4,9.7 -5,13.8 z m -1,0 c -0.7,1.1 -1.6,2.2 -2.4,3.2 1,-0.9 2,-1.8 2.9,-2.7 z m -15.3,-15.8 -4.9,-3.8 c 0.5,0.9 0.9,1.9 1.2,2.9 1.3,3.9 1.3,7.7 0.2,11.3 5.1,-2.7 8.6,-8 8.6,-14.2 0,-3.7 -1.2,-7.1 -3.3,-9.8 L 101.8,137 c -0.5,0.9 -1,1.7 -1.6,2.5 z M 88.8,102.6 c 2.9,-2.1 6.4,-3.4 10.3,-3.4 4.1,0 8,1.5 10.9,3.9 0,-0.3 0,-0.6 0,-0.9 0,-4.7 -1,-9.2 -3,-13.5 C 99.8,90 93.3,93.6 88.2,99 Z m -2.5,-4.2 v 17 c 0.8,0 1.5,0.1 2.3,0.2 z m 61.9,23.6 c 0,2.2 -0.2,4.4 -0.6,6.5 h 2 c -0.1,-17.2 -7.1,-32.8 -18.3,-44.2 l -3.7,3.7 c 1.2,1.2 2.4,2.5 3.5,3.8 10.2,6.2 17.1,17.4 17.1,30.2 z m -48.3,6.9 c 0,0.8 -0.1,1.5 -0.2,2.2 l 17.1,-2.3 z m 3.1,-5.1 c 0.1,0.5 0.3,1 0.4,1.5 l 9.1,1.2 c 2,-2.8 3.3,-6.2 3.3,-9.9 0,-4.7 -1.9,-8.9 -5.1,-11.9 l -0.1,0.1 c -0.4,5.5 -2.2,10.6 -5.1,15 l 8.1,-2.2 z m 1.5,-3.7 c 2.8,-4.2 4.7,-9.1 5.3,-14.3 l -9.7,12.6 c 0.6,0.8 1.1,1.6 1.6,2.5 z m 6.1,-15.6 c 0,0 0,0 0,0 0,0 0,0.1 0,0 z m 3.9,22.2 c 7.2,-5.9 11.9,-14.8 11.9,-24.8 0,-4.1 -0.8,-8.1 -2.3,-11.8 -0.1,0 -0.2,-0.1 -0.4,-0.1 v 0 c 0,0 0,0 0,0 -3.3,-1.1 -6.9,-1.7 -10.6,-1.7 -1.8,0 -3.6,0.1 -5.4,0.4 2,4.3 3,8.8 3,13.6 0,0.5 0,1 0,1.5 3.5,3.2 5.7,7.8 5.7,12.9 0,3.7 -1.2,7.2 -3.2,10 z m 10.2,-37.9 c 0.3,0.1 0.6,0.2 0.9,0.3 l 1.1,-1.1 c -1.5,-1.5 -3.1,-2.9 -4.8,-4.3 1,1.7 2,3.4 2.8,5.1 z m 1.5,0.6 c 1.1,0.4 2.1,0.9 3.1,1.5 -0.7,-0.8 -1.4,-1.6 -2.2,-2.4 z m 4.6,-5.5 C 119.4,72.6 103.8,65.6 86.6,65.4 v 4.5 c 2.7,-0.6 5.1,-1 7.5,-1 10.5,0 20.2,4.9 26.4,12.9 2.3,1.7 4.6,3.6 6.7,5.7 z m -42.4,-13 c 2.6,0.9 5.1,2 7.4,3.5 5,3.2 9,7.7 11.7,12.9 1.8,-0.3 3.7,-0.4 5.6,-0.4 3.4,0 6.8,0.5 9.9,1.4 -5.4,-11 -16.5,-18 -28.9,-18 -1.8,-0.1 -3.6,0.2 -5.7,0.6 z m 0.5,32.5 1.1,8.5 c 0.5,0.1 1,0.2 1.5,0.4 l 6.2,-10.7 -3.2,11.9 c 0.9,0.5 1.7,1 2.5,1.6 l 13,-10 c 0,-0.4 0.1,-0.8 0.1,-1.1 -2.9,-2.5 -6.7,-4.1 -10.9,-4.1 -4,0 -7.5,1.3 -10.3,3.5 z m 1.3,9.9 0.4,2.8 c 4.1,1.3 7.3,4.6 8.7,8.7 l 2.8,0.4 C 100.5,119.3 96,114.7 90.2,113.3 Z m 0.3,28.5 -0.4,2.8 c 5.8,-1.4 10.4,-6 11.8,-11.8 l -2.8,0.4 c -1.2,4 -4.5,7.3 -8.6,8.6 z m 21.6,-2.4 c -2.3,-2.7 -5.5,-4.7 -9.2,-5.4 0,0 0,0 0,0.1 z m -8.5,-6.2 c 1.5,0 3.2,0 5,0.1 5.6,0.3 13.2,1.5 18.1,5.7 3.2,2.8 4.9,6.6 4.9,11.2 0,0 0,0 0,0 0.2,-0.1 0.4,-0.3 0.6,-0.4 0.1,0 0.1,-0.1 0.2,-0.1 0.5,-0.4 1.1,-0.8 1.6,-1.2 0,0 0.1,-0.1 0.1,-0.1 0.2,-0.2 0.4,-0.3 0.6,-0.5 0.1,0 0.1,-0.1 0.2,-0.1 0.2,-0.2 0.4,-0.3 0.6,-0.5 0,0 0.1,-0.1 0.1,-0.1 0.5,-0.4 0.9,-0.9 1.4,-1.3 0,0 0.1,-0.1 0.1,-0.1 0.2,-0.2 0.4,-0.4 0.5,-0.6 0.1,-0.1 0.1,-0.1 0.2,-0.2 0.2,-0.2 0.4,-0.4 0.5,-0.6 0,0 0.1,-0.1 0.1,-0.1 0.2,-0.2 0.4,-0.5 0.6,-0.8 0,0 0,0 0,0 0.2,-0.2 0.4,-0.5 0.6,-0.7 0,-0.1 0.1,-0.1 0.1,-0.2 0.2,-0.2 0.3,-0.4 0.4,-0.6 0,-0.1 0.1,-0.1 0.1,-0.2 0.2,-0.2 0.3,-0.5 0.5,-0.7 0,0 0,-0.1 0.1,-0.1 0.2,-0.3 0.4,-0.5 0.5,-0.8 0,0 0.1,-0.1 0.1,-0.1 0.1,-0.2 0.3,-0.5 0.4,-0.7 0,-0.1 0.1,-0.2 0.1,-0.2 0.1,-0.2 0.2,-0.4 0.4,-0.6 0,-0.1 0.1,-0.1 0.1,-0.2 0.2,-0.3 0.3,-0.5 0.4,-0.8 0,0 0,0 0,0 0.1,-0.3 0.3,-0.6 0.4,-0.9 0,-0.1 0.1,-0.1 0.1,-0.2 0.1,-0.2 0.2,-0.4 0.3,-0.7 0,-0.1 0.1,-0.2 0.1,-0.3 0.1,-0.2 0.2,-0.4 0.3,-0.7 0,-0.1 0.1,-0.2 0.1,-0.2 0.1,-0.3 0.2,-0.6 0.3,-0.9 0,0 0,0 0,-0.1 0.1,-0.3 0.2,-0.6 0.3,-0.9 0,-0.1 0.1,-0.2 0.1,-0.3 0.1,-0.2 0.1,-0.4 0.2,-0.7 0,-0.1 0.1,-0.2 0.1,-0.3 0.1,-0.2 0.1,-0.5 0.2,-0.7 0,-0.1 0,-0.1 0.1,-0.2 0.1,-0.3 0.2,-0.6 0.2,-0.9 0,-0.1 0,-0.1 0,-0.2 0.1,-0.3 0.1,-0.5 0.2,-0.8 0,-0.1 0,-0.2 0.1,-0.3 0,-0.2 0.1,-0.4 0.1,-0.7 0,-0.1 0,-0.2 0.1,-0.3 0,-0.3 0.1,-0.5 0.1,-0.8 0,-0.1 0,-0.1 0,-0.2 0,-0.3 0.1,-0.7 0.1,-1 0,-0.1 0,-0.2 0,-0.3 0,-0.2 0,-0.5 0.1,-0.7 0,-0.1 0,-0.2 0,-0.3 0,-0.2 0,-0.5 0,-0.7 0,-0.1 0,-0.2 0,-0.3 0,-0.3 0,-0.7 0,-1 0,0 0,0 0,0 0,-14.5 -9.2,-26.9 -22,-31.7 1.4,3.7 2.1,7.6 2.1,11.5 0,10 -4.5,19 -11.6,25 l 15.9,2.1 -24.8,3.3 c -0.4,0.4 -1.4,0.8 -2.4,1 z m 28.3,18.4 c 0,0.5 -0.1,1 -0.1,1.5 0.4,-0.7 0.7,-1.4 1.1,-2.1 -0.3,0.2 -0.6,0.4 -1,0.6 z m -4.2,18.2 3.7,3.7 c 11.2,-11.4 18.2,-27 18.2,-44.2 h -2.1 c -0.8,3.8 -2.2,7.3 -4.1,10.5 -2.1,11.2 -7.5,21.6 -15.7,30 z m 22.5,-41.3 h 5.2 c -0.1,-18.8 -7.7,-35.9 -20,-48.3 l -3.7,3.7 c 11.9,12 18.4,27.8 18.5,44.6 z M 135,79.7 C 122.6,67.3 105.5,59.6 86.7,59.5 v 5.2 c 16.9,0.1 32.7,6.8 44.7,18.7 z M 84.9,71.3 c -6.1,1.9 -11.5,5.6 -15.5,10.5 -1.4,1.8 -2.6,3.7 -3.7,5.7 7.1,1.4 13.7,4.9 18.7,10.3 L 86.2,83.9 88,97.3 c 4.9,-5 11.2,-8.4 18,-9.8 -2.6,-4.9 -6.3,-9 -11,-12 -3,-2 -6.5,-3.4 -10.1,-4.2 z m -23.2,82.2 10.7,-14 c -0.6,-0.8 -1.1,-1.6 -1.6,-2.5 l -11.4,3.1 c -2,2.7 -3.2,6 -3.2,9.6 0,6 3.3,11.2 8.2,13.9 -1.1,-3.5 -1,-7.2 0.2,-11 0.2,-0.7 0.5,-1.3 0.8,-2 z m -21.2,-3.2 c 0,0 0,0 0,0 v 0 c 0.1,0 0.1,0 0,0 0.1,0 0.1,0 0,0 0,-4.7 1.7,-8.5 4.9,-11.3 4.9,-4.2 12.5,-5.4 18.1,-5.7 1.5,-0.1 3,-0.1 4.3,-0.1 -1.1,-0.4 -2.2,-0.8 -3.2,-1.2 l -23.4,-3.1 15.4,-2 c -6.9,-6 -11.3,-14.8 -11.3,-24.7 0,-4.2 0.8,-8.2 2.3,-12 -13.1,4.7 -22.4,17.2 -22.4,31.8 0,0.3 0,0.7 0,1 0,0.1 0,0.2 0,0.3 0,0.2 0,0.5 0,0.7 0,0.1 0,0.2 0,0.3 0,0.2 0,0.5 0.1,0.7 0,0.1 0,0.2 0,0.3 0,0.3 0.1,0.7 0.1,1 0,0 0,0.1 0,0.1 0,0.3 0.1,0.6 0.1,0.8 0,0.1 0,0.2 0.1,0.3 0,0.2 0.1,0.5 0.1,0.7 0,0.1 0,0.2 0.1,0.3 0.1,0.3 0.1,0.5 0.2,0.8 0,0.1 0,0.1 0,0.2 0.1,0.3 0.2,0.6 0.2,1 0,0.1 0,0.1 0.1,0.2 0.1,0.3 0.1,0.5 0.2,0.8 0,0.1 0.1,0.2 0.1,0.3 0.1,0.2 0.1,0.5 0.2,0.7 0,0.1 0.1,0.2 0.1,0.2 0.2,0.6 0.4,1.2 0.7,1.8 0,0.1 0,0.1 0.1,0.2 0.1,0.2 0.2,0.5 0.3,0.7 0,0.1 0.1,0.1 0.1,0.2 0.1,0.2 0.2,0.5 0.3,0.7 0,0 0,0.1 0.1,0.1 0.3,0.6 0.6,1.2 0.9,1.8 0,0 0.1,0.1 0.1,0.1 0.1,0.2 0.3,0.5 0.4,0.7 0,0.1 0.1,0.1 0.1,0.2 0.2,0.3 0.3,0.5 0.5,0.8 0,0 0,0 0,0 0.4,0.6 0.7,1.1 1.1,1.7 0,0 0,0.1 0.1,0.1 0.2,0.2 0.4,0.5 0.5,0.7 0,0 0,0.1 0.1,0.1 0.6,0.8 1.3,1.6 2,2.3 0,0 0,0 0.1,0.1 0.2,0.2 0.4,0.5 0.7,0.7 0,0 0,0 0,0 0.7,0.7 1.5,1.4 2.2,2.1 0,0 0,0 0,0 0.8,0.7 1.6,1.3 2.4,1.9 0,0 0,0 0,0 0.3,0.2 0.6,0.4 0.8,0.6 z m -0.2,1.4 c -0.3,-0.2 -0.7,-0.5 -1,-0.7 0.4,0.8 0.7,1.5 1.1,2.2 -0.1,-0.5 -0.1,-1 -0.1,-1.5 z M 23.9,122 c 0,-12.8 6.9,-24 17.2,-30.2 1.2,-1.4 2.4,-2.8 3.7,-4.1 L 41.1,84 C 29.7,95.5 22.6,111.2 22.5,128.5 h 2 c -0.4,-2.1 -0.6,-4.3 -0.6,-6.5 z m 37.9,-17.6 v 0 c -3.3,3 -5.3,7.3 -5.3,12.1 0,3.7 1.2,7.2 3.3,9.9 l 9.5,-1.2 c 0.1,-0.5 0.2,-1 0.4,-1.5 l -10.7,-6.2 8.1,2.2 c -3,-4.4 -4.9,-9.6 -5.3,-15.3 z m 6.2,15.6 2.9,0.8 c 0.5,-0.9 1,-1.7 1.6,-2.5 l -9.9,-12.9 c 0.5,5.4 2.5,10.4 5.4,14.6 z m -12.2,8.9 h 16.9 c 0,-0.8 0.1,-1.5 0.2,-2.3 z m 6,-24.5 c 0,0 0,0 0,0 z m 2.7,-15.8 c -1.8,-0.3 -3.6,-0.4 -5.5,-0.4 -3.7,0 -7.2,0.6 -10.6,1.7 -1.6,3.9 -2.5,8 -2.5,12.3 0,9.9 4.5,18.7 11.5,24.6 l 1.5,-0.2 c -2,-2.8 -3.2,-6.3 -3.2,-10 0,-5.2 2.3,-9.8 5.9,-13 0,-0.6 0,-1.1 0,-1.7 0.1,-4.6 1.1,-9.1 2.9,-13.3 z M 46.9,89 c 0.3,-0.1 0.7,-0.2 1,-0.3 0.9,-2 2,-3.8 3.2,-5.6 -1.9,1.4 -3.7,3 -5.4,4.7 z m -1.7,-0.7 c -0.8,0.8 -1.6,1.7 -2.4,2.6 1.1,-0.6 2.3,-1.1 3.5,-1.6 z m 19.9,-0.9 c 1,-2.1 2.3,-4.1 3.8,-6 3.8,-4.8 9,-8.4 14.7,-10.4 -1.8,-0.3 -3.7,-0.5 -5.6,-0.5 -12.1,0 -23.1,6.9 -28.4,17.6 3,-0.8 6.2,-1.3 9.4,-1.3 2.1,0.1 4.1,0.3 6.1,0.6 z M 85.7,70.1 85.9,70 v -4.7 c -17.3,0 -33,7 -44.4,18.2 l 3.7,3.7 C 47.5,84.9 50,82.9 52.6,81 58.8,73.6 68,69.1 78,69.1 c 2.6,0.1 5.2,0.4 7.7,1 z m -26.1,69.8 10,-5.8 c 0,0 0,-0.1 0,-0.1 -4,0.6 -7.5,2.8 -10,5.9 z m 22.8,4.7 -0.4,-2.8 c -4.1,-1.3 -7.4,-4.6 -8.7,-8.7 l -2.8,-0.4 c 1.6,5.9 6.1,10.5 11.9,11.9 z m -9,-19.9 c 1.3,-4.1 4.6,-7.3 8.7,-8.7 l 0.4,-2.8 c -5.8,1.4 -10.4,6 -11.8,11.8 z m 9.2,-12.8 1.1,-8.2 c -2.9,-2.4 -6.6,-3.8 -10.6,-3.8 -4.1,0 -7.8,1.5 -10.7,3.9 0,0.4 0.1,0.7 0.1,1.1 L 75.7,115 c 0.8,-0.6 1.6,-1.1 2.5,-1.6 l -3.2,-11.9 6.2,10.7 c 0.4,-0.1 0.9,-0.2 1.4,-0.3 z m 1.2,-9 0.5,-3.4 c -5,-5.7 -11.7,-9.4 -19.1,-10.8 -1.8,4.1 -2.8,8.6 -2.8,13.1 0,0.4 0,0.8 0,1.1 3,-2.4 6.7,-3.8 10.8,-3.8 3.9,0.1 7.7,1.5 10.6,3.8 z M 86,59.5 c -18.9,0 -36.1,7.6 -48.6,20 l 3.7,3.7 C 53.2,71.3 69.1,64.8 86,64.8 Z M 36.9,80 C 24.5,92.5 16.7,109.6 16.6,128.6 h 5.3 c 0.1,-17 6.7,-32.9 18.7,-44.9 z m -20.2,49.2 c 0.1,19 7.8,36.1 20.2,48.6 l 3.7,-3.7 c -12,-12 -18.6,-28 -18.7,-45 H 16.7 Z M 41,173.7 44.7,170 C 36.4,161.6 30.9,151.2 28.8,139.8 26.9,136.6 25.5,133 24.7,129.2 h -2.1 c 0,17.3 7.1,33.1 18.4,44.5 z m 4.2,-4.2 0.6,-0.6 c -2.7,-4.2 -4.5,-9 -5.2,-14 -0.9,-1.6 -1.7,-3.2 -2.4,-4.8 -3.3,-2.4 -6.1,-5.4 -8.3,-8.8 2.3,10.9 7.7,20.6 15.3,28.2 z m 0.4,0.5 c 0.9,0.9 1.8,1.7 2.8,2.6 -0.8,-1 -1.6,-2 -2.3,-3 z m 5.9,4 c 6.2,6 14.4,9.3 23,9.3 3.4,0 6.7,-0.5 9.9,-1.5 -7.5,-2.9 -13.9,-7.7 -17.5,-13 -0.9,-1.4 -1.6,-2.8 -2.2,-4.2 -5.4,-2.7 -9.1,-8.4 -9.1,-14.8 0,-7.4 4.8,-13.7 11.5,-15.8 -6.5,0 -15.7,0.9 -21.2,5.6 -3.1,2.7 -4.7,6.3 -4.7,10.8 0,0.1 0,0.3 0,0.4 0.1,0.1 0.2,0.1 0.3,0.2 v 0 c 0,0.5 0,1 0.1,1.6 0,0 0,0 0,0 0.5,8 4,15.6 9.9,21.4 z m 13.7,-9.9 c 2.1,1 4.5,1.6 7,1.6 4.9,0 9.3,-2.2 12.3,-5.8 L 82.7,146 c -0.5,-0.1 -1,-0.2 -1.5,-0.4 l -6.2,10.7 3.2,-11.9 c -0.9,-0.5 -1.7,-1 -2.5,-1.6 l -9.2,7 c -0.5,1 -0.9,2 -1.3,3 -1.2,4 -1.2,7.7 0,11.3 z m 21.1,-4.7 v -16.9 c -0.8,0 -1.5,-0.1 -2.3,-0.2 z m 0,-18.2 c 6.8,0 12.3,-5.5 12.3,-12.3 0,-6.8 -5.5,-12.3 -12.3,-12.3 -6.8,0 -12.3,5.5 -12.3,12.3 0,6.8 5.5,12.3 12.3,12.3 z m 1.8,19.2 c 2.9,3.3 7.2,5.3 11.9,5.3 2.3,0 4.5,-0.5 6.5,-1.4 1.4,-3.6 1.4,-7.5 0.1,-11.5 -0.5,-1.4 -1.1,-2.7 -1.8,-4 l -7.8,-6 c -0.8,0.6 -1.6,1.1 -2.5,1.6 l 3.2,11.9 -6.2,-10.7 c -0.5,0.1 -1,0.3 -1.5,0.4 z m 16.8,8.3 c -3.6,5.3 -10,10.1 -17.4,13 3.2,1 6.6,1.6 10.1,1.6 17.5,0 31.8,-13.7 32.9,-30.8 0,-0.3 0,-0.5 0,-0.8 0,0 0,0 0,0 0,-0.3 0,-0.5 0,-0.8 0.1,-0.1 0.2,-0.1 0.3,-0.2 0,-0.1 0,-0.2 0,-0.4 0,-4.5 -1.6,-8.1 -4.7,-10.8 -5.5,-4.8 -14.8,-5.7 -21.3,-5.6 6.7,2.2 11.6,8.4 11.6,15.9 0,6.7 -3.9,12.4 -9.6,15.1 -0.3,1.3 -1,2.6 -1.9,3.8 z m -18.3,14.1 v 3.8 c 5.3,-0.1 10.5,-0.8 15.4,-2.2 -1.4,0.2 -2.9,0.3 -4.4,0.3 -3.7,-0.1 -7.4,-0.7 -11,-1.9 z m 0,4.4 v 5.2 c 17.2,-0.2 32.9,-7.2 44.3,-18.5 l -3.7,-3.7 c -2.4,2.3 -4.9,4.5 -7.5,6.3 -3.5,2.9 -7.6,5.2 -12,6.5 -6.7,2.8 -13.8,4.2 -21.1,4.2 z m 0,5.9 v 5.2 c 18.9,-0.2 36,-7.9 48.4,-20.3 l -3.7,-3.7 c -11.9,12 -27.8,18.7 -44.7,18.8 z m 48.9,-15.5 c 12.3,-12.5 19.9,-29.6 20,-48.4 h -5.2 c -0.1,16.9 -6.6,32.7 -18.4,44.7 z M 86.6,54 v 4.9 c 18.4,0.1 35.7,7.4 48.8,20.4 l 3.5,-3.5 C 124.9,61.9 106.4,54.1 86.6,54 Z m 16.6,-4.8 2.8,3.4 2.9,-1.8 -1.5,-3.1 z m -6.7,1 c 1.9,0.4 3.7,-0.4 4,-1.8 0.3,-1.4 -1.1,-2.8 -3,-3.1 -1.9,-0.4 -3.7,0.4 -4,1.8 -0.3,1.4 1.1,2.8 3,3.1 z m -14.7,-3.5 4.5,3.1 4.5,-3.2 -4.5,-3.1 z m -9.7,1.8 c 0.3,1.4 2,2.1 4,1.8 1.9,-0.4 3.3,-1.8 3,-3.1 -0.3,-1.4 -2,-2.1 -4,-1.8 -1.9,0.3 -3.3,1.7 -3,3.1 z m -5.5,4.1 2.8,-3.4 -4.2,-1.5 -1.5,3.1 z M 33.4,75.5 36.9,79 C 50.1,66 67.5,58.9 86,58.9 V 54 C 66.2,54 47.5,61.7 33.4,75.5 Z m -22.3,53 H 16 C 16.1,110 23.3,92.6 36.4,79.4 L 32.9,75.9 C 19,90.1 11.2,108.7 11.1,128.5 Z m 21.8,53.3 3.5,-3.5 C 23.3,165.1 16.1,147.7 16,129.2 h -4.9 c 0.1,19.9 7.8,38.5 21.8,52.6 z M 86,199 c -18.5,0 -36,-7.2 -49.1,-20.2 l -3.5,3.5 c 14.1,13.9 32.8,21.6 52.6,21.6 z m 0,-5.9 c -17,0 -32.9,-6.6 -45,-18.5 l -3.7,3.7 c 12.5,12.4 29.7,20 48.6,20 v -5.2 z m 0,-5.9 c -7.5,0 -14.8,-1.4 -21.6,-4.2 -4.3,-1.3 -8.3,-3.5 -11.8,-6.4 -2.6,-1.9 -5.1,-3.9 -7.5,-6.2 l -3.7,3.7 c 11.5,11.3 27.2,18.3 44.5,18.3 v -5.2 z m 0,-4.6 c -3.7,1.3 -7.5,2 -11.5,2 -1.5,0 -3,-0.1 -4.5,-0.3 5.1,1.5 10.4,2.3 15.9,2.3 v -4 z m 18.4,-14.2 c 0.7,-1 1.3,-2.1 1.7,-3.2 -1.9,0.8 -4,1.2 -6.2,1.2 -4.7,0 -9,-2 -12,-5.1 l -1.7,12.6 -1.7,-13.1 c -3,3.4 -7.5,5.6 -12.4,5.6 -2.4,0 -4.6,-0.5 -6.6,-1.4 0.5,1.2 1.1,2.3 1.9,3.4 3.7,5.4 10.3,10.2 18,13.1 0.2,-0.1 0.3,-0.1 0.5,-0.2 l 0.2,-0.1 0.2,0.1 c 0.1,0 0.2,0.1 0.3,0.1 7.6,-2.9 14.1,-7.6 17.8,-13 z m 34.6,13.6 -3.5,-3.5 c -13.1,13 -30.4,20.3 -48.9,20.4 v 4.9 C 106.4,203.7 125,196 139,182 Z m 22,-52.8 h -4.9 C 156,147.6 148.9,165 136,178.1 l 3.5,3.5 c 13.8,-14.1 21.4,-32.7 21.5,-52.4 z m -74.2,7.4 h -1 l -0.1,-0.7 v -0.6 c -0.4,0 -0.8,-0.1 -1.2,-0.2 l -0.2,0.6 -0.4,0.6 -1,-0.4 0.1,-0.7 0.2,-0.6 c -0.4,-0.2 -0.7,-0.4 -1,-0.7 l -0.4,0.4 -0.6,0.4 -0.7,-0.7 0.4,-0.6 0.4,-0.4 c -0.3,-0.3 -0.5,-0.7 -0.7,-1 l -0.6,0.2 -0.7,0.1 -0.4,-1 0.6,-0.4 0.6,-0.2 c -0.1,-0.4 -0.2,-0.8 -0.2,-1.2 h -0.6 l -0.7,-0.1 v -1 l 0.7,-0.1 h 0.6 c 0,-0.4 0.1,-0.8 0.2,-1.2 l -0.6,-0.2 -0.6,-0.4 0.4,-1 0.7,0.1 0.6,0.2 c 0.2,-0.4 0.4,-0.7 0.7,-1 l -0.4,-0.4 -0.4,-0.6 0.7,-0.7 0.6,0.4 0.4,0.4 c 0.3,-0.3 0.7,-0.5 1,-0.7 l -0.2,-0.6 -0.1,-0.7 1,-0.4 0.4,0.6 0.2,0.6 c 0.4,-0.1 0.8,-0.2 1.2,-0.2 v -0.6 l 0.1,-0.7 h 1 l 0.1,0.7 v 0.6 c 0.4,0 0.8,0.1 1.2,0.2 l 0.2,-0.6 0.4,-0.6 1,0.4 -0.1,0.7 -0.2,0.6 c 0.4,0.2 0.7,0.4 1,0.7 l 0.4,-0.4 0.6,-0.4 0.7,0.7 -0.4,0.6 -0.4,0.4 c 0.3,0.3 0.5,0.7 0.7,1 l 0.6,-0.2 0.7,-0.1 0.4,1 -0.6,0.4 -0.6,0.2 c 0.1,0.4 0.2,0.8 0.2,1.2 h 0.6 l 0.7,0.1 v 1 l -0.7,0.1 h -0.6 c 0,0.4 -0.1,0.8 -0.2,1.2 l 0.6,0.2 0.6,0.4 -0.4,1 -0.7,-0.1 L 92,132 c -0.2,0.4 -0.4,0.7 -0.7,1 l 0.4,0.4 0.4,0.6 -0.7,0.7 -0.6,-0.4 -0.4,-0.4 c -0.3,0.3 -0.7,0.5 -1,0.7 l 0.2,0.6 0.1,0.7 -1,0.4 -0.4,-0.6 -0.2,-0.6 c -0.4,0.1 -0.8,0.2 -1.2,0.2 v 0.6 z m -0.5,-2.4 c 2.9,0 5.2,-2.3 5.2,-5.2 0,-2.9 -2.3,-5.2 -5.2,-5.2 -2.9,0 -5.2,2.3 -5.2,5.2 0,2.8 2.3,5.2 5.2,5.2 z M 59.4,33.4 c 0.7,0 1.2,-0.5 1.2,-1.2 0,-0.7 -0.5,-1.2 -1.2,-1.2 -0.7,0 -1.2,0.5 -1.2,1.2 0,0.7 0.6,1.2 1.2,1.2 z M 86.3,14.3 c -0.7,0 -1.3,0.6 -1.3,1.3 0,0.3 0.1,0.6 0.3,0.8 0.3,-0.2 0.7,-0.3 1.1,-0.3 0.4,0 0.7,0.1 1.1,0.3 0.2,-0.2 0.3,-0.5 0.3,-0.8 -0.2,-0.7 -0.8,-1.3 -1.5,-1.3 z m -24.1,18.6 2.2,-0.7 c 3.5,-6.3 9.2,-10.9 16,-12.6 -0.2,-0.6 -0.3,-1.1 -0.5,-1.7 -7.7,2.1 -14.2,7.6 -17.7,15 z m 7.3,-12 c 0.7,0 1.2,-0.5 1.2,-1.2 0,-0.7 -0.5,-1.2 -1.2,-1.2 -0.7,0 -1.2,0.5 -1.2,1.2 0,0.7 0.6,1.2 1.2,1.2 z m 16.8,-4 c -0.7,0 -1.3,0.6 -1.3,1.3 0,0.4 0.1,0.7 0.4,0.9 0.3,-0.1 0.6,-0.2 0.9,-0.2 0.3,0 0.7,0.1 0.9,0.2 0.2,-0.2 0.4,-0.6 0.4,-0.9 0,-0.7 -0.6,-1.3 -1.3,-1.3 z m -3.7,12.2 h 1.6 c 0,-3.1 -0.3,-9 -2.2,-13.3 -0.1,-0.3 -0.4,-0.5 -0.7,-0.5 -0.1,0 -0.2,0 -0.3,0.1 -0.4,0.2 -0.6,0.7 -0.4,1.1 1.2,3 2,7.4 2,12.6 z M 75.2,17.7 c 0.7,0 1.2,-0.5 1.2,-1.2 0,-0.7 -0.5,-1.2 -1.2,-1.2 -0.7,0 -1.2,0.5 -1.2,1.2 -0.1,0.7 0.5,1.2 1.2,1.2 z m -2.9,1.5 c 0.7,0 1.2,-0.5 1.2,-1.2 0,-0.7 -0.5,-1.2 -1.2,-1.2 -0.7,0 -1.2,0.5 -1.2,1.2 -0.1,0.6 0.5,1.2 1.2,1.2 z"
   id="path2"
   style="fill:#ffffff;fill-opacity:1" />&#10;</svg>
