<svg width="92" height="106" viewBox="0 0 92 106" fill="none" xmlns="http://www.w3.org/2000/svg">
<path d="M46 5C47.3091 5 48.3979 5.94333 48.6237 7.18733L48.6667 7.66667V48.856L88.5695 73.7946C89.8184 74.5752 90.1981 76.2204 89.4175 77.4693C88.7237 78.5794 87.3467 79.0027 86.1721 78.5349L85.7429 78.3173L45.9947 53.4693L5.91111 78.3069C4.65915 79.0825 3.01545 78.6964 2.23982 77.4444C1.55036 76.3316 1.77885 74.9092 2.71743 74.0621L3.10228 73.7731L43.3334 48.84V7.66667C43.3334 6.19391 44.5273 5 46 5Z" fill="white" fill-opacity="0.5"/>
<path fill-rule="evenodd" clip-rule="evenodd" d="M43.1734 0.955207L3.17336 25.9552C1.61399 26.9298 0.666687 28.639 0.666687 30.4779V75.5219C0.666687 77.3608 1.61399 79.0699 3.17336 80.0445L43.1734 105.045C44.9028 106.125 47.0972 106.125 48.8267 105.045L88.8267 80.0445C90.386 79.0699 91.3334 77.3608 91.3334 75.5219V30.4779C91.3334 28.639 90.386 26.9298 88.8267 25.9552L48.8267 0.955207C47.0972 -0.125694 44.9028 -0.125694 43.1734 0.955207ZM12.6315 26.3332L46 5.47786L79.3686 26.3332H12.6315ZM6.00002 39.0414V75.5219L38.4271 95.7888L6.00002 39.0414ZM53.5729 95.7888L86 75.5219V39.0414L53.5729 95.7888ZM84.0694 31.6665L46 98.2852L7.92535 31.6665H84.0694Z" fill="white"/>
</svg>
