<svg width="264" height="48" viewBox="0 0 264 48" fill="none" xmlns="http://www.w3.org/2000/svg">
<path d="M60.9198 23.774C58.2411 23.774 56.0524 23.2872 54.2827 21.4776L57.0355 18.7425C57.9445 19.6456 59.5434 19.9627 60.9424 19.9627C62.6379 19.9627 63.4502 19.4022 63.4502 18.3998C63.4502 17.9834 63.3503 17.6439 63.1053 17.3749C62.8829 17.1539 62.5154 16.9841 61.9513 16.9105L59.8367 16.619C58.2895 16.398 57.1097 15.8856 56.3232 15.0817C55.5108 14.2522 55.1176 13.08 55.1176 11.5907C55.1176 8.41671 57.5255 6.0979 61.5065 6.0979C64.0143 6.0979 65.9065 6.68401 67.4054 8.1733L64.7009 10.8604C63.5952 9.76188 62.1447 9.83554 61.384 9.83554C59.8851 9.83554 59.2694 10.6907 59.2694 11.4465C59.2694 11.6675 59.3435 11.9846 59.6143 12.2536C59.8367 12.4746 60.2042 12.6924 60.8199 12.7661L62.9344 13.0607C64.5075 13.2817 65.6389 13.7686 66.3739 14.502C67.3087 15.4052 67.6761 16.6991 67.6761 18.3133C67.6761 21.8556 64.6042 23.7836 60.9166 23.7836" fill="#0B0C0C"/>
<path d="M70.5032 23.6269V6.24219H82.4009V10.0503H74.8065V12.9552H81.292V16.7665H74.8065V19.8188H82.4009V23.6269H70.5032Z" fill="#0B0C0C"/>
<path d="M91.5169 23.7741C89.4764 23.7741 87.9292 23.0919 86.6495 21.8204C84.8057 19.9884 84.8798 17.5479 84.8798 14.9344C84.8798 12.3209 84.8057 9.88041 86.6495 8.04842C87.926 6.78012 89.4764 6.09473 91.5169 6.09473C94.8338 6.09473 97.5125 7.92672 98.1539 11.7604H93.7797C93.509 10.7836 92.9674 9.90603 91.5427 9.90603C90.7561 9.90603 90.1663 10.2231 89.8471 10.6395C89.4539 11.1519 89.1831 11.7636 89.1831 14.9376C89.1831 18.1115 89.4539 18.7233 89.8471 19.2357C90.1663 19.6521 90.7561 19.9692 91.5427 19.9692C92.9674 19.9692 93.509 19.0916 93.7797 18.1147H98.1539C97.5157 21.9485 94.837 23.7805 91.5169 23.7805" fill="#0B0C0C"/>
<path d="M106.731 23.7742C103.095 23.7742 100.12 21.3337 100.12 17.5224V6.24219H104.42V17.4263C104.42 19.0373 105.303 19.9661 106.731 19.9661C108.159 19.9661 109.091 19.0373 109.091 17.4263V6.24219H113.391V17.5256C113.391 21.3337 110.367 23.7774 106.731 23.7774" fill="#0B0C0C"/>
<path d="M125.482 23.6269L122.384 17.154H120.934V23.6269H116.634V6.24219H123.564C127.448 6.24219 129.537 8.97736 129.537 11.8342C129.537 14.2043 128.061 15.6936 126.688 16.3758L130.472 23.6269H125.482ZM123.368 10.0727H120.934V13.5894H123.368C124.547 13.5894 125.234 12.7342 125.234 11.831C125.234 10.9279 124.544 10.0727 123.368 10.0727Z" fill="#0B0C0C"/>
<path d="M136.958 6.24219H132.658V23.6301H136.958V6.24219Z" fill="#0B0C0C"/>
<path d="M147.824 10.0503V23.6269H143.524V10.0503H139.22V6.24219H152.124V10.0503H147.824Z" fill="#0B0C0C"/>
<path d="M162.816 16.5455V23.6269H158.513V16.5455L153.23 6.24219H157.926L160.676 12.4908L163.406 6.24219H168.099L162.816 16.5455Z" fill="#0B0C0C"/>
<path d="M176.258 23.7741C173.628 23.7741 171.735 23.1623 170.066 21.4777L171.835 19.745C173.115 21.0133 174.514 21.404 176.309 21.404C178.595 21.404 179.923 20.4272 179.923 18.7425C179.923 17.9866 179.701 17.3493 179.236 16.9361C178.795 16.5198 178.35 16.35 177.318 16.2027L175.252 15.9112C173.827 15.7159 172.696 15.2258 171.935 14.518C171.075 13.7109 170.656 12.6124 170.656 11.1968C170.656 8.17013 172.867 6.09473 176.506 6.09473C178.817 6.09473 180.439 6.68083 181.938 8.07404L180.242 9.73308C179.159 8.70819 177.908 8.39112 176.432 8.39112C174.369 8.39112 173.238 9.56333 173.238 11.1007C173.238 11.7348 173.434 12.2985 173.902 12.7117C174.343 13.1024 175.056 13.3971 175.868 13.5188L177.86 13.8102C179.481 14.0536 180.39 14.4444 181.129 15.1041C182.086 15.9337 182.553 17.1795 182.553 18.6688C182.553 21.8684 179.923 23.7741 176.261 23.7741" fill="#0B0C0C"/>
<path d="M185.622 23.6269V6.24219H196.807V8.60904H188.278V13.6886H195.553V16.0331H188.278V21.26H196.807V23.6269H185.622Z" fill="#0B0C0C"/>
<path d="M210.101 23.6269L206.413 16.3021H203.096V23.6269H200.443V6.24219H207.225C210.542 6.24219 212.657 8.36563 212.657 11.3218C212.657 13.8136 211.132 15.3989 209.166 15.937L213.199 23.6301H210.101V23.6269ZM207.029 8.60904H203.096V14.0538H207.029C208.799 14.0538 210.004 13.0513 210.004 11.3442C210.004 9.63713 208.799 8.60904 207.029 8.60904Z" fill="#0B0C0C"/>
<path d="M222.195 23.6269H220.129L214.378 6.24219H217.131L221.164 18.89L225.193 6.24219H227.994L222.195 23.6269Z" fill="#0B0C0C"/>
<path d="M233.303 6.24219H230.65V23.6301H233.303V6.24219Z" fill="#0B0C0C"/>
<path d="M243.283 23.7741C241.465 23.7741 239.892 23.1143 238.686 21.9197C236.965 20.2094 236.991 18.2813 236.991 14.9344C236.991 11.5875 236.965 9.65942 238.686 7.94913C239.892 6.7513 241.465 6.09473 243.283 6.09473C246.503 6.09473 248.911 7.97476 249.527 11.4434H246.822C246.403 9.68504 245.223 8.46478 243.283 8.46478C242.251 8.46478 241.317 8.85552 240.701 9.51529C239.84 10.4441 239.644 11.4434 239.644 14.9376C239.644 18.4318 239.84 19.4311 240.701 20.3599C241.317 21.0197 242.248 21.4104 243.283 21.4104C245.223 21.4104 246.429 20.1901 246.848 18.4318H249.527C248.937 21.9004 246.455 23.7805 243.283 23.7805" fill="#0B0C0C"/>
<path d="M252.818 23.6269V6.24219H264V8.60904H255.471V13.6886H262.746V16.0331H255.471V21.26H264V23.6269H252.818Z" fill="#0B0C0C"/>
<path d="M46.5659 5.98267V47.9454H47.2106H47.8553V5.98267H47.2106H46.5659Z" fill="#0B0C0C"/>
<path d="M68.5433 47.497V41.2196C68.5433 40.2908 68.5917 38.1193 68.5917 37.4595C68.3467 38.0937 67.8309 39.3139 67.3861 40.2908L63.8951 47.8846L60.4041 40.2908C59.9625 39.3139 59.4468 38.0937 59.1986 37.4595C59.1986 38.1193 59.2469 40.2908 59.2469 41.2196V47.497H55.8784V30.4038H59.1953L62.783 38.1449C63.2246 39.0961 63.7404 40.3901 63.9628 41.0018C64.1852 40.3676 64.6752 39.1218 65.1168 38.1449L68.582 30.4038H71.9731V47.497H68.5337H68.5433Z" fill="#0B0C0C"/>
<path d="M79.2324 30.4038H75.793V47.497H79.2324V30.4038Z" fill="#0B0C0C"/>
<path d="M88.793 47.7661C86.3109 47.7661 84.2447 47.2793 82.0818 45.9341L83.7515 43.0292C85.3504 43.9324 87.0459 44.4704 88.7898 44.4704C91.1236 44.4704 92.4774 43.4936 92.4774 41.6616C92.4774 39.8296 91.1751 39.1218 89.5537 39.1218C87.9323 39.1218 86.9717 39.5862 86.1627 40.1467L82.8941 38.9488L83.484 30.4006H94.9369V33.6963H86.6558L86.4592 36.6525C87.4166 36.14 88.4513 35.871 90.0727 35.871C93.9312 35.871 95.9716 38.3115 95.9716 41.5367C95.9716 45.6394 93.0222 47.7629 88.7962 47.7629" fill="#0B0C0C"/>
<path d="M20.3496 3.0811C21.8324 3.43341 23.0186 4.54797 23.4602 5.98922L23.9985 6.21342C23.6021 4.42627 22.1934 3.02025 20.398 2.6167L20.3528 3.0811H20.3496Z" fill="#0B0C0C"/>
<path d="M15.2243 5.98922C15.6659 4.54797 16.8521 3.43341 18.3349 3.0811L18.2898 2.6167C16.4943 3.02025 15.0825 4.42627 14.6892 6.21342L15.2275 5.98922H15.2243Z" fill="#0B0C0C"/>
<path d="M17.6517 2.60393C17.8297 2.60393 17.974 2.46054 17.974 2.28366C17.974 2.10677 17.8297 1.96338 17.6517 1.96338C17.4737 1.96338 17.3293 2.10677 17.3293 2.28366C17.3293 2.46054 17.4737 2.60393 17.6517 2.60393Z" fill="#0B0C0C"/>
<path d="M16.2462 3.32757C16.4242 3.32757 16.5685 3.18417 16.5685 3.00729C16.5685 2.8304 16.4242 2.68701 16.2462 2.68701C16.0681 2.68701 15.9238 2.8304 15.9238 3.00729C15.9238 3.18417 16.0681 3.32757 16.2462 3.32757Z" fill="#0B0C0C"/>
<path d="M15.1019 4.45818C15.2799 4.45818 15.4242 4.31479 15.4242 4.1379C15.4242 3.96102 15.2799 3.81763 15.1019 3.81763C14.9239 3.81763 14.7795 3.96102 14.7795 4.1379C14.7795 4.31479 14.9239 4.45818 15.1019 4.45818Z" fill="#0B0C0C"/>
<path d="M14.3702 5.85149C14.5482 5.85149 14.6925 5.7081 14.6925 5.53122C14.6925 5.35433 14.5482 5.21094 14.3702 5.21094C14.1922 5.21094 14.0479 5.35433 14.0479 5.53122C14.0479 5.7081 14.1922 5.85149 14.3702 5.85149Z" fill="#0B0C0C"/>
<path d="M21.0394 2.60393C21.2174 2.60393 21.3617 2.46054 21.3617 2.28366C21.3617 2.10677 21.2174 1.96338 21.0394 1.96338C20.8614 1.96338 20.717 2.10677 20.717 2.28366C20.717 2.46054 20.8614 2.60393 21.0394 2.60393Z" fill="#0B0C0C"/>
<path d="M22.4449 3.32757C22.6229 3.32757 22.7672 3.18417 22.7672 3.00729C22.7672 2.8304 22.6229 2.68701 22.4449 2.68701C22.2669 2.68701 22.1226 2.8304 22.1226 3.00729C22.1226 3.18417 22.2669 3.32757 22.4449 3.32757Z" fill="#0B0C0C"/>
<path d="M23.586 4.45818C23.764 4.45818 23.9084 4.31479 23.9084 4.1379C23.9084 3.96102 23.764 3.81763 23.586 3.81763C23.408 3.81763 23.2637 3.96102 23.2637 4.1379C23.2637 4.31479 23.408 4.45818 23.586 4.45818Z" fill="#0B0C0C"/>
<path d="M24.3209 5.85149C24.4989 5.85149 24.6432 5.7081 24.6432 5.53122C24.6432 5.35433 24.4989 5.21094 24.3209 5.21094C24.1429 5.21094 23.9985 5.35433 23.9985 5.53122C23.9985 5.7081 24.1429 5.85149 24.3209 5.85149Z" fill="#0B0C0C"/>
<path d="M19.3438 5.33253H18.8022C18.8022 5.33253 18.7571 5.34534 18.7926 5.38057C18.828 5.4158 19.1375 5.77131 19.1568 5.86098C19.1762 5.94746 19.1826 6.02753 19.1826 6.02753C19.1826 6.05956 19.2052 6.20368 19.1826 6.23251C19.0988 6.33499 18.9086 6.15244 18.8603 6.08838C18.8055 6.01792 18.7668 5.98269 18.7442 5.89621C18.7442 5.89621 18.683 5.8802 18.683 5.93465C18.683 6.13642 18.6862 6.14923 18.6927 6.34781L18.7023 6.53036C18.6991 6.72894 18.6927 6.66488 18.6927 6.86666C18.6927 6.92431 18.7539 6.90509 18.7539 6.90509C18.7539 6.90509 18.8216 6.6873 19.0343 6.61684C19.0472 6.61684 19.1826 6.57841 19.1826 6.5688C19.1955 6.81221 19.1343 7.06843 19.044 7.29583C18.9795 7.45917 18.7571 7.69938 18.5798 7.73781C18.4702 7.76343 18.3477 7.78265 18.2349 7.78585C18.019 7.79226 17.8255 7.71539 17.7127 7.52002C17.5064 7.17092 17.6579 6.86025 17.8159 6.83142C17.9222 6.81221 17.977 6.85384 18.048 6.92431C18.2349 7.11007 18.3091 6.75136 18.322 6.62965C18.3445 6.41186 18.2639 6.05956 18.0061 6.00511C17.8707 5.97628 17.6225 6.02432 17.5064 6.21649C17.4001 6.38944 17.4323 6.35421 17.3936 6.33179C17.3162 6.28695 17.371 5.83536 17.371 5.75849C17.371 5.54711 17.3936 5.28128 17.255 5.10193C17.1647 4.98342 16.9907 4.89374 16.8488 4.8457C16.7425 4.98342 16.6103 5.13395 16.6006 5.31331C16.5877 5.51508 16.6877 5.71686 16.7618 5.89621C16.8037 5.9955 16.8617 6.08518 16.9036 6.18446C16.9294 6.24532 16.9552 6.31898 16.9617 6.38624C16.9713 6.51435 16.8811 6.41827 16.8198 6.37343C16.6361 6.24211 16.3911 6.29336 16.2751 6.37343C16.0881 6.50154 16.1107 6.79299 16.1784 6.97875C16.2203 7.09085 16.4846 7.51682 16.6006 7.23818C16.6361 7.1485 16.6716 7.08765 16.7779 7.06523C16.9359 7.03 17.2002 7.25739 17.1454 7.65774C17.0906 8.0677 16.6716 8.22463 16.3202 8.23424C16.0204 8.24065 15.6755 7.9556 15.5498 7.69297C15.4918 7.57127 15.5401 7.51362 15.6368 7.46557C15.7077 7.43034 15.7658 7.44956 15.8915 7.51041C15.9721 7.54885 15.9559 7.46557 15.9559 7.46557C15.8657 7.267 15.7561 7.07804 15.6755 6.87626C15.6755 6.87626 15.6175 6.77057 15.5949 6.89548C15.582 6.96914 15.582 6.94672 15.5691 7.02039C15.5433 7.18053 15.408 7.21576 15.2919 7.07163C15.0856 6.80901 15.4563 6.28055 15.4563 6.28055L14.7891 6.55278L16.0011 9.49293H16.0204C16.794 9.02533 17.9899 8.72747 19.3406 8.72747" fill="#0B0C0C"/>
<path d="M19.3181 5.33253H19.8597C19.8597 5.33253 19.9048 5.34534 19.8693 5.38057C19.8339 5.4158 19.5244 5.77131 19.5051 5.86098C19.4857 5.94746 19.4793 6.02753 19.4793 6.02753C19.4793 6.05956 19.4567 6.20368 19.4793 6.23251C19.5631 6.33499 19.7533 6.15244 19.8016 6.08838C19.8564 6.01792 19.8951 5.98269 19.9177 5.89621C19.9177 5.89621 19.9789 5.8802 19.9789 5.93465C19.9789 6.13642 19.9757 6.14923 19.9693 6.34781L19.9596 6.53036C19.9628 6.72894 19.9693 6.66488 19.9693 6.86666C19.9693 6.92431 19.908 6.90509 19.908 6.90509C19.908 6.90509 19.8403 6.6873 19.6276 6.61684C19.6147 6.61684 19.4793 6.57841 19.4793 6.5688C19.4664 6.81221 19.5276 7.06843 19.6179 7.29583C19.6824 7.45917 19.9048 7.69938 20.0821 7.73781C20.1917 7.76343 20.3142 7.78265 20.427 7.78585C20.643 7.79226 20.8364 7.71539 20.9492 7.52002C21.1555 7.17092 21.004 6.86025 20.846 6.83142C20.7397 6.81221 20.6849 6.85384 20.6139 6.92431C20.427 7.11007 20.3528 6.75136 20.3399 6.62965C20.3174 6.41186 20.398 6.05956 20.6558 6.00511C20.7912 5.97628 21.0394 6.02432 21.1555 6.21649C21.2619 6.38944 21.2296 6.35421 21.2683 6.33179C21.3457 6.28695 21.2909 5.83536 21.2909 5.75849C21.2909 5.54711 21.2683 5.28128 21.4069 5.10193C21.4972 4.98342 21.6712 4.89374 21.8131 4.8457C21.9194 4.98342 22.0516 5.13395 22.0613 5.31331C22.0742 5.51508 21.9742 5.71686 21.9001 5.89621C21.8582 5.9955 21.8002 6.08518 21.7583 6.18446C21.7325 6.24532 21.7067 6.31898 21.7002 6.38624C21.6906 6.51435 21.7808 6.41827 21.8421 6.37343C22.0258 6.24211 22.2708 6.29336 22.3868 6.37343C22.5738 6.50154 22.5512 6.79299 22.4835 6.97875C22.4416 7.09085 22.1773 7.51682 22.0613 7.23818C22.0258 7.1485 21.9903 7.08765 21.884 7.06523C21.726 7.03 21.4617 7.25739 21.5165 7.65774C21.5713 8.0677 21.9903 8.22463 22.3417 8.23424C22.6415 8.24065 22.9864 7.9556 23.1121 7.69297C23.1701 7.57127 23.1218 7.51362 23.0251 7.46557C22.9542 7.43034 22.8961 7.44956 22.7704 7.51041C22.6898 7.54885 22.706 7.46557 22.706 7.46557C22.7962 7.267 22.9058 7.07804 22.9864 6.87626C22.9864 6.87626 23.0444 6.77057 23.067 6.89548C23.0799 6.96914 23.0799 6.94672 23.0928 7.02039C23.1186 7.18053 23.2539 7.21576 23.37 7.07163C23.5763 6.80901 23.2056 6.28055 23.2056 6.28055L23.8728 6.55278L22.6608 9.49293H22.6415C21.8679 9.02533 20.672 8.72747 19.3213 8.72747" fill="#0B0C0C"/>
<path d="M19.9498 2.53979C19.7886 2.68392 19.5759 2.7768 19.3406 2.7768C19.1053 2.7768 18.8925 2.68712 18.7313 2.53979H18.7217L18.8281 4.89704L19.3406 4.97391L19.8531 4.89704L19.9595 2.53979H19.9434H19.9498Z" fill="#0B0C0C"/>
<path d="M19.563 0.948022L20.0819 1.19784V0.499633L19.563 0.650164C19.5469 0.630947 19.5307 0.614933 19.5114 0.602122L19.7209 0H18.9731L19.1826 0.598919C19.1633 0.614933 19.1472 0.627744 19.131 0.646961L18.6121 0.49643V1.19464L19.131 0.944819C19.1472 0.964036 19.1633 0.98005 19.1826 0.996064L19.0053 1.48609C18.8893 1.58217 18.8151 1.7263 18.8151 1.88964C18.8151 2.18109 19.0537 2.4181 19.347 2.4181C19.6403 2.4181 19.8789 2.18109 19.8789 1.88964C19.8789 1.7263 19.8047 1.58217 19.6887 1.48609L19.5114 0.996064C19.5307 0.983253 19.5501 0.967239 19.563 0.948022Z" fill="#0B0C0C"/>
<path d="M8.52932 21.4298C8.49708 21.3241 8.38749 21.0967 8.31335 21.0422C8.23921 20.9878 8.19408 20.9045 8.13606 20.8308C8.09738 20.7828 8.05547 20.738 8.01357 20.6963C7.89108 20.5746 7.7428 20.4849 7.56229 20.4753C7.22382 20.4593 6.97562 20.7988 6.808 21.0422C6.50822 21.481 6.22778 21.3817 6.09884 21.2984C6.02793 21.212 5.80873 20.8885 6.33093 20.549C6.57914 20.3889 6.92404 20.1454 6.91437 19.8092C6.91115 19.6298 6.82089 19.4793 6.70163 19.3544C6.65972 19.3095 6.61459 19.2679 6.56946 19.2294C6.49855 19.1686 6.41474 19.1238 6.35994 19.0501C6.30837 18.9764 6.0795 18.8611 5.97635 18.8291C5.86675 18.8291 5.61533 18.8611 5.54119 18.9156C5.46382 18.97 5.37034 18.986 5.28331 19.0181C5.22529 19.0405 5.17049 19.0661 5.11569 19.0917C4.96097 19.1686 4.82881 19.2839 4.76434 19.4504C4.64507 19.7675 4.89327 20.107 5.07379 20.3376C5.40258 20.7572 5.21884 20.991 5.09957 21.0871C4.9932 21.1287 4.61606 21.2344 4.45166 20.6355C4.3743 20.3504 4.24859 19.9501 3.92302 19.854C3.75218 19.8027 3.57811 19.8412 3.42338 19.9148C3.36859 19.9405 3.31379 19.9725 3.26221 20.0013C3.18163 20.0494 3.11393 20.1134 3.02368 20.1422C2.93664 20.1679 2.75935 20.3472 2.69489 20.4369C2.65943 20.5394 2.6143 20.7892 2.64331 20.8757C2.67232 20.9654 2.6562 21.0582 2.66265 21.1511C2.66265 21.212 2.67232 21.2728 2.68199 21.3305C2.70778 21.5002 2.7787 21.6636 2.9173 21.7725C3.18163 21.9838 3.58456 21.8525 3.865 21.7532C4.37108 21.5739 4.53547 21.8205 4.59027 21.9614C4.59672 22.0767 4.5806 22.4611 3.95848 22.4322C3.66192 22.4194 3.23965 22.413 3.04624 22.6884C2.94631 22.8358 2.92697 23.0087 2.95276 23.1785C2.96243 23.2393 2.9721 23.297 2.98822 23.3578C3.01078 23.4475 3.05269 23.5308 3.04946 23.6269C3.04946 23.7165 3.16551 23.9407 3.22675 24.0304C3.31379 24.0977 3.5362 24.2162 3.62968 24.2162C3.72316 24.2162 3.8102 24.261 3.89723 24.2834C3.95848 24.2994 4.0165 24.3123 4.07774 24.3219C4.24859 24.3475 4.42265 24.3347 4.57415 24.2354C4.85782 24.0496 4.85782 23.6269 4.84815 23.3354C4.83203 22.8037 5.11569 22.7205 5.27042 22.7141C5.38001 22.7397 5.75071 22.8742 5.52829 23.4571C5.42514 23.7326 5.28653 24.1297 5.49284 24.3987C5.60243 24.5397 5.7636 24.6101 5.93445 24.6389C5.99569 24.6485 6.05694 24.6582 6.11818 24.6614C6.20844 24.6678 6.30514 24.655 6.3954 24.6838C6.48243 24.7126 6.73064 24.671 6.83379 24.6389H6.84023C6.93049 24.5749 7.111 24.4019 7.14001 24.3155C7.16903 24.2258 7.23672 24.1585 7.28507 24.0817C7.32053 24.0304 7.34954 23.9792 7.37855 23.9247C7.45591 23.771 7.49782 23.6012 7.44947 23.4283C7.35921 23.1048 6.95628 22.9735 6.67262 22.8902C6.15686 22.7429 6.16976 22.445 6.20844 22.2977C6.26968 22.2016 6.51467 21.9006 6.99818 22.2849C7.23027 22.4707 7.56873 22.7205 7.88785 22.6084C8.05547 22.5475 8.17152 22.4162 8.25533 22.2657C8.28434 22.2112 8.31012 22.1568 8.33269 22.1023C8.36815 22.0159 8.38426 21.923 8.44229 21.8493C8.49708 21.7757 8.53577 21.529 8.53577 21.4201V21.4298H8.52932Z" fill="#0B0C0C"/>
<path d="M22.3513 45.8508C22.3674 45.7419 22.3706 45.4921 22.3287 45.4121C22.2868 45.3288 22.2836 45.2359 22.261 45.1462C22.2481 45.0854 22.232 45.0277 22.2127 44.9701C22.1546 44.8067 22.0611 44.6594 21.9032 44.5729C21.6034 44.4096 21.2327 44.6082 20.9748 44.7523C20.5139 45.0149 20.3044 44.8035 20.227 44.6722C20.2012 44.5665 20.1432 44.1758 20.7685 44.0989C21.0619 44.0637 21.4809 43.9964 21.6195 43.689C21.6937 43.5256 21.6808 43.3527 21.6292 43.1893C21.6099 43.1317 21.5873 43.0772 21.5647 43.0196C21.5293 42.9363 21.4745 42.8594 21.4584 42.7666C21.4422 42.6769 21.2907 42.4751 21.2134 42.3982H21.2102C21.1135 42.347 20.8717 42.2669 20.7814 42.2829C20.688 42.299 20.5977 42.2701 20.5042 42.2637C20.443 42.2573 20.3817 42.2573 20.3205 42.2573C20.1496 42.2573 19.9756 42.3022 19.8466 42.4239C19.5984 42.6545 19.6726 43.0708 19.7306 43.3591C19.837 43.8811 19.5694 44.0092 19.4211 44.0413C19.3083 44.0317 18.9247 43.9612 19.0408 43.3527C19.0956 43.0612 19.1633 42.6481 18.9118 42.4207C18.7797 42.299 18.6088 42.2573 18.438 42.2573C18.3768 42.2573 18.3155 42.2573 18.2543 42.2669C18.1608 42.2765 18.0705 42.3054 17.977 42.2893C17.8868 42.2765 17.645 42.3598 17.5516 42.4079H17.5483C17.4742 42.4847 17.3195 42.6897 17.3066 42.7794C17.2937 42.8723 17.2389 42.9491 17.2034 43.0356C17.1809 43.0932 17.1583 43.1477 17.1422 43.2085C17.0906 43.3719 17.0809 43.5448 17.1583 43.7082C17.3033 44.0124 17.7224 44.0733 18.0157 44.1053C18.5508 44.1662 18.5895 44.4608 18.5734 44.6114C18.5283 44.7203 18.3381 45.0533 17.7998 44.7555C17.5419 44.6146 17.1647 44.4224 16.8682 44.5857C16.7135 44.6722 16.62 44.8228 16.5652 44.9861C16.5458 45.0437 16.5297 45.1046 16.5168 45.1622C16.4975 45.2519 16.4975 45.348 16.4524 45.4313C16.4105 45.5113 16.4169 45.7644 16.433 45.8701V45.8765C16.4814 45.9725 16.6296 46.1775 16.7102 46.216C16.794 46.2576 16.8521 46.3345 16.923 46.3921C16.9681 46.4305 17.0165 46.469 17.068 46.5042C17.2099 46.6003 17.3743 46.6675 17.5516 46.6451C17.8868 46.6003 18.077 46.2256 18.1962 45.9565C18.4154 45.4729 18.7088 45.5242 18.8506 45.585C18.9376 45.6555 19.2084 45.9405 18.7539 46.3633C18.5379 46.5651 18.2381 46.8629 18.3026 47.1928C18.3381 47.369 18.4509 47.5035 18.5927 47.6028C18.6411 47.638 18.6927 47.67 18.7442 47.702C18.8248 47.7501 18.9151 47.7789 18.9828 47.8462C19.0472 47.9102 19.289 47.9839 19.3986 47.9999H19.405C19.5114 47.9807 19.7532 47.9038 19.8176 47.8398C19.8853 47.7725 19.9756 47.7437 20.0529 47.6924C20.1045 47.6604 20.1561 47.6284 20.2044 47.5899C20.3431 47.4875 20.4527 47.3529 20.4881 47.1768C20.5494 46.8437 20.2496 46.5522 20.0304 46.3537C19.6339 45.995 19.7725 45.7355 19.8757 45.6202C19.9724 45.5594 20.3269 45.3928 20.5913 45.9533C20.717 46.2192 20.9104 46.5939 21.2456 46.6323C21.4229 46.6547 21.5873 46.5875 21.7259 46.485C21.7743 46.4498 21.8226 46.4113 21.8677 46.3729C21.9387 46.312 21.9935 46.2352 22.0773 46.1935C22.1579 46.1519 22.3029 45.9469 22.3513 45.8476V45.8508Z" fill="#0B0C0C"/>
<path d="M36.3314 20.4465V20.4401C36.2669 20.3536 36.0864 20.1742 36.0026 20.1454C35.9124 20.1166 35.8447 20.0525 35.7641 20.0045C35.7125 19.9725 35.6577 19.9436 35.6029 19.918C35.4482 19.8444 35.2773 19.8059 35.1033 19.8572C34.7777 19.9532 34.652 20.3536 34.5746 20.6386C34.4102 21.2344 34.0363 21.1319 33.9299 21.0902C33.8107 20.9974 33.6237 20.7635 33.9525 20.3408C34.133 20.1102 34.3812 19.7675 34.2652 19.4536C34.2007 19.2871 34.0685 19.1718 33.9138 19.0949C33.859 19.0661 33.8042 19.0437 33.7462 19.0212C33.6592 18.986 33.5657 18.9732 33.4916 18.9188C33.4174 18.8675 33.166 18.8323 33.0564 18.8323C32.9532 18.8675 32.7244 18.9796 32.6728 19.0533C32.618 19.1301 32.5342 19.175 32.4633 19.2326C32.4181 19.2711 32.3698 19.3127 32.3311 19.3575C32.2118 19.4824 32.1216 19.633 32.1184 19.8123C32.1087 20.1486 32.4536 20.392 32.7018 20.5522C33.224 20.8917 33.008 21.2183 32.9339 21.3048C32.805 21.3881 32.5245 21.4874 32.2247 21.0486C32.0603 20.8052 31.8089 20.4657 31.4705 20.4817C31.2899 20.4881 31.1417 20.581 31.0192 20.7027C30.9773 20.7443 30.9354 20.7924 30.8967 20.8372C30.8387 20.9077 30.7935 20.9909 30.7194 21.0486C30.6453 21.103 30.5357 21.3304 30.5034 21.4329C30.5034 21.545 30.5421 21.7948 30.5969 21.8653C30.6549 21.939 30.671 22.0318 30.7065 22.1183C30.7291 22.1728 30.7548 22.2304 30.7839 22.2817C30.8644 22.4322 30.9837 22.5635 31.1513 22.6244C31.4737 22.7365 31.8089 22.4866 32.041 22.3009C32.531 21.9101 32.7727 22.224 32.8307 22.3169C32.8726 22.4642 32.8759 22.7589 32.3666 22.9062C32.0829 22.9895 31.68 23.1176 31.5897 23.4443C31.5414 23.6172 31.5833 23.787 31.6606 23.9407C31.6896 23.9952 31.7187 24.0464 31.7509 24.0976C31.8025 24.1745 31.8669 24.2418 31.8959 24.3314C31.925 24.4179 32.1087 24.5909 32.1957 24.6517H32.2022C32.3053 24.6838 32.5568 24.7254 32.6406 24.6966C32.7308 24.6677 32.8243 24.6805 32.9178 24.6741C32.979 24.6677 33.0403 24.6613 33.1015 24.6517C33.2724 24.6229 33.4335 24.5524 33.5431 24.4115C33.7494 24.1425 33.614 23.7453 33.5077 23.4699C33.2852 22.8902 33.6559 22.7557 33.7655 22.7269C33.9203 22.7333 34.2039 22.8165 34.1878 23.3482C34.1781 23.6428 34.1781 24.0624 34.4618 24.2482C34.6101 24.3475 34.7874 24.3603 34.9582 24.3346C35.0195 24.325 35.0775 24.3122 35.1387 24.2962C35.229 24.2738 35.3128 24.2322 35.4063 24.229C35.4965 24.229 35.7189 24.1105 35.8092 24.0432C35.8737 23.9535 35.9897 23.7293 35.9897 23.6396C35.9897 23.55 36.0316 23.4603 36.051 23.3706C36.0671 23.3098 36.0768 23.2521 36.0864 23.1913C36.109 23.0215 36.0929 22.8486 35.9897 22.7012C35.7963 22.4226 35.374 22.429 35.0775 22.445C34.4521 22.4738 34.4392 22.0831 34.4489 21.971C34.5037 21.8269 34.6713 21.5867 35.1742 21.766C35.4514 21.8653 35.8543 21.9934 36.1219 21.7852C36.2637 21.6731 36.3314 21.513 36.3572 21.3433C36.3669 21.2824 36.3733 21.2215 36.3765 21.1639C36.383 21.0742 36.3669 20.9781 36.3959 20.8917C36.4249 20.8052 36.3798 20.5586 36.3443 20.4561" fill="#0B0C0C"/>
<path d="M11.9944 15.6423C11.8848 15.3316 12.1362 14.8736 11.8655 14.6911C11.6495 14.5437 11.527 14.8352 11.4496 14.9985C11.3594 15.1971 11.1982 15.3893 10.9145 15.2515C10.6953 15.0241 10.8307 14.816 10.9919 14.6654C11.1273 14.5437 11.3658 14.3355 11.1595 14.1754C10.9016 13.9768 10.5374 14.3548 10.2086 14.3484C9.87981 14.3548 9.51556 13.9768 9.25769 14.1754C9.04816 14.3355 9.28992 14.5405 9.42208 14.6654C9.58325 14.8128 9.72186 15.0241 9.49944 15.2515C9.21578 15.3893 9.05461 15.1971 8.96435 14.9985C8.88699 14.832 8.7645 14.5437 8.54853 14.6911C8.27776 14.8736 8.52919 15.3348 8.41959 15.6423C8.32611 15.9562 7.84904 16.1835 7.95864 16.4878C8.04889 16.7344 8.31966 16.5711 8.47761 16.4814C8.6678 16.3725 8.90955 16.3117 9.06106 16.5871C9.10618 16.901 8.87087 16.9906 8.65168 17.0163C8.47117 17.0387 8.15527 17.0643 8.22618 17.3141C8.31644 17.6248 8.83541 17.5319 9.09651 17.7305C9.37051 17.9163 9.4382 18.4383 9.76699 18.4287C10.0281 18.4191 9.95717 18.1148 9.92172 17.9355C9.87981 17.7209 9.8927 17.4711 10.2054 17.4166C10.5181 17.4711 10.5342 17.7209 10.489 17.9355C10.4536 18.1148 10.3827 18.4191 10.6438 18.4287C10.9693 18.4383 11.0403 17.9195 11.311 17.7337C11.5753 17.5351 12.0911 17.628 12.1846 17.3173C12.2587 17.0675 11.9428 17.0387 11.7623 17.0195C11.5431 16.9939 11.311 16.901 11.3529 16.5903C11.5012 16.3149 11.743 16.3789 11.9364 16.4846C12.0975 16.5743 12.3683 16.7344 12.4553 16.491C12.5649 16.1868 12.0879 15.9594 11.9944 15.6455M10.2054 16.9939C9.76377 16.9939 9.40919 16.6383 9.40919 16.1996C9.40919 15.7608 9.76699 15.4053 10.2054 15.4053C10.6438 15.4053 11.0048 15.7608 11.0048 16.1996C11.0048 16.6383 10.647 16.9939 10.2054 16.9939ZM11.34 16.5903L11.3239 16.5391L11.3433 16.5903H11.34Z" fill="#0B0C0C"/>
<path d="M13.2483 16.7312C13.2 16.7152 13.1516 16.7088 13.1065 16.7088C13.1355 16.5422 13.1516 16.3725 13.1516 16.1995C13.1516 15.3988 12.8261 14.6686 12.2974 14.1401C12.3426 14.1113 12.3812 14.0729 12.4135 14.028C12.565 13.8199 12.3071 13.3811 12.3071 13.3811C12.3071 13.3811 11.8042 13.2818 11.656 13.49C11.627 13.5284 11.6044 13.5732 11.5915 13.6181C11.1789 13.4003 10.7083 13.2754 10.2086 13.2754C9.709 13.2754 9.28351 13.3875 8.8838 13.5893C8.86768 13.538 8.84512 13.49 8.81289 13.4451C8.65816 13.2402 8.15853 13.3459 8.15853 13.3459C8.15853 13.3459 7.9071 13.7878 8.0586 13.996C8.08761 14.0344 8.12307 14.0697 8.16175 14.0953C7.60732 14.627 7.25919 15.3732 7.25919 16.1995C7.25919 16.3501 7.27208 16.4974 7.29142 16.6447C7.23985 16.6447 7.18505 16.6511 7.13347 16.6671C6.88849 16.7472 6.83691 17.2532 6.83691 17.2532C6.83691 17.2532 7.18182 17.628 7.4268 17.5479C7.47516 17.5319 7.51706 17.5095 7.55574 17.4838C7.96834 18.323 8.77098 18.9347 9.72834 19.0916C9.71223 19.1397 9.70256 19.1941 9.70256 19.2486C9.70256 19.5048 10.1732 19.7098 10.1732 19.7098C10.1732 19.7098 10.6406 19.4984 10.6374 19.2422C10.6374 19.1941 10.6277 19.1461 10.6148 19.1012C11.5786 18.9667 12.3909 18.371 12.8228 17.5447C12.8648 17.5767 12.9131 17.6023 12.9647 17.6184C13.2097 17.6952 13.5513 17.3173 13.5513 17.3173C13.5513 17.3173 13.4933 16.8113 13.2483 16.7344M10.344 18.8162C10.2892 18.7938 10.2312 18.781 10.1667 18.7842C10.1119 18.7842 10.0571 18.7938 10.0088 18.813C8.97406 18.7361 8.10695 18.0667 7.74915 17.1443C7.75237 17.0867 7.74915 17.0258 7.72658 16.965C7.70724 16.9105 7.68146 16.8657 7.64922 16.8241C7.60087 16.6255 7.57508 16.4173 7.57508 16.2059C7.57508 15.386 7.95545 14.6526 8.55179 14.1754C8.60981 14.1594 8.66461 14.1369 8.71296 14.0985C8.75809 14.0665 8.79354 14.0248 8.82578 13.9832C9.22871 13.7366 9.70256 13.5925 10.2086 13.5925C10.7147 13.5925 11.2305 13.7494 11.6431 14.0152C11.6753 14.0633 11.714 14.1081 11.7656 14.1433C11.8107 14.1754 11.859 14.1978 11.9106 14.2106C12.4812 14.691 12.8454 15.4084 12.8454 16.2059C12.8454 16.4397 12.8132 16.6639 12.7552 16.8817C12.7165 16.9266 12.6875 16.981 12.6681 17.0387C12.652 17.0931 12.6456 17.1475 12.6456 17.1988C12.2684 18.1084 11.3884 18.7617 10.3505 18.8162" fill="#0B0C0C"/>
<path d="M5.39289 28.9212C5.36387 28.5945 5.71523 28.2069 5.49604 27.9667C5.31875 27.7714 5.13179 28.0244 5.01574 28.1685C4.88036 28.3415 4.68051 28.492 4.43552 28.2902C4.27757 28.018 4.45809 27.845 4.65149 27.7393C4.81267 27.6497 5.09311 27.5055 4.92871 27.3038C4.72563 27.0507 4.28402 27.3326 3.9649 27.2493C3.64256 27.1821 3.37823 26.7241 3.07845 26.8586C2.83992 26.9643 3.02043 27.2205 3.12358 27.3742C3.24607 27.5568 3.32666 27.7906 3.05911 27.9603C2.74966 28.0308 2.64007 27.8034 2.59816 27.5888C2.5627 27.4095 2.51113 27.0988 2.26615 27.1917C1.95992 27.307 2.09208 27.813 1.91479 28.0852C1.74717 28.3671 1.23142 28.476 1.26688 28.7995C1.29589 29.0589 1.59567 28.966 1.77296 28.9148C1.98571 28.8571 2.23391 28.8507 2.3145 29.155C2.28226 29.4688 2.03406 29.5009 1.81486 29.4752C1.63435 29.4528 1.32168 29.4048 1.33457 29.6674C1.34746 29.9909 1.87289 30.0229 2.07919 30.2759C2.3016 30.5194 2.24358 31.0414 2.5627 31.1087C2.82058 31.1631 2.8238 30.8492 2.83025 30.6667C2.83992 30.4489 2.91406 30.2119 3.22996 30.2311C3.51684 30.3592 3.47171 30.6026 3.37823 30.8012C3.30087 30.9677 3.15904 31.2464 3.41369 31.3168C3.72637 31.4033 3.91977 30.9165 4.226 30.798C4.529 30.6667 5.0093 30.8813 5.17369 30.5994C5.30585 30.372 5.00607 30.2727 4.83523 30.2087C4.62571 30.1318 4.41941 29.9877 4.5419 29.693C4.75464 29.4592 4.97384 29.5777 5.13501 29.7251C5.26717 29.85 5.49281 30.071 5.63787 29.8532C5.81838 29.5809 5.409 29.2511 5.39289 28.9212ZM4.29692 29.2286C4.19376 29.6546 3.76182 29.9172 3.33311 29.8115C2.90439 29.7091 2.64329 29.2799 2.74644 28.8539C2.84959 28.4279 3.28153 28.1685 3.71025 28.271C4.13897 28.3735 4.40007 28.8027 4.29692 29.2286Z" fill="#0B0C0C"/>
<path d="M6.35341 30.2727C6.3115 30.2471 6.26637 30.2279 6.22125 30.2183C6.28894 30.0646 6.34696 29.9044 6.38564 29.7347C6.57582 28.9564 6.43077 28.1717 6.04396 27.5344C6.09231 27.5151 6.14066 27.4895 6.18256 27.4511C6.37919 27.2845 6.23092 26.7977 6.23092 26.7977C6.23092 26.7977 5.76674 26.5799 5.57011 26.7497C5.53143 26.7817 5.50242 26.8201 5.47663 26.8586C5.1285 26.5479 4.69978 26.3173 4.21626 26.1988C3.75209 26.0867 3.28791 26.0899 2.85597 26.1924C2.85597 26.1412 2.84308 26.0867 2.82051 26.0355C2.72059 25.7985 2.20806 25.7856 2.20806 25.7856C2.20806 25.7856 1.8567 26.1572 1.95663 26.3942C1.97597 26.439 2.00176 26.4806 2.03399 26.5159C1.36674 26.9034 0.854212 27.5472 0.657582 28.3511C0.622125 28.4984 0.596337 28.6457 0.586667 28.7898C0.535092 28.777 0.483517 28.7706 0.428718 28.7738C0.170843 28.7963 0 29.2767 0 29.2767C0 29.2767 0.244982 29.7219 0.502857 29.7026C0.551209 29.6994 0.59956 29.6866 0.641465 29.6706C0.844542 30.5802 1.47634 31.3649 2.36923 31.7428C2.34022 31.7876 2.31766 31.8357 2.30476 31.8901C2.24674 32.14 2.65289 32.4506 2.65289 32.4506C2.65289 32.4506 3.15575 32.3545 3.217 32.1047C3.22667 32.0567 3.22989 32.0086 3.22667 31.9638C4.1937 32.0599 5.1285 31.6691 5.74418 30.9677C5.77641 31.0094 5.81832 31.0446 5.86344 31.0734C6.08264 31.2079 6.50491 30.9165 6.50491 30.9165C6.50491 30.9165 6.56938 30.4105 6.35018 30.2791M3.03004 31.6179C2.98168 31.5827 2.92689 31.557 2.86564 31.5442C2.81084 31.5314 2.75604 31.5282 2.70447 31.5346C1.7181 31.2176 1.0315 30.3592 0.905788 29.3792C0.921905 29.3247 0.931575 29.2639 0.925128 29.203C0.925128 29.1486 0.905788 29.0941 0.883223 29.0461C0.883223 28.8411 0.905788 28.6329 0.957363 28.4247C1.15399 27.6272 1.69875 27.0059 2.39179 26.6792C2.44982 26.6792 2.50784 26.6664 2.56586 26.644C2.61744 26.6216 2.66256 26.5927 2.70125 26.5575C3.15253 26.4102 3.64571 26.3814 4.1389 26.5031C4.65143 26.628 5.09304 26.8938 5.4315 27.2525C5.45084 27.307 5.47985 27.3582 5.51854 27.4062C5.55399 27.4479 5.5959 27.4799 5.64425 27.5055C6.08264 28.1077 6.26637 28.8859 6.07619 29.6642C6.02139 29.8916 5.93758 30.103 5.82799 30.2984C5.77963 30.3336 5.73773 30.3784 5.70549 30.4329C5.67648 30.4809 5.65714 30.5322 5.64747 30.5834C5.06403 31.3809 4.05187 31.8069 3.03004 31.6147" fill="#0B0C0C"/>
<path d="M14.312 42.4592C14.183 42.2318 13.9445 42.4368 13.8027 42.5521C13.6318 42.6898 13.3997 42.7923 13.2063 42.5393C13.1128 42.2414 13.3288 42.1133 13.5383 42.0492C13.7156 41.998 14.0186 41.9211 13.9058 41.6841C13.764 41.3927 13.2708 41.5688 12.9775 41.4183C12.6777 41.2806 12.523 40.7809 12.2006 40.8418C11.9427 40.893 12.0652 41.1813 12.1297 41.3542C12.2103 41.5592 12.2361 41.8058 11.9363 41.9115C11.6204 41.9115 11.5624 41.6681 11.5688 41.4471C11.5753 41.2646 11.5946 40.9507 11.3335 40.9859C11.0112 41.0307 11.0273 41.5496 10.792 41.7802C10.5663 42.0204 10.0377 42.014 9.999 42.3343C9.96999 42.5937 10.2859 42.5681 10.4664 42.5585C10.6888 42.5457 10.9338 42.6001 10.9402 42.914C10.8403 43.2086 10.5921 43.1894 10.3826 43.1158C10.2085 43.0549 9.91519 42.9396 9.87006 43.1958C9.81204 43.5161 10.3213 43.6602 10.4664 43.9549C10.6243 44.2431 10.4567 44.7364 10.7533 44.8709C10.9918 44.9798 11.066 44.6755 11.1143 44.4994C11.1723 44.288 11.298 44.0702 11.6011 44.1599C11.8557 44.3488 11.759 44.5762 11.6236 44.7492C11.5108 44.8933 11.3077 45.1367 11.543 45.2584C11.8299 45.4121 12.1265 44.9766 12.452 44.9317C12.7776 44.8709 13.1967 45.1815 13.4191 44.9445C13.5964 44.7524 13.3256 44.589 13.1741 44.4897C12.9904 44.3712 12.8227 44.1855 13 43.9261C13.2579 43.7435 13.4481 43.9068 13.5706 44.0862C13.6737 44.2367 13.8446 44.5026 14.0315 44.32C14.2668 44.0958 13.9445 43.6794 13.9993 43.3592C14.0412 43.0325 14.4699 42.7314 14.312 42.4496M12.8646 43.4168C12.668 43.8108 12.1877 43.9709 11.7945 43.7755C11.4012 43.5802 11.2368 43.1029 11.4367 42.7122C11.6333 42.3183 12.1136 42.1581 12.5068 42.3535C12.9001 42.5489 13.0613 43.0261 12.8679 43.4168M12.9936 43.9132L13 43.8812V43.9132H12.9936Z" fill="#0B0C0C"/>
<path d="M15.292 41.479C15.292 41.479 14.8859 41.1684 14.6603 41.2869C14.6151 41.3093 14.5797 41.3381 14.5442 41.3733C14.2734 40.9954 13.906 40.6751 13.4579 40.4541C13.0324 40.2428 12.5779 40.1467 12.1299 40.1499C12.1395 40.0986 12.1395 40.0442 12.1299 39.9897C12.0847 39.7367 11.5883 39.6118 11.5883 39.6118C11.5883 39.6118 11.166 39.8969 11.2079 40.1499C11.2176 40.1979 11.2337 40.246 11.2563 40.2876C10.5214 40.5182 9.87666 41.0338 9.50597 41.7737C9.43828 41.9082 9.38348 42.0459 9.33835 42.1868C9.29322 42.1612 9.24165 42.1452 9.18685 42.1388C8.9322 42.1036 8.6582 42.5328 8.6582 42.5328C8.6582 42.5328 8.80003 43.0228 9.05791 43.058C9.10626 43.0644 9.15461 43.0644 9.20296 43.058C9.19652 43.99 9.64135 44.8964 10.4311 45.4569C10.3924 45.4921 10.3602 45.537 10.3376 45.585C10.2248 45.8156 10.5536 46.2063 10.5536 46.2063C10.5536 46.2063 11.0661 46.2224 11.1789 45.9918C11.2015 45.9469 11.2144 45.9021 11.2208 45.854C12.1427 46.1615 13.142 45.9853 13.8963 45.4345C13.9189 45.4825 13.9511 45.5241 13.9898 45.5626C14.1767 45.7419 14.6506 45.553 14.6506 45.553C14.6506 45.553 14.8246 45.0725 14.6409 44.8964C14.6055 44.8612 14.5668 44.8355 14.5249 44.8131C14.6248 44.6786 14.7151 44.5345 14.7924 44.3775C15.1502 43.6601 15.1857 42.8626 14.9504 42.1548C15.0019 42.1484 15.0535 42.1324 15.1051 42.1068C15.334 41.9851 15.2985 41.479 15.2985 41.479M14.512 44.2398C14.4088 44.448 14.2799 44.637 14.1316 44.8035C14.0768 44.8259 14.0252 44.8612 13.9833 44.906C13.9447 44.9476 13.9124 44.9925 13.8931 45.0405C13.1485 45.6875 12.0654 45.8861 11.1145 45.4761C11.0758 45.4313 11.0274 45.3928 10.9694 45.3672C10.9178 45.3416 10.8663 45.3288 10.8115 45.3224C9.92179 44.7971 9.44472 43.8107 9.53498 42.8274C9.56399 42.7762 9.58333 42.7185 9.593 42.6577C9.59945 42.6032 9.59945 42.5488 9.58655 42.4975C9.63168 42.2989 9.69938 42.1004 9.79608 41.9082C10.1636 41.1748 10.834 40.6879 11.5819 40.5214C11.6399 40.5342 11.6979 40.5342 11.7592 40.5214C11.814 40.5118 11.8655 40.4926 11.9107 40.467C12.3813 40.4221 12.8712 40.5022 13.3257 40.7264C13.7996 40.9602 14.1703 41.3189 14.4217 41.7385C14.4282 41.7961 14.4443 41.8538 14.4733 41.9082C14.4991 41.9563 14.5345 41.9979 14.5732 42.0331C14.8698 42.7153 14.873 43.516 14.5152 44.2334" fill="#0B0C0C"/>
<path d="M28.3921 43.1221C28.1858 43.1958 27.9376 43.2182 27.8345 42.9235C27.8409 42.6065 28.0859 42.552 28.3083 42.5648C28.4921 42.5744 28.808 42.6001 28.7757 42.3406C28.737 42.0172 28.2084 42.0268 27.9828 41.7866C27.7474 41.556 27.7636 41.0371 27.4412 40.9923C27.1801 40.957 27.1995 41.2677 27.2059 41.4535C27.2124 41.6712 27.1543 41.9147 26.8384 41.9179C26.5419 41.8122 26.5677 41.5656 26.6483 41.3606C26.7127 41.1908 26.8352 40.8994 26.5773 40.8481C26.255 40.7841 26.1003 41.2869 25.8005 41.4246C25.5072 41.5784 25.014 41.399 24.8721 41.6905C24.7561 41.9243 25.0623 42.0043 25.2396 42.0556C25.4524 42.1164 25.6651 42.2445 25.5716 42.5456C25.3782 42.7954 25.1494 42.6929 24.9785 42.5552C24.8367 42.4399 24.5949 42.2349 24.4692 42.4623C24.308 42.7442 24.74 43.0484 24.7819 43.3751C24.8367 43.6986 24.5143 44.1086 24.7496 44.336C24.9398 44.5153 25.1107 44.2527 25.2138 44.1022C25.3363 43.9228 25.5265 43.7563 25.7844 43.942C25.9617 44.2014 25.794 44.3872 25.6103 44.5057C25.4556 44.605 25.188 44.7683 25.3653 44.9605C25.5877 45.1975 26.0068 44.8868 26.3324 44.9477C26.6579 44.9957 26.9545 45.4281 27.2446 45.2744C27.4767 45.1527 27.2768 44.9093 27.164 44.7651C27.0286 44.5922 26.9319 44.3648 27.1833 44.1758C27.4896 44.0861 27.6121 44.3039 27.6701 44.5153C27.7184 44.6915 27.7894 44.9957 28.0279 44.8868C28.3244 44.7523 28.1568 44.2591 28.3148 43.9708C28.4598 43.6762 28.9691 43.5321 28.9079 43.2118C28.8628 42.9556 28.5694 43.0709 28.3954 43.1317M26.9932 43.7947C26.5967 43.9901 26.1196 43.8299 25.923 43.436C25.7263 43.0452 25.8875 42.568 26.284 42.3727C26.6805 42.1773 27.1576 42.3374 27.3542 42.7314C27.5508 43.1221 27.3896 43.5993 26.9964 43.7947" fill="#0B0C0C"/>
<path d="M29.5912 42.1356C29.5364 42.142 29.4848 42.1613 29.4397 42.1837C29.3945 42.0428 29.3397 41.905 29.272 41.7705C28.9014 41.0307 28.2567 40.515 27.5217 40.2844C27.5443 40.2428 27.5604 40.198 27.5701 40.1467C27.6152 39.8937 27.1897 39.6086 27.1897 39.6086C27.1897 39.6086 26.6933 39.7336 26.6482 39.9866C26.6385 40.041 26.6385 40.0955 26.6482 40.1467C26.2001 40.1467 25.7488 40.2396 25.3201 40.451C24.872 40.672 24.5078 40.9922 24.2338 41.3702C24.2016 41.3381 24.1629 41.3061 24.1178 41.2837C23.8889 41.162 23.486 41.4759 23.486 41.4759C23.486 41.4759 23.4537 41.9851 23.6794 42.1036C23.7277 42.1292 23.7825 42.1452 23.8341 42.1516C23.5988 42.8595 23.631 43.657 23.9888 44.3744C24.0662 44.5281 24.1564 44.6754 24.2564 44.81C24.2145 44.8292 24.1758 44.858 24.1403 44.8932C23.9534 45.0694 24.1307 45.5498 24.1307 45.5498C24.1307 45.5498 24.6045 45.7388 24.7915 45.5594C24.8301 45.521 24.8624 45.4761 24.8849 45.4313C25.6392 45.9822 26.6385 46.1551 27.5604 45.8509C27.5668 45.8957 27.5797 45.9437 27.6023 45.9886C27.7151 46.2192 28.2277 46.2032 28.2277 46.2032C28.2277 46.2032 28.5564 45.8124 28.4404 45.5818C28.4178 45.5338 28.3824 45.4889 28.3469 45.4537C29.1334 44.8932 29.5783 43.9868 29.5751 43.0548C29.6202 43.0612 29.6685 43.0644 29.7201 43.0548C29.9748 43.0196 30.1166 42.5296 30.1166 42.5296C30.1166 42.5296 29.8458 42.1004 29.5879 42.1356M27.973 45.3256C27.9214 45.332 27.8666 45.3448 27.8151 45.3704C27.757 45.3993 27.7087 45.4377 27.67 45.4825C26.7159 45.8925 25.636 45.6939 24.8914 45.047C24.8688 44.9989 24.8398 44.9509 24.8011 44.9124C24.756 44.8676 24.7044 44.8324 24.6496 44.81C24.5014 44.6434 24.3724 44.4544 24.2693 44.2463C23.9115 43.532 23.9147 42.7281 24.2112 42.046C24.2499 42.0107 24.2822 41.9691 24.3079 41.921C24.337 41.8666 24.3531 41.809 24.3595 41.7513C24.6109 41.3285 24.9816 40.9698 25.4555 40.736C25.91 40.5118 26.4 40.4318 26.8706 40.4766C26.9157 40.5022 26.9673 40.5214 27.0221 40.531C27.0833 40.5407 27.1414 40.5407 27.1994 40.531C27.9472 40.6976 28.6177 41.1844 28.9852 41.9178C29.0819 42.11 29.1496 42.3054 29.1947 42.504C29.1818 42.5552 29.1818 42.6096 29.1882 42.6641C29.1979 42.7249 29.2173 42.7826 29.2463 42.8338C29.3397 43.8171 28.8627 44.8035 27.9698 45.3288" fill="#0B0C0C"/>
<path d="M37.1082 28.9114C37.2855 28.9594 37.5852 29.0555 37.6142 28.7961C37.6497 28.4726 37.1307 28.3637 36.9663 28.0819C36.789 27.8064 36.918 27.3004 36.615 27.1883C36.37 27.0954 36.3184 27.4061 36.283 27.5854C36.2411 27.8 36.1315 28.0242 35.822 27.957C35.5545 27.7872 35.6383 27.5534 35.7575 27.3709C35.8575 27.2203 36.0412 26.9641 35.8027 26.8552C35.5029 26.7239 35.2386 27.1787 34.9162 27.246C34.5971 27.3292 34.1555 27.0474 33.9524 27.3004C33.788 27.5054 34.0685 27.6463 34.2296 27.736C34.423 27.8417 34.6035 28.0146 34.4456 28.2869C34.2006 28.4886 34.0008 28.3381 33.8622 28.1684C33.7461 28.0242 33.5591 27.7744 33.3819 27.9666C33.1627 28.2068 33.5172 28.5975 33.4818 28.9242C33.4624 29.2509 33.0563 29.5808 33.2368 29.853C33.3819 30.0708 33.6043 29.8498 33.7397 29.7249C33.9008 29.5776 34.12 29.4591 34.3328 29.6929C34.452 29.9875 34.2457 30.1317 34.0362 30.2053C33.8654 30.2694 33.5656 30.3687 33.6978 30.5961C33.8589 30.8779 34.3424 30.6633 34.6455 30.7946C34.9517 30.9131 35.1451 31.4 35.4578 31.3135C35.7124 31.243 35.5674 30.9644 35.49 30.7978C35.3965 30.6025 35.3514 30.3558 35.6415 30.2277C35.9574 30.2085 36.0348 30.4455 36.0412 30.6633C36.0476 30.8459 36.0509 31.1597 36.3087 31.1053C36.6279 31.038 36.5731 30.516 36.7923 30.2726C37.0018 30.0196 37.524 29.9875 37.5401 29.6641C37.553 29.4046 37.2403 29.4495 37.0566 29.4719C36.8374 29.5007 36.5892 29.4655 36.557 29.1516C36.6375 28.8473 36.8857 28.8537 37.0985 28.9114M35.5351 29.8114C35.1064 29.9171 34.6745 29.6544 34.5681 29.2285C34.4649 28.8025 34.726 28.3733 35.1548 28.2708C35.5835 28.1684 36.0154 28.4278 36.1218 28.8537C36.2249 29.2797 35.9638 29.7089 35.5351 29.8114Z" fill="#0B0C0C"/>
<path d="M38.4525 28.7738C38.3977 28.7706 38.3429 28.7738 38.2946 28.7898C38.2817 28.6425 38.2591 28.4984 38.2204 28.351C38.0238 27.5503 37.508 26.9066 36.844 26.5191C36.8763 26.4838 36.902 26.4422 36.9214 26.3973C37.0213 26.1603 36.67 25.7888 36.67 25.7888C36.67 25.7888 36.1574 25.8016 36.0575 26.0386C36.0349 26.0899 36.0253 26.1411 36.022 26.1956C35.5869 26.0963 35.1227 26.0899 34.6617 26.202C34.175 26.3205 33.7495 26.5511 33.3982 26.8618C33.3724 26.8233 33.3434 26.7849 33.3047 26.7529C33.1113 26.5863 32.6471 26.8009 32.6471 26.8009C32.6471 26.8009 32.502 27.2877 32.6954 27.4575C32.7374 27.4927 32.7857 27.5215 32.8341 27.5407C32.4472 28.1781 32.3022 28.9628 32.4956 29.741C32.5375 29.9108 32.5923 30.0709 32.66 30.2247C32.6149 30.2343 32.5697 30.2535 32.5278 30.2791C32.3086 30.4136 32.3731 30.9165 32.3731 30.9165C32.3731 30.9165 32.7954 31.2047 33.0146 31.0734C33.0629 31.0446 33.1016 31.0093 33.1338 30.9677C33.7495 31.6691 34.6843 32.0599 35.6513 31.9638C35.6513 32.0086 35.6513 32.0567 35.6642 32.1047C35.7255 32.3545 36.2251 32.4506 36.2251 32.4506C36.2251 32.4506 36.6313 32.1399 36.5732 31.8901C36.5604 31.8357 36.5378 31.7876 36.5088 31.7428C37.4017 31.3681 38.0367 30.5834 38.2365 29.6706C38.2785 29.6898 38.3268 29.6994 38.3752 29.7026C38.633 29.725 38.8812 29.2766 38.8812 29.2766C38.8812 29.2766 38.7104 28.7962 38.4557 28.7738M36.1703 31.5282C36.1187 31.5218 36.0639 31.525 36.0124 31.5378C35.9511 31.5506 35.8963 31.5762 35.848 31.6115C34.8261 31.8036 33.814 31.3745 33.2305 30.577C33.2209 30.5257 33.2015 30.4745 33.1725 30.4264C33.1403 30.372 33.0984 30.3304 33.05 30.2951C32.9437 30.0998 32.8566 29.8852 32.8018 29.661C32.6116 28.8859 32.7954 28.1044 33.2338 27.5023C33.2789 27.4767 33.3208 27.4447 33.3563 27.403C33.3949 27.3582 33.4272 27.3037 33.4433 27.2493C33.7817 26.8938 34.2234 26.6247 34.7359 26.4998C35.2291 26.3813 35.7223 26.4102 36.1735 26.5543C36.2122 26.5895 36.2574 26.6183 36.3089 26.6408C36.3669 26.6632 36.425 26.676 36.483 26.676C37.176 27.0027 37.7208 27.624 37.9174 28.4215C37.969 28.6297 37.9916 28.8379 37.9916 29.0396C37.969 29.0877 37.9529 29.1389 37.9497 29.1966C37.9432 29.2574 37.9497 29.3183 37.969 29.3727C37.8401 30.3528 37.1567 31.2111 36.1703 31.525" fill="#0B0C0C"/>
<path d="M30.6259 15.6423C30.5196 15.3316 30.7678 14.8736 30.497 14.6911C30.281 14.5437 30.1553 14.8352 30.0812 14.9985C29.9909 15.1971 29.8297 15.3893 29.5461 15.2515C29.3269 15.0241 29.4623 14.816 29.6234 14.6654C29.7588 14.5437 29.9974 14.3355 29.7878 14.1754C29.53 13.9768 29.1657 14.3548 28.8369 14.3484C28.5081 14.3548 28.1439 13.9768 27.886 14.1754C27.6797 14.3355 27.9182 14.5405 28.0536 14.6654C28.2148 14.8128 28.3502 15.0241 28.131 15.2515C27.8441 15.3893 27.6862 15.1971 27.5959 14.9985C27.5185 14.832 27.396 14.5437 27.1801 14.6911C26.9093 14.8736 27.1607 15.3316 27.0544 15.6423C26.9609 15.9562 26.4838 16.1835 26.5934 16.491C26.6837 16.7376 26.9544 16.5743 27.1124 16.4846C27.3058 16.3757 27.5475 16.3149 27.6958 16.5903C27.7409 16.9042 27.5089 16.9939 27.2864 17.0195C27.1059 17.0419 26.79 17.0675 26.8642 17.3173C26.9544 17.628 27.4702 17.5351 27.7345 17.7337C28.0085 17.9195 28.0762 18.4415 28.405 18.4319C28.6693 18.4223 28.5984 18.118 28.5597 17.9387C28.5146 17.7241 28.5307 17.4743 28.8434 17.4198C29.156 17.4743 29.1722 17.7241 29.127 17.9387C29.0916 18.118 29.0207 18.4223 29.2818 18.4319C29.6073 18.4415 29.6782 17.9227 29.949 17.7369C30.2101 17.5383 30.7291 17.6312 30.8193 17.3205C30.8935 17.0707 30.5776 17.0419 30.3971 17.0227C30.1779 16.9971 29.9458 16.9042 29.9909 16.5935C30.1392 16.3181 30.3809 16.3821 30.5744 16.4878C30.7323 16.5775 31.0031 16.7376 31.0933 16.4942C31.2029 16.19 30.7291 15.9626 30.6324 15.6487M28.8434 16.9971C28.4018 16.9971 28.044 16.6415 28.044 16.2028C28.044 15.764 28.4018 15.4085 28.8434 15.4085C29.285 15.4085 29.6428 15.764 29.6428 16.2028C29.6428 16.6415 29.285 16.9971 28.8434 16.9971Z" fill="#0B0C0C"/>
<path d="M31.9056 16.6671C31.854 16.6511 31.7992 16.6415 31.7477 16.6447C31.7702 16.5006 31.7799 16.3501 31.7799 16.1995C31.7799 15.3732 31.435 14.627 30.8773 14.0953C30.916 14.0665 30.9515 14.0344 30.9805 13.996C31.1352 13.7878 30.8806 13.3459 30.8806 13.3459C30.8806 13.3459 30.3809 13.237 30.2294 13.4451C30.1972 13.49 30.1746 13.538 30.1585 13.5893C29.7588 13.3875 29.3107 13.2754 28.8337 13.2754C28.3566 13.2754 27.8634 13.4003 27.4508 13.6181C27.4379 13.5732 27.4154 13.5316 27.3864 13.49C27.2381 13.2818 26.7352 13.3811 26.7352 13.3811C26.7352 13.3811 26.4773 13.8199 26.6288 14.028C26.6611 14.0729 26.6998 14.1113 26.7449 14.1401C26.2162 14.6686 25.8907 15.3956 25.8907 16.1995C25.8907 16.3725 25.9068 16.5422 25.9358 16.7088C25.8907 16.7088 25.8423 16.7152 25.794 16.7312C25.549 16.8081 25.491 17.3141 25.491 17.3141C25.491 17.3141 25.8327 17.6952 26.0776 17.6152C26.1292 17.5991 26.1776 17.5735 26.2195 17.5415C26.6514 18.3678 27.4637 18.9667 28.4275 19.098C28.4146 19.1429 28.405 19.1909 28.405 19.239C28.405 19.4952 28.8691 19.7066 28.8691 19.7066C28.8691 19.7066 29.3398 19.5016 29.3398 19.2454C29.3398 19.1909 29.3301 19.1365 29.314 19.0884C30.2713 18.9347 31.074 18.3198 31.4866 17.4806C31.5253 17.5095 31.5672 17.5287 31.6123 17.5447C31.8573 17.6248 32.2054 17.25 32.2054 17.25C32.2054 17.25 32.1538 16.744 31.9088 16.6639M29.0335 18.8034C28.9852 18.7842 28.9304 18.7746 28.8756 18.7746C28.8143 18.7746 28.7531 18.7874 28.6983 18.8066C27.6603 18.7521 26.7803 18.0988 26.4032 17.186C26.4032 17.1347 26.4 17.0803 26.3839 17.0258C26.3645 16.965 26.3355 16.9137 26.2968 16.8689C26.2388 16.6543 26.2066 16.4269 26.2066 16.1931C26.2066 15.3924 26.5676 14.6782 27.1381 14.1978C27.1897 14.185 27.2381 14.1626 27.2832 14.1273C27.3348 14.0921 27.3735 14.0473 27.4057 13.9992C27.8183 13.7302 28.3115 13.5765 28.8401 13.5765C29.3688 13.5765 29.8201 13.7206 30.223 13.9672C30.252 14.012 30.2907 14.0505 30.3358 14.0825C30.3842 14.1177 30.439 14.1433 30.497 14.1594C31.0933 14.6398 31.4737 15.3732 31.4737 16.1931C31.4737 16.4077 31.4479 16.6159 31.3995 16.8145C31.3673 16.8561 31.3415 16.9041 31.3222 16.9554C31.3028 17.013 31.2964 17.0739 31.2996 17.1315C30.9418 18.0539 30.0747 18.7265 29.04 18.8034" fill="#0B0C0C"/>
<path d="M16.9327 29.9107C16.6168 30.0901 16.1042 30.3879 16.1042 30.3879C16.1042 30.3879 17.8256 29.8627 17.9062 29.8114L17.6741 29.3342C17.6741 29.3342 17.2453 29.7282 16.9294 29.9107" fill="#0B0C0C"/>
<path d="M26.2258 32.1496C27.1187 29.5297 27.1316 23.7455 27.1316 23.7455L26.8834 23.7583L26.8995 23.7198L26.574 23.7743L25.8036 23.8095C26.4547 23.4604 27.0156 22.9288 27.0575 22.1409L27.08 21.7149L26.6868 21.8879C26.329 22.0448 25.9551 22.2017 25.5973 22.3459C26.0453 21.9583 26.4063 21.417 26.4257 20.6836L26.4386 20.2224L26.0324 20.4434C25.0235 20.9943 23.8921 21.5964 23.502 21.7822L23.4633 21.7277H23.3215C23.1378 21.7277 21.9934 22.3555 21.4326 22.8935C21.381 22.7686 21.2972 22.6661 21.1747 22.6085C21.2714 22.5476 21.3713 22.4868 21.4648 22.4323L22.0063 22.1056L19.3728 21.4459L19.3438 21.4395C19.3244 21.4395 18.8925 21.3786 18.5895 21.3786C18.4025 21.3786 18.2575 21.3978 18.1608 21.4939C18.1511 21.5035 18.1092 21.5163 18.0834 21.5163H18.0286L17.9803 21.5356C17.9351 21.5548 17.832 21.6028 17.7578 21.6637C17.7159 21.6829 17.6225 21.7149 17.5515 21.7405C17.255 21.8494 17.1132 21.9039 17.0326 21.9839C16.8553 22.1601 16.8327 22.4772 16.981 22.6661C17.0003 22.6918 17.0229 22.711 17.0487 22.7302C17.0519 22.8167 17.097 22.964 17.2324 23.2618C16.9713 23.1978 16.6909 23.1209 16.5329 23.0793C16.4975 23.0601 16.4491 23.0473 16.3975 23.0473H16.2332L16.159 23.1882C16.0752 23.3387 16.1655 23.4796 16.2041 23.5405C16.3363 23.7455 16.5587 23.896 16.7876 23.9921L15.0985 23.912C15.1178 23.8864 15.1436 23.864 15.1726 23.8448C15.337 23.7262 15.4241 23.6013 15.4337 23.4604C15.4337 23.422 15.4337 23.3868 15.4241 23.3483C15.4434 23.0569 15.2726 22.775 15.1146 22.5829C14.8342 22.2402 14.6923 22.2402 14.6375 22.2402C14.5537 22.2402 14.4764 22.2754 14.4248 22.3427L14.3442 22.4483L14.37 22.5733C14.3764 22.6181 14.3603 22.7558 14.3442 22.8455C14.2862 22.8583 14.2088 22.8839 14.1186 22.9288C14.1025 22.9384 14.0863 22.948 14.0702 22.9576C14.038 22.8679 14.0058 22.7718 13.98 22.6789C13.9477 22.5765 13.9542 22.5092 13.9574 22.4419C13.9638 22.3459 13.9703 22.1985 13.8478 22.0608C13.7543 21.9551 13.5964 21.8911 13.1 21.8911C12.9549 21.8911 12.8421 21.8975 12.8421 21.8975L12.3747 21.9231L12.6326 22.3074C12.6616 22.3491 12.7196 22.4131 12.8485 22.4772C12.8518 22.4868 12.8582 22.5028 12.8647 22.5188C12.8389 22.5476 12.8163 22.5797 12.797 22.6213C12.7357 22.7622 12.7164 22.9063 12.7132 23.0729C12.6906 23.0697 12.6712 23.0665 12.6487 23.0665H12.6197C12.4166 23.0857 11.9814 23.4572 11.8235 23.7423H11.543C11.5044 26.7208 11.7945 28.998 12.0523 30.4233L12.0427 30.4361C11.9879 30.5065 11.514 31.1311 11.5914 31.7172L11.6591 32.2136L12.033 31.8773C12.1233 31.7972 12.2264 31.7076 12.3102 31.6403C12.3908 31.9734 12.4456 32.1464 12.4456 32.1464C12.9775 34.1449 14.2765 35.8904 15.6014 37.2388C15.7238 37.5398 15.8786 37.8281 16.0784 38.0939C16.5781 38.7601 17.2808 39.2117 18.1447 39.4295C18.8409 39.9387 19.3115 40.2174 19.3115 40.2174C19.7403 39.9163 20.1432 39.6056 20.53 39.2917C21.3584 38.9971 22.3706 38.4014 22.809 37.2163L22.9347 37.1331C22.9347 37.1331 23.0959 37.0242 23.2055 36.9345C23.3247 36.8352 23.3215 36.7039 23.2989 36.5694C23.5117 36.3196 23.7148 36.073 23.9017 35.8327C24.1403 36.0569 24.4175 36.169 24.6012 36.2011L25.1008 36.2972L24.8945 35.8392C24.8526 35.7142 24.8688 35.2627 24.9493 34.4972C25.8938 33.1168 26.1807 32.2649 26.2129 32.1464M16.491 23.4444C16.404 23.3099 16.491 23.3707 16.491 23.3707C16.491 23.3707 16.9842 23.5117 17.3904 23.6045C17.3904 23.6045 17.4323 23.6142 17.4967 23.627C17.6225 23.6526 17.7321 23.6718 17.8062 23.6782C17.8707 23.6846 17.9222 23.6846 17.9674 23.6814C18.1124 23.675 18.1543 23.6462 18.1833 23.6782C18.1898 23.6846 18.193 23.691 18.1995 23.7038C18.2156 23.7455 18.2639 23.8095 18.2865 23.8672C18.2929 23.8896 18.2962 23.9056 18.2962 23.9056C18.2962 23.928 18.2962 23.9472 18.2865 23.9633C18.2768 23.9761 18.2575 23.9889 18.2252 24.0017C18.2123 24.0017 18.1995 24.0081 18.1833 24.0081C18.1124 24.0145 18.0576 24.0177 18.0093 24.0145C17.977 24.0145 17.948 24.0081 17.9222 24.0049C17.8803 23.9953 17.861 23.9857 17.861 23.9857C17.8384 23.9633 17.6934 23.8159 17.6869 23.8127C17.6869 23.8127 17.645 23.8127 17.5515 23.8992C17.4774 23.9633 17.0487 23.8864 16.7392 23.6846C16.6361 23.6174 16.5458 23.5373 16.4846 23.4412M12.6906 23.3836C12.8389 23.3707 13.3611 23.8287 13.6222 23.7775C13.8833 23.7295 13.7575 23.7519 13.6479 23.6782C13.5384 23.6045 13.029 23.3579 13.029 23.185C13.029 23.012 13.0419 22.8903 13.0903 22.7782C13.1386 22.6661 13.2644 22.7398 13.2031 22.5797C13.1419 22.4195 13.129 22.3459 13.029 22.2978C12.9291 22.2498 12.9033 22.2113 12.9033 22.2113C12.9033 22.2113 13.5996 22.1761 13.6963 22.285C13.7962 22.3971 13.6834 22.506 13.7704 22.8038C13.8575 23.0985 13.9316 23.2843 14.0283 23.3964C14.1282 23.5085 14.1895 23.5309 14.1895 23.4444C14.1895 23.3579 14.1025 23.3099 14.2894 23.2106C14.4764 23.1113 14.5731 23.1626 14.6118 23.0761C14.6472 22.9896 14.6988 22.6821 14.673 22.57C14.6472 22.458 15.2822 23.0248 15.1952 23.4316C15.1952 23.4316 15.2822 23.5181 15.0598 23.6782C14.8374 23.8383 14.6859 24.1458 14.947 24.4533C15.2081 24.7607 16.2009 25.3405 16.2009 25.3405C16.2009 25.3405 15.6304 26.1668 15.7432 26.8073C15.7432 26.8073 14.8503 26.2757 14.5892 25.981C14.5892 25.981 14.5022 26.0899 14.615 26.2532C14.7278 26.4134 15.8302 27.5119 15.8302 27.5119V27.9667C15.8302 27.9667 15.5595 27.7618 15.3048 27.7393C15.2661 27.7329 15.2242 27.7329 15.1855 27.7393C15.1662 27.7425 15.1469 27.7489 15.1275 27.7553C14.8664 27.8354 14.6956 28.1012 14.5892 28.1237C14.4764 28.1493 13.9574 27.6432 14.0315 27.3966C14.1057 27.15 14.3926 26.9771 14.4538 26.929C14.5151 26.881 13.6834 27.1885 13.4964 26.7208C13.3127 26.2532 13.2966 26.1668 13.3482 26.154C13.3965 26.1411 13.9671 26.1283 14.0058 26.0419C14.0412 25.9554 13.1483 26.029 13.0516 25.4493C12.9517 24.8696 13.0258 25.0554 13.0258 25.0554C13.0258 25.0554 13.3965 25.1547 13.461 25.017C13.5222 24.8825 13.5351 24.5846 13.2998 24.5366C13.0645 24.4885 12.7551 24.5013 12.581 24.0818C12.581 24.0818 12.2715 24.0081 12.1104 23.9953C11.9492 23.9825 12.5455 23.39 12.6938 23.3771M20.9748 38.8978C20.9523 38.9106 20.9265 38.9202 20.9039 38.933C20.9039 38.933 20.8975 38.933 20.8943 38.933C20.8717 38.9426 20.8523 38.9523 20.8298 38.9619C20.8233 38.9619 20.8137 38.9683 20.8072 38.9715C20.7911 38.9779 20.7718 38.9875 20.7556 38.9939C20.0014 39.3078 19.3309 39.3526 19.3309 39.3526C18.5959 39.3334 17.9899 39.1797 17.4967 38.9298C17.4967 38.9298 17.5032 38.9362 17.5064 38.9362C17.0003 38.6832 16.6103 38.3309 16.317 37.9242C16.3202 37.9242 16.3266 37.9338 16.3299 37.937C15.5723 36.8961 15.4789 35.4965 15.7432 34.5356C16.1912 32.8958 18.3477 32.3033 18.4799 32.2681H18.4831C19.1085 32.3834 19.5888 33.5075 19.592 33.5171C19.5178 33.5171 19.4405 33.5332 19.3631 33.5524C18.1769 33.8278 16.707 35.647 18.0544 36.7584C18.5347 37.1523 18.9602 37.2228 19.3148 37.1395C20.04 36.9729 20.4752 36.1658 20.4752 36.1658C21.2682 33.5524 18.4734 31.4321 18.4573 31.3328C18.4412 31.2336 18.5476 31.224 18.5476 31.1215C18.5476 31.1054 18.5444 31.0894 18.5347 31.0766C18.5057 30.9934 18.4186 30.9229 18.4186 30.9229C18.3864 29.8372 19.2471 30.3624 19.2471 30.3624C19.2471 30.3624 19.2471 30.3592 19.2406 30.356C19.2471 30.356 19.2471 30.3592 19.2471 30.3592C18.7507 29.85 18.6862 29.0461 18.6862 29.0461C18.6862 29.0461 18.5444 29.0845 18.5444 29.4272C18.5444 29.7699 18.7345 29.6386 18.5444 29.8372C18.3542 30.0389 18.0737 30.2791 18.0222 30.5578C17.9738 30.8364 18.1543 31.051 18.1543 31.051C18.1543 31.051 17.8094 31.2784 17.529 31.3457C17.2485 31.4097 17.1615 30.766 17.1615 30.766C17.1615 30.766 17.1422 30.7339 17.0874 30.7275H17.0809C17.0648 30.7307 17.0164 30.7595 17.01 30.814C16.9874 31.003 16.9842 31.4449 16.8811 31.557C16.8359 31.6083 16.7231 31.6499 16.5942 31.6819C16.3492 31.7396 16.0462 31.7588 16.0559 31.7044C16.0849 31.5538 16.1203 31.288 16.0655 31.1439C16.043 31.083 16.0107 31.0606 15.9817 31.067C15.9463 31.0734 15.914 31.1247 15.9044 31.1983C15.8882 31.3617 15.9527 31.5923 15.64 31.7876C15.582 31.8229 15.5175 31.8485 15.4499 31.8645C15.1533 31.9286 14.8148 31.8197 14.8148 31.8197C14.8148 31.8197 14.9148 31.3745 14.8148 31.2944C14.7665 31.2528 14.7214 31.2432 14.6859 31.256C14.5215 31.2976 14.457 31.7364 14.4312 31.8197C14.3603 32.0439 14.1605 32.2456 13.9316 32.3161C13.9026 32.3225 13.6222 32.3545 13.6254 32.3481C13.6254 32.3481 13.6093 32.3994 13.5448 32.6908C13.5158 32.8189 13.49 32.8606 13.4707 32.867C13.4449 32.867 13.432 32.8221 13.432 32.8221C13.1032 32.4282 13.1354 31.8709 13.1354 31.8709C13.6995 31.4097 13.5835 31.083 13.5835 31.083C13.3611 31.3393 13.1741 31.4546 13.0162 31.493C12.6841 31.5763 12.4907 31.32 12.4069 31.3393C12.4037 31.3393 12.3973 31.3393 12.394 31.3425C12.278 31.4065 11.9299 31.7204 11.9299 31.7204C11.8912 31.4353 12.0298 31.1151 12.1555 30.8973C12.2393 30.7499 12.3167 30.6475 12.3296 30.6346C12.5165 30.7179 12.8099 30.7019 13.0194 30.6539C13.2192 30.6058 13.3449 30.5257 13.2257 30.4713C12.9775 30.356 12.8453 29.9621 12.8453 29.9621C12.7905 29.9621 12.4972 29.9204 12.4134 29.9364C12.4037 29.9364 12.3973 29.9396 12.394 29.9428C12.5874 29.677 12.8131 29.4656 13.1258 29.3888C13.1709 29.3792 13.216 29.3695 13.2644 29.3631C13.303 29.3599 13.7447 29.3375 13.7543 29.4048C13.8027 29.7507 14.0348 29.898 14.1669 29.866C14.2991 29.8339 14.9792 29.3055 16.1429 28.6105C17.5161 27.7874 17.3743 27.4191 17.3743 27.4191L16.3331 28.0084L16.2332 27.8322C16.101 26.865 17.0938 26.25 16.8295 26.2853C16.5652 26.3173 16.1848 26.3173 16.1848 26.3173C16.3427 25.6831 16.7908 25.4205 17.197 25.3148C17.4742 25.2444 17.7353 25.2444 17.8674 25.2508C18.0254 25.2412 18.164 25.2252 18.2865 25.1995C18.3123 25.1931 18.3381 25.1867 18.3638 25.1835C18.3735 25.1835 18.3832 25.1771 18.3929 25.1771C18.409 25.1739 18.4219 25.1707 18.4348 25.1643C18.4477 25.1611 18.4606 25.1579 18.4734 25.1547C18.4831 25.1547 18.4896 25.1483 18.4992 25.1483C19.1697 24.9337 19.2696 24.4597 19.231 24.0978C19.2052 23.8319 19.1052 23.6302 19.1052 23.6302C19.1214 23.7903 19.1117 23.9472 19.0795 24.0914C19.0795 24.0914 19.0762 24.1106 19.073 24.117C19.073 24.1298 19.0666 24.1426 19.0633 24.1554C19.0601 24.1682 19.0569 24.181 19.0504 24.1939C19.0472 24.2067 19.044 24.2163 19.0375 24.2291C19.0311 24.2419 19.0279 24.2579 19.0214 24.2707C19.015 24.2899 19.0053 24.3092 18.9956 24.3284C18.9924 24.338 18.9892 24.3444 18.9827 24.354C18.9731 24.3732 18.9634 24.3892 18.9537 24.4084C18.9537 24.4116 18.9473 24.4181 18.9473 24.4213C18.9344 24.4437 18.9183 24.4693 18.9022 24.4917C18.799 24.639 18.6572 24.7639 18.4734 24.8632C18.4122 24.8953 18.3477 24.9209 18.2833 24.9369C17.832 25.0522 17.3517 24.8152 17.3517 24.8152C17.4162 24.7832 17.4 24.6839 17.4323 24.5205C17.4581 24.3988 17.5612 24.2163 17.616 24.1266L17.645 24.1554L17.6837 24.1746C17.703 24.1842 17.7449 24.2003 17.8062 24.2131C17.8223 24.2259 17.8416 24.2419 17.861 24.2579C17.9706 24.3476 18.1253 24.3348 18.2575 24.2995C18.3896 24.2643 18.4928 24.2067 18.4928 24.2067C18.5218 24.1618 18.5444 24.117 18.5605 24.0689C18.6765 23.7102 18.3767 23.3387 18.2285 23.2362C18.0641 23.1209 17.9964 23.1209 17.9319 23.1722C17.8997 23.1978 17.832 23.2875 17.7772 23.3643H17.7675C17.7288 23.3643 17.674 23.3515 17.6096 23.3419C17.5129 23.1369 17.3646 22.8071 17.3871 22.7622C17.4194 22.695 17.5354 22.695 17.587 22.6149C17.6353 22.5316 17.5032 22.5316 17.5032 22.5316C17.5032 22.5316 17.3227 22.6309 17.255 22.5476C17.1905 22.4644 17.2066 22.301 17.2872 22.2177C17.371 22.1345 17.9319 21.9711 17.9835 21.9231C18.0318 21.8718 18.1479 21.8238 18.1479 21.8238C18.1479 21.8238 18.3123 21.8238 18.4122 21.7245C18.5121 21.6252 19.3696 21.7437 19.3696 21.7437L21.3874 22.2498C21.3874 22.2498 20.3785 22.8583 20.4623 22.8743C20.5461 22.8903 20.7943 22.8423 21.0586 22.8743C21.323 22.9063 21.2907 23.3195 21.2907 23.3195C21.3069 24.2739 20.4301 23.9601 20.4301 23.9601C20.4301 23.9601 20.4945 24.1746 20.6267 24.2899C20.7589 24.4052 20.7911 24.4885 20.7911 24.4885C20.6589 24.8985 21.3197 25.7696 21.2553 25.9842C21.2456 26.0162 21.2198 26.0355 21.1811 26.0483C20.9942 26.0963 20.5364 25.8977 20.472 25.9234C20.4655 25.9234 20.4623 25.9298 20.4623 25.933C20.4623 26.0162 20.4945 27.134 20.4945 27.134C20.4269 27.166 20.3656 27.1885 20.3044 27.2013C19.592 27.3582 19.3373 26.3013 19.3373 26.3621C19.3373 26.4262 18.7926 27.3806 18.7926 27.3806H18.7958L19.3051 27.118C19.6693 27.6432 20.4623 27.4799 20.4623 27.4799C22.0031 26.929 21.6711 25.0202 21.5067 24.0081C21.4616 23.7263 21.4293 23.5149 21.4551 23.422C21.5712 22.996 23.357 21.9935 23.3892 22.0416C23.4214 22.0928 23.3892 22.1409 23.5052 22.1409C23.6213 22.1409 26.2226 20.722 26.2226 20.722C26.1743 22.4964 23.805 23.028 23.805 23.028C23.805 23.028 23.5697 23.1273 23.8437 23.249C24.1209 23.3739 26.8576 22.1761 26.8576 22.1761C26.8157 23.0216 26.0485 23.5309 25.3071 23.8319C24.6238 24.1074 23.963 24.2035 23.9243 24.2099C23.8405 24.2259 23.7212 24.4821 24.0403 24.4725C24.382 24.4629 26.5385 24.1074 26.5385 24.1074C26.4289 24.37 26.2194 24.6486 26.0163 24.8504C25.6811 25.1867 25.2266 25.3501 24.7721 25.4686H24.7656C24.6592 25.4942 23.8792 25.6543 23.8856 25.6127C23.7857 25.8625 23.8985 25.7408 24.0693 25.776C24.3659 25.8337 24.627 25.8817 24.9268 25.933C25.2427 25.9842 25.5779 26.0258 25.8938 25.949V25.9618C25.7165 26.3429 25.2685 26.6952 24.8526 26.7753C24.5593 26.8297 24.2466 26.7881 23.9565 26.7401C23.8147 26.7176 23.6471 26.6472 23.5052 26.6472C23.4827 26.6472 23.4666 26.6472 23.4537 26.6536C23.2377 26.7112 23.7406 27.1981 23.7921 27.2493C24.0371 27.4927 24.2595 27.6464 24.4755 27.9187C24.5658 28.034 24.7334 28.1301 24.5593 28.2326C24.4562 28.2966 24.2982 28.2902 24.1789 28.2998C24.0049 28.3158 23.8727 28.3094 23.7019 28.2806C23.689 28.2806 23.6761 28.2742 23.66 28.271C23.4214 28.2262 23.2312 28.1076 23.0411 27.9667C22.9895 27.9283 22.8122 27.765 22.6962 27.797C22.6671 27.8034 22.6446 27.8194 22.6252 27.8514C22.4802 28.1044 23.0217 28.5656 23.199 28.8667C23.2732 28.998 23.386 29.1453 23.4666 29.2703C23.5697 29.4272 23.531 29.4656 23.4343 29.5393C23.1668 29.7443 22.7606 29.5009 22.5027 29.4144L22.4673 29.3759C22.3996 29.3311 21.8548 28.8987 21.7517 28.7962C21.742 28.7834 21.7356 28.777 21.7388 28.7738C21.6679 28.8347 21.6034 28.8699 21.6614 28.966C21.7485 29.1037 21.7904 29.424 21.8613 29.5713C21.9806 29.8243 21.9096 30.308 21.9096 30.308C21.9096 30.308 21.8 30.3976 21.7098 30.4201H21.6937C21.3133 30.4681 20.5719 29.4368 20.4913 29.4208C20.4075 29.4048 19.9079 29.4945 19.9079 29.4945H19.9047C21.6421 30.3976 22.8863 34.5324 22.8863 34.5324V34.5228V34.5292C22.9863 33.4275 21.7614 30.83 21.7614 30.83C21.7678 30.83 21.7775 30.8236 21.7839 30.8236C22.045 30.7531 22.6188 30.814 22.6188 30.814C22.0063 32.2777 23.4795 32.6556 23.4795 32.6556C22.4351 33.642 23.6116 34.6926 23.6116 34.6926C22.6349 35.695 23.2151 36.6815 23.1152 36.7648C23.0249 36.8416 22.8896 36.9313 22.8702 36.9441L22.7542 36.7808C22.4995 37.8985 21.7323 38.5295 20.9942 38.8882M23.8018 34.9456C23.7953 34.9071 23.7857 34.8367 23.7857 34.7822L23.934 34.6317L23.7309 34.4491C23.7309 34.4491 23.2635 34.0168 23.257 33.5139C23.2538 33.2577 23.3666 33.0239 23.6052 32.7997L23.9469 32.4762L23.4891 32.3545C23.4891 32.3545 22.9637 32.2104 22.7606 31.8005C22.6929 31.6627 22.6671 31.5058 22.6833 31.3296L22.8992 31.2688C22.8992 31.2688 23.6986 31.083 24.079 30.1798C24.4594 29.2735 24.7978 28.2069 25.8906 28.4215C25.8906 28.4215 25.5521 28.5688 25.5844 30.641C25.5844 30.641 25.5167 31.6275 24.4916 32.0887C24.4916 32.0887 24.988 32.6652 24.9397 33.1072C24.8881 33.5524 24.5915 35.6534 24.7398 35.9833C24.7398 35.9833 23.9211 35.8231 23.8082 34.952" fill="#0B0C0C"/>
<path d="M18.277 22.4097C18.277 22.4097 18.3157 22.5955 18.3415 22.6563C18.364 22.7172 18.4027 22.7044 18.5639 22.6563C18.7251 22.6083 19.0474 22.5218 19.3955 22.5442C19.7437 22.5698 19.5954 22.4225 19.5954 22.4225C19.3117 22.2752 18.0449 22.1631 18.0449 22.1631L18.0578 22.2496C18.132 22.2496 18.2802 22.4097 18.2802 22.4097" fill="#0B0C0C"/>
<path d="M15.2629 11.4692C15.2629 11.5621 15.1791 11.6358 15.0728 11.6358C14.9664 11.6358 14.8826 11.5621 14.8826 11.4692V10.7742C14.8826 10.6813 14.9696 10.6077 15.0728 10.6077C15.1759 10.6077 15.2629 10.6813 15.2629 10.7742V11.4692Z" fill="#0B0C0C"/>
<path d="M15.2629 12.904C15.2629 12.9969 15.1791 13.0706 15.0728 13.0706C14.9664 13.0706 14.8826 12.9969 14.8826 12.904V12.209C14.8826 12.1161 14.9696 12.0425 15.0728 12.0425C15.1759 12.0425 15.2629 12.1161 15.2629 12.209V12.904Z" fill="#0B0C0C"/>
<path d="M15.2629 14.342C15.2629 14.4349 15.1791 14.5086 15.0728 14.5086C14.9664 14.5086 14.8826 14.4349 14.8826 14.342V13.647C14.8826 13.5541 14.9696 13.4805 15.0728 13.4805C15.1759 13.4805 15.2629 13.5573 15.2629 13.647V14.342Z" fill="#0B0C0C"/>
<path d="M15.2629 15.7768C15.2629 15.8697 15.1791 15.9434 15.0728 15.9434C14.9664 15.9434 14.8826 15.8697 14.8826 15.7768V15.0818C14.8826 14.9889 14.9696 14.9153 15.0728 14.9153C15.1759 14.9153 15.2629 14.9889 15.2629 15.0818V15.7768Z" fill="#0B0C0C"/>
<path d="M14.3733 10.2103C14.3733 10.3064 14.4249 10.5594 14.4926 10.6331C14.5409 10.6843 14.6118 10.7036 14.6827 10.726V10.2103C14.6827 9.99894 14.8568 9.82599 15.0696 9.82599C15.2823 9.82599 15.4596 9.99894 15.4596 10.2103V10.726C15.5208 10.7068 15.6014 10.7004 15.6369 10.6491C15.74 10.5018 15.769 10.3833 15.769 10.2135C15.769 9.8324 15.4564 9.52173 15.0728 9.52173C14.6892 9.52173 14.3765 9.8324 14.3765 10.2135" fill="#0B0C0C"/>
<path d="M14.3733 16.4495C14.3733 16.3534 14.4249 16.1004 14.4926 16.0267C14.5409 15.9755 14.6118 15.9563 14.6827 15.9338V16.4495C14.6827 16.6609 14.8568 16.8338 15.0696 16.8338C15.2823 16.8338 15.4596 16.6609 15.4596 16.4495V15.9338C15.5208 15.9531 15.6014 15.9595 15.6369 16.0107C15.74 16.158 15.769 16.2765 15.769 16.4463C15.769 16.8274 15.4564 17.1381 15.0728 17.1381C14.6892 17.1381 14.3765 16.8274 14.3765 16.4463" fill="#0B0C0C"/>
<path d="M23.4539 11.4692C23.4539 11.5621 23.5377 11.6358 23.644 11.6358C23.7504 11.6358 23.8342 11.5621 23.8342 11.4692V10.7742C23.8342 10.6813 23.7504 10.6077 23.644 10.6077C23.5377 10.6077 23.4539 10.6813 23.4539 10.7742V11.4692Z" fill="#0B0C0C"/>
<path d="M23.4539 12.904C23.4539 12.9969 23.5377 13.0706 23.644 13.0706C23.7504 13.0706 23.8342 12.9969 23.8342 12.904V12.209C23.8342 12.1161 23.7504 12.0425 23.644 12.0425C23.5377 12.0425 23.4539 12.1161 23.4539 12.209V12.904Z" fill="#0B0C0C"/>
<path d="M23.4539 14.342C23.4539 14.4349 23.5377 14.5086 23.644 14.5086C23.7504 14.5086 23.8342 14.4349 23.8342 14.342V13.647C23.8342 13.5541 23.7504 13.4805 23.644 13.4805C23.5377 13.4805 23.4539 13.5573 23.4539 13.647V14.342Z" fill="#0B0C0C"/>
<path d="M23.4539 15.7768C23.4539 15.8697 23.5377 15.9434 23.644 15.9434C23.7504 15.9434 23.8342 15.8697 23.8342 15.7768V15.0818C23.8342 14.9889 23.7504 14.9153 23.644 14.9153C23.5377 14.9153 23.4539 14.9889 23.4539 15.0818V15.7768Z" fill="#0B0C0C"/>
<path d="M24.3466 10.2103C24.3466 10.3064 24.295 10.5594 24.2273 10.6331C24.179 10.6843 24.108 10.7036 24.0371 10.726V10.2103C24.0371 9.99894 23.8631 9.82599 23.6503 9.82599C23.4376 9.82599 23.2635 9.99894 23.2635 10.2103V10.726C23.2023 10.7068 23.1217 10.7004 23.0862 10.6491C22.9831 10.5018 22.9573 10.3833 22.9573 10.2135C22.9573 9.8324 23.2699 9.52173 23.6535 9.52173C24.0371 9.52173 24.3498 9.8324 24.3498 10.2135" fill="#0B0C0C"/>
<path d="M24.3466 16.4495C24.3466 16.3534 24.295 16.1004 24.2273 16.0267C24.179 15.9755 24.108 15.9563 24.0371 15.9338V16.4495C24.0371 16.6609 23.8631 16.8338 23.6503 16.8338C23.4376 16.8338 23.2635 16.6609 23.2635 16.4495V15.9338C23.2023 15.9531 23.1217 15.9595 23.0862 16.0107C22.9831 16.158 22.9573 16.2765 22.9573 16.4463C22.9573 16.8274 23.2699 17.1381 23.6535 17.1381C24.0371 17.1381 24.3498 16.8274 24.3498 16.4463" fill="#0B0C0C"/>
<path d="M15.9915 9.73633V17.0226L16.9359 15.6711L16.7038 15.4277V14.2747H17.9513V15.4309L17.6354 15.6743L18.2672 17.0451L18.9183 15.6743L18.6024 15.4309V14.2747H20.1368V15.4309L19.8209 15.6743L20.4527 17.0451L21.1038 15.6743L20.7879 15.4309V14.2747H22.0354V15.4277L21.8033 15.6711L22.6994 17.0226V9.73633H15.9915ZM17.9513 13.5829H16.7038V12.3178H17.9513V13.5829ZM17.9513 11.6644H16.7038V10.3993H17.9513V11.6644ZM20.1336 13.5829H18.5605V12.3178H20.1336V13.5829ZM20.1336 11.6644H18.5605V10.3993H20.1336V11.6644ZM22.0483 13.5829H20.8008V12.3178H22.0483V13.5829ZM22.0483 11.6644H20.8008V10.3993H22.0483V11.6644Z" fill="#0B0C0C"/>
<path d="M30.1715 39.0355C30.2296 39.0739 30.2424 39.154 30.2005 39.2213C30.1586 39.2853 30.0781 39.311 30.02 39.2725L29.5849 38.9939C29.5268 38.9554 29.5139 38.8722 29.5559 38.8081C29.5978 38.7441 29.6783 38.7216 29.7364 38.7569L30.1715 39.0355Z" fill="#0B0C0C"/>
<path d="M31.0739 39.6119C31.1319 39.6504 31.1448 39.7304 31.1029 39.7977C31.061 39.8617 30.9804 39.8874 30.9224 39.8489L30.4872 39.5703C30.4292 39.5319 30.4163 39.4486 30.4582 39.3845C30.5001 39.3205 30.5807 39.2981 30.6387 39.3333L31.0739 39.6119Z" fill="#0B0C0C"/>
<path d="M31.9765 40.1852C32.0345 40.2236 32.0474 40.3037 32.0055 40.3709C31.9636 40.435 31.883 40.4606 31.825 40.4222L31.3898 40.1435C31.3318 40.1051 31.3189 40.0218 31.3608 39.9578C31.4027 39.8937 31.4833 39.8713 31.5413 39.9065L31.9765 40.1852Z" fill="#0B0C0C"/>
<path d="M32.8791 40.7587C32.9371 40.7971 32.95 40.8772 32.9081 40.9444C32.8662 41.0085 32.7856 41.0341 32.7275 40.9957L32.2924 40.717C32.2344 40.6786 32.2215 40.5953 32.2634 40.5313C32.3053 40.4672 32.3859 40.4448 32.4439 40.48L32.8791 40.7587Z" fill="#0B0C0C"/>
<path d="M29.024 39.0867C29.0853 39.1251 29.2625 39.1956 29.3367 39.1827C29.3883 39.1763 29.4302 39.1379 29.4721 39.1027L29.1497 38.8977C29.0176 38.8112 28.9757 38.6351 29.0627 38.5038C29.1497 38.3724 29.327 38.3308 29.4592 38.4173L29.7815 38.6223C29.7944 38.5774 29.8202 38.523 29.8041 38.4813C29.7525 38.3596 29.6913 38.2956 29.5817 38.2251C29.3431 38.0714 29.0208 38.1418 28.8693 38.3788C28.7146 38.6158 28.7855 38.9361 29.0272 39.0867" fill="#0B0C0C"/>
<path d="M32.9436 41.5817C32.8824 41.5433 32.7438 41.412 32.7244 41.3383C32.7115 41.287 32.7244 41.2358 32.7438 41.1845L33.0661 41.3895C33.1983 41.476 33.3788 41.4344 33.4626 41.3031C33.5496 41.1717 33.5077 40.9924 33.3756 40.9091L33.0532 40.7041C33.0887 40.6753 33.1241 40.6273 33.1725 40.6273C33.3047 40.6209 33.3917 40.6529 33.4981 40.7201C33.7366 40.8739 33.8075 41.191 33.656 41.428C33.5045 41.665 33.1822 41.7354 32.9436 41.5817Z" fill="#0B0C0C"/>
<path d="M33.4465 33.9559C33.5046 33.9943 33.5852 33.9719 33.6271 33.9046C33.669 33.8406 33.6561 33.7573 33.598 33.7189L33.1629 33.4402C33.1049 33.405 33.0243 33.4274 32.9824 33.4915C32.9405 33.5555 32.9534 33.6388 33.0114 33.6772L33.4465 33.9559Z" fill="#0B0C0C"/>
<path d="M34.3491 34.529C34.4072 34.5674 34.4877 34.5418 34.5296 34.4777C34.5715 34.4137 34.5587 34.3304 34.5006 34.2952L34.0655 34.0165C34.0074 33.9781 33.9269 34.0005 33.885 34.0678C33.8431 34.1318 33.8559 34.2151 33.914 34.2536L34.3491 34.5322V34.529Z" fill="#0B0C0C"/>
<path d="M35.2517 35.1057C35.3097 35.1441 35.3903 35.1185 35.4322 35.0544C35.4741 34.9904 35.4612 34.9071 35.4032 34.8687L34.9681 34.59C34.91 34.5516 34.8294 34.574 34.7875 34.6413C34.7456 34.7053 34.7585 34.7886 34.8166 34.827L35.2517 35.1057Z" fill="#0B0C0C"/>
<path d="M36.1541 35.6789C36.2121 35.7174 36.2927 35.6949 36.3346 35.6277C36.3765 35.5636 36.3636 35.4804 36.3056 35.4419L35.8704 35.1633C35.8124 35.1248 35.7318 35.1473 35.6899 35.2145C35.648 35.2786 35.6609 35.3618 35.7189 35.4003L36.1541 35.6789Z" fill="#0B0C0C"/>
<path d="M33.0113 32.8989C33.0726 32.9373 33.2112 33.0687 33.2305 33.1423C33.2434 33.1936 33.2305 33.2448 33.2112 33.2961L32.8888 33.0911C32.7567 33.0046 32.5762 33.043 32.4924 33.1775C32.4053 33.3089 32.4472 33.4882 32.5794 33.5715L32.9017 33.7765C32.8663 33.8053 32.8276 33.8533 32.7825 33.8565C32.6503 33.8629 32.5633 33.8309 32.4569 33.7637C32.2184 33.6099 32.1474 33.2928 32.2989 33.0558C32.4505 32.8188 32.7728 32.7484 33.0113 32.9021" fill="#0B0C0C"/>
<path d="M36.9342 35.394C36.873 35.3556 36.6957 35.2851 36.6216 35.2979C36.57 35.3075 36.5281 35.3428 36.4862 35.378L36.8085 35.583C36.9407 35.6662 36.9826 35.8456 36.8956 35.9769C36.8085 36.1082 36.6312 36.1499 36.4991 36.0634L36.1767 35.8584C36.1638 35.9032 36.1348 35.9577 36.1542 35.9993C36.2057 36.121 36.267 36.1851 36.3766 36.2556C36.6151 36.4093 36.9375 36.3388 37.089 36.1018C37.2437 35.8648 37.1728 35.5445 36.931 35.394" fill="#0B0C0C"/>
<path d="M29.3721 37.892L33.9526 40.8066L33.482 39.6792L33.237 39.7272L32.5117 39.266L33.0113 38.491L33.7398 38.9522L33.7656 39.2468L34.8809 39.4038L34.2781 38.4525L33.9977 38.5518L33.2692 38.0906L33.8817 37.1394L34.6102 37.6006L34.636 37.8952L35.7513 38.0522L35.1485 37.101L34.868 37.2002L34.1395 36.739L34.6392 35.964L35.3645 36.4252L35.4257 36.6686L36.6345 36.6526L32.054 33.738L29.3721 37.8952V37.892ZM32.5729 38.2155L32.0733 38.9906L31.2771 38.4846L31.7768 37.7127L32.5729 38.2187V38.2155ZM31.3674 37.4469L30.8677 38.2219L30.0716 37.7159L30.5712 36.9408L31.3674 37.4469ZM33.4465 36.8607L32.8179 37.8376L32.0217 37.3316L32.6503 36.3547L33.4465 36.8607ZM32.2409 36.0921L31.6124 37.0689L30.8162 36.5629L31.4447 35.586L32.2409 36.0921ZM34.2137 35.6725L33.714 36.4444L32.9179 35.9383L33.4175 35.1633L34.2137 35.6693V35.6725ZM33.0081 34.9039L32.5085 35.6789L31.7123 35.1729L32.2119 34.3978L33.0081 34.9039Z" fill="#0B0C0C"/>
<path d="M8.6647 39.0355C8.60668 39.0739 8.59378 39.154 8.63569 39.2213C8.67759 39.2853 8.75818 39.311 8.8162 39.2725L9.25137 38.9939C9.30939 38.9554 9.32228 38.8722 9.28038 38.8081C9.23847 38.7441 9.15789 38.7216 9.09986 38.7569L8.6647 39.0355Z" fill="#0B0C0C"/>
<path d="M7.76211 39.6119C7.70409 39.6504 7.69119 39.7304 7.7331 39.7977C7.775 39.8617 7.85559 39.8874 7.91361 39.8489L8.34878 39.5703C8.4068 39.5319 8.41969 39.4486 8.37779 39.3845C8.33588 39.3205 8.2553 39.2981 8.19728 39.3333L7.76211 39.6119Z" fill="#0B0C0C"/>
<path d="M6.85952 40.1852C6.8015 40.2236 6.78861 40.3037 6.83051 40.3709C6.87242 40.435 6.953 40.4606 7.01102 40.4222L7.44619 40.1435C7.50421 40.1051 7.51711 40.0218 7.4752 39.9578C7.4333 39.8937 7.35271 39.8713 7.29469 39.9065L6.85952 40.1852Z" fill="#0B0C0C"/>
<path d="M5.95693 40.7587C5.89891 40.7971 5.88602 40.8772 5.92792 40.9444C5.96983 41.0085 6.05042 41.0341 6.10844 40.9957L6.5436 40.717C6.60162 40.6786 6.61452 40.5953 6.57261 40.5313C6.53071 40.4672 6.45012 40.4448 6.3921 40.48L5.95693 40.7587Z" fill="#0B0C0C"/>
<path d="M9.81231 39.0867C9.75107 39.1251 9.57378 39.1956 9.49964 39.1827C9.44806 39.1763 9.40616 39.1379 9.36425 39.1027L9.6866 38.8977C9.81876 38.8112 9.86066 38.6351 9.77363 38.5038C9.6866 38.3724 9.50931 38.3308 9.37715 38.4173L9.0548 38.6223C9.04191 38.5774 9.01612 38.523 9.03224 38.4813C9.08381 38.3596 9.14506 38.2956 9.25466 38.2251C9.49319 38.0714 9.81554 38.1418 9.96704 38.3788C10.1218 38.6158 10.0508 38.9361 9.80909 39.0867" fill="#0B0C0C"/>
<path d="M5.89243 41.5817C5.95368 41.5433 6.09229 41.412 6.11163 41.3383C6.12452 41.287 6.11163 41.2358 6.09229 41.1845L5.76994 41.3895C5.63778 41.476 5.45727 41.4344 5.37346 41.3031C5.28643 41.1717 5.32833 40.9924 5.46049 40.9091L5.78284 40.7041C5.74738 40.6753 5.71192 40.6273 5.66357 40.6273C5.53141 40.6209 5.44438 40.6529 5.338 40.7201C5.09947 40.8739 5.02855 41.191 5.18005 41.428C5.33156 41.665 5.6539 41.7354 5.89243 41.5817Z" fill="#0B0C0C"/>
<path d="M5.38969 33.9559C5.33166 33.9943 5.25108 33.9719 5.20917 33.9046C5.16727 33.8406 5.18016 33.7573 5.23818 33.7189L5.67335 33.4402C5.73137 33.405 5.81196 33.4274 5.85386 33.4915C5.89577 33.5555 5.88287 33.6388 5.82485 33.6772L5.38969 33.9559Z" fill="#0B0C0C"/>
<path d="M4.4871 34.529C4.42908 34.5674 4.34849 34.5418 4.30659 34.4777C4.26468 34.4137 4.27757 34.3304 4.3356 34.2952L4.77076 34.0165C4.82878 33.9781 4.90937 34.0005 4.95127 34.0678C4.99318 34.1318 4.98029 34.2151 4.92226 34.2536L4.4871 34.5322V34.529Z" fill="#0B0C0C"/>
<path d="M3.58451 35.1057C3.52649 35.1441 3.4459 35.1185 3.404 35.0544C3.36209 34.9904 3.37499 34.9071 3.43301 34.8687L3.86817 34.59C3.9262 34.5516 4.00678 34.574 4.04869 34.6413C4.09059 34.7053 4.0777 34.7886 4.01968 34.827L3.58451 35.1057Z" fill="#0B0C0C"/>
<path d="M2.68192 35.6789C2.6239 35.7174 2.54331 35.6949 2.50141 35.6277C2.45951 35.5636 2.4724 35.4804 2.53042 35.4419L2.96559 35.1633C3.02361 35.1248 3.10419 35.1473 3.1461 35.2145C3.188 35.2786 3.17511 35.3618 3.11709 35.4003L2.68192 35.6789Z" fill="#0B0C0C"/>
<path d="M5.82473 32.8989C5.76348 32.9373 5.62487 33.0687 5.60553 33.1423C5.59264 33.1936 5.60553 33.2448 5.62487 33.2961L5.94722 33.0911C6.07938 33.0046 6.25989 33.043 6.3437 33.1775C6.43073 33.3089 6.38883 33.4882 6.25667 33.5715L5.93432 33.7765C5.96978 33.8053 6.00846 33.8533 6.05359 33.8565C6.18575 33.8629 6.27279 33.8309 6.37916 33.7637C6.61769 33.6099 6.68861 33.2928 6.53711 33.0558C6.38561 32.8188 6.06326 32.7484 5.82473 32.9021" fill="#0B0C0C"/>
<path d="M1.9017 35.394C1.96294 35.3556 2.14023 35.2851 2.21437 35.2979C2.26595 35.3075 2.30785 35.3428 2.34976 35.378L2.02741 35.583C1.89525 35.6662 1.85334 35.8456 1.94038 35.9769C2.02741 36.1082 2.2047 36.1499 2.33686 36.0634L2.65921 35.8584C2.6721 35.9032 2.70111 35.9577 2.68177 35.9993C2.63019 36.121 2.56895 36.1851 2.45935 36.2556C2.22082 36.4093 1.89847 36.3388 1.74697 36.1018C1.59225 35.8648 1.66316 35.5445 1.90492 35.394" fill="#0B0C0C"/>
<path d="M6.78217 33.7349L2.20166 36.6494L3.41045 36.6654L3.4717 36.422L4.19697 35.9608L4.69661 36.7359L3.97133 37.1971L3.69089 37.0978L3.08811 38.049L4.20342 37.8921L4.22921 37.5974L4.95448 37.1362L5.56694 38.0875L4.84166 38.5487L4.56122 38.4494L3.95844 39.4006L5.07375 39.2437L5.09954 38.949L5.82481 38.4878L6.32444 39.2629L5.59917 39.7241L5.35419 39.676L4.88356 40.8034L9.46408 37.8889L6.78217 33.7317V33.7349ZM7.05617 37.7095L7.5558 38.4846L6.75961 38.9906L6.25998 38.2156L7.05617 37.7095ZM8.26173 36.9409L8.76137 37.7159L7.96518 38.222L7.46554 37.4469L8.26173 36.9409ZM6.18261 36.3548L6.81118 37.3316L6.01499 37.8377L5.38642 36.8608L6.18261 36.3548ZM7.38818 35.5861L8.01675 36.5629L7.22056 37.069L6.59199 36.0921L7.38818 35.5861ZM5.41543 35.1665L5.91507 35.9384L5.11888 36.4444L4.61924 35.6694L5.41543 35.1633V35.1665ZM6.621 34.3979L7.12063 35.1729L6.32444 35.679L5.82481 34.9039L6.621 34.3979Z" fill="#0B0C0C"/>
</svg>
