<?xml version="1.0" encoding="utf-8"?>
<!-- Generator: Adobe Illustrator 16.0.1, SVG Export Plug-In . SVG Version: 6.00 Build 0)  -->
<svg version="1.2" baseProfile="tiny" id="Calque_1"
	 xmlns="http://www.w3.org/2000/svg" xmlns:xlink="http://www.w3.org/1999/xlink" x="0px" y="0px" width="419px" height="118px"
	 viewBox="0 0 419 118" xml:space="preserve">
<g>
	<path fill-rule="evenodd" fill="#188078" d="M165.843,20.736c-1.917-2.26-4.314-3.391-7.19-3.391c-0.89,0-1.712,0.24-2.465,0.72
		c-0.89,0.548-1.335,1.232-1.335,2.055c0,1.232,1.267,2.054,3.801,2.465l2.465,0.411c3.15,0.479,5.479,1.232,6.985,2.26
		c1.849,1.232,2.773,3.048,2.773,5.444c0,3.561-1.403,6.129-4.211,7.704c-2.054,1.232-4.725,1.849-8.012,1.849
		c-4.725,0-8.731-1.814-12.019-5.444l5.033-3.39c2.466,2.26,5.068,3.39,7.807,3.39l3.185-0.719c1.164-0.548,1.746-1.335,1.746-2.362
		c0-1.233-0.993-2.021-2.979-2.363l-5.547-0.924c-2.465-0.411-4.349-1.232-5.649-2.466c-1.37-1.301-2.055-2.944-2.055-4.931
		c0-3.013,1.096-5.342,3.287-6.985c2.055-1.438,4.622-2.157,7.704-2.157c2.191,0,4.314,0.445,6.369,1.336
		c2.123,0.959,3.903,2.26,5.341,3.903L165.843,20.736z"/>
	<polygon fill-rule="evenodd" fill="#188078" points="194.502,17.86 181.457,17.86 181.457,22.79 193.578,22.79 193.578,27.927 
		181.457,27.927 181.457,34.296 195.632,34.296 195.632,39.534 174.677,39.534 174.677,12.724 194.502,12.724 	"/>
	<path fill-rule="evenodd" fill="#188078" d="M200.974,16.113c2.396-2.808,5.615-4.212,9.655-4.212
		c4.795,0,8.527,2.363,11.197,7.088l-5.342,2.672c-0.479-1.302-1.232-2.329-2.26-3.082c-1.026-0.685-2.157-1.027-3.39-1.027
		c-1.917,0-3.458,0.685-4.623,2.054c-1.301,1.507-1.951,3.664-1.951,6.472c0,2.329,0.513,4.246,1.541,5.753
		c1.096,1.849,2.876,2.773,5.342,2.773c0.959,0,1.952-0.343,2.979-1.027c1.164-0.685,1.985-1.609,2.466-2.773
		c1.78,0.891,3.561,1.746,5.341,2.568c-1.232,2.123-2.772,3.801-4.622,5.033c-1.917,1.232-3.972,1.849-6.163,1.849
		c-4.109,0-7.431-1.438-9.964-4.314c-2.397-2.603-3.595-5.889-3.595-9.861C197.584,22.105,198.714,18.784,200.974,16.113z"/>
	<path fill-rule="evenodd" fill="#188078" d="M261.17,85.04c2.396-2.809,5.615-4.212,9.655-4.212c4.794,0,8.525,2.362,11.196,7.087
		l-5.341,2.672c-0.479-1.301-1.233-2.329-2.261-3.082c-1.026-0.685-2.157-1.027-3.389-1.027c-1.918,0-3.459,0.686-4.623,2.055
		c-1.302,1.506-1.951,3.664-1.951,6.472c0,2.327,0.513,4.245,1.54,5.752c1.095,1.85,2.876,2.773,5.341,2.773
		c0.959,0,1.953-0.342,2.98-1.027c1.163-0.685,1.985-1.609,2.465-2.773c1.78,0.89,3.562,1.746,5.341,2.568
		c-1.232,2.123-2.773,3.801-4.622,5.033c-1.918,1.233-3.971,1.849-6.164,1.849c-4.108,0-7.43-1.438-9.963-4.314
		c-2.397-2.603-3.596-5.89-3.596-9.86C257.779,91.032,258.909,87.71,261.17,85.04z"/>
	<path fill-rule="evenodd" fill="#188078" d="M246.479,25.975c-1.027,1.37-2.362,2.295-4.006,2.773l6.061,10.786h-7.396
		l-5.239-9.656h-4.314v9.656h-6.677V12.724h13.354c3.081,0,5.443,0.719,7.087,2.157c1.781,1.507,2.671,3.698,2.671,6.574
		C248.021,23.235,247.508,24.742,246.479,25.975z M231.585,17.654v7.19h6.163c2.397-0.068,3.596-1.267,3.596-3.596
		c0-2.328-1.198-3.526-3.596-3.595H231.585z"/>
	<polygon fill-rule="evenodd" fill="#188078" points="271.646,17.86 258.602,17.86 258.602,22.79 270.825,22.79 270.825,27.927 
		258.602,27.927 258.602,34.296 272.777,34.296 272.777,39.534 251.924,39.534 251.924,12.724 271.646,12.724 	"/>
	<polygon fill-rule="evenodd" fill="#188078" points="280.994,17.86 274.01,17.86 274.01,12.724 294.656,12.724 294.656,17.86 
		287.671,17.86 287.671,39.534 280.994,39.534 	"/>
	<rect x="149.099" y="47.136" fill-rule="evenodd" fill="#188078" width="6.677" height="26.81"/>
	<polygon fill-rule="evenodd" fill="#188078" points="160.501,47.136 167.178,47.136 176.937,64.29 177.04,64.29 177.04,47.136 
		183.203,47.136 183.203,73.945 176.423,73.945 166.562,57.1 166.562,73.945 160.501,73.945 	"/>
	<polygon fill-rule="evenodd" fill="#188078" points="185.36,47.136 206.007,47.136 206.007,52.374 199.022,52.374 199.022,73.945 
		192.345,73.945 192.345,52.374 185.36,52.374 	"/>
	<polygon fill-rule="evenodd" fill="#188078" points="227.887,52.374 214.842,52.374 214.842,57.202 227.065,57.202 227.065,62.44 
		214.842,62.44 214.842,68.707 229.018,68.707 229.018,73.945 208.165,73.945 208.165,47.136 227.887,47.136 	"/>
	<polygon fill-rule="evenodd" fill="#188078" points="249.562,68.296 249.562,73.945 232.406,73.945 232.406,47.136 239.084,47.136 
		239.084,68.296 	"/>
	<polygon fill-rule="evenodd" fill="#188078" points="269.182,68.296 269.182,73.945 252.027,73.945 252.027,47.136 258.703,47.136 
		258.703,68.296 	"/>
	<rect x="271.749" y="47.136" fill-rule="evenodd" fill="#188078" width="6.678" height="26.81"/>
	<path fill-rule="evenodd" fill="#188078" d="M285.206,50.423c2.328-2.671,5.615-4.006,9.861-4.006c2.671,0,5.068,0.582,7.19,1.746
		c2.123,1.164,3.835,2.808,5.136,4.931l-5.547,2.465c-1.369-2.328-3.492-3.492-6.368-3.492c-2.123,0-3.767,0.685-4.931,2.054
		c-1.301,1.438-1.952,3.596-1.952,6.472c0,2.671,0.616,4.726,1.849,6.164c1.164,1.574,2.843,2.361,5.034,2.361
		c1.438,0,2.705-0.376,3.801-1.129c1.301-0.959,2.021-2.226,2.156-3.802h-5.957v-5.135h11.607v14.894h-5.136v-2.362
		c-1.918,2.122-4.52,3.184-7.808,3.184c-3.972,0-7.019-1.335-9.142-4.006c-2.055-2.465-3.082-5.854-3.082-10.169
		C281.919,56.415,283.015,53.025,285.206,50.423z"/>
	<polygon fill-rule="evenodd" fill="#188078" points="311.4,47.136 331.122,47.136 331.122,52.374 318.077,52.374 318.077,57.202 
		330.198,57.202 330.198,62.44 318.077,62.44 318.077,68.707 332.252,68.707 332.252,73.945 311.4,73.945 	"/>
	<polygon fill-rule="evenodd" fill="#188078" points="358.241,47.136 358.241,73.945 351.564,73.945 341.806,57.1 341.703,57.1 
		341.703,73.945 335.643,73.945 335.643,47.136 342.422,47.136 352.078,64.29 352.181,64.29 352.181,47.136 	"/>
	<path fill-rule="evenodd" fill="#188078" d="M365.123,50.628c2.398-2.808,5.616-4.211,9.656-4.211
		c4.795,0,8.526,2.328,11.197,6.984l-5.342,2.671c-0.479-1.232-1.232-2.226-2.26-2.979c-1.026-0.685-2.157-1.027-3.39-1.027
		c-1.918,0-3.459,0.65-4.623,1.951c-1.301,1.507-1.952,3.698-1.952,6.574c0,2.328,0.515,4.246,1.541,5.753
		c1.164,1.849,2.945,2.772,5.342,2.772c0.959,0,1.986-0.342,3.082-1.026l2.362-2.774l5.342,2.569
		c-1.164,2.054-2.671,3.731-4.52,5.033c-1.985,1.232-4.075,1.848-6.267,1.848c-4.108,0-7.43-1.438-9.964-4.313
		c-2.396-2.67-3.595-5.958-3.595-9.861C361.734,56.62,362.864,53.299,365.123,50.628z"/>
	<polygon fill-rule="evenodd" fill="#188078" points="408.37,52.374 395.427,52.374 395.427,57.202 407.548,57.202 407.548,62.44 
		395.427,62.44 395.427,68.707 409.5,68.707 409.5,73.945 388.749,73.945 388.749,47.136 408.37,47.136 	"/>
	<path fill-rule="evenodd" fill="#188078" d="M170.876,86.066l-5.033,3.596c-1.917-2.26-4.314-3.39-7.19-3.39
		c-0.89,0-1.712,0.24-2.465,0.72c-0.89,0.547-1.335,1.232-1.335,2.054c0,1.302,1.267,2.123,3.801,2.466l2.465,0.513
		c3.15,0.479,5.479,1.199,6.985,2.157c1.849,1.232,2.773,3.048,2.773,5.445c0,3.629-1.403,6.231-4.211,7.807
		c-2.054,1.163-4.725,1.745-8.012,1.745c-4.725,0-8.731-1.814-12.019-5.443l5.033-3.287c2.534,2.26,5.136,3.39,7.807,3.39
		l3.185-0.72c1.164-0.547,1.746-1.369,1.746-2.465c0-1.164-0.993-1.951-2.979-2.362l-5.547-0.925
		c-5.136-0.821-7.704-3.252-7.704-7.293c0-3.013,1.096-5.342,3.287-6.985c2.055-1.438,4.622-2.157,7.704-2.157
		c2.191,0,4.314,0.445,6.369,1.336C167.658,83.156,169.438,84.423,170.876,86.066z"/>
	<polygon fill-rule="evenodd" fill="#188078" points="193.681,86.889 180.738,86.889 180.738,91.717 192.756,91.717 192.756,96.955 
		180.738,96.955 180.738,103.222 194.811,103.222 194.811,108.461 173.958,108.461 173.958,81.65 193.681,81.65 	"/>
	<path fill-rule="evenodd" fill="#188078" d="M204.466,86.684v7.087h6.266c2.328,0,3.492-1.164,3.492-3.492
		c0-2.396-1.164-3.595-3.492-3.595H204.466z M204.466,98.805v9.656h-6.574V81.65h13.354c6.438,0,9.656,2.91,9.656,8.73
		c0,1.781-0.514,3.287-1.541,4.521c-0.959,1.369-2.295,2.294-4.007,2.773l6.163,10.786h-7.498l-5.239-9.656H204.466z"/>
	<polygon fill-rule="evenodd" fill="#188078" points="229.941,108.461 221.005,81.65 228.093,81.65 233.537,100.757 233.64,100.757 
		239.289,81.65 246.273,81.65 237.029,108.461 	"/>
	<rect x="248.021" y="81.65" fill-rule="evenodd" fill="#188078" width="6.677" height="26.811"/>
	<polygon fill-rule="evenodd" fill="#188078" points="304.106,86.889 291.062,86.889 291.062,91.717 303.183,91.717 303.183,96.955 
		291.062,96.955 291.062,103.222 305.237,103.222 305.237,108.461 284.384,108.461 284.384,81.65 304.106,81.65 	"/>
	<polygon fill-rule="evenodd" fill="#7F7F7F" points="338.621,86.581 330.198,108.461 328.452,108.461 320.234,86.581 
		320.131,86.581 320.131,108.461 317.563,108.461 317.563,81.65 320.646,81.65 329.376,104.044 338.108,81.65 341.293,81.65 
		341.293,108.461 338.621,108.461 	"/>
	<rect x="347.661" y="81.65" fill-rule="evenodd" fill="#7F7F7F" width="2.465" height="26.811"/>
	<path fill-rule="evenodd" fill="#7F7F7F" d="M370.979,88.019c-0.343-3.149-2.123-4.725-5.342-4.725
		c-2.739,0-4.691,1.129-5.855,3.39c-0.891,1.506-1.507,3.938-1.849,7.293h0.103c0.753-1.096,1.746-1.952,2.979-2.567
		c1.232-0.686,2.5-1.028,3.802-1.028c2.396,0,4.416,0.651,6.06,1.952c1.918,1.712,2.877,4.212,2.877,7.498
		c0,2.534-0.72,4.623-2.158,6.267c-1.574,1.849-3.869,2.774-6.882,2.774c-3.287,0-5.718-1.268-7.294-3.802
		c-1.301-2.26-1.951-5.308-1.951-9.142c0-9.862,3.39-14.793,10.17-14.793c4.178,0,6.813,2.021,7.909,6.061L370.979,88.019z
		 M357.934,99.113c0,2.259,0.685,4.143,2.055,5.648c1.3,1.37,2.876,2.056,4.725,2.056c1.85,0,3.355-0.583,4.52-1.747
		c1.37-1.232,2.055-2.979,2.055-5.239c0-1.985-0.445-3.629-1.336-4.93c-1.164-1.575-2.808-2.363-4.93-2.363
		c-1.986,0-3.664,0.617-5.033,1.85C358.618,95.688,357.934,97.264,357.934,99.113z"/>
	<path fill-rule="evenodd" fill="#188078" d="M77.605,49.498c-2.123-3.219-4.828-5.171-8.115-5.854l-0.103,15.51l11.3,0.925
		C80.754,56.106,79.728,52.58,77.605,49.498z M69.079,43.849v-0.103l-0.206-0.72l0.617,0.309h0.205l0.309-0.309l0.411,0.103
		l0.206,0.515c2.945,0.89,5.41,2.772,7.396,5.649l0.308,0.514l0.822-0.103l-0.514,0.719c1.438,2.533,2.226,5.375,2.362,8.525
		l0.411,0.41v0.31c0,0.137-0.137,0.205-0.411,0.205v0.205l0.206,0.616c-0.342-0.068-0.547-0.171-0.616-0.308h-0.103l-0.206,0.41
		l-0.719-0.513l-4.52-0.514c0,0.205-0.103,0.444-0.308,0.72l-0.308-0.822l-3.903-0.206c-0.137,0.479-0.377,0.616-0.719,0.411
		l-0.308-0.411h-0.103l-0.514,0.206l0.103-0.616v-0.104l-0.411-0.308l0.411-0.72V51.45c-0.206,0-0.411-0.103-0.616-0.309
		l0.616-0.309l0.103-6.061c-0.479-0.067-0.616-0.308-0.411-0.719L69.079,43.849z"/>
	<path fill-rule="evenodd" fill="#188078" d="M69.695,44.054h0.309c1.438,0.411,2.808,1.096,4.108,2.055l3.287,3.596
		c1.917,2.808,2.945,6.061,3.082,9.758v0.206l-10.889-0.822L69.695,44.054z M70.517,44.67l0.103,0.617l-0.514-0.206v4.828
		l0.411,0.411l-0.206,0.513l0.719,0.411l-0.719,0.206l0.206,0.616l-0.411,0.308l-0.103,5.65l0.616-0.206l-0.206,0.72l3.287,0.103
		l0.308-0.411l0.411,0.206l0.411-0.72l0.309,0.822l0.513-0.206l0.206,0.411l3.801,0.513l-0.103-0.718l0.514,0.205
		c-0.138-2.396-0.754-4.76-1.849-7.088l-0.411-0.103l-0.103-0.514h-0.822l0.411-0.616l-0.411-0.309l0.103-0.41
		C75.276,47.17,73.119,45.492,70.517,44.67z"/>
	<path fill-rule="evenodd" fill="#188078" d="M73.085,48.779h0.616l0.103-0.206c-0.069-0.273-0.24-0.342-0.514-0.205l-0.103,0.205
		l-0.308-0.205l-0.103-0.308l0.206-0.309l0.924-0.205l0.308-0.309l0.206,0.411l0.308,0.205h0.308l0.103,0.616l0.513,0.925
		c0.206,0.548,0.206,0.925,0,1.13c-0.205,1.027-0.171,1.746,0.103,2.157l1.13,1.644l0.205,0.103l0.719,0.514l0.411-0.206
		l-0.616-0.924l-1.13-1.13c-0.547-0.753-0.616-1.507-0.205-2.26l0.205,0.719c0.342,0.548,0.479,1.062,0.411,1.541l1.335,1.335
		l0.206,0.822c0,0.274-0.137,0.445-0.411,0.514l-0.925-0.309l-0.411-0.41l0.616,1.13l1.335,0.308l0.103,0.205l-0.308,0.103
		l0.513,0.104l-0.513,0.411l0.411,0.103l-0.308,0.308l-0.103,0.309l-0.206,0.103l0.103,0.103v0.411l-0.103,0.103l0.206,0.104
		c-0.274,0.067-0.411,0.034-0.411-0.104l-0.103-0.103v-0.411H77.81l-0.205,0.411h-0.103v0.206l-0.206-0.309v-0.103l0.103-0.309
		v-0.103l-0.308,0.103l-0.103-0.308l-0.308,0.103l0.411-0.309l0.206-0.103l0.411,0.103l0.103-0.616l-0.103-0.103l-0.309,0.103
		l-0.513,0.103c-0.616-0.273-1.027-0.855-1.233-1.746l-0.719,0.103l-0.308,0.616l0.205,0.616l-0.103,0.411h-0.514l-0.206,0.206
		l-0.308-0.206v0.206l-0.206-0.206l-0.206,0.206l-0.205-0.206h-0.206l-0.103,0.206l0.103,0.103L72.674,57.1l-0.206-0.411
		l0.103-0.103h-0.103l-0.102,0.103v0.103l-0.309-0.308l0.206-0.308l0.205-0.104h-0.205l-0.103-0.103l-0.309,0.103l0.309-0.308
		l0.206-0.104l0.411,0.206l0.308,0.205h0.924l-0.514-0.514V54.84l0.925-0.72l1.232,0.309l-1.027-0.719
		c-0.479-0.343-0.685-0.719-0.617-1.13l-0.308,0.514l-0.514-0.206l-0.308,0.411l-0.719,0.103l-0.206,0.309l-0.309-0.206
		l-0.102,0.411h-0.103l0.205,0.309c-0.137,0.068-0.274-0.034-0.411-0.309l-0.103-0.103v-0.411H71.03l-0.411,0.103l-0.103-0.103
		l-0.103,0.309l0.103-0.514h0.103v-0.103h0.616l-0.513-0.206v-0.205h-0.206l0.308-0.103h0.411l0.206,0.205
		c0.137,0.137,0.377,0.068,0.719-0.205l0.822-0.822l-0.822-0.719L71.75,50.32l-0.103-0.309v0.103l-0.205-0.205h-0.103v-0.411h-0.514
		v-0.514l0.205,0.309l0.206-0.103c-0.274-0.069-0.274-0.206,0-0.411l-0.206-0.104h-0.205v-0.103l-0.206,0.206v-0.411l0.411-0.103
		v-0.103l-0.308-0.309v-0.103l-0.103-0.103l0.411,0.103l-0.103,0.103h0.103l0.309,0.309l0.103-0.103h-0.103v-0.206l0.103-0.205
		l-0.103-0.206l0.308,0.309l0.103,0.205l-0.103,0.616l0.206,0.514l0.514,0.411l0.924,1.13l0.925-1.335l-0.719-0.103
		c-0.342,0.068-0.513,0-0.513-0.206L73.085,48.779z"/>
	<path fill-rule="evenodd" fill="#188078" d="M59.525,69.529l4.109,3.287c-1.849-3.425-3.767-6.095-5.753-8.013
		C57.745,66.584,58.293,68.159,59.525,69.529z M65.483,64.804H65.38c-0.479-0.138-0.685-0.377-0.616-0.72
		c0.069-0.273,0.309-0.377,0.719-0.308l0.206,0.103c0.068-0.685-0.034-1.062-0.309-1.13l-2.773,0.616l2.362,3.903L65.483,64.804z
		 M61.991,63.571l-1.336,0.513c1.165,1.37,2.431,3.254,3.801,5.65l0.308-1.746L61.991,63.571z M60.039,64.187l-1.438,0.309
		c1.986,2.055,3.732,4.588,5.239,7.602l0.411-1.541C62.881,68.021,61.477,65.899,60.039,64.187z M56.341,63.776v0.103l0.308-0.821
		h3.287l3.288-0.822l2.157-0.308c1.096,0.205,1.61,0.924,1.541,2.156l-0.103,0.206l0.308,0.103c0.342,0.206,0.479,0.479,0.411,0.822
		c0,0.342-0.206,0.41-0.617,0.205l-0.205-0.104l-0.719,8.732l0.103,0.206v0.718c-0.068,0.206-0.274,0.206-0.616,0
		c0.069,1.028-0.445,1.37-1.541,1.028c-0.685-0.275-1.027-0.755-1.027-1.438l0.411-0.514h0.514l0.411,0.615H63.84l-0.308,0.103
		l0.514,0.617c0.411,0.068,0.616-0.103,0.616-0.514c0.068-0.343-0.068-0.65-0.411-0.925l-0.925-0.308
		c-2.534-1.37-4.349-2.705-5.444-4.006c-1.301-1.438-1.849-3.014-1.644-4.726l-0.308,0.103l0.308-0.822l-0.513,0.412
		c-0.411,0.136-0.616,0.067-0.616-0.206l0.616-0.924C56.136,63.331,56.341,63.434,56.341,63.776z"/>
	<path fill-rule="evenodd" fill="#188078" d="M30.455,23.305h-0.308l-1.336,0.615l0.616,0.309l0.72,0.205l0.513-0.41l-0.719,0.205
		l-0.309-0.103l0.103-0.617l0.103,0.206h0.309l-0.103-0.308l0.103-0.103l0.513,0.308v-0.411L30.455,23.305z M30.558,21.866
		l0.411-0.411l0.514,0.514l-0.206,1.746l0.411,1.85h-0.206l-0.206-0.206c-0.068-0.616-0.376-0.855-0.924-0.719
		c-0.616,0.205-1.062,0.205-1.335,0l-0.513-0.411l-0.617,0.616l-0.205-0.411l0.411-0.616l2.362-1.232L30.558,21.866z"/>
	<path fill-rule="evenodd" fill="#188078" d="M38.775,25.05c1.027-0.342,1.781-0.102,2.26,0.72l0.719,2.157
		c0.342,0.685,0.958,1.096,1.849,1.232c-0.822,0.754-1.678,0.343-2.568-1.232c-0.548-1.575-1.027-2.432-1.438-2.568L38.775,25.05z"
		/>
	<path fill-rule="evenodd" fill="#188078" d="M39.7,27.311c0.548,1.232,1.267,2.088,2.157,2.567l1.13,0.411l-0.822,0.205
		l0.206,0.822c0.342,0.479,0.171,1.13-0.514,1.952c0-1.096-0.342-2.021-1.027-2.774l-1.233-2.362L39.7,27.311z"/>
	<path fill-rule="evenodd" fill="#188078" d="M28.606,31.419c-0.069-1.026,0.479-1.712,1.643-2.055
		c-0.822,1.096-1.096,2.294-0.822,3.596c-1.506-0.753-2.054-1.918-1.643-3.492l0.308-0.822
		C27.887,29.741,28.059,30.666,28.606,31.419z"/>
	<path fill-rule="evenodd" fill="#188078" d="M38.57,34.296l-0.206-1.027l0.514-1.233l0.206,1.13l0.411,0.309
		c0.273-0.754,0.342-1.37,0.205-1.85l-0.822-1.746c1.096,0.206,1.678,1.027,1.746,2.466l-0.924,3.39l-0.514-0.925L38.57,34.296z"/>
	<path fill-rule="evenodd" fill="#188078" d="M30.147,31.111l0.719-1.438c-0.274,1.027-0.068,1.849,0.616,2.465
		c0.548,0.617,0.685,1.268,0.411,1.952l-0.513-0.821l-0.309-0.104l-0.308,0.104l0.308,0.821c-0.411-0.068-0.719-0.514-0.924-1.335
		V31.111z"/>
	<path fill-rule="evenodd" fill="#188078" d="M33.948,33.781l0.206-0.925c0.342,0.206,0.582,0.72,0.719,1.541
		c0,0.343-0.239,0.856-0.719,1.541c-0.411,0.548-0.479,1.097-0.206,1.644c-0.616-0.342-0.89-1.13-0.822-2.362l-0.103-0.308h-0.411
		c-0.342,0.273-0.411,0.753-0.205,1.438c-0.479-0.548-0.617-1.13-0.411-1.746c0.479-0.959,0.719-1.644,0.719-2.055l0.206,1.13
		l1.13,1.233L33.948,33.781z"/>
	<path fill-rule="evenodd" fill="#188078" d="M31.071,40.664l0.103-1.541l0.924-1.232c-0.273,0.685-0.308,1.37-0.103,2.055
		l0.308,1.13c0.068,0.41-0.035,0.855-0.308,1.335c1.027-0.41,1.712-1.232,2.055-2.465c0.205-0.617,0.24-1.233,0.103-1.85
		c0.548,0.686,0.856,1.507,0.924,2.466c0.069,1.096-0.171,2.055-0.719,2.876c0.548,0.137,0.959-0.205,1.233-1.027l0.617-1.027
		l0.308,1.746c0.274,0.479,0.206,0.959-0.205,1.438l-0.103-0.719c-0.137-0.343-0.343-0.411-0.617-0.205l-1.13,0.41l-0.925-0.205
		c0.479-0.754,0.719-1.473,0.719-2.157v-0.103l-0.205,0.205c-0.343,0.685-1.199,1.198-2.568,1.541l-0.206,0.103
		C31.414,43.026,31.346,42.103,31.071,40.664z"/>
	<path fill-rule="evenodd" fill="#188078" d="M37.543,19.709h-0.616l0.206-0.72l0.719-0.513h0.924
		c0.411,0.067,0.651,0.273,0.72,0.616c0.273,0.479,0.24,1.027-0.103,1.644h-0.206l-0.513-1.131c-0.069,0.617-0.24,0.994-0.514,1.131
		l-0.308-0.411L37.543,19.709z"/>
	<path fill-rule="evenodd" fill="#188078" d="M26.552,24.126l-0.206,0.719v0.72H25.73l-0.411-0.72l-0.206,1.232l0.616,0.514
		l-1.13-0.205l-0.411-1.541c0.343-0.616,0.822-0.925,1.438-0.925L26.552,24.126z"/>
	<path fill-rule="evenodd" fill="#188078" d="M104.21,23.305c0.137,0,0.273-0.069,0.411-0.206v-0.411l-0.308,0.206l-0.103-0.514
		l-0.411,0.205v0.411L104.21,23.305z M104.621,21.249l-0.308,0.412l0.924,0.513l0.924,0.206c0.069,0.273-0.034,0.479-0.308,0.616
		l-0.925,0.411c-0.411,0.342-0.753,0.444-1.027,0.308c-0.206-0.411-0.548-0.514-1.027-0.308c-0.411,0.205-0.65,0.103-0.719-0.309
		l1.13-1.13L104.621,21.249z"/>
	<path fill-rule="evenodd" fill="#188078" d="M101.333,16.524l0.617,0.309l0.719-0.206l1.027-0.103
		c-0.89-0.822-1.78-0.959-2.67-0.411L101.333,16.524z M103.388,17.962h1.027l0.924-0.308c-0.616-0.959-1.506-1.062-2.67-0.309
		L103.388,17.962z M105.854,17.141c0.137,0.205,0.342,0.309,0.616,0.309v-0.309l-0.206-0.514l-0.514-0.308L105.854,17.141z
		 M101.744,15.395l-1.13-0.514l-0.924,0.309c0.342,0.41,0.719,0.548,1.13,0.41L101.744,15.395z M98.251,12.929l1.438,0.617
		c0.068,0.205,0.308,0.342,0.719,0.411l0.616,0.513l2.773,1.335c0.342,0.206,0.651,0.343,0.924,0.411l-0.206-1.232l1.747,0.616
		v-0.924c1.438,0.547,2.671,1.472,3.698,2.773l3.082,0.411c1.438,0.753,2.431,1.129,2.979,1.129l1.027-0.205
		c-0.068,0.754-0.445,1.336-1.13,1.746l1.13,0.925c0.548,0.273,1.027,0.273,1.438,0c-0.137,0.753-0.514,1.37-1.13,1.85l1.335,1.745
		l1.747,1.336l-1.027,1.13l-1.438,0.411c0.479,0.548,0.753,1.369,0.822,2.465l0.103,2.157l0.616,0.822
		c-0.274,0.89-0.788,1.062-1.541,0.514l0.206,1.746l0.616,1.951c-0.822,0.617-1.541,0.754-2.157,0.411v-0.103
		c-0.274,0.685-0.137,1.164,0.411,1.438l0.206,0.206l-1.232,0.822h-0.925l-0.616-0.617l0.103-1.026
		c0.411,0.753,0.89,0.958,1.438,0.615l-0.514-1.335v-2.362l0.617,1.232c0.205,0.548,0.616,0.719,1.233,0.514l-0.309-1.438
		l0.206-1.849l-0.616-2.055l1.335,1.027h0.411l-0.616-2.568c-0.068-1.369-0.548-2.636-1.438-3.801v-0.103l0.822,0.514
		c0.617,0.274,1.267,0.172,1.952-0.308l-1.541-1.541l-1.13-1.644c-0.411-0.411-0.925-0.686-1.541-0.822h1.233
		c0.479,0.137,0.788-0.068,0.924-0.616c-0.616,0-1.096-0.239-1.438-0.719l-1.438-0.719l0.513-0.616l0.822-0.411
		c-0.411,0-1.232-0.309-2.465-0.925l-2.567-0.308l0.205,1.129l-0.205,1.027l-0.206-0.205c-0.616-2.055-1.644-3.458-3.082-4.212
		c-0.068,1.781,0.479,3.253,1.644,4.417c-0.479,0.274-0.959,0.104-1.438-0.513c-0.479-0.686-0.924-0.993-1.335-0.925
		c0-0.273,0.274-0.411,0.822-0.411l-0.514-0.514l-0.513-0.103l-1.644,0.309c0.479,0.479,0.924,0.719,1.335,0.719l-1.027,0.719
		l-1.438,0.719l-1.232,1.028c-0.274,0.753-0.582,1.198-0.925,1.335l-3.082,2.876l0.411,0.616c0,0.411-0.171,0.685-0.513,0.822
		c-0.274,0.137-0.411,0.068-0.411-0.206l0.205-0.308l-0.616-0.206v0.925l0.206,0.925l0.719,0.719l1.13-0.822l1.438-0.41l0.411,0.205
		v0.514c0,0.206-0.206,0.445-0.616,0.719l-0.719,0.72l0.206,0.205c0.342,0.274,0.787,0.274,1.335,0l-0.411,1.13v0.616
		c0.274-0.273,0.411-0.103,0.411,0.514c0.068-0.685,0.376-1.267,0.925-1.746c0.547-0.616,0.65-1.164,0.308-1.644l0.925-0.822
		l1.438-1.026h0.103c1.781,0.273,3.15-0.206,4.109-1.438l0.822-1.13v0.411c0.137,0.685-0.343,1.473-1.438,2.362
		c-0.206,1.232-0.65,2.226-1.335,2.979c-0.411,0.479-1.13,1.027-2.157,1.644l-1.027-0.308l0.822-0.719
		c0.891-0.479,1.541-0.925,1.952-1.336c0.342-0.411,0.582-0.993,0.719-1.746l-1.849,0.411c-0.753,0.068-1.438,0.376-2.054,0.924
		c0.137,0.891,0,1.438-0.411,1.645l-1.541,1.746l0.103,0.514l-0.822-0.514l-0.514-0.206v-1.232l-0.822-0.103l-0.924-0.72
		l0.411-0.719l0.924-1.027l-1.335,0.925c-0.479,0.411-0.856,0.479-1.13,0.205l-1.13-1.541c-0.343-0.89-0.137-1.712,0.616-2.465
		l3.698-3.596c0.753-0.753,1.198-1.438,1.335-2.054l2.157-0.822l-1.849-1.849l-1.952-1.232l-3.39-2.671
		c-1.438-0.959-2.363-1.85-2.773-2.671C95.581,11.389,97.019,12.039,98.251,12.929z M98.56,14.47
		c0.342,0.274,0.685,0.377,1.027,0.309l0.719-0.206l-0.925-0.411L98.56,14.47z M97.635,13.751v0.103l0.411,0.205l0.308-0.102
		l0.719-0.104L97.635,13.751z M96.813,13.237l0.411,0.103l0.616-0.103v-0.103L96.3,12.416
		C95.615,12.142,95.787,12.416,96.813,13.237z"/>
	<path fill-rule="evenodd" fill="#188078" d="M37.646,35.528c-0.753-0.616-1.165-0.686-1.233-0.206l-1.233,1.13l0.514-0.719
		c0.206-0.616,0.103-1.37-0.308-2.26l0.822,0.822c0.616,0.342,1.095,0.137,1.438-0.617l0.103,0.617l0.616,1.026
		c0.685,0.411,0.822,1.164,0.411,2.26C38.708,36.897,38.331,36.213,37.646,35.528z"/>
	<path fill-rule="evenodd" fill="#188078" d="M37.44,43.746c-0.479-0.548-0.719-1.199-0.719-1.952v-1.13l0.309-1.746
		c0.273,0.205,0.411,0.787,0.411,1.746c0,1.027,0.274,1.849,0.822,2.465c-0.137-0.753,0-1.644,0.411-2.67
		c0.411-0.891,0.479-1.713,0.205-2.466l1.027,1.027l1.13,2.362c0.411-1.369,0.924-1.198,1.541,0.514
		c0.342-0.616,0.205-1.335-0.411-2.157c-0.685-0.89-0.993-1.644-0.925-2.26l1.747,1.746c0.685,0.754,0.616,2.055-0.206,3.903
		l-0.103,0.206l-0.822-1.746c-0.274-0.068-0.342,0.137-0.206,0.616c0.068,0.273,0.034,0.582-0.103,0.924l-0.616,1.027
		c0.273-0.548-0.137-1.814-1.233-3.8l-0.719,1.849l0.103,1.438c0.068,0.753,0.034,1.267-0.103,1.54L37.44,43.746z"/>
	<path fill-rule="evenodd" fill="#188078" d="M67.641,81.958h-0.103l-0.719,0.719l0.411,0.925l0.617-0.103l0.205-0.514
		C68.188,82.506,68.052,82.163,67.641,81.958z M67.538,81.342h0.308c0.342,0.137,0.582,0.376,0.719,0.719l0.206,1.131
		c-0.274,0.752-0.719,1.129-1.335,1.129l-0.309-0.103l-0.822-0.616l-0.103-1.13C66.34,81.718,66.785,81.342,67.538,81.342z"/>
	<path fill-rule="evenodd" fill="#188078" d="M74.42,84.835c0.411-0.274,0.547-0.549,0.411-0.822h-0.205l-0.514,0.205
		c-0.411,0.205-0.547,0.445-0.411,0.72l0.206,0.103L74.42,84.835z M75.345,83.396l0.206,0.205l-0.206,0.924l-0.719,0.822
		l-1.027,0.411l-0.514-0.206l-0.103-0.205l0.103-0.822l0.822-0.924L75.345,83.396z"/>
	<polygon fill-rule="evenodd" fill="#188078" points="52.951,75.795 52.438,74.973 54.903,73.227 55.52,74.049 54.492,74.767 
		55.109,75.692 56.136,74.87 56.752,75.692 54.287,77.438 53.67,76.72 54.595,76.001 53.979,75.076 	"/>
	<path fill-rule="evenodd" fill="#188078" d="M53.054,70.761c-0.205-0.479-0.616-0.582-1.232-0.308
		c-0.548,0.274-0.753,0.65-0.616,1.13c0.273,0.479,0.719,0.582,1.335,0.309C53.157,71.617,53.328,71.24,53.054,70.761z
		 M51.41,69.529c1.027-0.479,1.781-0.172,2.26,0.924c0.411,1.097,0.171,1.884-0.719,2.363c-1.027,0.41-1.781,0.067-2.26-1.028
		C50.212,70.624,50.452,69.871,51.41,69.529z"/>
	<polygon fill-rule="evenodd" fill="#188078" points="51.821,64.495 52.027,65.625 50.281,67.371 52.335,66.857 52.541,67.783 
		49.459,68.398 49.15,67.269 51,65.522 48.945,66.036 48.843,65.215 	"/>
	<path fill-rule="evenodd" fill="#188078" d="M53.054,50.628c0.206-0.479,0-0.856-0.616-1.13c-0.617-0.273-1.028-0.137-1.232,0.411
		c-0.206,0.479,0,0.855,0.616,1.13C52.438,51.312,52.849,51.176,53.054,50.628z M52.849,48.573c0.959,0.411,1.199,1.165,0.719,2.26
		c-0.411,1.097-1.13,1.473-2.158,1.131c-0.958-0.411-1.198-1.199-0.719-2.363C51.17,48.437,51.89,48.094,52.849,48.573z"/>
	<polygon fill-rule="evenodd" fill="#188078" points="52.335,46.52 52.951,45.595 55.52,47.341 55.006,48.163 	"/>
	<polygon fill-rule="evenodd" fill="#188078" points="56.136,42.719 55.52,43.335 57.369,44.979 56.752,45.8 54.8,44.054 
		54.287,44.772 53.773,44.362 55.622,42.308 	"/>
	<path fill-rule="evenodd" fill="#188078" d="M60.861,39.226c-0.479,0.206-0.582,0.616-0.308,1.233
		c0.342,0.616,0.753,0.821,1.232,0.616c0.479-0.273,0.548-0.719,0.206-1.336C61.717,39.123,61.34,38.952,60.861,39.226z
		 M60.655,38.713c1.027-0.549,1.781-0.343,2.26,0.615c0.411,0.617,0.342,1.199-0.206,1.747l1.13,0.205l-1.027,0.514l-0.719-0.205
		h-0.103c-1.096,0.548-1.85,0.342-2.26-0.617C59.252,40.014,59.56,39.261,60.655,38.713z"/>
	<path fill-rule="evenodd" fill="#188078" d="M66.408,37.068l0.925-0.205l0.308,1.952c0.137,0.89-0.342,1.369-1.438,1.438
		c-1.027,0.137-1.609-0.171-1.746-0.925l-0.206-1.951l0.924-0.103l0.205,1.746l0.719,0.616c0.48-0.068,0.685-0.342,0.617-0.821
		L66.408,37.068z"/>
	<polygon fill-rule="evenodd" fill="#188078" points="69.079,40.15 69.387,37.068 70.312,37.172 70.003,40.253 	"/>
	<polygon fill-rule="evenodd" fill="#188078" points="77.81,40.048 78.94,40.767 77.399,43.438 76.577,42.924 77.81,40.869 
		75.755,42.41 75.037,42 75.55,39.534 74.317,41.485 73.496,41.075 75.14,38.404 76.372,39.123 75.961,41.28 	"/>
	<path fill-rule="evenodd" fill="#188078" d="M80.583,45.081l0.616-1.13l-1.232,0.411L80.583,45.081z M78.734,44.772l-0.719-0.719
		l3.287-0.925l0.719,0.822l-1.335,3.081l-0.719-0.821l0.308-0.616l-0.924-1.027L78.734,44.772z"/>
	<polygon fill-rule="evenodd" fill="#188078" points="83.871,46.417 84.281,47.238 82.125,48.471 82.946,49.807 82.33,50.114 
		81.2,47.957 	"/>
	<polygon fill-rule="evenodd" fill="#188078" points="86.542,52.169 86.85,53.299 85.72,54.224 87.158,54.635 87.466,55.765 
		85.206,54.942 84.076,55.147 83.871,54.224 85,54.018 	"/>
	<path fill-rule="evenodd" fill="#188078" d="M87.158,61.002v-0.205h-0.822v0.205c0,0.412,0.137,0.617,0.411,0.617
		S87.158,61.414,87.158,61.002z M84.692,59.771l3.082,0.103v1.129c0,1.028-0.377,1.541-1.13,1.541c-0.616,0-0.924-0.479-0.924-1.438
		v-0.309h-1.027V59.771z"/>
	<polygon fill-rule="evenodd" fill="#188078" points="85.309,66.345 85.617,64.804 85,64.701 84.692,66.345 84.076,66.242 
		84.59,63.674 87.569,64.187 87.158,66.652 86.542,66.55 86.85,65.009 86.233,64.906 85.925,66.345 	"/>
	<polygon fill-rule="evenodd" fill="#188078" points="86.644,68.501 86.336,69.632 83.871,70.042 85.925,70.864 85.514,71.583 
		82.741,70.658 83.049,69.529 85.514,68.912 83.459,68.296 83.871,67.474 	"/>
	<path fill-rule="evenodd" fill="#188078" d="M81.508,72.61l0.616-0.822l0.616,0.309l-0.719,0.822l-0.103,0.719
		c0.137,0.067,0.445-0.103,0.924-0.515l1.233-0.307c0.479,0.273,0.479,0.889,0,1.848l-0.617,0.72l-0.513-0.411l0.513-0.615
		c0.274-0.343,0.309-0.582,0.103-0.72l-0.822,0.617l-1.13,0.308C81.063,74.22,81.029,73.569,81.508,72.61z"/>
	<polygon fill-rule="evenodd" fill="#188078" points="78.734,77.336 78.324,76.925 80.07,74.973 82.33,77.027 80.687,78.876 
		80.173,78.568 81.2,77.336 80.789,76.925 79.762,78.054 79.351,77.645 80.378,76.514 79.865,76.104 	"/>
	<path fill-rule="evenodd" fill="#188078" d="M36.516,30.187l-0.308-0.925l-0.206,0.719l0.309,0.925l-0.103,0.104l-0.925-1.131
		L34.77,29.98l1.027,1.747l0.924-0.104L36.516,30.187z M32.407,26.693c-0.617,0-0.685-0.308-0.206-0.924l1.232-1.027h1.541
		l0.616,0.308l-1.027,1.131v0.924l0.616,0.822l1.438-0.103c0.411-0.274,0.651-0.583,0.719-0.925c0.342,0,0.582,0.273,0.719,0.821
		c0.206,0.686,0.103,1.165-0.308,1.438c-0.342,0.273-0.616,0.205-0.822-0.206l0.411,1.645c0.137,0.548,0.069,1.027-0.205,1.438
		c-0.479,0.548-0.958,0.65-1.438,0.309L34.256,30.7c-0.137,0.342-0.376,0.445-0.719,0.309l-1.232-1.541l1.438-0.515
		c0.753-0.067,1.062-0.444,0.925-1.129l-0.925-1.233l-0.822-0.103L32.407,26.693z"/>
	<path fill-rule="evenodd" fill="#188078" d="M35.283,98.702c-0.411-0.548-0.925-0.616-1.541-0.206l-0.206,0.206l1.13,1.746
		l0.308-0.206C35.591,99.831,35.694,99.318,35.283,98.702z M33.229,97.777c1.301-0.891,2.328-0.787,3.082,0.309
		c0.753,1.095,0.445,2.088-0.924,2.979l-1.13,0.821l-2.26-3.39L33.229,97.777z"/>
	<polygon fill-rule="evenodd" fill="#188078" points="39.7,98.086 38.673,98.702 36.311,95.518 37.337,94.799 	"/>
	<polygon fill-rule="evenodd" fill="#188078" points="41.138,92.23 41.652,92.949 40.316,93.874 40.625,94.388 41.857,93.463 
		42.371,94.182 41.036,95.106 41.446,95.723 42.884,94.799 43.398,95.518 41.036,97.058 38.775,93.771 	"/>
	<path fill-rule="evenodd" fill="#188078" d="M44.836,90.177l1.13-0.515l1.027,2.157c0.206,0.411,0.24,0.822,0.103,1.233
		l-0.924,0.924l-0.925,0.309c-0.616,0-1.062-0.309-1.335-0.925l-1.13-2.157l1.027-0.616l1.027,2.055l0.925,0.616
		c0.274-0.274,0.308-0.651,0.102-1.131L44.836,90.177z"/>
	<polygon fill-rule="evenodd" fill="#188078" points="56.547,106.817 58.19,107.331 58.19,108.152 56.547,107.741 56.649,108.461 
		58.396,108.872 58.396,109.796 55.622,108.975 55.006,104.968 58.19,105.893 58.19,106.714 56.444,106.2 	"/>
	<polygon fill-rule="evenodd" fill="#188078" points="62.299,106.509 62.299,107.434 61.375,107.331 61.58,110.412 60.45,110.207 
		60.142,107.125 59.217,107.022 59.114,105.995 	"/>
	<polygon fill-rule="evenodd" fill="#188078" points="70.62,106.714 70.517,110.822 69.387,110.822 69.49,108.255 68.668,110.822 
		67.641,110.822 66.819,108.255 66.921,110.822 65.895,110.822 65.586,106.714 67.333,106.714 68.154,109.076 68.976,106.714 	"/>
	<path fill-rule="evenodd" fill="#188078" d="M74.317,109.179l0.206-0.821c0-0.753-0.206-1.096-0.616-1.026h-0.103l-0.617,0.41
		l-0.205,0.925c0,0.685,0.24,1.027,0.719,1.027L74.317,109.179z M75.755,108.152l-0.616,1.644c-0.411,0.411-0.891,0.685-1.438,0.821
		h-0.206c-1.027,0.138-1.609-0.445-1.746-1.745c-0.068-1.438,0.617-2.261,2.055-2.466C75.242,106.132,75.893,106.714,75.755,108.152
		z"/>
	<polygon fill-rule="evenodd" fill="#188078" points="79.351,107.741 79.659,105.481 80.892,105.173 80.275,109.179 78.837,109.487 
		77.913,107.434 77.708,109.796 76.68,110.104 76.886,106.098 78.427,105.688 	"/>
	<path fill-rule="evenodd" fill="#188078" d="M88.801,90.073l-0.205-0.103l-0.822,1.951l0.308,0.103
		c0.685,0.274,1.165,0.069,1.438-0.615v-0.822C89.383,90.381,89.144,90.21,88.801,90.073z M87.774,88.737l1.335,0.411
		c1.507,0.616,2.021,1.541,1.541,2.773c-0.343,0.822-0.925,1.233-1.747,1.233l-2.568-0.822L87.774,88.737z"/>
	<path fill-rule="evenodd" fill="#188078" d="M93.732,92.847v-0.309l-0.411-0.308l-0.103-0.104l-0.308,0.515l0.103,0.205
		C93.355,93.121,93.595,93.121,93.732,92.847z M92.705,90.792l1.541,0.925c0.753,0.479,0.958,0.993,0.616,1.541
		c-0.274,0.41-0.617,0.582-1.027,0.513v0.617l-0.309,1.541L92.5,95.312l0.206-0.719L92.5,93.565l-0.103-0.103l-0.822,1.336
		l-0.924-0.617L92.705,90.792z"/>
	<path fill-rule="evenodd" fill="#188078" d="M96.711,97.983l-1.13-0.411l-0.924-1.336l0.513-1.54
		c0.753-1.165,1.678-1.336,2.774-0.515c0.479,0.343,0.753,0.788,0.822,1.336c0.068,0.479-0.069,0.993-0.411,1.54L96.711,97.983z
		 M97.43,94.901l-0.411-0.103c-0.273,0-0.582,0.205-0.924,0.615l-0.308,0.72l0.308,0.616l0.411,0.103l0.822-0.616l0.308-0.719
		L97.43,94.901z"/>
	<polygon fill-rule="evenodd" fill="#188078" points="99.073,99.831 98.149,99.216 100.204,95.929 101.231,96.545 	"/>
	<polygon fill-rule="evenodd" fill="#188078" points="100.82,100.859 102.258,98.188 101.436,97.777 101.95,96.955 104.621,98.394 
		104.107,99.216 103.285,98.702 101.847,101.475 	"/>
	<path fill-rule="evenodd" fill="#188078" d="M34.872,21.249l-0.205,0.104l0.308,0.309L34.872,21.249z M34.461,21.866v-0.411
		l-0.206,0.514l0.206,0.205h0.514c0.137,0,0.274-0.068,0.411-0.205l0.308-0.411l-0.308-0.821c0,0.205-0.103,0.342-0.309,0.41
		l0.309,0.206v0.514l-0.206,0.103L34.461,21.866z M32.715,20.839l0.309-0.309l0.513,0.514h0.514l1.027-1.027l1.13-0.103
		c0.068,0.206,0.034,0.309-0.103,0.309l-0.308,0.103l0.411,0.821l-0.206,0.822l-0.822,0.616c-0.206,0.205-0.171,0.445,0.103,0.72
		c0.068,0.273,0.034,0.41-0.103,0.41h-0.103l-1.747-1.951L32.715,20.839z"/>
	<path fill-rule="evenodd" fill="#188078" d="M52.951,93.977l-2.054,2.055c-1.165,0.891-1.712,1.644-1.644,2.26
		c0.069,1.164,0.993,2.157,2.774,2.979l2.773-2.156c1.507-0.891,2.192-1.712,2.054-2.467C56.718,95.414,55.417,94.524,52.951,93.977
		z M54.595,91.203c-0.822-2.328-2.534-3.493-5.136-3.493c-1.438,0-3.185,0.583-5.239,1.747l-5.958,3.903
		c-2.876,2.054-5.033,3.459-6.472,4.212c-2.397,1.369-4.486,2.088-6.266,2.156l1.644,1.233c1.712,1.506,3.014,2.26,3.903,2.26
		c1.301,0,2.877-0.514,4.726-1.541l10.478-6.882c2.054-1.164,3.903-1.746,5.547-1.746h0.925l0.411,0.103l0.206,0.103l2.67,0.821
		L54.595,91.203z M85.514,102.503l0.719-1.233l-0.103,0.103l-0.206,0.103l-0.205,0.206h-0.206l-0.308,0.309l-1.541,0.821
		c-3.972,1.78-9.108,2.671-15.408,2.671c-6.369,0-11.54-0.891-15.511-2.671l-1.027-0.514l-1.541-1.027l0.617,1.233l1.13,4.006
		c0.411,1.369,1.301,2.431,2.67,3.185c2.671,1.369,7.225,2.055,13.663,2.055c6.369,0,10.888-0.686,13.559-2.055
		c1.37-0.754,2.26-1.815,2.671-3.185L85.514,102.503z M83.871,94.182c-2.465,0.274-3.869,1.097-4.211,2.465
		c-0.206,0.891,0.376,1.679,1.746,2.363c1.781,0.891,2.808,1.644,3.082,2.26c1.78-0.821,2.705-1.814,2.773-2.979
		c0.069-0.959-0.479-1.883-1.643-2.773L83.871,94.182z M105.339,103.222c0.891,0,2.192-0.754,3.904-2.26l1.644-1.335
		c-1.781,0-3.869-0.686-6.266-2.055l-12.429-8.115c-2.054-1.164-3.801-1.747-5.239-1.747c-2.534,0-4.246,1.165-5.137,3.493
		l-1.438,2.876l0.822-0.411h0.103l0.719-0.205h0.103l0.206-0.103h0.103l0.103-0.103h0.308l0.412-0.103l1.335-0.103
		c1.644,0,3.492,0.582,5.547,1.746l10.581,6.882C102.498,102.708,104.039,103.222,105.339,103.222z M105.339,104.249
		c-1.506,0-3.184-0.514-5.033-1.541l-5.239-3.492c-4.246-3.082-7.464-4.76-9.656-5.034l2.568,2.261
		c0.411,0.548,0.617,1.163,0.617,1.849l-0.103,1.027l-1.952,3.595l-1.027,3.904c-0.479,1.506-1.472,2.705-2.979,3.595
		c-2.739,1.507-7.499,2.26-14.278,2.26c-6.849,0-11.643-0.753-14.381-2.26c-1.507-0.89-2.5-2.089-2.979-3.595l-1.027-3.904
		l-1.027-1.951l-0.617-0.925l-0.411-0.924l-0.103-0.822c0-0.686,0.24-1.301,0.719-1.849L51,94.182
		c-1.37,0.138-2.979,0.754-4.828,1.85c-1.027,0.548-2.637,1.609-4.828,3.185l-5.239,3.492c-1.849,1.027-3.527,1.541-5.034,1.541
		l-2.26-0.72l-2.26-1.746c-1.369-1.164-2.568-1.952-3.595-2.362l-0.514-0.308l-0.822-0.206l0.617-0.514h1.129l1.849,0.309
		c1.644,0,3.664-0.65,6.061-1.952l12.635-8.218c2.123-1.233,3.972-1.849,5.547-1.849c3.013,0,5.068,1.403,6.163,4.211l2.363,4.623
		l0.206,0.514l0.103,0.719c0,1.233-1.027,2.466-3.082,3.698l-0.719,0.309c-0.822,0.411-1.267,0.787-1.335,1.129
		c3.767,1.644,8.8,2.466,15.101,2.466c6.231,0,11.231-0.822,14.998-2.466c-0.069-0.342-0.514-0.718-1.336-1.129l-0.719-0.309
		c-2.054-1.232-3.082-2.465-3.082-3.698l0.206-1.027l2.465-4.828c1.096-2.808,3.15-4.211,6.164-4.211
		c1.575,0,3.424,0.615,5.547,1.849l12.635,8.218c2.397,1.302,4.417,1.952,6.061,1.952l1.849-0.309
		c0.685-0.274,1.301-0.137,1.849,0.411l-1.438,0.616c-1.096,0.479-2.26,1.267-3.493,2.362
		C107.977,103.427,106.436,104.249,105.339,104.249z"/>
	<polygon fill-rule="evenodd" fill="#188078" points="72.982,67.269 73.393,67.371 73.085,67.474 72.982,67.371 	"/>
	<path fill-rule="evenodd" fill="#188078" d="M72.366,67.783h0.205v0.308l-0.205,0.205l-0.103-0.308L72.366,67.783z M72.879,67.577
		v0.206l-0.103-0.206v0.206h-0.206l-0.205-0.206l0.102-0.104L72.879,67.577z"/>
	<polygon fill-rule="evenodd" fill="#188078" points="72.674,67.063 72.366,67.269 72.263,66.857 	"/>
	<path fill-rule="evenodd" fill="#188078" d="M72.366,71.788c-0.138,0.138-0.24,0.172-0.309,0.104l-0.103-0.309L72.366,71.788z"/>
	<polygon fill-rule="evenodd" fill="#188078" points="72.571,71.892 72.982,71.994 72.777,72.097 	"/>
	<path fill-rule="evenodd" fill="#188078" d="M72.058,72.199l0.103-0.103h-0.103l0.103-0.103l0.308,0.103l0.103,0.103v0.103h-0.205
		c0,0.069-0.069,0.104-0.206,0.104L72.058,72.199z M71.955,72.508l0.206-0.103l0.103,0.103v0.206l-0.308,0.205V72.508z"/>
	<path fill-rule="evenodd" fill="#188078" d="M72.571,62.543c-0.068,0.138-0.137,0.172-0.205,0.104l-0.206-0.309L72.571,62.543z"/>
	<polygon fill-rule="evenodd" fill="#188078" points="72.879,62.646 73.393,62.852 73.085,62.955 	"/>
	<path fill-rule="evenodd" fill="#188078" d="M72.366,62.852l0.411,0.104l0.103,0.103v0.103l-0.103-0.103v0.205h-0.206v0.309
		c-0.137,0.136-0.24,0.171-0.308,0.103l-0.103-0.205l0.103-0.206l0.205-0.103l-0.205-0.103l0.103-0.103h-0.206L72.366,62.852z"/>
	<path fill-rule="evenodd" fill="#188078" d="M123.521,79.801l-1.027-0.514c-0.411,0-0.753,0.172-1.027,0.514l-0.514,1.027v0.205
		l0.206-0.205l0.616,0.205l-0.205,0.72l-0.206,0.103l1.13,0.411l1.027-0.411l0.411-1.027L123.521,79.801z M29.942,90.895v-0.308
		c0-0.41-0.376-0.686-1.13-0.821c-0.205,0.411-0.137,0.685,0.206,0.821L29.942,90.895z M46.891,84.731l0.411-0.719l-0.411-0.925
		c-0.274-0.273-0.582-0.273-0.924,0l-0.411,0.514l1.027,0.411L46.891,84.731z M59.731,81.855l-1.028-0.72l-0.513,1.644v0.206
		c-0.206,1.096-0.138,1.814,0.205,2.157l0.411,0.205l0.514-0.205C59.183,84.184,59.32,83.088,59.731,81.855z M61.58,81.958
		l0.514-0.514c0.068-0.273-0.035-0.514-0.308-0.719c-0.137-0.206-0.583-0.377-1.335-0.514l-1.849-0.205
		C59.765,81.513,60.758,82.163,61.58,81.958z M69.901,91.203c0.411,0,0.719,0.103,0.924,0.309c0.342,0.41,0.308,0.821-0.103,1.232
		c-0.458,0.515-0.629,0.892-0.514,1.13l-0.514-0.616v-0.514h-0.513c-0.411,0.273-0.411,0.616,0,1.026l-0.206,0.411
		c0.137,1.027,0.582,1.541,1.335,1.541c0.685,0,1.027-0.309,1.027-0.924l-0.103-6.678l-6.677-1.335l-0.102,7.602
		c0.137,0.891,0.65,1.301,1.541,1.232l0.924-0.616l0.206-0.719c0-0.274-0.068-0.445-0.206-0.515c0.342-0.41,0.342-0.753,0-1.026
		h-0.514l-0.103,0.514l-0.411,0.565c0.074-0.234-0.131-0.594-0.616-1.079l-0.206-0.617l0.206-0.615
		c0.137-0.206,0.411-0.309,0.821-0.309c0.48-0.068,0.959,0.377,1.438,1.335l-0.411-1.746c-0.206-0.479-0.171-0.924,0.103-1.335
		l0.617-0.72l0.205-0.308l0.206,0.308c0.685,0.754,0.924,1.439,0.719,2.055l-0.411,1.746L69.901,91.203z M71.852,86.992l0.514,0.204
		c3.013-1.438,5.307-2.396,6.882-2.876l2.157-0.821l-13.97-2.979c-1.917-0.273-3.698-0.823-5.342-1.645l-0.719,1.027l0.821,0.309
		c0.479,0.342,0.651,0.787,0.514,1.335l-1.027,0.925h-0.308l-1.028-0.205l-0.103,1.746L71.852,86.992z M112.12,81.753l0.102,0.205
		l0.103,0.616l-0.719,0.103l0.309,0.205l1.129,0.412h0.103l0.206-1.13L112.12,81.753z M110.784,80.521l-0.103-0.411l-0.616-1.027
		l-0.206-0.206l0.103,0.411l-0.411,0.616l-0.565-0.359l0.051,0.154l0.822,1.335l0.206-0.513l0.616-0.104L110.784,80.521z
		 M119.31,81.958h-0.308l-1.13,0.411l-0.513,0.513v0.206l0.103,0.104l0.822,0.308l1.13-0.411l0.308-0.309
		c-0.274,0.206-0.479,0.138-0.616-0.205L119.31,81.958z M112.12,68.501l-0.411,0.206l-0.616,1.027l-0.103,0.514l0.206-0.309
		l0.719-0.103v0.616l0.206-0.103l0.719-1.233c-0.206,0.206-0.411,0.206-0.617,0L112.12,68.501z M113.865,67.988l-0.513,0.616
		c0.206,0.41,0.171,0.787-0.103,1.13l-0.719,0.924c-0.274,0.479-0.65,0.651-1.13,0.515l-0.206,0.308
		c0.137,0.411,0.103,0.787-0.103,1.13l-0.616,1.232h0.103l2.67,3.39c0.959,1.301,1.37,3.015,1.233,5.137l-0.924,5.341
		c-0.206,0.617-0.754,1.13-1.644,1.541l-1.849,1.027l-0.719,1.746l-1.13,1.541c1.027,0.274,1.712,0.034,2.054-0.719l0.514-1.849
		l0.411,0.103v1.335l-0.514,1.232c0.617-0.068,1.165-0.273,1.644-0.615c0.617-0.344,0.993-0.754,1.13-1.233l0.103-0.719
		c0.068-0.206-0.069-0.377-0.411-0.514l-0.411-0.206l0.822-0.103l0.616,0.72l0.206-0.925l1.335-0.822
		c0.479-0.136,0.719,0.377,0.719,1.541c0.342-0.206,0.479-0.719,0.411-1.541c0-0.685,0.171-0.891,0.514-0.615
		c-0.617-1.097-0.925-2.569-0.925-4.418l0.206-4.314l0.411-1.746v-1.85c-2.328-2.67-3.218-5.307-2.67-7.909l0.103-0.615
		L113.865,67.988z M109.243,75.692l-0.103-0.206v0.103c-0.068,0.342-0.274,0.445-0.616,0.31l-0.308-0.515l-0.103,0.515l0.103,1.129
		l0.206,0.411l0.308-0.514l0.616,0.308l0.103-0.308L109.243,75.692z M109.757,74.664l-0.206-0.204l-0.103,0.41l0.411,0.822
		l0.103,1.13c0.069,0.479-0.068,0.855-0.411,1.129l0.103,0.309l0.924,0.514l0.616,1.027c0.274,0.411,0.274,0.822,0,1.232
		l0.411,0.309l0.925-0.104l0.822,0.309C113.352,79.013,112.153,76.72,109.757,74.664z M109.859,72.302l-0.103-0.616l-0.206,0.103
		l-0.411,0.72l0.925,0.924l0.616-1.335l-0.102,0.103L109.859,72.302z M115.92,63.365h0.411c0.274,0.206,0.309,0.411,0.103,0.616
		l0.411-0.308v-0.205l-0.719-1.336l-0.411,1.027L115.92,63.365z M114.996,66.036l-0.411-0.103l-0.103-0.617l-1.027,1.131
		l-0.103,0.514l0.103-0.104l0.719-0.102l0.206,0.513v-0.103l0.308-0.309l0.103-0.41L114.996,66.036z M116.537,58.436l-0.103,1.232
		l0.103,0.308l0.103-0.205c0.068-0.342,0.274-0.479,0.616-0.412l0.308,0.617v0.103l0.103-0.41v-1.232l-0.256-0.411
		c0.06,0.227-0.027,0.397-0.257,0.514L116.537,58.436z M116.125,57.818l-0.206-0.41c-0.411,0-0.719-0.138-0.924-0.411l-0.925-0.821
		l-0.308-1.131l-0.308-0.103l-0.719,0.205l2.26,2.773l0.924,1.644v-1.129L116.125,57.818z M116.434,56.277l-0.206-0.513
		l-0.924-0.822l-0.206-0.103v0.514c-0.137,0.273-0.342,0.343-0.616,0.205l-0.206-0.205l0.206,0.411l0.822,0.821l0.205,0.103
		l-0.103-0.205l0.206-0.514l0.616,0.103L116.434,56.277z M97.43,63.469L96.3,64.29c-0.891,2.466-0.274,4.827,1.849,7.088
		l1.232,2.671c0.548,1.232,0.342,2.226-0.616,2.979c-1.986,1.506-5.068,2.638-9.245,3.39c-0.89,0-1.507,0.206-1.849,0.616
		l-1.747,3.492l0.719-0.103c0.616-0.615,1.13-1.506,1.541-2.67h0.206c0.206,0.479,0.171,1.062-0.103,1.746l-0.719,1.541l1.644-0.309
		l1.232-1.027v-0.103l0.206-1.027l0.206-0.103c0.479,0.137,0.582-0.103,0.308-0.719l0.308,0.205l0.513,0.206l0.514-0.206
		c0.479,0.137,0.787,0.377,0.924,0.719c0.411-0.137,0.616-0.479,0.616-1.026l0.822,0.616c-0.069-0.891,0.89-1.713,2.876-2.466
		l3.287-1.027c1.301-0.343,2.157-0.992,2.568-1.951c-0.548-0.617-0.788-1.576-0.72-2.877l-0.205-3.081l1.438-1.335l1.644-1.131
		l-0.206-4.006l-1.232-1.644c-0.342-0.753-0.377-1.473-0.103-2.157c-0.754,0.548-1.883,1.062-3.39,1.541L97.43,63.469z
		 M91.883,47.341l0.103,0.309l0.309,0.308l0.103-0.514L91.883,47.341z M94.451,48.984h-0.205l0.205,0.309
		c0.206,0.205,0.206,0.445,0,0.719l-0.719-0.103l0.308,0.308l1.233,0.206h0.103v-0.411c0.069-0.342,0.24-0.445,0.514-0.308h0.206
		l-0.514-0.411L94.451,48.984z M93.835,48.368h0.719l1.747,0.616v-0.924l-0.822-0.206l-1.644-0.205l-0.206,0.514L93.835,48.368z
		 M88.391,39.432c-0.137-0.343-0.583-0.582-1.335-0.719l-0.924-0.206l-3.801,2.26L85,43.951v-0.103
		c1.37-1.232,3.013-1.712,4.931-1.438L88.391,39.432z M96.711,35.938h-0.308l-1.13,0.411l-0.411,0.411l0.719,0.103
		c0.206,0.274,0.206,0.479,0,0.616h0.103l1.129-0.514l0.154-0.103c-0.312,0.045-0.501-0.092-0.565-0.411L96.711,35.938z
		 M98.868,35.322l0.616,0.309l-0.206,0.514h0.103c0.479,0,0.719-0.24,0.719-0.72c0-0.548-0.239-0.821-0.719-0.821
		s-0.719,0.273-0.719,0.821L98.868,35.322z M93.938,40.253l-0.103,0.104l-1.028,0.719l-0.205,0.514l0.308,0.616l2.876-0.309
		L93.938,40.253z M92.294,39.432l-0.103,0.41l0.514-0.308c0.342,0.137,0.479,0.377,0.411,0.719l0.308-0.308l-0.821-1.13
		L92.294,39.432z M91.781,37.685l-1.336-1.438l-1.232-1.027l-2.774-0.411l-5.855,4.314l1.027,0.925l4.109-2.568l2.465,0.309
		l1.541,1.951l1.13,1.85l0.822-0.411l0.205-0.514c-0.479-0.479-0.514-0.993-0.102-1.541l0.411-0.719L91.781,37.685z M112.736,53.504
		h-1.13l0.719,1.028l0.411,0.103h0.103l-0.206-0.206c-0.274-0.137-0.308-0.342-0.103-0.616l0.513-0.103h0.206L112.736,53.504z
		 M73.29,75.384h-0.205l0.205-0.103V75.384z M75.345,71.378l-0.822,0.719c0,0.343,0.548,0.514,1.644,0.514l2.157,0.104
		c-0.068,0.342-0.651,0.479-1.747,0.409l-1.541-0.204l-2.157,0.204c0.343-0.547,0.445-0.889,0.308-1.026l0.308-0.205l-0.308-0.104
		l-0.103-0.41l-0.308-0.205h-0.616l-0.206,0.205l-0.206-0.205v0.41l-0.411,0.411l0.103,0.103l-0.206,0.411l0.103,0.206l-0.103,0.924
		l-0.719-0.821l-0.206-0.411v-0.617l-0.206-0.205h-0.205l0.205,0.205h-0.103v0.309c-0.069-0.205-0.171-0.274-0.309-0.205v-0.104
		l-0.205-0.103l-0.103,0.103l0.103,0.104l-0.103,0.103l0.308,0.103v0.103l-0.308,0.206v0.103l0.103,0.309V72.61l0.103,0.104
		l0.103-0.104h0.206v0.411l0.103,0.102l-0.206,0.104l-0.206-0.104l0.103,0.309h0.411l0.103,0.104l0.103-0.104l0.206,0.206v0.103
		l0.411,0.411l0.514,0.309l0.205,0.307l-0.821,0.206l-0.308,0.206h-0.411l-0.103-0.206l-0.206-0.206h-0.103l-0.308,0.104
		l0.103,0.103v0.104l0.308,0.205v0.103h-0.103l-0.308-0.103l-0.103,0.103l-0.205,0.103l-0.103,0.206l0.206-0.206v0.103
		c0.137,0.206,0.274,0.206,0.411,0h0.103l-0.205,0.412l0.103,0.103l0.103,0.204h0.206l-0.103-0.204h0.103l0.103-0.411h0.103
		l0.206,0.206l0.206-0.206v-0.104l0.103,0.206l0.206-0.103l-0.103,0.309l0.308-0.412v0.104l0.411-0.104v0.31l0.103-0.206
		l0.102,0.309l0.206-0.309l0.411-0.206l-0.103,0.206l0.411-0.411l0.308-0.924h0.103c0.205,0,0.513-0.103,0.924-0.309l-0.103,0.514
		l0.308,0.514v0.103h-0.205l-0.719-0.206h-0.103l-0.308,0.411l0.308-0.205v0.205l-0.103,0.309h0.103l0.205,0.206l-0.103-0.206h0.206
		v0.206c0,0.272,0.137,0.307,0.411,0.103l-0.206-0.103h0.103v-0.206h0.206c0.068,0.136,0.137,0.171,0.205,0.103l0.309-0.309h0.411
		l-0.103-0.514c0.068-0.479-0.068-0.855-0.411-1.13c0.616,0.206,1.027,0.206,1.233,0l0.616,0.309l-0.103,0.104l-0.309,0.205
		l-0.205-0.205h-0.206l-0.308,0.103h0.206v0.103l0.103,0.103l-0.308,0.204l-0.103,0.412l0.206-0.206h0.411l-0.206,0.309v0.103
		l0.103,0.205v-0.205h0.103l0.205-0.308h0.206c0.068,0.068,0.137,0.033,0.205-0.104V74.87l0.103-0.104l0.103,0.206l0.103-0.41
		l0.309-0.103l-0.206-0.205c0.274-0.07,0.343-0.172,0.206-0.31l-0.617-0.616h0.411c1.37,0.069,2.055-0.103,2.055-0.513
		c0-0.343-0.411-0.515-1.233-0.515l-2.568-0.205l0.514-0.514l0.308,0.205h4.006L76.68,71.48l1.438-0.205H75.55L75.345,71.378z
		 M77.091,69.323l0.719,0.206h1.644l0.103,0.205l-0.205,0.308l-0.411-0.103l-0.206,0.103l-0.308,0.206l0.205-0.104v0.104
		l0.103,0.205l0.206-0.103v0.103l-0.206,0.205v0.103l0.103,0.206l0.103-0.206l0.103,0.104l0.308-0.309v0.309l0.308,0.103
		l-0.103-0.103h0.103v-0.411c0.206,0,0.342-0.068,0.411-0.205l-0.103-0.206l0.308-0.103l-0.205-0.205h0.103l0.205-0.308
		l-0.308-0.104l-0.206-0.103l-1.541-0.309h1.232c0.548,0,0.856-0.103,0.925-0.308c0-0.411-0.445-0.616-1.335-0.616
		c-2.534,0-3.801-0.205-3.801-0.617l1.13-0.103l0.309,0.205l4.211,0.104l-1.541-0.309l-1.541-0.103l1.438-0.103l-2.671-0.206
		l-0.103,0.104c-1.027-0.137-1.541,0-1.541,0.41c0,0.412,0.548,0.65,1.644,0.72l2.465,0.103l0.925,0.411l-6.677-0.309l0.308-0.719
		l0.206-0.309l-0.308-0.103l-0.103-0.205v-0.104l-0.411-0.205l-0.308-0.205l-0.411,0.205l-0.309-0.103l-0.103,0.411l-0.309,0.308
		l0.103,0.205l-0.308,0.412l0.205,0.103l-0.102,0.41h-0.309l-0.616-0.103l-0.103-0.41v-0.72l-0.411-0.103l0.206,0.205h-0.206
		l0.103,0.205v0.104h-0.103l-0.205-0.309h-0.103l-0.103-0.103l-0.205,0.103h0.103l-0.103,0.205l0.411,0.104v0.103l-0.411,0.206
		v0.103l0.103,0.308l0.103-0.205v0.103l0.206-0.103h0.205v0.103c-0.274,0.205-0.274,0.308,0,0.308l0.103,0.104l-0.205,0.103
		l-0.309-0.103l0.103,0.308h0.514l0.103,0.103l0.103-0.103l0.103,0.205l0.103-0.103h0.411l0.206,0.103h0.308v0.515l-1.541,0.308
		l-0.205-0.205l-0.206-0.103h-0.411l0.206,0.103l-0.103,0.103l0.308,0.205v0.103h-0.103l-0.308-0.103h-0.103l-0.206,0.206
		l-0.103,0.205l0.206-0.205v0.205l0.411-0.103v0.514l0.103,0.309h0.206l-0.103-0.309h0.103l0.103-0.309h0.103l0.308,0.205
		l0.206-0.308l0.103,0.205l0.206-0.205l-0.103,0.411l0.308-0.411v0.103h0.103l0.411-0.103v0.205l0.102-0.103l0.103,0.309
		l0.308-0.411l0.514-0.205l-0.205,0.205l0.513-0.103l0.308-0.514l0.103-0.103v0.103l0.411-0.103c0.206,0,0.445-0.138,0.719-0.411
		l1.541-0.309l-0.103,0.412l0.206,0.308l0.308,0.103h-0.308l-0.309-0.103l-0.411-0.205l-0.103,0.103l-0.309,0.205l0.206-0.103v0.103
		l0.205,0.103h0.206l-0.308,0.103l-0.103,0.206v0.103l0.308,0.205l-0.103-0.103h0.103l0.103-0.103v0.205l0.103,0.205l0.309-0.103
		h-0.206l0.206-0.205h0.205c0,0.138,0.068,0.171,0.206,0.103l0.103-0.103l0.103-0.205h0.719l-0.206-0.514V69.323z M68.771,77.645
		c-1.301,0.204-2.329,0.649-3.082,1.335l5.958,1.027c0.206-1.027,0.754-1.747,1.644-2.158L68.771,77.645z M61.477,76.925
		l-0.924,0.821l-0.103,0.205l-0.925,1.541l1.13,0.206l2.363-2.466c0.206-0.41,0.068-0.685-0.411-0.822L61.477,76.925z
		 M76.886,65.625v0.103H76.68L76.886,65.625z M72.468,61.928l-0.205,0.103l-0.308-0.103v0.41l-0.514,0.411l0.205,0.103l-0.308,0.411
		l0.206,0.206l-0.103,0.41l-0.206-0.103h-0.411l-0.924-0.821l0.103-0.617l-0.103-0.205l-0.309-0.205l0.103,0.205v0.514h-0.103
		l-0.206-0.309h-0.103l-0.411-0.103l0.103,0.103v0.103l0.308,0.103l0.103,0.104v0.103c-0.273-0.068-0.411,0-0.411,0.206v0.308
		l0.103-0.205h0.103v0.103l0.205-0.103h0.103v0.103c-0.206,0.205-0.171,0.309,0.103,0.309l0.103,0.103
		c0,0.205-0.068,0.308-0.205,0.308l-0.308-0.308l0.103,0.513l0.411-0.103h0.103l0.103,0.103v-0.103l0.103,0.103l0.205,0.103v-0.103
		l0.822,0.72l0.309-0.205l0.103,0.205l0.103-0.103l0.205,0.411l-1.644,0.204l-0.308-0.308h-0.514l0.206,0.206v0.102l0.308,0.206
		h-0.616l-0.206,0.205l-0.103,0.206l0.206-0.206v0.103c0.068,0.206,0.239,0.206,0.513,0l-0.103,0.31v0.205
		c0,0.205,0.137,0.308,0.411,0.308l-0.206-0.308l0.206,0.103l0.103-0.411h0.103l0.206,0.309c0.246-0.099,0.366-0.201,0.359-0.309
		l0.052,0.104l0.103-0.206v0.411c0.205-0.069,0.308-0.205,0.308-0.411l0.103,0.103l0.411-0.103v0.103l0.103,0.206V66.14l0.206,0.308
		l0.206-0.411l0.411-0.206l0.103,0.104l-0.206,0.103l0.411-0.103l0.206-0.309l0.411-0.103c0.206,0,0.343-0.068,0.411-0.206
		l3.184-0.41c0.135,0,0.204-0.034,0.206-0.103v0.309l0.103,0.308l0.411,0.205l-0.308,0.103c-0.137,0-0.274-0.067-0.411-0.205
		l-0.308-0.308l-0.103,0.102l-0.411,0.206h0.205l0.206,0.205l-0.206,0.206v0.206c0,0.136,0.137,0.205,0.411,0.205L76.68,66.14h0.206
		l0.103,0.205l0.103,0.103h0.308l-0.308-0.103h0.206V66.14h0.103l0.103,0.103l0.308,0.103l0.206-0.205h0.719v-0.31l-0.205-0.308
		v-0.308l0.719,0.308l1.027-0.103l0.719,0.103v0.205l-0.102,0.412l-0.411-0.206l-0.206,0.103l-0.308,0.206l0.308-0.103v0.103
		l0.308,0.205l-0.206,0.205l0.103,0.104l0.206,0.308v-0.206h0.103l0.205-0.205v0.309l0.103,0.103c0,0.137,0.103,0.171,0.308,0.103
		l-0.103-0.103l0.103-0.103l-0.103-0.411c0.206,0,0.342-0.068,0.411-0.205l-0.103-0.205h0.205l-0.102-0.412l0.102-0.205h-0.205
		l-0.308-0.308l-1.438-0.411l2.054-0.103c0.068-0.343-0.445-0.65-1.541-0.925l-2.979-0.308c-1.438-0.206-2.123-0.411-2.054-0.617
		h2.26l0.205,0.206l4.417,0.514l-1.541-0.514l-1.747-0.206l1.541,0.104l-1.335-0.309l-1.541-0.104l-2.671,0.309
		c0,0.411,0.788,0.686,2.363,0.822l2.979,0.41l1.233,0.515l-1.644-0.104l-2.979-0.616c-1.644-0.274-2.842-0.274-3.596,0
		c0.343-0.41,0.445-0.685,0.309-0.821l0.308-0.309l-0.308-0.103l-0.206-0.411l-0.308-0.308H72.468z M44.836,60.181l-1.027,0.206
		l-0.719,0.821c0.479,0.273,0.924,0.206,1.335-0.206C44.836,60.66,44.973,60.387,44.836,60.181z M47.712,62.543l-0.513-0.205h-0.309
		l-0.103,0.72l0.103,1.232l0.822-0.719V62.543z M46.274,62.03l-0.411-0.206l-0.616-0.205c0.069,0.754-0.205,1.198-0.822,1.336
		C45.316,63.571,45.932,63.263,46.274,62.03z M57.779,55.867l-0.308-0.103v0.411l-0.411,0.513l0.206,0.103l-0.308,0.514l0.103,0.104
		v0.41h-0.513l-0.616-0.41l-0.309-0.514v-0.822l-0.411-0.103l0.206,0.206l-0.103,0.102v0.411l-0.308-0.411h-0.103L54.8,56.176
		l-0.206,0.102h0.103l-0.103,0.206c0,0.205,0.137,0.273,0.411,0.205v0.103c-0.274-0.068-0.411,0-0.411,0.206V57.1l0.103,0.309
		l0.103-0.206l0.103,0.103l0.103-0.103h0.205l0.103,0.411l0.103,0.103l-0.206,0.309l-0.308-0.309l0.103,0.514l0.514-0.103
		l0.103,0.103h0.103l0.206,0.103v-0.103l0.821,0.616l0.308-0.205l0.103,0.103l0.103,0.615l-0.924,0.104
		c-0.479,0.343-0.788,0.446-0.925,0.309l-0.103-0.309l-0.205-0.104l-0.103,0.104h-0.411l0.206,0.103v0.104l0.309,0.308h0.102
		l-0.205,0.103l-0.411-0.205l-0.103,0.103l-0.205,0.515l0.103-0.206h0.103c0.068,0.206,0.205,0.206,0.411,0h0.103L54.8,60.592v0.205
		h0.103v0.103l0.308,0.309l-0.102-0.309h0.102l0.206-0.409l0.309,0.204c0.137,0,0.206-0.103,0.206-0.308l0.205,0.205l0.103-0.205
		l0.103,0.205l0.206-0.308v0.206l0.411-0.104h0.103v0.205l0.103-0.102l0.103,0.307l0.411-0.41c0.343-0.137,0.514-0.24,0.514-0.309
		h0.103l-0.103,0.309l0.308-0.206l0.616-0.513l0.103-0.104v0.104c0.206,0,0.342-0.104,0.411-0.31l3.082-0.923l0.308-0.206
		l-0.103,0.514l0.205,0.205l0.411,0.205l-0.308,0.103l-0.308-0.103l-0.411-0.308l-0.103,0.103l-0.308,0.41l0.205-0.205v0.103
		l0.103,0.103h0.206l-0.206,0.104l-0.103,0.206l0.103,0.205c0,0.205,0.068,0.239,0.206,0.103l-0.103-0.103h0.103l0.103-0.103v0.308
		c0,0.274,0.137,0.309,0.411,0.103l-0.205-0.103h0.103l0.103-0.205h0.206l0.309,0.103l0.205-0.411h0.103l0.616-0.103l-0.308-0.514
		v-0.41l0.719,0.103l1.541-0.309l0.206,0.206l-0.103,0.514L66.1,58.948l-0.103,0.205l-0.206,0.205l0.206-0.103v0.103l0.103,0.104
		h0.308l-0.103,0.411l0.206,0.308v-0.205h0.103l0.206-0.308h0.103v0.41h0.103l0.308,0.103l-0.103-0.103v-0.514l-0.103-0.103
		c0.206,0,0.309-0.104,0.309-0.309l-0.206-0.205l0.206-0.205l-0.206-0.205v-0.103c0.137-0.069,0.172-0.172,0.103-0.309l-0.103,0.103
		l-0.411-0.205l-1.335-0.206c1.301-0.137,1.952-0.342,1.952-0.616c0-0.411-0.548-0.65-1.644-0.719l-2.979,0.205l-1.952-0.309
		l0.719-0.308h1.438l0.308,0.104l4.314-0.104L66.1,55.765h-1.746l1.438-0.309l-2.671,0.205l-0.103,0.104
		c-1.712,0-2.568,0.239-2.568,0.719c0.068,0.479,0.822,0.685,2.26,0.616l3.082-0.309l1.233,0.411l-8.012,0.616
		c0.274-0.548,0.342-0.89,0.205-1.027l0.206-0.308l-0.309-0.206l-0.102-0.205V55.97l-0.411-0.205l-0.411-0.104L57.779,55.867z
		 M45.761,48.368l1.951,2.568l2.774-5.855l-1.336,0.514l-1.644,1.952l-0.822-1.644C45.59,46.725,45.281,47.547,45.761,48.368z
		 M56.033,38.713l-4.314,0.41c-2.26,0.822-3.87,1.199-4.828,1.13h-0.103l0.616,1.027l-1.438,0.103
		c0.411,1.027,0.479,2.329,0.206,3.904l1.644-1.644l-0.103,0.41l0.103,1.746c1.027-1.644,2.26-2.362,3.698-2.156L56.033,38.713z
		 M57.985,32.652l-0.411-0.309l-0.822,0.205l-0.205,0.616l0.411,0.309l0.822-0.309L57.985,32.652z M78.118,47.957
		c-2.808-3.697-6.163-5.547-10.067-5.547v18.592l-14.175,0.926v0.205c0.137,3.013,0.788,5.786,1.952,8.32
		c1.232,2.534,2.842,4.554,4.828,6.061c0.891-0.753,1.609-1.027,2.158-0.821l0.822,0.615l0.308,0.925
		c0,0.274-0.103,0.582-0.308,0.925l0.719,0.411c0.89-1.026,2.123-1.712,3.698-2.055V61.002l14.279,0.926v-0.926
		C82.33,56.004,80.926,51.655,78.118,47.957z M63.018,50.32l-0.103,0.103c-1.027-0.068-1.541,0.137-1.541,0.616
		c0,0.548,0.582,0.787,1.746,0.719l2.671-0.205l1.233,0.411l-1.644,0.308l-2.26-0.205l-2.979,0.205l0.308-0.821l0.205-0.411
		l-0.308-0.103l-0.103-0.205l-0.103-0.309l-0.822-0.206l-0.206,0.104l-0.102,0.103l-0.309-0.103l-0.103,0.411l-0.411,0.41
		l0.205,0.206l-0.308,0.513l0.206,0.104v0.513h-0.308l-0.103-0.103l-0.616-0.41l-0.206-0.411v-0.925l-0.308-0.103l0.103,0.206
		l-0.103,0.102v0.411l-0.308-0.411h-0.103l-0.206-0.102l-0.103,0.102h0.103v0.206l0.206,0.205h0.103v0.104
		c-0.273-0.069-0.411,0-0.411,0.205v0.103l-0.102,0.205l0.205,0.104v-0.206l0.206,0.103l0.103-0.103h0.103l0.205,0.411v0.103
		c0,0.205-0.068,0.309-0.205,0.309l-0.309-0.309l0.103,0.514l0.513-0.103l0.103,0.205l0.103-0.205v0.103l0.206,0.206v-0.206
		l0.514,0.411l0.308,0.103h0.308l0.103,0.514l-1.747,0.411l-0.411-0.411h-0.103l-0.411,0.103l0.308,0.103l-0.103,0.103l0.103,0.206
		h-0.205l-0.206,0.103l-0.309,0.411l0.206-0.205l0.103,0.205l0.411-0.104l0.103,0.104l-0.103,0.411v0.103l0.411,0.308l-0.206-0.308
		h0.206l0.103-0.411h0.103l0.206,0.205c0.237-0.047,0.357-0.115,0.36-0.205l0.051,0.103l0.103-0.205v0.411l0.308-0.411l0.103,0.103
		l0.411-0.103h0.103v0.103l0.206,0.309l0.206-0.411c0.137,0,0.274-0.068,0.411-0.205h0.103l-0.206,0.205
		c0.138,0.068,0.343-0.034,0.617-0.308l0.411-0.515l0.308-0.103c0.342,0,0.616-0.137,0.822-0.411l1.232-0.41
		c0.137,0,0.274-0.068,0.411-0.206v0.514l0.205,0.309l0.411,0.103l-0.411,0.205l-0.411-0.205c-0.137-0.205-0.24-0.274-0.308-0.205
		l-0.103,0.103l-0.103,0.154v0.153l0.206,0.103l0.103-0.103v0.103l-0.308,0.309v0.206l0.308,0.102v-0.102l0.103-0.103h0.103
		l-0.103,0.103l0.103,0.205l0.411,0.103l-0.205-0.103l0.103-0.205h0.206l0.308,0.102l0.206-0.41h0.205l0.514-0.103v-0.206
		l-0.206-0.308l-0.103-0.411l0.719,0.205c0.479,0,0.822-0.103,1.027-0.308h0.616l0.103,0.103v0.514h-0.616l-0.308,0.411l0.308-0.206
		v0.103c0.068,0.274,0.171,0.309,0.308,0.104l0.103,0.103l-0.206,0.309l0.309,0.308v-0.206h0.103l0.206-0.308h0.103v0.411h0.103
		l0.308,0.103l-0.103-0.103v-0.104l-0.103-0.513c0.206,0,0.309-0.103,0.309-0.309l-0.206-0.205c0.137,0,0.206-0.035,0.206-0.103
		l-0.206-0.309l0.103-0.411l-0.103,0.206l-0.205-0.206l-0.308-0.103L65.38,52.58c1.37,0,2.055-0.172,2.055-0.514
		c0-0.479-0.548-0.754-1.644-0.822l-4.109-0.205l1.233-0.308l0.205,0.102l4.417,0.104l-1.541-0.514l-1.335,0.103
		c0.358-0.064,0.564-0.201,0.617-0.411L63.018,50.32z M65.586,43.026l-0.616,0.411c0.163-0.155,0.197-0.326,0.103-0.514
		l-1.335,0.925v0.205l-0.308,0.616c0.068,0.479,0.719,0.754,1.951,0.822c1.233,0.068,1.849,0.273,1.849,0.616
		c0.069,0.342-0.479,0.514-1.644,0.514l-1.129-0.205l-1.541,0.103c0.274-0.479,0.342-0.788,0.205-0.925
		c0.137,0,0.206-0.103,0.206-0.308l-0.308-0.104l-0.205-0.411l-0.309-0.205l-0.308-0.103l-0.411,0.205l-0.309-0.103v0.411
		l-0.308,0.309l0.103,0.102l-0.206,0.515l0.103,0.103l-0.103,0.924l-0.411-0.205l-0.205-0.411l0.205-0.616l-0.102-0.103
		l-0.309-0.206l0.103,0.206l-0.103,0.103v0.309l-0.206-0.309h-0.103v-0.103l-0.205-0.103l-0.103,0.103h0.103V45.8l0.205,0.104v0.205
		l-0.411,0.103v0.103l0.103,0.309l0.103-0.103l0.205-0.103h0.103l0.103,0.103c-0.274,0.273-0.274,0.41,0,0.41l-0.206,0.206
		l-0.205-0.206v0.411h0.513l0.103,0.103l0.103-0.103v0.103c-0.069,0.068,0,0.104,0.205,0.104v-0.104l0.411,0.411
		c-0.342,0.205-0.616,0.309-0.822,0.309l-0.719,0.205c-0.411,0.274-0.685,0.342-0.822,0.205l-0.103-0.205l-0.206-0.205h-0.103
		l-0.308,0.103l0.206,0.103l-0.103,0.103l0.308,0.309h-0.103l-0.308-0.104l-0.103,0.104l-0.206,0.103v0.309l0.103-0.206l0.103,0.103
		h0.411l-0.103,0.411l0.411,0.411l-0.206-0.309h0.206l0.103-0.308h0.103l0.206,0.205l0.205-0.308l0.103,0.103l0.205-0.103
		c0.064,0.063,0.03,0.167-0.103,0.308l0.309-0.308h0.513v0.205l0.103-0.103l0.103,0.205l0.205-0.308l0.411-0.206l-0.103,0.206
		l0.411-0.411l0.102-0.206l0.309-0.205l0.103,0.308c0.206,0,0.445-0.171,0.719-0.513l0.206-0.309l0.719-0.308
		c0.206,0,0.343-0.069,0.411-0.206l0.103,0.72l0.411,0.103l-0.206,0.205l-0.411-0.205l-0.308-0.103h-0.206l-0.206,0.308l0.206-0.103
		v0.103h0.309l-0.103,0.103l-0.206,0.309v0.103l0.309,0.103l-0.103-0.103h0.103v-0.103h0.103v0.205c0,0.274,0.137,0.343,0.411,0.206
		l-0.206-0.104l0.103-0.103v-0.205h0.206v0.103l0.308,0.103l0.206-0.411h0.103l0.513-0.103v-0.205l-0.205-0.205l-0.206-0.411
		l0.411,0.205l0.411-0.103c0.343,0,0.411-0.068,0.206-0.205l0.616-0.104l0.103,0.206v0.411H66.1l-0.205,0.308l0.205-0.103
		l0.206,0.205c0.069,0.068,0.137,0.034,0.206-0.103l-0.103,0.411l0.309,0.205v-0.205l0.205-0.206l0.103,0.206l0.103,0.103
		l0.309,0.103l-0.206-0.205l0.103-0.104l-0.103-0.205v-0.103l0.206-0.308l-0.206-0.206c0.137,0,0.206-0.034,0.206-0.103
		l-0.206-0.205v-0.104l0.103-0.205h-0.308l-0.206-0.206l-1.13-0.103c1.301,0,1.917-0.273,1.849-0.821
		c-0.069-0.548-0.685-0.856-1.849-0.925L63.84,44.67l0.206-0.41c0.616-0.069,1.198-0.309,1.746-0.72l1.335-0.821L65.586,43.026z
		 M62.504,31.214l-1.438,0.821l1.644,0.514l1.541-0.719L62.504,31.214z M78.016,38.815l-1.335-0.822
		c-1.096-0.616-2.226-1.096-3.39-1.438l-5.239-0.206l-6.06,0.514l-3.082,1.336l-0.103,0.103c-4.931,3.149-8.355,7.943-10.272,14.381
		l0.616,1.232l0.411-0.821l0.514,0.205l-0.309,0.719l0.206,0.719l0.514-0.719l1.13-0.719c0.616,0.205,0.821,0.821,0.616,1.849
		l-0.411,1.028l-0.616-0.206l0.411-1.027l-0.206-0.616l-0.616,0.719c-0.274,0.548-0.616,0.788-1.028,0.72l-0.205-0.104l-0.411,3.185
		c0.274,0.89,0.343,1.507,0.206,1.849l-0.308,1.644l2.568-0.205v0.925l-2.979,0.205l-0.103-0.308l-0.308,0.924l-0.616,0.925
		c0.822,7.875,4.109,13.696,9.861,17.463l0.514-1.85l-0.514-0.514l-0.411-0.616h1.541l1.233-1.849
		c-2.329-1.78-4.109-4.04-5.342-6.78c-1.301-2.875-1.952-6.095-1.952-9.656c0-5.409,1.507-10.065,4.52-13.97
		c3.082-3.971,6.746-5.957,10.991-5.957c4.246,0,7.944,1.986,11.094,5.957c3.082,3.973,4.52,8.629,4.314,13.97
		c-0.137,4.521-1.129,8.321-2.979,11.403c-1.438,2.396-3.63,4.555-6.574,6.471l-0.411,0.411l-0.616,0.925
		c2.808,0.411,5.102,0.924,6.882,1.541c2.808-2.056,5.034-4.999,6.677-8.834c1.576-3.63,2.397-7.567,2.465-11.813
		c0.069-3.424-0.582-7.02-1.951-10.785l-0.925-1.336l-1.232-1.027c-0.274-0.273-0.411-0.992-0.411-2.157l0.103-0.513l-2.671-3.493
		L78.016,38.815z M71.852,31.83l1.541,0.719l1.541-0.514l-1.438-0.821l5.958,0.719l0.206,0.103l0.411-0.411
		c0.205-0.342,0.137-0.548-0.206-0.615L67.949,29.57l-11.71,1.335c-0.411,0.068-0.513,0.309-0.308,0.719
		c0.068,0.343,0.273,0.411,0.616,0.206l11.402-1.232l5.496,0.616L71.852,31.83z M69.284,31.624l-0.308-0.513h-1.952l-0.308,0.513
		l0.411,0.617h1.849L69.284,31.624z M79.043,32.549l-0.822-0.205l-0.411,0.309l0.206,0.513l0.822,0.309l0.514-0.411L79.043,32.549z
		 M79.043,34.397l-0.822-0.513l-1.438-0.411l-9.143-0.821l-4.006,0.308l-0.925,0.205h-0.822l-1.438,0.309h-1.13l-0.308,0.205
		l-0.617,0.103h-0.411l-0.411,0.206l-0.822,0.616l-0.205,0.925c0.205,0.753,0.65,1.13,1.335,1.13l0.514-0.103l0.617-0.515h0.513
		c0.411-0.067,0.617-0.171,0.617-0.308c0.753,0.273,1.095,0.273,1.027,0l1.952-0.309h1.849l1.027-0.41l0.205,0.308l0.822-0.103
		l0.205,0.103l0.617-0.103l0.308,0.103l1.747,0.103l0.205-0.205l0.719,0.205h0.308l0.308-0.205l0.719,0.205
		c0.273,0.069,0.411,0,0.411-0.205l1.13,0.309h0.925l0.411,0.205h0.925l0.513,0.308l1.747,0.206l0.616-0.103l0.411-0.616
		L79.043,34.397z M67.949,26.693c0.548,0,0.822-0.308,0.822-0.924c0-0.548-0.274-0.821-0.822-0.821
		c-0.547,0-0.822,0.273-0.822,0.821C67.127,26.386,67.401,26.693,67.949,26.693z M68.668,21.353c0-0.411-0.206-0.616-0.617-0.616
		c-0.548,0-0.822,0.205-0.822,0.616c0,0.479,0.274,0.719,0.822,0.719C68.462,22.071,68.668,21.832,68.668,21.353z M68.051,20.53
		c0.411,0,0.617-0.273,0.617-0.821c0-0.411-0.206-0.616-0.617-0.616c-0.548,0-0.822,0.205-0.822,0.616
		C67.229,20.257,67.503,20.53,68.051,20.53z M68.565,18.168c0-0.479-0.171-0.719-0.514-0.719l-0.719,0.719
		c0,0.411,0.24,0.616,0.719,0.616C68.394,18.784,68.565,18.579,68.565,18.168z M68.051,16.113c0.274,0,0.411-0.171,0.411-0.514
		l-0.411-0.514L67.436,15.6L68.051,16.113l-0.616,0.616l0.616,0.616c0.343,0,0.514-0.205,0.514-0.616L68.051,16.113z M68.051,6.972
		l-0.616,0.514l0.616,0.615c0.343,0,0.514-0.205,0.514-0.615L68.051,6.972z M70.106,13.34l0.514-0.411l-0.514-0.513h-1.541
		c0-1.644-0.171-2.466-0.514-2.466c-0.342,0-0.513,0.822-0.513,2.466h-1.541l-0.514,0.513l0.514,0.411H70.106z M54.8,27.208v0.616
		l0.616,0.616c0.206-0.137,0.24-0.445,0.103-0.925l-0.514-0.514L54.8,27.208z M56.752,20.941l-0.924,0.822l0.103,2.156l0.616-0.205
		l-0.514,1.13l-0.411,1.644l0.103,0.205l0.616-0.513l0.924-1.336l0.822,3.903l-1.849-0.514l-0.103,0.103v0.104l0.719,0.821
		c0.754,0.479,1.507,0.651,2.26,0.514c0.685-0.273,1.13-0.685,1.336-1.232c0.137-0.273,0.103-0.445-0.103-0.514
		c0.343-0.616,0.308-1.062-0.103-1.336l-0.309-0.103l-0.308,0.103v0.72c0,0.548-0.171,0.891-0.514,1.027
		c0.274-0.411,0.035-0.925-0.719-1.541l-0.308-0.616l0.103-0.925l0.822-0.514c0.547-0.137,1.164,0.343,1.849,1.438l-0.822-2.157
		c-0.274-0.548-0.308-1.13-0.103-1.746l0.617-1.438l0.308,0.411c0.891,0.616,1.267,1.438,1.13,2.465l-0.206,2.363
		c0.342-1.233,0.788-1.884,1.335-1.952l1.027,0.309c0.411,0.548,0.445,1.061,0.103,1.54l-0.411,1.336l0.206,0.308
		c-0.479-0.068-0.719-0.342-0.719-0.821l-0.206-0.719h-0.308l-0.309,0.205v0.822l0.309,0.41l0.103,0.616
		c0.411,0.479,0.89,0.719,1.438,0.719c1.232,0,2.157-0.616,2.773-1.849l-0.206-0.616h-0.719l-1.438,1.027v-3.801L66.1,24.64
		l1.027,0.41v-0.102l-1.438-2.568h0.822v-1.644l-2.054-0.309c-1.918-1.096-3.322-1.506-4.212-1.232l-0.822,0.925l-0.206,0.616
		l-0.103,0.513l-0.411-0.205L56.752,20.941z M56.649,19.914h1.849c0.274-0.891,0.89-1.438,1.849-1.644
		c1.232-0.273,2.5,0.034,3.801,0.925c0.753,0.548,1.541,0.719,2.363,0.514v-2.26c-1.027,0.137-2.603-0.343-4.725-1.438
		c-1.507-0.891-2.945-1.096-4.314-0.616c-1.438,0.479-2.465,1.438-3.082,2.876c-0.479,1.096-0.342,2.5,0.411,4.212
		C54.8,21.182,55.417,20.325,56.649,19.914z M79.351,19.914c1.164,0.411,1.781,1.198,1.849,2.362
		c0.754-1.574,0.891-2.91,0.411-4.006c-0.617-1.438-1.644-2.396-3.082-2.876c-1.37-0.479-2.842-0.274-4.417,0.616
		c-2.054,1.096-3.595,1.575-4.622,1.438v2.26c0.753,0.274,1.541,0.103,2.362-0.514c1.233-0.753,2.5-1.062,3.801-0.925
		c0.891,0.137,1.541,0.685,1.952,1.644H79.351z M81.2,27.311l-0.206-0.206l-0.513,0.514l0.206,0.925l0.513-0.616V27.311z
		 M79.454,23.715l0.514,0.205c0.342-0.89,0.376-1.609,0.103-2.156l-0.925-0.822l-1.335-0.103l-1.027,0.41l-0.103-0.513
		c0-0.754-0.342-1.268-1.027-1.541c-0.89-0.273-2.26,0.137-4.108,1.232l-2.055,0.309v1.335l-0.103,0.309h0.925l-1.541,2.568v0.102
		l1.027-0.41l1.335-0.925L71.03,25.77h0.103v1.746l-1.438-1.027h-0.513l-0.309,0.616l1.13,1.644l1.643,0.205
		c0.548,0,1.027-0.239,1.438-0.719l0.103-0.616c0.479-0.479,0.548-0.89,0.206-1.232l-0.308-0.205h-0.206l-0.206,0.719l-0.616,0.667
		c0.193-0.292,0.056-0.789-0.411-1.489c-0.274-0.479-0.205-0.992,0.206-1.54l0.925-0.309c0.616,0.068,1.062,0.719,1.335,1.952
		l-0.103-2.363c-0.205-1.027,0.171-1.849,1.13-2.465l0.205-0.411l0.719,1.438c0.137,0.616,0.103,1.198-0.103,1.746l-0.822,2.157
		c0.685-1.096,1.301-1.575,1.849-1.438l0.822,0.514v0.925c0,0.273-0.103,0.479-0.308,0.616l-0.822,1.13l0.103,0.411l-0.514-1.027
		l0.103-0.309l-0.103-0.411l-0.206-0.103l-0.309,0.103l-0.308,0.822l0.103,0.514v0.514l1.541,1.232
		c1.301,0.343,2.226-0.103,2.774-1.335l-0.206-0.206l-1.747,0.514l0.719-3.903l1.541,1.849c0.137,0.069,0.205,0.035,0.205-0.103
		L79.454,23.715z M34.77,60.49c0.205,0.684-0.068,1.368-0.822,2.053l-1.644,1.644c-0.411,0.892-0.582,2.056-0.514,3.493l1.027,1.232
		l1.027,2.158c0.274,0.615,0.171,1.506-0.309,2.67c-0.411,1.097-0.376,1.884,0.103,2.363l1.541,0.924
		c0.685,0.479,1.062,0.959,1.13,1.438l0.205,1.746l0.719-0.925l0.822-0.308l0.514,0.103l-0.514,1.027
		c-0.137,0.616,0.239,1.231,1.13,1.849l0.616-1.027c0.342-0.411,0.445-0.787,0.309-1.13c0.89,0.958,1.335,1.85,1.335,2.671
		c0.548-0.205,0.822-0.582,0.822-1.13l1.027,0.205c0.343,0.206,0.479,0.445,0.411,0.72c-0.41,0.89-0.205,1.335,0.617,1.335
		l0.719-0.205l0.308-0.515c0.685-0.479,1.233-0.479,1.644,0c0.137-0.067,0.068-0.239-0.206-0.513l-0.411-0.514
		c0.206,0.068,0.582,0.309,1.129,0.719l1.233,0.514c-0.137-0.753,0-1.13,0.411-1.13l0.103,0.206
		c-0.137,0.753,0.206,1.335,1.027,1.746c0.206-0.343,0.206-0.719,0-1.131l-0.514-0.821h0.411l-0.822-0.72l-0.822-0.205l-0.411-0.41
		l1.746,0.103c0.685,0.068,1.062,0.41,1.13,1.027v-0.411l-0.103-0.411c0-0.204,0.103-0.239,0.309-0.103
		c0.068,0.753,0.342,1.198,0.822,1.336c0.137-0.411,0.068-0.823-0.206-1.233l-0.411-0.821l-0.719-0.411h-1.13l1.644-0.616
		l-1.644-0.309l-2.465,0.514l-4.109-1.541c-1.438-0.616-2.705-1.301-3.801-2.054c-0.685-1.644-0.924-2.876-0.719-3.698l2.979-5.547
		c0.274-0.548,0.274-1.097,0-1.644l-2.876-1.849c-1.712-1.027-2.911-2.123-3.595-3.287L34.77,60.49z M37.646,58.229l-0.206,0.309
		l-0.103,1.13l-0.822-0.206l6.061,5.137c0.411,0.616,0.445,1.301,0.103,2.054l-3.082,5.033l0.617,3.287
		c0.959,0.686,3.15,1.747,6.574,3.185c0.479,0.273,1.198,0.273,2.157,0L51,78.054c-2.808-4.382-4.417-8.73-4.828-13.045h-0.103
		c0.137-0.274,0.171-0.582,0.103-0.925l-0.103-0.615l-1.335,0.41l-1.028-0.41l-0.205-0.411l0.924-0.72v-0.514l-0.719,0.309
		l-0.822-0.205l-0.616-0.616c0.479-0.274,0.719-0.582,0.719-0.925l-0.514-0.514l-0.103-0.515l0.719-0.718l0.411-0.72v-0.616
		l0.103-0.821l0.206-0.719l-1.027,1.13l-0.616-1.233l-0.103-1.026l-0.513,0.513c0.069-0.479-0.103-0.958-0.514-1.438
		c-0.548,0.343-0.822,1.026-0.822,2.055c0,1.164-0.479,2.191-1.438,3.081C38.434,58.023,38.057,57.818,37.646,58.229z
		 M26.552,20.941c-0.206,0.343-0.753,0.548-1.644,0.616l0.616,0.411l0.617,0.308l-0.719,0.72l0.617,0.103
		c-0.137,0.137-0.479,0.309-1.028,0.514c-0.479,0.068-0.855,0.274-1.129,0.616c-0.411,0.753-0.445,1.438-0.103,2.055
		c0.206,0.548,0.685,0.89,1.438,1.027h0.616l0.514,0.205l-0.719,0.719l-0.206,1.644v1.541c0.411-0.137,0.719-0.411,0.924-0.821
		l0.411-1.027l-0.616,2.26c-0.206,0.822,0.068,2.055,0.822,3.698l0.308-1.232l1.027-1.027v2.772
		c0.206,1.165,0.137,2.089-0.205,2.774c0.616,0,1.095-0.377,1.438-1.131l0.411-1.746c0.616,0.891,0.787,2.089,0.513,3.596
		s-0.753,2.396-1.438,2.671c0.479,0.616,0.993,0.479,1.541-0.411l0.103,1.232l0.206,0.822c0.137,4.383-2.397,9.313-7.602,14.792
		l-3.185,5.443c-1.096,2.123-2.431,3.355-4.006,3.699c-0.822,0.067-1.644-0.172-2.465-0.72c-1.164-1.233-1.575-2.808-1.233-4.726
		c0.479-1.78,1.507-3.8,3.082-6.061l4.314-5.649c1.232-1.712,1.952-3.458,2.157-5.239c0.137-0.958,0.034-1.917-0.308-2.876
		c-0.274-1.027-0.753-1.814-1.438-2.362c-0.616-0.41-1.506-0.41-2.67,0l-2.671,1.232l-2.054,2.466
		c-0.274,1.301-0.685,2.294-1.233,2.979h0.514l0.514-0.515l-0.925,2.26c-0.479,0.959-0.616,1.78-0.411,2.466
		c0.137-0.753,0.65-1.507,1.541-2.26c0.958-0.891,1.541-1.575,1.746-2.055l0.308,0.411l-0.103,0.616l0.924-1.027
		c0.343-0.411,0.514-1.198,0.514-2.362c0.068-1.233,0.274-2.055,0.617-2.466l0.924-0.821l1.335-0.206l1.335,1.233l0.719,1.746
		c0.137,1.369-0.24,3.013-1.13,4.931l-5.136,6.985c-1.986,2.808-3.15,5.375-3.492,7.704c0,2.259,0.616,3.869,1.849,4.827
		l-1.232,0.103l-1.027-0.308l0.514,1.026l2.362,0.412l2.363-0.412l-0.103,0.72c0.548-0.068,1.164-0.377,1.849-0.925l1.438-1.541
		c-0.137,1.164,0.377,1.815,1.541,1.952c-0.411-0.685-0.547-1.335-0.411-1.952c0-0.685,0.65-1.849,1.952-3.492l-0.308,0.925
		l-0.206,3.595c0.069,1.233-0.069,2.5-0.411,3.801l-1.747,3.39c-0.822,1.233-1.78,2.021-2.876,2.362h-0.821l-0.514,0.515
		l0.206,4.313l-0.925,2.363l0.309,2.979l1.027-1.54l-0.103,2.156c-0.206,0.891-0.034,1.575,0.514,2.055l0.616-1.849l0.514,0.514
		l0.308,0.821c0.548,0.822,0.582,1.952,0.103,3.39l0.719,1.438l0.103-0.719l0.206-0.411h0.411c0.479,0,0.685-0.239,0.616-0.719
		v-1.131l0.309,0.309l0.719,0.925c0.548,0.274,0.855,0.548,0.924,0.821h0.514l0.308-0.514l0.206-0.205l0.308,0.103
		c-0.274,0.411-0.137,0.856,0.411,1.336c0.274-0.343,0.171-0.754-0.309-1.233l0.309-0.205c-0.822-0.343-1.37-1.027-1.644-2.054
		l0.103-0.309l0.205-0.103c0.137,0.753,0.856,1.267,2.158,1.54l0.719,0.617l0.924,0.308v-1.336l0.103-0.308l0.308-0.103l0.206,0.308
		l-0.206,0.411l1.129,0.72c-0.137-0.822-0.719-1.438-1.746-1.85c-1.164-0.411-1.883-0.822-2.158-1.232l0.103-0.205l2.876,0.615
		l0.616,0.515h0.719l-0.103-0.206c-0.206-0.411-0.137-0.891,0.206-1.438l-1.747-0.309l-1.951,0.309
		c-1.918,0.067-3.562-1.507-4.931-4.726v-2.568c0.137-0.958,0.514-1.746,1.13-2.362l7.191-6.267c1.644-1.164,2.5-3.149,2.568-5.958
		l0.411-5.341c0.274-1.986,0.925-3.63,1.952-4.931c0.068,0,0.24-0.103,0.513-0.308l0.411,0.205l-1.13,2.465l-0.822,2.773
		l1.541-1.232c-0.137-1.164,0.514-2.499,1.952-4.006l0.308,0.821c0.274,0.343,0.514,0.479,0.719,0.411
		c-0.205-1.164-0.137-1.917,0.206-2.26l0.309,0.514l0.822,0.514c-0.343-1.027-0.172-1.985,0.513-2.876l0.206,1.746l0.514,0.719
		c-0.068-1.849,0.24-2.944,0.924-3.287l-0.206-0.103l-1.027-0.205h-0.719l-1.13,1.13l0.103-1.438
		c-0.069-0.479-0.24-0.685-0.514-0.616l-0.514-0.925l0.617-2.054c0.068,1.232,0.924,2.157,2.568,2.773
		c1.644,0.548,2.534,1.13,2.671,1.746c0.137-0.068,0.171-0.343,0.103-0.822l0.206-1.335c0.548,0.616,0.753,1.301,0.616,2.055
		c-0.205,0.821-0.137,1.403,0.206,1.746l0.206-0.411l0.719-0.514l0.719,0.514l0.206,0.822l-0.206,1.54
		c0.069,0.686-0.103,1.164-0.514,1.438l-0.616,0.41c-0.205,0.343-0.137,0.582,0.205,0.72l1.644,0.103l-0.103,0.821l0.616,0.205
		c0.479,0,0.685,0.206,0.617,0.617l0.616-0.205l0.822,0.41h0.308l0.206-0.616V57.1c0.273-0.891,0.273-1.712,0-2.465l-0.925-1.644
		c-0.479-1.165-1.301-2.397-2.465-3.698l-2.979-3.39l-0.411-1.131v-0.719l2.876,3.185c0.479-0.479,0.788-1.335,0.925-2.568
		c0.137-1.438-0.034-2.533-0.514-3.287c-0.411,0.548-0.479,0.993-0.205,1.336c-0.753-0.206-1.027-0.686-0.822-1.438
		c0.548-1.232,0.103-2.637-1.335-4.212c0.753,0.616,1.164,0.549,1.232-0.205c0-0.685-0.274-1.404-0.822-2.157
		c1.096,0.548,1.609,1.678,1.541,3.39c-0.068,1.507,0.548,2.363,1.85,2.568c-0.754-0.891-0.891-1.814-0.411-2.773l0.924,0.103
		l0.411-0.514c-0.89,0-2.021-1.301-3.39-3.903c0.479,0.548,0.993,0.72,1.541,0.514l0.822-0.616l-1.849-1.232L43.501,30.7
		c0.753,0.411,1.335,0.411,1.746,0c-0.616-0.411-1.13-1.302-1.541-2.671c-0.41-1.37-1.061-2.362-1.951-2.979l1.541-0.41
		c-0.479-0.137-0.924-0.377-1.335-0.72l-1.335-0.924c0.206,0,0.411-0.104,0.616-0.309l0.822-0.308
		c-0.89-0.549-1.609-0.72-2.157-0.514v-0.72l0.206-0.719c0.137-0.959-0.069-1.678-0.616-2.157l-2.671,0.103l0.822-1.335
		l-1.952,0.719l0.308-0.924l-0.822,0.205l-0.513,0.616l-0.925,0.411v0.205l-2.465,0.514c-0.616,0.411-0.993,0.582-1.129,0.514
		l-1.233,0.514l-0.822,0.925l-0.617-0.206C26.997,20.53,26.688,20.667,26.552,20.941z M27.065,19.093
		c-0.342,0.205-0.411,0.445-0.205,0.719c0.068,0.343,0.205,0.445,0.411,0.309l0.205-0.104l0.103-0.205
		c0.068,0.068,0.137,0.034,0.206-0.103l0.102-0.104l0.411-0.205l0.206-0.205l0.924-0.411l0.309-0.308l0.719-0.206l0.411-0.205
		l0.616-0.205l0.206-0.206l0.308-0.103l0.514-0.103h0.103l0.206-0.104l0.924-0.205h0.309l0.205-0.514
		c0-0.343-0.24-0.445-0.719-0.308l-3.389,1.026L27.065,19.093z M28.093,14.059v-0.102l-0.103-0.206l-1.951,0.103l-0.617,0.205v0.411
		l0.103,0.411h-0.411L24.6,15.189l0.103,0.821l0.102,0.103l0.103-0.103l0.103,1.13h0.103l0.308-0.821l0.719,1.13l-0.617,0.103
		l-0.103,0.103l0.411,0.206l0.719-0.104l0.206-0.103l0.206-0.616l-0.103-0.103c0.068-0.274-0.035-0.445-0.309-0.514l-0.103,0.103
		l0.103,0.205v0.514l-0.513-0.514l-0.309-0.41l0.206-0.309l0.822,0.205L26.141,15.6l-0.206-0.616v-0.308l-0.103-0.206h0.103
		l0.103,0.103l0.719,0.617l0.411,0.821l0.103-0.821h0.411l0.205,0.41l0.206,0.616l-0.411-0.103l-0.206-0.205l-0.103,0.103
		l0.103,0.309l0.206,0.103v0.103l0.719,0.103c0.411-0.205,0.616-0.548,0.616-1.027l-0.206-0.205l-0.205,0.103l-0.309,0.514
		l-0.513-1.232l0.513,0.103h0.411l-0.822-0.616L28.093,14.059z M27.682,13.032l-0.206-0.515l-3.39,0.617l-0.514,1.13l0.309,0.821
		l0.102-0.205l0.72-0.616l0.205-0.616l1.027-0.514h1.027L27.682,13.032z M31.585,11.285l0.924-0.205l0.308,0.205l-0.411-0.924
		l-1.233-0.309c-0.479,0.068-1.027,0.411-1.644,1.027c-0.274,0.548-0.65,0.891-1.13,1.027l0.206,0.514l0.616-0.411l0.719-0.821
		l1.027-0.411L31.585,11.285z M30.866,11.696l-0.411,0.205l-1.438,1.438v0.206l0.103,0.103l0.308-0.103l-0.205,1.026v0.104
		l0.308-0.309l0.308-0.514l0.616,1.232l-0.719-0.103l-0.206,0.103v0.206c0.411,0.41,0.822,0.514,1.233,0.308l0.411-0.616
		l-0.103-0.103v-0.514l-0.205,0.103v0.206l-0.154,0.308c0.012-0.123-0.107-0.26-0.359-0.411l-0.103-0.514l0.309-0.308l0.719,0.514
		l-0.411-0.822l-0.103-0.719l0.103-0.308v-0.104l0.205,0.104l0.514,0.821v0.821l0.411-0.719l0.411,0.103l0.103,0.515l-0.103,0.513
		l0.103,0.206l-0.308-0.411l-0.206-0.206l-0.206,0.103l0.103,0.309l0.103,0.206v0.205l0.822,0.103
		c0.479-0.137,0.719-0.41,0.719-0.822l-0.103-0.103l-0.514,0.514l-0.308-1.438l0.719,0.411l0.103-0.104l-0.719-0.821h0.206
		l-0.103-0.411l-0.514-0.411l-0.514,0.206l-0.308,0.205l-0.206-0.309L30.866,11.696z M127.219,46.108
		c0.206-0.891,0.137-1.781-0.205-2.671c-0.274-1.027-0.822-1.814-1.644-2.362l-2.979-1.13c-1.781-0.274-3.15,0.103-4.109,1.13
		c-1.575,1.917-1.883,4.349-0.924,7.293c0.479,1.507,2.123,4.144,4.931,7.909c2.123,3.014,3.082,5.753,2.876,8.218
		c-0.137,1.165-0.651,2.089-1.541,2.773c-0.753,0.617-1.575,0.891-2.465,0.822c-1.438-0.205-2.739-1.541-3.903-4.007l-0.616,0.515
		l0.206,2.875l0.411-1.334l0.925,2.567c0.479,0.89,1.095,1.575,1.849,2.054l-1.027-2.67c1.78,1.438,3.39,2.191,4.828,2.26
		c0.959-0.206,1.575-0.616,1.849-1.233l-1.335,0.412c-0.479,0-0.891-0.172-1.232-0.515c1.575-0.41,2.602-1.677,3.082-3.8
		c0.137-2.26-0.342-4.555-1.438-6.883l-4.211-5.752l-2.568-4.931c-0.616-1.986-0.479-3.767,0.411-5.342l1.644-1.232l2.054-0.104
		c0.753,0.274,1.198,0.686,1.335,1.233c-0.342,0.753-0.479,1.712-0.411,2.876c0,1.302,0.24,2.26,0.719,2.876
		c-0.069-0.548,0.068-1.027,0.411-1.438l0.206,1.849c0.137,0.616,0.513,1.062,1.13,1.336c-0.138-0.138-0.172-0.343-0.103-0.617
		l0.411-0.514l0.616,2.26c0.342,1.576,0.822,2.466,1.438,2.671c-0.274-0.616-0.308-1.746-0.103-3.39
		c0.205-1.506,0.137-2.362-0.206-2.567c-0.274-0.206-0.445-0.479-0.514-0.822L127.219,46.108z M122.494,38.918l3.39,1.335
		c1.095,0.959,1.78,2.021,2.054,3.185c0.274,0.753,0.308,1.918,0.103,3.492c0.616,0.686,0.891,1.609,0.822,2.774l-0.411,3.184
		l0.103,0.822l0.513,0.925c-0.548,0.205-1.164,0.034-1.849-0.515c-1.164-0.616-1.712-1.849-1.644-3.697
		c-1.164-0.206-2.054-1.096-2.67-2.671c-0.754-1.644-0.891-3.321-0.411-5.033l-0.924-0.925c-1.233-0.273-2.089,0.24-2.568,1.541
		c-0.616,1.644-0.445,3.39,0.513,5.238l2.876,4.623c3.493,3.972,5.033,7.909,4.623,11.812c-0.137,1.575-0.719,2.774-1.747,3.596
		l1.747-0.925c0.137,0.686-0.103,1.37-0.719,2.055c-0.479,0.548-1.062,0.992-1.746,1.336c-1.301,0.273-2.603,0.033-3.903-0.72
		l0.103,1.232c0.068,0.479,0.034,0.856-0.103,1.131l-1.952-2.056c-0.89-0.821-1.404-1.575-1.541-2.26l-0.822,0.925l-0.411-2.979
		c-0.616,1.644-0.753,3.32-0.411,5.033c0.412,1.712,1.199,3.149,2.363,4.314c0.342,0.753,0.376,1.712,0.103,2.876l-0.513,3.39
		l1.232-0.514l1.233,0.103l0.308-0.205l-0.103-0.514l0.617-1.746l1.746-0.616l1.541,0.616c0.479,0.548,0.719,1.13,0.719,1.746
		l-0.719,1.644c-0.411,0.41-0.924,0.616-1.541,0.616c-0.753,0-1.37-0.273-1.849-0.821l-0.206,0.103
		c0.068,0.616-0.206,1.027-0.822,1.232l-1.13,0.411h-1.13v0.205l1.13,5.342c-0.342-0.206-0.582-0.068-0.719,0.411l-0.719,1.335
		l-1.13,0.411v-0.719l-0.308-0.411l-0.616,0.514l-0.411,0.616c0.206,0.137,0.137,0.445-0.205,0.925l-1.336,1.129
		c-1.369,0.754-2.568,1.028-3.595,0.822l-1.746-0.308l-0.616-0.515v-0.103l2.362-3.902l0.309-0.309l0.822-0.309l1.541-0.821
		c0.684-1.028,1.027-2.5,1.027-4.417l-1.438-0.411c-0.753-0.274-0.993-0.753-0.719-1.438l-0.513-0.514
		c-0.548,0.206-0.994,0.034-1.336-0.514l-0.616-1.026c-0.342-0.617-0.274-1.097,0.206-1.438l-0.103-0.411l-1.027-1.027l-0.102-1.129
		l0.205-0.925l0.822-0.514l0.206-0.514l-1.747-2.055l-1.129-2.26l-1.13,0.719l-0.924,0.925l0.308,3.903l0.514,1.232v1.232
		c-0.685,0.891-1.781,1.541-3.288,1.952l-3.698,1.335L96.3,81.958c-0.548,0.479-0.822,1.13-0.822,1.952l-1.232-1.028
		c0,0.549-0.274,0.994-0.822,1.336c-0.068-0.89-0.479-1.301-1.232-1.232c-0.617,0.273-0.993,0.788-1.13,1.54
		c-0.138,0.822-0.788,1.336-1.952,1.541L87.26,86.17l-0.616-0.309l-0.308-0.514l-1.541-0.103L85,84.218l2.465-4.52l6.78-1.645
		c2.602-0.889,3.938-1.608,4.005-2.155c0.274-1.714-0.513-3.459-2.362-5.24c-1.37-3.354-1.472-5.89-0.308-7.601l7.293-2.773
		l1.027-1.028c-0.411-1.095-1.575-2.704-3.492-4.827l-2.774-2.876l-0.103-0.205l-1.335-0.515l-1.027,0.206l-1.232-0.308
		l-0.822-0.515l-0.103-0.924l0.103-0.206l-0.411-0.411c-0.617,0.069-1.027-0.205-1.233-0.821l-0.308-0.719l-1.438-0.206v0.925
		c0.822,1.438,1.815,2.26,2.979,2.466c0.685,0.273,0.993,0.855,0.924,1.746l1.952-0.206l1.13,1.336
		c0.617,0.959,0.924,1.712,0.924,2.26v1.232c0.206,0.822,0,1.438-0.616,1.85l-1.644-0.925L93.424,57.1
		c-0.617-0.274-1.062-0.787-1.335-1.541c-0.753-0.068-1.335-0.514-1.747-1.335l-1.232-1.85v0.206l0.411,1.438
		c0.616,2.191,0.924,4.383,0.924,6.574c0.068,4.177-0.616,8.081-2.054,11.71c-1.301,3.014-3.253,6.129-5.855,9.349l0.514,0.514
		c0.89,1.232-0.273,2.294-3.493,3.184c-2.054,0.548-4.348,1.541-6.882,2.979l-0.206,0.103l0.206,6.472
		c0,0.753-0.445,1.403-1.335,1.951l-3.288,0.72l-3.287-0.72c-1.027-0.548-1.541-1.232-1.541-2.054l0.103-8.321l-3.184-1.026
		l-1.028,0.513h-0.308l-1.13-0.513l-0.616-1.438c-1.849-1.233-3.561-2.808-5.136-4.726l-0.308,0.411l0.924,1.54
		c0.137,0.479,0.034,0.994-0.309,1.541l-0.205,0.309c0-0.206-0.24-0.445-0.72-0.719c-0.411-0.274-0.547-0.172-0.411,0.308v0.72
		l-0.103,0.616l-0.719,0.925c-0.068-0.343-0.856-0.788-2.363-1.336l-0.103,1.13l-1.027,1.13c-0.206-0.821-0.651-1.232-1.336-1.232
		l-2.157-0.104c-0.479-0.342-0.617-0.821-0.411-1.438l0.103-0.309l-0.205-0.103l-0.514,0.205l-0.616,1.233l-1.13-1.336l0.103-1.232
		l-0.411,0.514l-0.411,1.336l-1.951-1.644l-0.411-1.438c-0.479,0.342-0.582,0.891-0.308,1.644l-1.438-1.746l-0.103-1.232
		c-0.137-0.549-0.514-1.028-1.13-1.438l-1.541-1.132c-0.753-0.958-0.753-2.123,0-3.491c0.069-1.027-0.273-2.158-1.027-3.39
		c-0.274,1.849-0.924,3.218-1.952,4.108l-8.629,8.013c-0.273,1.438-0.273,2.431,0,2.979l1.233,2.26l1.541,1.438l1.746,0.103
		l1.849-0.411c0.548-0.137,0.993-0.034,1.335,0.309c0.342,0.342,0.376,0.615,0.103,0.821l0.616,0.206
		c0.479,0.205,0.753,0.479,0.822,0.822c0.274,0.615,0.274,1.3,0,2.054l-0.822-0.616l-1.13-0.103v0.41
		c0.411,0.274,0.479,0.787,0.206,1.541c-0.137,0.754-0.377,1.198-0.72,1.336c-0.137-0.549-0.444-0.891-0.924-1.028l-1.335,0.515
		c-0.617,0.068-0.89,0.342-0.822,0.821c0,0.685-0.308,1.096-0.924,1.233c0-0.411-0.377-0.822-1.13-1.233l-1.13-0.205l-1.027-0.514
		c-0.548,0.137-0.958,0.376-1.233,0.719l0.206,1.13l-1.335-0.411l-0.925-1.438l0.103-1.541c0.206-0.616,0.206-1.096,0-1.438
		c-0.343,0.136-0.548,0.582-0.616,1.335l-1.027-1.746l-0.411-2.158l-0.616,1.233c-0.616-1.164-0.959-2.568-1.027-4.212
		c0-1.644,0.308-3.013,0.924-4.108l-0.308-4.726c0.205-0.479,0.616-0.617,1.232-0.411c0.685,0.206,1.198,0.206,1.541,0
		c1.781-1.095,2.979-3.081,3.596-5.958c-0.822-0.342-1.37-0.787-1.644-1.335l-2.465,1.438l-2.671,0.925l0.411-1.13
		c-1.37,0.206-2.5-0.067-3.39-0.821L9.5,66.961l0.822,0.41l0.924,0.103c-0.958-1.574-1.198-3.423-0.719-5.546
		c0.411-1.713,1.232-3.425,2.465-5.137l4.726-6.266c1.712-2.328,2.534-4.554,2.465-6.677l-0.513-1.027L19.053,42l-1.027,0.103
		l-0.719,0.924v2.157c-0.068,0.754-0.513,1.575-1.335,2.466l-1.849,2.26l-0.309-1.13c-1.643,1.575-2.225,2.979-1.746,4.212
		l-0.308,0.103l-0.308-0.103c-1.506-2.329-1.575-4.76-0.206-7.294l0.617-1.849l1.438-2.466l3.493-2.055l3.492-0.205
		c1.781,0.891,2.671,2.877,2.671,5.958c0.068,1.644-0.856,3.869-2.774,6.677l-4.314,5.65l-2.157,3.8
		c-0.685,1.781-0.617,3.287,0.205,4.52c0.411,0.617,1.027,0.994,1.849,1.13c1.438-0.548,2.568-1.779,3.39-3.697l3.184-5.444
		c5.067-5.41,7.464-10.204,7.19-14.381v-0.103l-1.13-0.309l-0.822-0.821l1.232-0.822c0.411-0.479,0.719-1.369,0.925-2.671
		l-0.925,1.13l-2.054-0.103l0.822-1.746l-0.103-2.003c-0.009,1.089-0.488,1.722-1.438,1.9c0.342-0.686,0.273-1.575-0.206-2.671
		c-0.548-1.232-0.719-2.157-0.513-2.773c-0.206,0.137-0.342,0.205-0.411,0.205l-0.822-0.411c0.479-0.205,0.617-0.719,0.411-1.54
		c-0.206-1.096-0.069-1.952,0.411-2.568c-0.547,0-1.062-0.239-1.541-0.719l-0.719-1.438c0-1.302,0.685-2.328,2.055-3.082
		c-0.548-0.273-0.685-0.855-0.411-1.746c1.027-0.137,1.507-0.411,1.438-0.821c0.342,0.342,0.548,0.273,0.616-0.206l0.103-0.616
		h-0.103l-0.205-0.103l-0.103-0.309l-0.411-0.103l-0.103-0.205l0.103-0.205h0.103l-0.411-0.515l-0.514-0.102l-0.102-0.411v-0.104
		l-0.514-0.616l0.309-0.205l-0.309-0.205l-0.206,0.41c-0.137,0.137-0.273,0.069-0.411-0.205l0.206-0.411h0.103l-0.309-0.309
		l-0.206,0.206l-0.411-0.103l0.206-0.514h0.205l-0.205-0.411l-0.206,0.206l-0.308-0.206l0.103-0.411l0.309,0.104V14.47l0.103-0.411
		l-0.206,0.206l-0.308-0.206l0.103-0.41l0.411,0.103v0.103l0.205-0.514l-0.411-0.205l0.206-0.411l0.411,0.103v0.206l0.411-0.411
		l-0.308-0.205l0.206-0.411l0.411,0.205v0.308l0.411-0.205L24.6,12.21l0.205-0.411l0.411,0.103l-0.103,0.309h0.514l-0.206-0.103
		l0.206-0.411c0.205-0.068,0.342,0,0.411,0.205c0.068,0.206,0.034,0.343-0.103,0.411h0.616l-0.206-0.103l0.206-0.411l0.411,0.103
		v0.309l0.308-0.103v-0.103l-0.103-0.411l0.103-0.103l-0.719-0.206c-0.137,0.069-0.274,0-0.411-0.205l0.205-0.308l0.206-0.822V9.642
		l-0.206,0.104v-0.72l-0.514,0.514l-0.308-0.821h0.617L25.73,8.204l0.822-0.309v0.719l0.411-0.514l0.411,0.822L26.963,8.82
		l-0.206,0.103l0.411,0.411c0,0.068-0.068,0.103-0.205,0.103v0.103l0.205,0.206c0.274-0.138,0.514-0.034,0.719,0.308l0.411,0.205
		l-0.205,0.309l-0.308,0.719h0.205l0.308,0.309l0.309-0.103l-0.309-0.206l0.103-0.41l0.514,0.205v0.205l0.411-0.513l-0.411-0.104
		l0.103-0.411l0.514,0.104v0.205l0.308-0.411l-0.308-0.103l0.206-0.514l0.411,0.206V9.95l0.411-0.205l-0.206-0.206l0.206-0.41
		l0.411,0.205l-0.103,0.308h0.616l-0.206-0.103l0.206-0.514l0.411,0.206c0.069,0.205,0.035,0.342-0.103,0.41h-0.103l0.616,0.206
		l0.103-0.514c0.205-0.068,0.342,0,0.411,0.205c0.068,0.206,0.034,0.343-0.103,0.411h-0.103l0.308,0.411l0.206-0.309l0.411,0.103
		l-0.206,0.514h-0.205l0.205,0.411l0.206-0.205l0.411,0.205l-0.206,0.411h-0.308v0.514l0.103-0.104l0.514,0.104l-0.206,0.411
		l-0.411-0.104V12.21l-0.103,0.411h0.411v0.719l0.206,0.103l0.103,0.309l-0.103,0.514h-0.103l0.103,0.616l0.411,0.309l-0.205,0.308
		h-0.103l0.205,0.308l-0.205,0.206c0.547,0.137,0.753,0.377,0.616,0.719c0.342-0.137,0.719-0.445,1.13-0.925l1.233-0.41
		c-0.206,0.479-0.172,0.787,0.103,0.925l1.746-0.72l-0.205,1.13c0.068,0.137,0.205,0.206,0.411,0.206h0.513
		c0.617,0.41,1.062,1.026,1.336,1.849c0.205,0.891,0.171,1.644-0.103,2.26l1.335,0.411l1.027,1.232l-1.027,0.514l1.233,0.719
		c0.479,0.411,1.027,0.65,1.644,0.72c-0.411,0.616-0.959,0.89-1.644,0.821c0.479,0.343,0.993,1.37,1.541,3.082
		c0.548,1.438,1.13,2.123,1.746,2.055l-0.513,0.719c-0.343,0.342-0.65,0.445-0.925,0.308c0.411,1.233,1.096,1.678,2.055,1.336
		c0,0.342-0.206,0.719-0.617,1.13c-0.411,0.411-0.787,0.65-1.129,0.719l0.924,1.438c0.616,0.685,1.232,0.891,1.849,0.616
		l-0.308,0.925l-0.514,0.616l-0.513,0.309l0.206,0.308l0.616,0.103l4.212-1.335c1.78-0.616,3.526-0.616,5.238,0l0.411-0.309
		l-0.205-0.103c-0.89-0.137-1.473-0.65-1.746-1.541c-0.206-0.89,0.068-1.54,0.822-1.951v-0.104l-0.719-0.616l0.308-0.821
		c-0.479,0.068-0.822-0.137-1.027-0.616l0.102-0.719l0.514-0.515h0.103l-0.411-1.541h-0.103l-0.616-0.205l-0.411-0.719l-0.103-0.411
		l0.103-0.616l0.308-0.514l-0.616-1.746l0.822-0.309l-0.513-0.719c0,0.616-0.274,0.925-0.822,0.925
		c-0.616,0-0.924-0.309-0.924-0.925c0-0.548,0.308-0.821,0.924-0.821l0.514,0.205l-0.514-1.438
		c-0.205,0.342-0.514,0.513-0.924,0.513c-0.548,0-0.822-0.308-0.822-0.925c0-0.547,0.274-0.821,0.822-0.821l0.719,0.309v-1.541
		c-0.274,0.205-0.479,0.308-0.617,0.308c-0.548,0-0.822-0.308-0.822-0.924c0-0.548,0.274-0.822,0.822-0.822
		c0.411,0,0.685,0.171,0.822,0.514l0.103-0.41l0.411-0.72H53.67c-0.616,0-0.924-0.273-0.924-0.821l0.924-0.925
		c0.548,0,0.822,0.308,0.822,0.925v0.103l1.13-1.13c-0.548,0-0.822-0.274-0.822-0.822l0.822-0.924c0.616,0,0.925,0.308,0.925,0.924
		l-0.206,0.411l0.719-0.309l0.822-0.205l-0.616-0.821c0-0.548,0.274-0.822,0.822-0.822c0.616,0,0.925,0.274,0.925,0.822
		l-0.411,0.719l1.438,0.103l-0.205-0.514c0-0.616,0.274-0.925,0.821-0.925c0.617,0,0.924,0.309,0.924,0.925
		c0,0.411-0.171,0.686-0.513,0.822l1.13,0.514l-0.205-0.514c0-0.549,0.308-0.822,0.924-0.822c0.548,0,0.822,0.273,0.822,0.822
		c0,0.479-0.274,0.787-0.822,0.924l1.541,0.616l-0.206-0.411l0.924-0.924c0.548,0,0.822,0.308,0.822,0.924l-0.514,0.72h1.027v-0.205
		l0.206-1.13l0.513-0.206l-1.438-1.335h-0.103c-0.479,0-0.719-0.24-0.719-0.72l0.616-0.719c0.274-0.891,0.822-1.507,1.644-1.849
		l0.103-0.206l0.103-0.41l-0.103-0.104h-0.514l0.617-1.644c-0.822,0.069-1.37,0.274-1.644,0.616V6.252l1.747,0.72
		c-0.137-0.822-0.343-1.37-0.617-1.644h2.26l-0.514,1.026l-0.103,0.617c0.411,0,0.993-0.24,1.747-0.72v2.362l-1.027-0.514
		l-0.719-0.103l0.719,1.644h-0.616l-0.103,0.104l0.103,0.41l0.103,0.206c0.891,0.342,1.438,0.958,1.644,1.849l0.616,0.719
		c0,0.479-0.24,0.72-0.719,0.72h-0.103c-0.274,0.685-0.753,1.13-1.438,1.335l0.411,0.206c0.205,0.205,0.308,0.582,0.308,1.13v0.205
		h1.027l-0.616-0.72l0.924-0.924c0.548,0,0.821,0.308,0.821,0.924l-0.102,0.411l1.541-0.616l-0.924-0.924
		c0-0.549,0.308-0.822,0.924-0.822c0.548,0,0.822,0.273,0.822,0.822l-0.103,0.514l1.232-0.514l-0.616-0.822
		c0-0.616,0.274-0.925,0.822-0.925c0.616,0,0.924,0.309,0.924,0.925l-0.205,0.514l1.438-0.103l-0.411-0.719
		c0-0.548,0.274-0.822,0.822-0.822c0.617,0,0.924,0.274,0.924,0.822c0,0.41-0.205,0.685-0.616,0.821l0.719,0.205l0.719,0.309
		l-0.103-0.411c0-0.616,0.274-0.924,0.822-0.924c0.617,0,0.924,0.308,0.924,0.924c0,0.548-0.308,0.822-0.924,0.822l1.233,1.13
		v-0.103c0-0.617,0.273-0.925,0.822-0.925c0.616,0,0.925,0.308,0.925,0.925c0,0.548-0.309,0.821-0.925,0.821h-0.411l0.616,1.13
		l0.822-0.514c0.548,0,0.822,0.274,0.822,0.822c0,0.616-0.274,0.924-0.822,0.924c-0.205,0-0.411-0.103-0.616-0.308v1.541
		l0.616-0.309c0.548,0,0.822,0.274,0.822,0.821c0,0.617-0.274,0.925-0.822,0.925c-0.342,0-0.616-0.171-0.822-0.513l-0.616,1.438
		l0.616-0.205c0.548,0,0.822,0.273,0.822,0.821c0,0.616-0.274,0.925-0.822,0.925c-0.616,0-0.924-0.274-0.924-0.822L81.2,24.434
		l0.719,0.309l-0.514,1.849l0.309,0.514v1.027c-0.137,0.685-0.479,1.027-1.027,1.027h-0.103l-0.513,1.335l0.205,0.104
		c0.617,0.273,0.788,0.685,0.514,1.232l-0.822,0.514h-0.206l0.206,0.821l-0.616,0.616c0.753,0.479,1.027,1.131,0.822,1.952
		c-0.206,0.753-0.651,1.267-1.335,1.541l-0.616,0.205l0.616,0.205l0.822,0.72l6.369-4.52l1.952-0.206l2.055,0.514l1.747,1.541
		l1.335,1.746l0.924,0.103l0.206-0.308c-0.206-0.685,0.034-1.198,0.719-1.541l1.13-0.411l1.541,0.309l0.309-0.103v-0.104
		l0.411-1.027l1.027-0.41l1.027,0.41l0.411,1.027l0.411,0.104l0.616-1.131l-0.103-0.102v-0.617l0.206-0.41l0.411-0.104l0.411-1.027
		l1.438,0.411l-1.438,0.925l0.102,0.103l1.336-0.205l-1.13,1.849l-0.616-0.822h-0.103v0.515l0.513,0.821l0.411,0.205h0.925
		l0.205-0.308c0.342-0.137,0.479-0.343,0.411-0.616l-0.206-0.103l-0.308,0.308l-0.565,0.205c0.234-0.107,0.32-0.381,0.257-0.821
		c-0.137-0.343,0-0.582,0.411-0.719h0.514c0.274,0.137,0.376,0.548,0.308,1.232l0.514-1.232l1.13-0.925l0.206-0.104v0.309
		c0.137,0.548,0,0.993-0.411,1.336l-0.925,0.924l1.232-0.41l0.309,0.514l-0.411,0.616l-0.719,0.411l-0.103,0.205v-0.616l0.206-0.309
		l-0.308-0.103l-0.411,0.308v0.309l-0.103,0.206l0.308,0.924l1.952,0.103l0.103-0.308l-0.308-0.206l-1.027-0.103l1.438-1.541
		l0.206,0.822l0.411,0.411l0.206-1.438l2.054,1.438l-1.541,0.616l0.514,0.205l0.924,0.103l-1.438,1.541l-0.206-0.924l-0.308-0.206
		l-0.308,0.206c-0.205,0.821-0.034,1.369,0.514,1.643l0.924,0.206l0.308-0.206l0.616-0.514l-0.308-0.205l-0.309,0.205l-0.462,0.104
		c0.183-0.085,0.303-0.324,0.359-0.719l0.616-0.617l0.514,0.206c0.274,0.205,0.24,0.616-0.103,1.232l0.822-1.027l1.335-0.616
		l0.309-0.103h0.103l-0.206,0.308c0,0.548-0.239,0.959-0.719,1.232l-1.233,0.617c0.685-0.274,1.13-0.274,1.335,0l0.103,0.514
		c-0.069,0.41-0.274,0.616-0.617,0.616l-0.719,0.205l-0.205,0.103l0.411-0.924l-0.206-0.206l-0.411,0.309l-0.103,0.205l-0.309,0.205
		L110.989,42c0.616,0.547,1.198,0.685,1.747,0.41v-0.103l-1.027-0.411l1.849-1.335v1.232h0.103l0.719-1.438l0.719,1.232
		l-1.027,0.616l-0.103,0.308l-0.308,0.411h-0.822l-1.849,1.541c-0.616-1.37-2.123-3.014-4.52-4.931
		c-2.739-2.123-4.691-2.944-5.855-2.466l0.308-0.821l-0.308-0.103c-0.274,0.479-0.685,0.719-1.232,0.719
		c-0.342,0-0.685-0.137-1.027-0.411l-0.514,0.104c0,0.479-0.273,0.821-0.822,1.026l-1.13,0.411h-0.924l-0.411,0.411l-0.103,0.821
		l2.055,1.85l0.308-0.925l2.157-1.746l0.719-0.103l0.924-0.72l1.027,0.206c-0.411,0.753-1.062,1.232-1.952,1.438l-1.541,0.72
		L97.328,42l3.082-0.309l-1.233,0.719l-0.616,0.719l-10.683,0.309c-1.164,0.273-1.849,0.753-2.055,1.438l-0.205,1.232l0.205,1.13
		c1.918,1.575,3.527,3.493,4.828,5.753c0.069,0.616,0.514,1.095,1.335,1.438c0.891,0.343,1.37,0.822,1.438,1.438l1.746,0.309
		l1.541,0.821c-0.068-0.479-0.376-0.891-0.924-1.232l-1.336-0.72l1.13-0.205l1.13,0.308L96.3,54.224l-0.719-1.13l-1.13-0.411
		l-0.616,0.411l-0.514,0.103l-0.616-0.822l-0.309-1.026c-0.479-0.069-0.993-0.377-1.541-0.925l-1.335-1.438l-0.719-1.027
		l-0.308-1.335c0.616-0.822,1.575-0.959,2.876-0.411l7.19,1.438l2.26-0.103l1.438-1.644l-0.103,0.41l-0.308,0.411l-0.308,0.925
		c0,0.685-0.308,1.096-0.925,1.232l-1.335,0.103l-1.746-0.616c0,0.891,1.198,2.568,3.596,5.033c2.533,2.534,3.938,4.726,4.211,6.574
		l-0.205,1.849c-0.068,0.616,0.24,0.993,0.924,1.131c0.206-0.617,0.24-1.404,0.103-2.363l-0.411-2.054l0.719,0.615
		c1.096,1.576,1.267,3.082,0.513,4.521l-0.206,4.622c0.138,1.713,0.788,2.979,1.952,3.801l0.308-0.514
		c0.274-0.548,0.719-0.787,1.335-0.719l0.206-0.206c-0.342-0.41-0.342-0.821,0-1.231l0.616-1.028
		c0.342-0.479,0.822-0.65,1.438-0.513l0.309-0.412l0.102-1.438l0.822-0.924l1.027-0.411l0.206-0.309l-0.411-0.924l-0.822-3.391
		l0.103-0.103l1.335,2.567l0.205-0.615l0.206-0.411l-0.103-0.205c-0.343-1.027-1.062-2.192-2.157-3.493l-2.671-3.39
		c-2.534-4.246-2.945-7.841-1.232-10.785l0.719,1.129c-0.548,0.822-0.685,2.089-0.411,3.801c0.205,1.644,0.65,3.048,1.335,4.212
		v0.103h1.541l0.822,0.309l0.411,0.821l0.308,0.206l1.438,0.309l0.925,0.821c0.411,0.479,0.445,0.993,0.103,1.541l0.206,0.308h0.205
		c0.754,0,1.13,0.445,1.13,1.336v1.13c0,0.616-0.309,0.992-0.924,1.129l-0.103,0.515c0.479,0.41,0.616,0.855,0.411,1.335
		l-0.103,0.309l0.103,0.205c1.438,2.603,2.842,3.903,4.212,3.903c0.479,0,0.924-0.172,1.335-0.514l0.822-1.13
		c0.685-2.534-0.65-6.062-4.005-10.58c-3.424-4.589-4.726-8.492-3.904-11.711c0.342-1.712,1.404-2.944,3.184-3.697L122.494,38.918z"
		/>
	<path fill-rule="evenodd" fill="#188078" d="M57.882,56.483l-0.103-0.308l0.411,0.204C58.053,56.518,57.951,56.552,57.882,56.483z"
		/>
	<polygon fill-rule="evenodd" fill="#188078" points="59.32,50.833 59.114,51.039 59.012,50.628 	"/>
	<polygon fill-rule="evenodd" fill="#188078" points="59.936,51.348 59.731,51.039 60.142,51.142 	"/>
	<polygon fill-rule="evenodd" fill="#188078" points="59.114,51.348 59.012,51.348 59.114,51.244 59.217,51.244 59.628,51.45 
		59.731,51.45 59.731,51.553 59.525,51.45 59.525,51.655 59.32,51.655 59.32,52.066 59.114,52.271 59.012,51.964 59.217,51.655 
		59.114,51.45 	"/>
	<polygon fill-rule="evenodd" fill="#188078" points="58.704,56.791 58.499,56.483 59.012,56.586 	"/>
	<polygon fill-rule="evenodd" fill="#188078" points="57.882,56.688 57.985,56.688 58.396,56.895 58.499,56.997 58.499,57.1 
		58.396,56.997 58.396,57.1 58.19,57.202 58.19,57.613 57.882,57.818 57.882,57.202 58.087,57.202 57.882,56.997 57.985,56.895 
		57.882,56.895 	"/>
	<polygon fill-rule="evenodd" fill="#188078" points="61.888,45.595 61.991,45.389 62.402,45.492 62.402,45.697 62.299,45.595 
		62.299,45.697 62.094,45.8 62.196,45.903 62.196,46.108 61.888,46.313 61.786,45.903 61.888,45.8 61.991,45.8 	"/>
	<polygon fill-rule="evenodd" fill="#188078" points="62.504,45.389 62.402,45.184 62.916,45.287 	"/>
	<path fill-rule="evenodd" fill="#188078" d="M62.094,44.979c0,0.273-0.069,0.343-0.206,0.205l-0.103-0.411L62.094,44.979z"/>
</g>
</svg>
