<svg width="153" height="48" viewBox="0 0 153 48" fill="none" xmlns="http://www.w3.org/2000/svg">
<path d="M48.2905 26.1622H48.1475L47.79 25.233C47.933 25.0185 48.0403 24.6969 47.79 24.5182C47.4683 24.3752 46.5031 23.303 46.2528 24.0178C46.1456 24.0535 45.3948 24.0893 45.3233 24.2322C44.9658 23.6604 44.6799 23.0528 44.4296 22.4094C44.5726 21.6231 46.6103 20.6581 46.6103 20.6581C46.6103 20.6581 46.0383 19.8361 45.7881 19.3357C45.6808 19.5502 45.5736 19.4787 45.3591 19.5859C46.5031 17.5487 46.7533 14.9039 45.2161 12.9739C45.0731 12.6522 45.1446 12.1876 44.9658 11.8659C44.7156 11.5085 44.5369 10.8294 44.0721 10.7579C44.0721 11.3655 44.0006 11.9374 44.2866 12.5092C44.6084 12.9024 43.8576 13.224 43.6431 12.9024C44.0721 12.8666 44.1436 12.7594 44.0006 12.5092C42.1059 12.0803 41.0692 13.4027 39.2817 13.6172C39.1387 13.6172 38.9957 13.6887 38.8885 13.8316C37.7803 15.3328 40.2827 14.2963 40.4972 15.297C40.0682 15.6544 40.0324 15.4042 39.6392 15.297C39.0672 15.3328 38.531 15.4757 39.246 15.9761C38.817 16.6552 38.8527 16.8696 37.959 16.9411C38.3522 17.4772 38.245 18.2278 38.3522 18.8354C37.7445 18.9426 37.3155 19.2643 37.3155 19.9076C37.0295 19.9791 36.7435 19.8361 36.529 20.122C36.1358 19.8004 35.7068 19.7289 35.2421 19.7289C35.0276 19.5502 34.4556 19.157 33.8836 18.8711C33.9908 18.4422 34.0981 18.0133 34.2053 17.6559C34.3841 17.5487 34.9918 17.1555 35.1706 17.0483C35.0991 16.8696 34.7416 16.2263 34.6701 16.0476C35.7783 12.2233 36.1358 12.0089 36.7078 11.9374L36.7435 11.8301L34.7058 11.1868L34.6701 11.3298C35.1706 11.7229 35.3493 12.3305 35.1348 13.0811C34.5986 12.8309 34.2768 12.3305 34.3483 11.8659L34.2053 11.8301L33.5261 14.1176L33.6333 14.1533C33.9193 13.7602 34.3841 13.5457 34.9203 13.6172C34.2768 15.6544 31.4169 15.0111 31.9531 13.2955C32.3106 12.5807 33.0256 13.0453 32.6681 13.7959C34.2768 13.224 33.3116 10.9366 31.9531 12.2948C32.4179 11.3655 32.6681 10.6507 32.0961 9.72144C31.3454 10.1861 31.1666 11.0438 31.3096 12.1876C30.4159 10.1146 28.8072 12.259 30.0942 13.3313C29.8439 11.7944 31.7744 12.7952 30.4874 14.0461C29.2719 14.9039 27.7705 13.9031 27.699 12.402C28.4139 12.4735 28.9502 12.8666 29.0217 13.4027H29.1647L29.2362 10.7937H29.0932C28.9859 11.3298 28.4139 11.7587 27.699 11.7944C27.7347 11.0081 28.1995 10.3648 28.8072 10.2575V10.1146H25.8043V10.2575C26.412 10.3648 26.8767 10.9724 26.9125 11.7944C26.1975 11.7944 25.6255 11.3298 25.5183 10.7937H25.3753L25.4468 13.4027C25.4468 13.4027 25.554 13.4027 25.5898 13.4027C25.6613 12.8666 26.1975 12.4735 26.9125 12.402C26.8767 13.9389 25.3753 14.9396 24.124 14.0461C22.8371 12.7952 24.7318 11.7944 24.5173 13.3313C25.8043 12.259 24.2313 10.1146 23.3018 12.1876C23.4448 11.0438 23.2661 10.1861 22.5153 9.72144C21.9433 10.615 22.1936 11.3655 22.6583 12.2948C21.2999 10.9009 20.3346 13.224 21.9433 13.7959C21.6216 13.0453 22.3008 12.6164 22.6583 13.2955C23.1588 15.0111 20.2989 15.6544 19.6911 13.6172C20.2274 13.51 20.6921 13.7602 20.9781 14.1533L21.0854 14.1176L20.4061 11.8301L20.2631 11.8659C20.3346 12.3305 20.0129 12.8666 19.4766 13.0811C19.2264 12.3663 19.4051 11.7229 19.9414 11.3298L19.7984 11.1868L17.7607 11.8301L17.7964 11.9374C18.3684 12.0089 18.7259 12.2233 19.8341 16.0476C19.7269 16.2263 19.4051 16.8696 19.3336 17.0483C19.4766 17.1555 20.1201 17.5487 20.2989 17.6559C20.4061 18.0133 20.5134 18.3707 20.5849 18.7639C17.8322 20.0505 18.4399 20.9441 16.3307 20.6939C16.152 21.1228 15.9732 21.5874 15.5442 21.8733C15.4727 21.1943 15.151 20.6939 14.7577 20.1935C14.579 19.9791 14.293 20.2293 14.007 20.2293C13.435 21.4802 13.0418 20.3365 12.0051 21.0156C12.0408 21.5874 12.148 22.195 12.4698 22.7311C11.7191 22.6954 11.0756 22.4809 10.5751 22.1235C8.32288 24.6611 5.96343 27.0558 4.03297 29.8435C2.99624 31.2017 0.243553 30.4154 0.958537 28.5211C1.28028 27.163 3.28224 27.4489 3.13924 28.8071C4.10447 27.7348 3.49673 26.6269 1.99527 26.8771C3.35374 26.2695 4.17597 27.4132 5.42719 25.8763C4.49771 25.9121 3.67548 25.5904 2.746 25.8048C3.92572 25.09 5.57019 26.1622 6.60692 24.1965C5.71319 24.3037 4.9267 24.6611 3.99722 24.8041C9.5026 19.5502 4.21172 19.3 4.89095 17.0126C4.46196 17.37 4.21172 17.7274 4.42621 18.2278C3.17499 17.7274 1.35178 17.8704 0.851289 16.3692C0.744042 18.5137 1.67352 18.335 3.28224 18.7996C2.5315 18.7281 1.81652 18.6924 1.10153 18.4422C1.24453 19.4072 1.95952 19.6217 2.8175 19.5144C1.99527 19.9791 2.17401 21.1585 3.03199 21.5874C2.49575 18.478 7.10741 19.5502 4.9982 22.4094C4.03297 23.8748 2.603 24.947 1.38753 26.2337C1.17303 25.8406 0.922788 25.4474 0.422299 25.5189C1.31603 26.5554 0.315051 27.6991 0.0648065 28.8071C-0.292686 30.1295 0.887038 31.2732 2.17401 31.4519C1.67352 32.0595 1.63777 32.5956 2.03101 33.0602C2.42426 31.0945 5.24845 31.5234 5.53444 29.4147C5.57019 29.1645 5.71318 28.9858 5.99918 28.8428C4.71221 30.3082 7.78664 33.3819 4.89095 33.7393C4.46196 33.7393 4.39046 34.2039 4.60496 34.4899C3.38949 34.4184 3.06774 34.883 2.889 36.0267C3.42523 35.8838 3.92572 35.7765 4.39046 35.6336C3.85423 36.9917 2.6745 35.5621 2.889 37.9925C3.38948 37.778 3.81848 37.5278 4.28322 37.2419C4.71221 38.6001 2.10251 38.0282 4.06872 40.2084C4.17597 39.8153 4.71221 38.9575 4.9982 38.7788C4.74796 39.4578 4.81945 40.2441 5.57019 40.5658C5.60594 40.3871 5.64169 40.2084 5.67744 40.0654C5.71319 40.0654 5.71318 40.0654 5.74893 40.0654C5.85618 40.5301 5.89193 41.1377 6.32092 41.4236C6.46392 41.4951 6.53542 41.5666 6.60692 41.7095C6.67841 41.9597 6.92866 42.0312 7.14315 42.0669C7.42915 42.1384 7.50065 41.8167 7.71514 41.6738C7.78664 42.0312 8.21563 42.1027 8.39438 42.3886C8.53737 40.6016 6.21368 41.2449 6.74991 40.1012C6.96441 40.816 7.60789 40.673 8.10838 40.959C8.28713 41.2449 8.71612 41.4951 8.96636 41.1019C9.18086 41.2806 9.39536 41.4236 9.5741 41.5666C9.10936 39.4578 8.03689 40.7803 7.3219 39.6723C7.78664 39.708 8.32288 40.3871 8.82337 39.9225C9.10936 40.2084 9.32386 40.5301 9.53835 40.8875C9.60985 40.2084 9.35961 39.708 8.85912 39.3149C8.25138 38.9575 7.4649 39.6008 6.92866 38.886C6.21368 38.0282 6.24942 36.813 6.60692 35.8123C6.92866 35.0617 7.85814 34.7401 8.28713 34.0252C8.17988 34.6686 8.21563 35.7765 8.96636 35.991C8.78762 34.8115 9.6456 33.7393 9.82435 32.5599C10.0388 32.2739 10.0388 32.0595 9.8601 31.7378C9.5026 31.1302 9.39536 30.4154 9.00212 29.8435C8.39438 28.9858 7.6079 28.95 8.89487 28.0208C8.14413 29.2002 8.75187 28.7713 9.43111 29.8793C9.53835 29.4861 10.1103 29.0215 9.39536 29.0215C8.28713 28.4854 10.8611 27.0558 11.4331 27.02C12.0051 26.9843 12.7915 27.0558 13.2205 26.4839C12.9345 25.9835 12.6843 25.9121 13.149 25.3759C12.8273 25.1972 12.577 24.9828 12.5055 24.5539C12.2195 24.6611 11.9336 24.7326 11.6476 24.8398C11.9336 24.5182 12.7558 23.8748 12.8273 24.5896C12.863 24.9828 13.2563 25.0543 13.5423 25.1615C13.3278 25.4832 12.9345 25.8048 13.292 26.198C13.5423 26.4482 13.6853 26.9128 14.0428 26.9843C14.15 26.6269 14.2215 26.2695 14.3288 25.9121C15.151 26.7698 13.5065 27.2345 15.723 27.985C15.6515 27.5204 15.58 27.0915 15.6157 26.5911C16.6882 27.4847 15.151 28.0565 17.6177 28.3424C17.3317 28.0208 17.2959 27.6634 17.1887 27.3059C17.6177 27.3774 17.9394 27.7706 18.1897 28.0565C18.4399 28.4497 18.6187 28.6641 19.2264 28.271C19.2621 28.3424 19.2621 28.4139 19.2979 28.4854C19.5481 28.6998 19.4409 28.9143 19.4409 29.2002H19.5124C19.8699 28.8428 19.8699 28.4497 19.7626 28.0208C19.5124 27.1987 18.5114 27.8421 18.1897 27.02C18.6544 27.3417 19.1192 27.5204 19.6554 27.2702C19.9414 27.5561 20.0486 27.7348 20.1916 28.128C20.4419 27.2345 20.1559 26.3409 19.2264 26.6269C18.9404 26.7341 18.8332 26.6984 18.5114 26.4482C18.9404 26.5911 19.2264 26.3767 19.5124 26.1622C19.5839 26.2337 19.6196 26.3409 19.6554 26.3409C19.9056 26.3409 20.0844 26.5196 20.2631 26.6984C20.3346 25.9478 19.5839 25.3402 18.8332 25.5189C18.6544 26.4482 17.8679 25.9121 17.2602 25.8048C16.2235 25.1258 15.723 24.0535 14.865 23.3745C14.9365 22.338 14.0785 21.5159 13.0418 21.5874C13.9713 21.1943 15.0795 21.9806 15.151 22.9456C15.1867 23.3387 15.437 23.5889 15.6872 23.9106C18.8332 17.5487 29.0574 15.9046 34.8846 19.9433C35.385 20.408 35.9213 20.7654 36.4575 21.2657C36.672 20.6581 36.529 19.9433 37.4585 20.3007L37.6373 20.1935C37.4585 19.6931 37.8517 19.0855 38.388 19.0498V19.4072C38.1377 19.443 37.959 19.6574 37.9947 19.9076C38.1735 19.8718 38.3522 20.122 38.245 20.265C38.4237 20.3722 38.6382 20.3365 38.7812 20.1935C38.9242 20.1935 39.0672 20.2293 39.246 20.2293C39.0315 20.7296 38.3165 20.8726 37.9232 20.5152C37.9947 20.6224 37.6373 21.6946 37.6373 21.8376C37.6015 21.9806 37.4585 22.0878 37.2798 22.0878C37.3513 22.195 37.387 22.2665 37.4585 22.3737C37.7088 22.2307 38.0662 22.2307 38.0305 21.8733C38.0662 21.6589 37.959 20.7296 38.245 20.8011C38.3522 21.1585 38.1377 21.5874 38.4237 21.9448C39.2817 21.7304 38.8885 20.9798 39.9252 20.7654C40.3184 20.7296 41.1764 20.5152 41.3909 20.9441C40.4972 20.6939 39.3532 20.9441 39.1387 21.9806C38.2092 22.195 37.4228 22.8741 36.4218 22.8741C35.6353 22.9098 35.4208 23.8748 35.3851 24.5182C35.2421 25.2687 35.2063 26.0193 34.8846 26.7341C34.7058 26.9843 34.8488 27.3059 34.9561 27.5561C35.2421 27.6991 35.4566 28.7713 35.528 29.1287C35.528 29.8078 36.7078 30.0223 37.1725 30.4511C37.3155 29.5934 35.671 29.8436 35.9213 28.6284C36.2073 29.4147 36.8508 29.5934 37.53 29.9865C37.3155 29.2002 37.244 27.8421 36.1358 28.0208C35.7068 27.4132 36.3503 27.3774 36.1358 26.6626C36.4575 26.7698 36.6005 26.8771 36.7078 27.0558C36.6005 27.02 36.529 26.9843 36.386 26.9485C36.4218 27.4489 36.8508 27.5919 37.2083 27.9135C37.1368 27.0915 37.0653 26.5554 36.3145 26.1622C35.8855 25.7691 36.386 24.8398 36.3503 24.3037C36.3503 24.125 37.387 23.6246 37.53 23.6604C38.3165 23.7676 39.103 23.6246 39.8537 23.8391C40.6044 24.0893 39.961 22.4452 41.1764 23.303C40.2827 23.0528 40.8189 24.0178 40.2112 24.0535C39.7822 24.0535 39.389 24.0178 38.9242 24.0178C40.4972 27.5561 44.0364 26.5196 45.0016 29.6648C45.8238 28.95 45.2518 28.95 45.0373 28.1995C46.8606 29.4147 43.3214 30.8443 44.6441 32.9887C44.5726 32.7386 45.3948 31.7378 45.5021 31.5591C45.6451 31.3447 45.8953 31.3089 46.0741 31.4876L46.3243 30.9515C45.8238 30.6656 46.7176 29.5219 46.7891 29.2002C46.8963 28.9858 47.0751 28.9143 47.2538 28.9858L47.504 28.3067C47.0393 28.1637 47.3968 27.0558 47.361 26.7341C46.7176 26.1265 46.1813 25.4117 45.6451 24.6969L45.9668 24.6611C45.9311 24.8041 46.0026 24.9828 46.1098 25.09C46.3243 25.1615 47.1823 26.0193 47.4683 25.8048L47.6113 26.1622C47.3968 26.2337 47.361 26.5196 47.361 26.7341C47.4683 26.8413 47.6113 26.9128 47.7185 27.02C47.7185 26.9485 47.7185 26.6269 47.79 26.5554C47.8973 26.6984 48.076 26.6984 48.1833 26.5911C48.2905 26.6626 48.1475 27.3774 48.1833 27.4847C48.3263 27.6276 48.4335 27.7706 48.5408 27.9135C48.4693 27.5204 48.8625 26.2337 48.2905 26.1622ZM39.0672 14.2248C39.1745 14.2248 39.2817 14.189 39.4247 14.189C39.2102 14.0103 39.4247 13.7959 39.6035 13.9389C40.0682 14.2963 39.1387 14.9039 39.0672 14.2248ZM20.6921 17.5844L19.7269 16.9768L20.2274 15.9403L21.6216 16.4407L20.6921 17.5844ZM23.838 16.7624C22.3366 17.0841 22.0148 15.4042 23.5163 15.1183C25.0535 14.8324 25.3753 16.5122 23.838 16.7624ZM27.27 16.6552L25.7685 15.6187L27.27 14.5822L28.7714 15.6187L27.27 16.6552ZM32.0246 16.1905C31.8459 17.2628 29.4507 16.7981 29.7009 15.7259C29.8439 14.6537 32.2391 15.1183 32.0246 16.1905ZM32.9184 16.405L34.3126 15.9046L34.8131 16.9411L33.8478 17.5487L32.9184 16.405ZM44.3939 11.5442C44.6799 11.8301 44.7871 12.1876 44.7871 12.545C44.5011 12.4377 44.3939 12.1518 44.3939 11.5442ZM43.1426 13.51C42.7851 13.7602 42.4277 14.1176 42.0702 13.6172C41.9987 13.6172 41.9272 13.6529 41.8199 13.6529C42.3562 12.8309 42.3204 12.9739 43.1426 13.51ZM40.0682 16.6194C40.3184 16.6909 40.5329 16.8339 40.7832 16.5837C40.5329 16.5837 40.4614 16.405 40.3899 16.262C40.2827 15.44 41.6054 15.7259 42.1059 15.7974C43.3571 16.5479 45.4663 16.0833 44.7514 14.2605C45.3233 14.6179 45.1446 15.6187 44.6799 15.9761C43.5359 16.5837 42.4277 16.1191 41.2837 17.3342C41.1049 16.7624 40.4614 16.7981 40.2112 17.4057C39.9967 17.4057 39.9252 17.4057 39.7107 17.4415C39.675 17.1555 39.961 16.9411 40.0682 16.6194ZM44.3939 21.9806C44.3581 22.052 44.2509 22.195 44.2509 22.195C43.2856 21.087 40.0682 19.8361 38.674 20.0506C38.674 20.0506 38.674 19.8718 38.7097 19.8004L39.246 19.4787L38.7812 19.0855C38.7812 19.0498 38.4952 17.1913 38.4952 17.1913L39.2817 17.1555C39.2817 17.1555 38.9957 17.4772 38.9957 17.7631C39.0315 17.7989 39.0672 17.8346 39.103 17.9061C39.246 17.8346 39.4247 17.5129 39.4247 17.5129L39.4962 18.5852C39.4962 18.5852 39.2817 18.2635 39.103 18.2278C39.103 18.2635 39.0672 18.2992 39.0315 18.335C39.246 19.0498 40.3184 19.0855 40.3184 18.478C40.2827 18.1563 39.9252 18.192 39.961 18.5494C39.389 18.0848 40.1754 17.37 40.4972 18.0848C40.4614 17.6559 40.4972 17.4057 40.8189 17.227C41.0334 17.5129 40.9977 17.7631 40.7832 18.1563C41.4982 17.5129 41.7484 18.6209 41.1049 18.7639C41.4267 18.192 40.4972 18.3707 40.8547 18.9783C41.1764 19.443 41.9272 19.3715 42.2132 18.8711C42.1774 18.8354 42.1774 18.7996 42.1774 18.7639C41.9272 18.7281 41.4982 18.9426 41.4982 18.9426L41.8557 17.9418C41.8557 17.9418 41.9987 18.3707 42.2489 18.5137C42.2847 18.478 42.3562 18.4422 42.3919 18.4422C42.4277 18.192 42.1774 17.7631 42.1774 17.7631L43.3929 18.2278C43.3929 18.2278 42.8924 18.335 42.7494 18.5852C42.7851 18.6209 42.7851 18.6924 42.7851 18.7281C43.0354 18.7639 43.4644 18.5852 43.4644 18.5852L43.0354 19.5502C43.0354 19.5502 42.8924 19.1213 42.6779 18.9783C42.6421 19.0141 42.6064 19.0141 42.5706 19.0141C42.3919 19.5859 42.8924 20.122 43.4644 19.9791C44.1436 19.7646 43.6074 19.0141 43.4286 19.6574C43.0711 19.0855 44.0364 18.478 44.1079 19.4072C44.2151 18.9426 44.3939 18.7281 44.7514 18.6924C44.8586 19.0498 44.7156 19.2643 44.3581 19.5502C45.1088 19.2285 45.1446 20.3007 44.4296 20.2293C44.6799 19.9791 44.4654 19.7289 44.2151 19.9433C43.7861 20.408 44.6084 21.0513 45.2518 20.7296C45.2518 20.6939 45.2518 20.6581 45.2876 20.6224C45.1446 20.5152 44.7514 20.5152 44.7514 20.5152L45.5378 19.9433C45.5378 19.9433 45.4306 20.3007 45.5021 20.4794C45.5736 20.4794 45.6093 20.4794 45.6808 20.5152C45.8596 20.3365 45.8596 19.8718 45.8596 19.8718L46.4316 20.6224C46.4316 20.6224 44.9658 21.3015 44.6799 21.5159L44.2866 21.4802L44.3939 21.9806ZM47.5755 24.9828C47.3968 24.9828 47.2538 25.1258 47.2895 25.3402C47.2538 25.3402 47.2538 25.3402 47.2538 25.3045L46.3958 24.6969C46.3243 24.6611 46.3243 24.5896 46.3601 24.5182C46.5388 24.5182 46.6818 24.4109 46.6818 24.2322C46.7176 24.3395 47.647 24.8398 47.5755 24.9828Z" fill="#0B0C0C"/>
<path d="M37.1371 20.7656C37.0655 20.6941 37.0655 20.5869 37.1013 20.4797C36.9939 20.444 36.8149 21.4447 36.7791 21.4804C36.8507 21.5519 36.9223 21.6234 36.9581 21.6949C37.0655 21.7306 37.2087 21.7664 37.2445 21.6234L37.4593 20.7656C37.3877 20.8728 37.2087 20.9086 37.1371 20.7656Z" fill="#0B0C0C"/>
<path d="M24.1235 45.1051C21.6925 44.1401 19.9051 46.499 21.907 46.8921C19.7263 46.9994 20.1553 43.8899 19.2258 44.1044C20.0123 44.9621 20.0123 46.5347 20.763 46.9994C22.2288 47.607 23.766 47.7142 25.3389 47.6427C24.5525 46.9279 24.338 46.0701 24.1235 45.1051Z" fill="#0B0C0C"/>
<path d="M31.5955 46.8923C33.5975 46.4991 31.81 44.1402 29.379 45.1052C29.1646 46.0345 28.9858 46.928 28.1636 47.6428C29.7365 47.7143 31.2738 47.6071 32.7395 46.9995C33.4545 46.5706 33.4545 44.9623 34.2767 44.1045C33.3472 43.89 33.7762 46.9637 31.5955 46.8923Z" fill="#0B0C0C"/>
<path d="M47.6111 27.7709C47.6111 27.8067 47.6111 27.8781 47.6468 27.8781C47.754 27.7709 47.9328 27.8067 48.0042 27.9496C48.1472 27.9139 48.0757 27.5207 48.1115 27.4135C47.9685 27.2705 47.8255 27.0918 47.6468 26.9846L47.6111 27.7709Z" fill="#0B0C0C"/>
<path d="M47.0035 30.7016C47.0035 30.5943 47.6469 29.5578 47.4682 29.4864C47.3609 29.5221 47.2179 29.4506 47.1822 29.3434C47.0392 29.2719 46.646 30.3799 46.5745 30.4514C46.7532 30.3441 47.0035 30.5229 46.9677 30.773C46.9677 30.7373 47.0035 30.7016 47.0035 30.7016Z" fill="#0B0C0C"/>
<path d="M54.0104 25.9837C53.51 26.1267 53.2955 26.5556 53.081 27.056C51.794 25.0545 49.363 23.6606 48.9698 21.2302C49.2558 19.2644 51.8655 19.7291 51.3293 21.7663C52.6877 21.0515 52.0085 19.6933 50.7573 19.4432C52.1515 19.5504 52.9022 20.7298 53.8317 18.7641C53.0095 19.05 51.7582 18.8356 51.3293 18.7998C53.0452 18.5496 53.9747 18.5854 53.9389 16.4409C53.367 17.7276 51.7225 17.7276 50.5428 18.1565C50.6143 17.5846 50.4355 17.2272 49.9708 17.0485C50.4355 20.158 44.5369 19.1572 51.0075 25.8765C50.221 25.4476 49.2915 25.5906 48.5051 25.0902C49.1128 26.6986 50.1138 26.4126 51.4365 26.9845C50.0065 26.9845 49.5775 28.3784 50.6143 29.0217C50.3283 27.9495 51.8297 27.1989 52.5447 28.0567C54.2249 30.2369 51.1505 33.2391 48.3978 27.8065C48.4336 28.0924 48.2191 28.3784 47.9331 28.2712L47.6113 29.1289C48.2548 29.3791 47.2896 30.5586 47.2181 30.916C47.1108 31.1662 46.8606 31.2019 46.6819 31.0947L46.3959 31.738C46.7891 32.0954 45.7524 33.0604 45.6451 33.3821C45.5379 33.5608 45.3234 33.6323 45.1804 33.5251L45.0731 33.7395C45.1089 33.7752 45.1089 33.7752 45.1089 33.7752C45.7881 34.5973 46.1099 35.2406 45.9311 36.0984C46.5031 35.6338 46.7534 34.2756 46.2886 33.5608C46.7891 34.0969 47.5398 34.4543 47.8258 35.1334C48.1118 36.3486 47.8973 37.5995 47.0751 38.5645C46.7176 38.9219 46.8249 39.1006 46.7534 39.5295C46.5031 40.2086 45.6809 40.2801 45.3591 40.8519C45.1446 41.3523 44.7871 41.7812 44.6084 42.3173C45.5379 42.1744 45.3949 40.8519 46.2886 40.6018C45.9311 41.1379 45.5736 41.6382 45.3234 42.2816C46.0741 42.1029 47.4683 41.8884 47.2538 40.8519C47.0751 40.3516 47.5398 40.0656 47.5398 39.601C48.1118 39.3866 48.0046 39.1364 48.2906 38.7075C48.4336 38.9934 48.4336 39.2079 48.3978 39.5295C48.3263 39.3866 48.2906 39.2793 48.2191 39.1721C47.7901 39.744 48.1476 40.2801 48.0761 40.8877C50.1495 39.0292 47.3968 39.0649 49.5418 34.9904C50.0423 34.1684 48.1476 34.2756 48.0046 32.4171C47.8616 31.6308 48.5766 30.9875 48.7196 30.2012C49.5418 31.6665 52.4017 31.6308 52.0085 33.4893C52.5805 33.0604 52.5447 32.2384 52.3302 31.6665C55.3689 30.6658 53.0452 27.9137 54.0104 25.9837Z" fill="#0B0C0C"/>
<path d="M45.18 33.0248C45.2515 33.0605 45.2873 33.0963 45.323 33.1678C45.3588 33.1678 45.4303 33.1678 45.466 33.0963C45.5018 33.0248 46.2168 32.0598 46.1453 31.9883C46.0738 31.9526 46.0023 31.9168 45.9665 31.8096C45.895 31.7381 45.7878 31.7024 45.7163 31.8096C45.6805 31.9168 44.894 32.8461 45.0728 32.9533C45.1085 32.9891 45.1443 32.9891 45.18 33.0248Z" fill="#0B0C0C"/>
<path d="M44.751 33.2034C44.751 33.2391 44.7867 33.2391 44.7867 33.2749V33.2391L44.751 33.2034Z" fill="#0B0C0C"/>
<path d="M16.0802 37.3494C16.3662 37.3851 16.7236 37.4566 17.0096 37.3136C16.5449 36.5631 16.1159 35.8125 15.6512 35.0262C14.8647 35.9912 13.4705 35.4194 12.6125 34.8118C11.8975 34.2757 13.4347 33.4894 12.9342 31.7381C13.6135 32.846 12.3622 33.7753 14.2927 34.3829C13.7565 33.5608 13.828 32.4886 13.6135 31.5593C13.5777 31.3806 13.5062 31.2377 13.6492 31.059C13.7207 30.8445 13.7207 30.5229 13.4347 30.4871C11.2898 29.2719 11.7188 29.8438 9.6453 29.5579C9.14481 30.4514 10.2173 31.2734 10.0385 32.1312C9.89554 32.5601 10.539 32.5601 10.539 32.9532C10.682 33.5966 10.6105 34.5258 9.8598 34.776C9.5023 34.9905 9.7883 35.4908 10.11 35.5981C9.46655 36.7775 9.96704 36.992 10.968 37.5638C10.968 37.0992 10.968 36.706 11.1825 36.3129C12.5767 37.2422 10.5033 37.3851 13.256 38.5288C12.97 38.0642 12.97 37.5638 12.9342 37.0992C13.1845 37.1707 13.4347 37.2064 13.7207 37.2779C14.0067 38.5646 14.7217 38.6718 15.9372 38.5646C15.5082 38.1357 15.3652 37.5638 15.0434 37.0992C15.4009 37.3136 15.7584 37.0634 16.0802 37.3494Z" fill="#0B0C0C"/>
<path d="M40.9618 30.2369C40.5685 30.3084 40.497 30.4514 40.5685 30.8088C40.1395 31.7023 40.1396 32.8103 39.4246 33.5966C40.9618 33.1677 40.64 32.5601 40.9975 31.3806C40.926 32.989 40.9975 32.9532 41.5695 34.0612C40.3898 34.8832 38.4236 34.2042 37.7801 35.8125C37.9588 36.027 38.2091 35.8125 38.4236 35.884C38.2806 36.0627 38.2091 36.2771 37.9588 36.4558C38.0303 36.3129 38.0303 36.2057 38.0661 36.0984C37.6014 35.9555 37.2439 36.9562 36.9221 37.3136C40.1038 36.6703 36.5289 35.741 42.8207 34.9905C43.929 34.4544 41.784 33.6323 43.9647 32.2742C44.1435 31.5236 44.2865 30.7373 44.6797 30.0582C44.787 29.8438 44.6082 29.5221 44.4295 29.3792C43.5 30.0582 43.0352 28.9503 40.9618 30.2369Z" fill="#0B0C0C"/>
<path d="M8.78736 17.1199C8.78736 16.9055 8.82311 16.691 8.82311 16.4766C8.57286 16.4409 8.35837 16.4051 8.10812 16.3694C8.39412 16.1549 8.75161 16.0834 9.0376 16.1907C8.78736 17.2272 9.21635 17.942 10.3246 18.0135C10.6463 17.5131 10.9681 17.4416 11.2898 17.799C9.82408 17.656 10.9323 19.1929 11.6473 18.6568C11.8618 18.3709 12.4695 18.1207 12.2908 17.7275C11.1468 16.8697 11.2183 18.1207 11.0038 16.0477C10.9681 16.0477 10.8966 16.0477 10.8608 16.0477C10.7536 16.4409 10.3603 16.7625 10.0386 16.3694C9.93133 16.2622 9.82408 16.1192 9.64534 16.0834C10.4318 15.4401 11.3613 16.3694 11.3256 14.8683C12.2193 15.9762 12.2908 14.761 13.1488 14.7253C13.113 15.5831 12.9343 15.5473 12.1835 15.4759C12.4338 15.6546 13.3633 16.5838 12.827 16.691C12.6125 16.1192 12.2193 15.5473 11.5758 15.4044C11.0396 15.9405 11.3256 16.5123 11.3971 17.1199C11.8618 16.977 12.255 16.6553 12.7555 16.691C12.9343 17.1557 12.1478 17.4416 12.5768 17.9062C13.3275 18.0135 14.1497 18.0492 13.8995 16.977C13.6493 16.834 13.399 16.7268 13.1488 17.0127C13.1488 16.5838 13.5778 16.5123 13.8637 16.6196C14.543 15.869 14.3285 14.904 13.5778 14.3321C13.7923 14.0462 13.971 13.8318 14.3285 13.7603C14.2212 14.0105 13.971 14.1177 13.8995 14.3321C14.0782 14.5466 14.2212 14.7253 14.3642 14.904C14.7575 14.7253 14.8647 14.1177 14.5787 13.4744C14.0782 13.6173 13.2203 14.0105 13.2203 14.0105C12.7913 13.8318 12.97 14.0462 13.0415 14.2607C11.683 14.5108 10.3603 14.8683 9.28785 15.7618C9.1091 15.9047 9.00185 15.8333 8.93035 15.5473C8.78736 15.3329 8.75161 15.6903 8.71586 15.7618C8.71586 15.7618 7.89363 15.9762 7.53613 16.2622C7.85788 16.691 8.21537 17.3344 8.78736 17.1199Z" fill="#0B0C0C"/>
<path d="M14.0783 16.7267C14.1855 17.3343 14.0425 17.8347 13.6135 18.3351C14.2213 19.4073 15.2222 20.2293 15.687 21.4088C16.688 19.5145 15.6155 18.9069 14.2213 17.8704C15.115 18.1921 16.0087 18.478 16.5092 19.3358C16.6165 17.7275 15.9015 16.9054 14.3285 16.6553C14.3285 16.6195 14.3285 16.6195 14.3285 16.5838C14.972 16.548 15.6155 16.548 16.2232 16.9412C16.0445 16.4408 15.6512 15.6903 15.0792 15.7617C15.2937 15.3328 15.2937 15.0112 15.0792 14.761C14.972 15.0827 14.7933 15.2614 14.4715 15.2614C14.5788 15.8332 14.4 16.2978 14.0783 16.7267Z" fill="#0B0C0C"/>
<path d="M9.10899 20.3725C9.28773 20.8372 9.57372 21.3376 10.0385 21.5163C9.78822 20.6227 10.396 19.8722 10.682 19.0501C10.682 20.9087 9.64522 21.9094 12.1834 22.5885C11.5042 21.5163 11.9689 20.1938 11.5399 19.0501C11.1467 18.8 10.682 18.7642 10.396 18.4068C10.3245 18.2281 10.1815 18.1924 10.0385 18.1566C9.57372 18.0494 9.10899 17.9064 8.89449 17.5133C8.537 17.6205 8.3225 17.6205 8.00076 17.4775C7.96501 17.8707 8.3225 18.2638 8.75149 18.1209C8.394 18.6212 8.6085 19.0859 8.71574 19.622C8.96599 19.0859 9.35923 18.7642 9.78822 18.514C9.43073 19.1216 8.85874 19.6935 9.10899 20.3725Z" fill="#0B0C0C"/>
<path d="M19.2978 39.2794C19.6553 38.9577 19.1905 38.779 18.976 38.5289C15.9016 35.6696 14.7576 31.9883 15.0436 27.8781C14.9721 27.8423 14.8649 27.8066 14.7219 27.7351C14.2214 32.0598 15.9016 36.4559 19.2978 39.2794Z" fill="#0B0C0C"/>
<path d="M46.6456 15.5833C46.3596 16.1551 47.1818 16.3696 47.2176 16.9057C47.0031 16.727 46.8243 16.584 46.6098 16.4053C46.3596 17.4418 47.5751 17.7634 47.9326 18.5855C48.433 17.0844 48.1471 16.1551 46.6456 15.5833Z" fill="#0B0C0C"/>
<path d="M13.0056 20.0507C12.1834 20.0864 12.3263 19.0857 12.0761 18.5138C11.9331 18.6926 11.7901 18.8355 11.6829 18.9785C11.8616 19.5503 12.0046 20.1222 12.1833 20.7298C12.3263 20.6226 12.4336 20.5511 12.5408 20.4796C13.1128 20.8727 13.6133 20.5868 13.8278 19.9792C14.0066 20.015 14.1496 20.0864 14.2568 19.9792C14.0066 19.4431 13.7206 18.907 13.4703 18.3709C13.2916 18.4066 13.1486 18.1922 12.9698 18.3709C13.1486 18.7998 13.8278 19.8005 13.0056 20.0507Z" fill="#0B0C0C"/>
<path d="M46.5028 13.0458C46.5028 13.0815 46.5028 13.0815 46.5028 13.1173C46.2526 13.1173 46.0023 13.0815 45.7163 13.0815C46.0023 14.0108 47.0748 13.5462 47.754 13.9751C47.3608 13.2245 47.0748 12.5097 46.1811 12.3667C46.2883 11.9378 46.1453 11.5089 45.8951 11.366C45.8951 11.7591 45.7521 12.045 45.3946 12.188C45.2158 12.9028 46.0023 12.8671 46.5028 13.0458Z" fill="#0B0C0C"/>
<path d="M46.2526 18.3351C46.2168 18.3351 46.2168 18.3351 46.1811 18.3351C46.0023 19.1572 46.5743 19.872 46.896 20.5511C47.5038 19.4788 47.468 18.2279 46.5028 17.3701C46.2168 17.942 46.6101 18.5138 46.7531 19.0499C46.7173 19.0499 46.7173 19.0499 46.6816 19.0857C46.5743 18.7998 46.4313 18.5853 46.2526 18.3351Z" fill="#0B0C0C"/>
<path d="M46.0381 13.7605C46.3956 14.5825 46.9318 14.4038 47.3251 14.9399C47.0033 14.8327 46.7531 14.7612 46.5028 14.654C46.5028 15.5475 47.611 15.619 48.2188 15.9764C48.0758 14.5468 47.3966 14.0107 46.0381 13.7605Z" fill="#0B0C0C"/>
<path d="M42.8205 12.2594C43.2138 12.2594 43.75 12.5096 44.0717 12.2951C44.0717 11.0799 42.606 11.2586 41.748 11.2229C41.9983 11.6518 42.32 12.0807 42.8205 12.2594Z" fill="#0B0C0C"/>
<path d="M38.6381 29.4863C38.3163 29.4505 38.0304 29.4505 37.6729 29.4148C37.6729 29.5935 37.7086 29.7007 37.7086 29.8437C37.8874 29.8794 38.0661 29.9152 38.2448 29.9866C38.2806 30.9874 37.7444 30.9874 36.9936 30.5942C36.7791 31.8452 38.8168 31.7022 38.6381 29.4863Z" fill="#0B0C0C"/>
<path d="M37.9228 25.4475C36.8146 26.8414 36.7789 27.0201 38.4948 27.6277C38.4948 27.4847 38.4591 27.3775 38.4591 27.2703C38.1373 27.1631 37.7798 27.0558 37.4938 26.8414C37.7083 26.5912 37.9228 26.341 38.1373 26.0551C38.0658 25.8764 37.9943 25.6977 37.9228 25.4475Z" fill="#0B0C0C"/>
<path d="M32.6678 20.444C32.8465 20.444 33.0253 20.4083 33.1683 20.4083C33.347 19.7292 32.9538 19.6577 32.5248 19.3003C32.3461 19.8721 31.8456 20.1223 31.5596 20.587C32.0243 20.5512 32.2746 20.4083 32.5248 20.0509C32.5963 20.1938 32.632 20.3368 32.6678 20.444Z" fill="#0B0C0C"/>
<path d="M35.2775 23.4818C35.4562 23.0529 36.2784 21.945 35.8137 21.6233C35.5992 21.7305 35.1702 21.6948 35.206 22.0164C35.206 22.5168 35.206 22.9814 35.206 23.4818C35.2417 23.4818 35.2417 23.4818 35.2775 23.4818Z" fill="#0B0C0C"/>
<path d="M43.6785 11.1154C43.6785 11.0797 43.7142 11.0797 43.7142 11.044C43.2495 10.3649 43.035 10.2219 42.177 10.2219C42.2485 11.044 43.0707 11.044 43.6785 11.1154Z" fill="#0B0C0C"/>
<path d="M41.5338 9.07838C41.498 9.65023 41.9985 10.0076 42.785 9.93616C42.6063 9.36431 42.1773 9.04264 41.5338 9.07838Z" fill="#0B0C0C"/>
<path d="M39.6387 15.1186C38.9953 14.797 38.459 15.1901 37.7798 15.0471C37.9943 15.9764 39.0668 15.2973 39.6387 15.1186Z" fill="#0B0C0C"/>
<path d="M40.8904 8.14896C41.0691 8.72081 41.2836 8.86378 41.8914 8.75655C41.7126 8.29192 41.3909 8.11322 40.8904 8.14896Z" fill="#0B0C0C"/>
<path d="M41.212 7.8632C40.9617 7.36283 40.8545 7.29135 40.354 7.36283C40.5685 7.82746 40.8902 8.00617 41.212 7.8632Z" fill="#0B0C0C"/>
<path d="M38.209 24.0536C38.352 24.3037 38.5307 24.5897 38.6737 24.8399C39.2815 24.8399 38.781 24.3395 38.638 24.125C38.5665 24.0536 38.3877 24.0536 38.2447 24.0178C38.2447 24.0178 38.2447 24.0178 38.209 24.0536Z" fill="#0B0C0C"/>
<path d="M36.493 24.7328C36.8148 24.5541 37.1365 24.4112 37.3868 24.1967C37.3153 24.0895 37.2795 24.018 37.208 23.9465C36.922 24.1967 36.3143 24.3039 36.493 24.7328Z" fill="#0B0C0C"/>
<path d="M40.4979 7.04093C40.5695 6.71926 40.1399 6.29037 39.8176 6.43334C39.8534 6.79074 40.2115 7.07667 40.4979 7.04093Z" fill="#0B0C0C"/>
<path d="M10.1459 12.438C10.3246 12.2951 10.0744 12.0091 9.89571 12.1878C9.75275 12.3665 10.0029 12.6167 10.1459 12.438Z" fill="#0B0C0C"/>
<path d="M10.3961 12.9024C10.5748 12.7594 10.3247 12.4735 10.146 12.6522C9.96725 12.8309 10.2174 13.0811 10.3961 12.9024Z" fill="#0B0C0C"/>
<path d="M9.21648 10.8296L8.82324 10.8654L9.03774 11.4015L9.32373 11.0798C9.32373 11.0798 9.35948 11.0798 9.35948 11.1155L9.39523 11.8304C9.46673 12.438 10.3962 12.0805 10.0387 11.5802L9.57398 11.0441C9.57398 11.0441 9.57398 11.0083 9.60973 11.0083L10.0387 11.0441L9.82422 10.4722L9.50248 10.7224C9.50248 10.7224 9.46673 10.7224 9.46673 10.6867L9.43098 10.1863C9.28798 10.222 9.03774 10.3292 8.93049 10.4007L9.25223 10.7939L9.21648 10.8296Z" fill="#0B0C0C"/>
<path d="M8.07241 13.5815C8.32259 13.5815 8.32259 13.1884 8.07241 13.1884C7.82222 13.1527 7.82222 13.5815 8.07241 13.5815Z" fill="#0B0C0C"/>
<path d="M8.03652 14.0819C8.2867 14.0819 8.2867 13.6887 8.03652 13.6887C7.78633 13.6887 7.78633 14.0819 8.03652 14.0819Z" fill="#0B0C0C"/>
<path d="M8.85878 12.3308C9.10897 12.3308 9.10897 11.9377 8.85878 11.9377C8.6086 11.9019 8.6086 12.3308 8.85878 12.3308Z" fill="#0B0C0C"/>
<path d="M8.25112 13.0814C8.5013 13.0814 8.5013 12.6882 8.25112 12.6882C8.00093 12.6882 8.00093 13.0814 8.25112 13.0814Z" fill="#0B0C0C"/>
<path d="M10.6465 13.5816C10.6465 13.3672 10.7895 12.974 10.7895 12.974C10.575 13.0455 10.1817 13.2242 9.96722 13.2957C9.96722 13.2957 10.3247 13.4744 10.4677 13.6174C10.289 13.6889 10.146 13.7246 9.89572 13.5816L10.2175 14.225C10.289 13.939 10.432 13.7961 10.5392 13.7603C10.8967 14.2965 10.0387 14.8683 9.64548 14.4037C9.53823 14.225 9.68123 14.0105 9.89572 14.1535C9.85997 13.7603 9.53823 13.7603 9.43098 14.0463C9.43098 13.6531 9.32373 13.4029 8.93049 13.2957C8.82324 13.6889 8.96624 13.939 9.35948 14.1178C9.14499 14.082 8.89474 14.2965 9.18074 14.5824C9.18074 14.3322 9.39523 14.2965 9.50248 14.4752C9.68123 14.9398 9.14499 15.1185 8.68025 14.6539C8.78749 14.6181 8.89474 14.6181 9.03774 14.6539L8.60875 14.1178C8.6445 14.2965 8.60875 14.4394 8.573 14.5466C8.46575 14.4394 8.46575 14.3322 8.39425 14.1535L8.07251 14.4394C8.39425 14.6181 8.75175 14.9398 9.18074 15.5474C9.75272 14.9755 12.0407 14.0105 12.9344 14.0463C12.8272 13.2957 12.8629 12.8311 12.9702 12.4737H12.5412C12.6484 12.6524 12.6842 12.7239 12.7199 12.8668C12.6484 12.8311 12.5412 12.7239 12.3982 12.5809L12.4697 13.26C12.5412 13.1527 12.6127 13.0455 12.7199 13.0098C12.7199 13.6531 12.1837 13.9033 12.0049 13.4387C11.9692 13.2242 12.1479 13.117 12.3267 13.2957C12.3624 12.8668 12.0407 12.9026 11.8977 13.0813C12.0764 12.6881 12.0049 12.4022 11.6474 12.1877C11.4329 12.5452 11.5044 12.7953 11.7904 13.0813C11.5044 12.9383 11.2542 13.1885 11.5044 13.4744C11.5402 13.2242 11.7904 13.26 11.8262 13.4744C11.8619 14.0463 10.861 14.225 10.7537 13.6174C10.861 13.5459 11.0754 13.5816 11.2899 13.7246L11.0754 13.1885C10.9682 13.4387 10.8252 13.5102 10.6465 13.5816Z" fill="#0B0C0C"/>
<path d="M21.407 34.9547C21.7288 35.1334 22.0505 35.3479 22.3723 35.4908C21.6215 36.4201 22.98 36.8132 22.9085 35.9197C23.409 36.1342 25.4467 36.7775 24.6245 35.5623C21.979 35.6338 20.6205 32.8817 22.0863 30.7373C22.98 31.1304 26.1259 29.6293 25.8399 31.1662C26.0187 31.3449 26.0544 31.3449 26.4119 31.3449C27.3057 29.2719 24.1955 29.8795 23.0872 30.1297C22.0863 30.4156 21.1568 28.9502 20.2988 29.7723C19.9413 30.094 20.1916 30.773 20.6563 30.8088C21.0853 30.8088 21.1925 30.2369 20.835 30.0582C21.6573 29.7723 21.264 31.0947 20.978 31.4521C20.0486 30.9517 19.8698 32.4886 20.7993 32.0954C20.835 32.3814 20.835 32.6316 20.7993 32.8817C19.7626 32.6673 20.0486 34.1327 20.7993 33.5251C21.0138 33.7395 21.121 34.0612 21.1568 34.3829C20.1201 34.4901 20.9423 35.8125 21.407 34.9547Z" fill="#0B0C0C"/>
<path d="M24.374 36.5273C24.3383 36.5273 24.3025 36.4916 24.231 36.4916C24.1595 36.6703 24.0523 37.0277 24.231 37.1707L25.089 37.5281L26.1972 36.706L26.4832 32.2742L26.1615 32.3099C26.09 32.3099 25.4823 37.4209 25.1605 37.1349C25.232 36.8133 25.947 32.3099 25.947 32.3099C25.947 32.3099 25.7325 32.2742 25.6253 32.2742C25.5895 32.3814 25.5895 32.5244 25.5895 32.5244L24.374 30.916L24.231 30.9875L25.5538 32.7031L25.4823 32.989C25.375 32.9175 24.088 31.1662 23.9808 30.9875L23.7305 30.9518L25.4108 33.1677L25.3035 33.4536L23.4088 30.9518H23.1586L25.232 33.6681L25.1248 34.0612L22.8726 30.9875H22.5866L25.089 34.2757L24.9818 34.5973L22.1576 31.0232L22.1218 31.3092C22.1218 31.3092 24.6958 34.7046 24.8388 34.919C24.6958 35.3479 24.803 35.3836 24.9818 35.7053C25.089 36.0627 24.8388 36.6703 24.374 36.5273Z" fill="#0B0C0C"/>
<path d="M24.6598 35.1335L22.0144 31.6309C22.0144 31.6309 21.9786 31.8096 21.9429 31.881C22.1574 32.1312 24.4811 35.2407 24.4811 35.2407L24.6598 35.1335Z" fill="#0B0C0C"/>
<path d="M21.9791 32.8103C22.5868 33.5966 23.1945 34.3829 23.7665 35.1692C23.838 35.1692 24.0168 35.205 24.0168 35.205L21.8718 32.3457C21.9076 32.3457 21.8718 32.6316 21.9791 32.8103Z" fill="#0B0C0C"/>
<path d="M26.5904 31.4878C26.3044 31.4521 25.9827 31.4164 25.6967 31.3806C25.1247 31.881 25.7682 32.1312 26.1972 32.0954C26.5547 32.2027 27.0194 31.738 26.5904 31.4878Z" fill="#0B0C0C"/>
<path d="M26.519 43.9969C26.4474 44.3901 27.0561 44.533 27.1277 44.1041C27.1993 43.711 26.5906 43.6038 26.519 43.9969Z" fill="#0B0C0C"/>
<path d="M27.0552 41.6382C27.1624 41.1378 26.376 40.9948 26.3045 41.4952C26.1972 41.9598 26.9837 42.1028 27.0552 41.6382Z" fill="#0B0C0C"/>
<path d="M24.4455 40.3159C24.5528 39.8155 23.7663 39.6726 23.6948 40.1729C23.5518 40.6376 24.3383 40.8163 24.4455 40.3159Z" fill="#0B0C0C"/>
<path d="M28.6637 45.105C28.3419 46.8563 27.5197 47.6784 26.7689 47.6784C26.0182 47.6784 25.1602 46.8921 24.8742 45.105C24.9815 45.1765 25.053 45.3195 25.1602 45.4624L25.339 45.6769L25.5535 45.5339C25.6607 45.4624 25.7322 45.4267 25.8395 45.3909C25.7322 45.6054 25.6965 45.8198 25.768 46.07C25.8752 46.6061 26.3042 46.9635 26.8047 46.9635C27.3052 46.9635 27.7342 46.6061 27.8414 46.07C27.8772 45.8198 27.8414 45.5696 27.7699 45.3909C27.8414 45.4267 27.9487 45.4624 28.0559 45.5339L28.2704 45.6769L28.4492 45.4624C28.4849 45.3195 28.5922 45.2122 28.6637 45.105ZM29.0569 44.6404C28.6279 44.6761 28.3777 44.9978 28.1632 45.2837C27.9487 45.1407 27.6984 45.0335 27.4482 45.0335C27.3052 45.0335 27.1979 45.0693 27.0549 45.1765C27.8772 45.4982 27.5554 46.7133 26.8047 46.7133C26.0182 46.7133 25.7322 45.4982 26.5544 45.1765C26.4472 45.0693 26.3042 45.0335 26.1612 45.0335C25.911 45.0335 25.625 45.1765 25.4462 45.2837C25.196 44.962 24.9815 44.6761 24.5525 44.6404C24.8027 46.8563 25.8037 48 26.8404 48C27.8772 48 28.8067 46.8563 29.0569 44.6404Z" fill="#0B0C0C"/>
<path d="M21.7645 38.779C22.0863 38.3859 20.9065 37.8498 20.7278 37.6353C20.5848 37.5639 20.4061 37.5638 20.3346 37.7068C20.0128 38.1 21.1568 38.6361 21.3355 38.8505C21.4785 38.922 21.6573 38.922 21.7645 38.779Z" fill="#0B0C0C"/>
<path d="M21.6214 39.6368C22.9441 39.6368 22.7653 37.5638 21.4784 37.7783C22.0861 38.0999 22.5866 38.9577 21.6571 39.2079C21.2996 39.2794 20.9421 38.8862 20.6919 38.7075C20.6919 39.2436 21.1209 39.6368 21.6214 39.6368Z" fill="#0B0C0C"/>
<path d="M19.7623 39.994C20.0483 40.5301 21.7285 42.0312 22.1932 41.3164C21.371 40.8875 19.9768 39.8867 20.513 38.5643C19.2975 37.8138 20.37 36.6343 21.2995 37.6351C22.3005 37.0275 23.4087 37.4564 24.4097 38.1354C24.7672 37.3849 23.0512 36.8488 22.658 36.5986C22.1575 36.4199 20.5488 36.7773 20.0125 36.813C19.655 36.8488 19.4048 37.1704 19.4048 37.5636C19.4763 37.9925 19.4763 39.6723 19.7623 39.994Z" fill="#0B0C0C"/>
<path d="M34.5625 10.7582L35.3132 11.0084C34.1335 8.54224 31.9885 6.68372 29.4146 6.00464C29.3431 6.18334 29.3073 6.36205 29.2358 6.54075C31.488 7.11261 33.4185 8.6852 34.5625 10.7582Z" fill="#0B0C0C"/>
<path d="M19.2258 11.0084L19.9766 10.7582C21.1205 8.6852 23.051 7.11261 25.3032 6.54075C25.2675 6.36205 25.196 6.1476 25.1245 6.00464C22.5505 6.64797 20.4056 8.5065 19.2258 11.0084Z" fill="#0B0C0C"/>
<path d="M32.8466 7.00526C33.3828 7.00526 33.3828 6.18322 32.8466 6.18322C32.3461 6.14747 32.3461 7.00526 32.8466 7.00526Z" fill="#0B0C0C"/>
<path d="M30.9876 5.93312C31.5239 5.93312 31.5239 5.11108 30.9876 5.11108C30.4514 5.11108 30.4514 5.93312 30.9876 5.93312Z" fill="#0B0C0C"/>
<path d="M29.9511 5.53981C30.4873 5.53981 30.4873 4.71777 29.9511 4.71777C29.4506 4.71777 29.4506 5.57555 29.9511 5.53981Z" fill="#0B0C0C"/>
<path d="M31.953 6.39772C32.4892 6.39772 32.4892 5.57568 31.953 5.57568C31.4167 5.57568 31.4167 6.39772 31.953 6.39772Z" fill="#0B0C0C"/>
<path d="M33.7047 7.68434C34.2409 7.68434 34.2409 6.8623 33.7047 6.8623C33.1684 6.8623 33.1684 7.68434 33.7047 7.68434Z" fill="#0B0C0C"/>
<path d="M35.8137 10.7583C35.8137 11.2944 36.636 11.2944 36.636 10.7583C36.636 10.2222 35.8137 10.2222 35.8137 10.7583Z" fill="#0B0C0C"/>
<path d="M35.3135 9.79295C35.3135 10.3291 36.1357 10.3291 36.1357 9.79295C36.1715 9.25684 35.3135 9.25684 35.3135 9.79295Z" fill="#0B0C0C"/>
<path d="M34.4554 8.43508C34.9916 8.43508 34.9916 7.61304 34.4554 7.61304C33.9192 7.61304 33.9192 8.43508 34.4554 8.43508Z" fill="#0B0C0C"/>
<path d="M34.7415 8.86375C34.7415 9.39987 35.5637 9.39987 35.5637 8.86375C35.5637 8.32764 34.7415 8.32764 34.7415 8.86375Z" fill="#0B0C0C"/>
<path d="M21.6571 7.00526C22.1933 7.00526 22.1933 6.18322 21.6571 6.18322C21.1566 6.14747 21.1566 7.00526 21.6571 7.00526Z" fill="#0B0C0C"/>
<path d="M20.8346 7.68434C21.3708 7.68434 21.3708 6.8623 20.8346 6.8623C20.2983 6.8623 20.2983 7.68434 20.8346 7.68434Z" fill="#0B0C0C"/>
<path d="M18.2967 11.1514C18.8329 11.1514 18.8329 10.3293 18.2967 10.3293C17.7605 10.3293 17.7605 11.1514 18.2967 11.1514Z" fill="#0B0C0C"/>
<path d="M22.5865 6.39772C23.1227 6.39772 23.1227 5.57568 22.5865 5.57568C22.0503 5.57568 22.0503 6.39772 22.5865 6.39772Z" fill="#0B0C0C"/>
<path d="M19.4051 9.29274C19.9413 9.29274 19.9413 8.4707 19.4051 8.4707C18.8689 8.4707 18.8689 9.29274 19.4051 9.29274Z" fill="#0B0C0C"/>
<path d="M18.797 10.1861C19.3332 10.1861 19.3332 9.36401 18.797 9.36401C18.2607 9.36401 18.2607 10.1861 18.797 10.1861Z" fill="#0B0C0C"/>
<path d="M24.5526 5.53981C25.0889 5.53981 25.0889 4.71777 24.5526 4.71777C24.0521 4.71777 24.0521 5.57555 24.5526 5.53981Z" fill="#0B0C0C"/>
<path d="M20.0843 8.43508C20.6205 8.43508 20.6205 7.61304 20.0843 7.61304C19.5481 7.61304 19.5481 8.43508 20.0843 8.43508Z" fill="#0B0C0C"/>
<path d="M23.5516 5.93312C24.0878 5.93312 24.0878 5.11108 23.5516 5.11108C23.0154 5.11108 23.0154 5.93312 23.5516 5.93312Z" fill="#0B0C0C"/>
<path d="M27.9846 9.72161H28.5209C28.5209 8.00604 28.7711 6.50493 29.2358 5.50418C29.3788 5.18251 28.8783 4.96807 28.7354 5.28974C28.0561 6.71937 27.9846 8.68512 27.9846 9.72161Z" fill="#0B0C0C"/>
<path d="M26.0185 9.72161H26.5547C26.5547 8.68512 26.4475 6.71937 25.804 5.28974C25.661 4.96807 25.1605 5.18251 25.3035 5.50418C25.7682 6.50493 26.0185 8.00604 26.0185 9.72161Z" fill="#0B0C0C"/>
<path d="M27.2698 9.72165C27.8418 9.72165 27.8418 8.82812 27.2698 8.82812C26.6978 8.82812 26.6978 9.72165 27.2698 9.72165Z" fill="#0B0C0C"/>
<path d="M27.2698 8.61374C27.8418 8.61374 27.8418 7.72021 27.2698 7.72021C26.6978 7.72021 26.6978 8.61374 27.2698 8.61374Z" fill="#0B0C0C"/>
<path d="M27.2698 7.50558C27.8418 7.50558 27.8418 6.61206 27.2698 6.61206C26.6978 6.61206 26.6978 7.50558 27.2698 7.50558Z" fill="#0B0C0C"/>
<path d="M26.948 6.39783C27.1268 6.2906 27.377 6.2906 27.5915 6.39783C28.1992 5.43282 26.3045 5.43282 26.948 6.39783Z" fill="#0B0C0C"/>
<path d="M27.6274 5.46868C28.1279 4.53941 26.4119 4.53941 26.9124 5.46868C27.1269 5.36145 27.4129 5.36145 27.6274 5.46868Z" fill="#0B0C0C"/>
<path d="M26.9837 1.7513C26.9122 2.32316 26.6262 2.75205 26.2329 2.82353V2.96649H26.9479C26.9122 3.00223 26.8764 3.03797 26.8407 3.03797C25.5537 3.3239 25.4107 5.28965 26.6619 5.75428C26.1972 5.28965 26.5547 4.39613 27.2339 4.43187C27.9131 4.39613 28.2706 5.28965 27.8059 5.75428C29.0214 5.28965 28.9141 3.3239 27.6272 3.03797C27.5914 3.00223 27.5557 2.96649 27.5199 2.96649H28.2349V2.82353C27.8774 2.75205 27.5557 2.32316 27.4842 1.7513C28.0561 1.82278 28.4851 2.10871 28.5566 2.50186H28.6996V0.464631H28.5924C28.5209 0.82204 28.0919 1.14371 27.5199 1.21519C27.5914 0.643336 27.8774 0.214445 28.2706 0.142963V0H26.2687V0.142963C26.6262 0.214445 26.9479 0.643336 27.0194 1.21519C26.4474 1.14371 26.0184 0.857781 25.9469 0.464631H25.8039V2.46612H25.9469C25.9827 2.10871 26.4474 1.82278 26.9837 1.7513Z" fill="#0B0C0C"/>
<path d="M44.7514 33.2035C44.7156 33.132 44.6799 33.0605 44.6084 32.989C44.6441 33.0605 44.6799 33.132 44.7514 33.2035Z" fill="#0B0C0C"/>
<path d="M44.3937 34.0613C43.8217 33.7039 43.5 35.2765 43.2855 35.5624C43.1782 35.7769 43.2855 36.027 43.5 36.0985L43.071 36.9563C42.8565 36.9206 42.642 37.0993 42.642 37.3495C42.7135 37.6711 42.3917 39.1722 42.9995 39.1722V39.5654C41.5695 39.8156 41.784 42.103 43.2497 42.0673C44.7154 42.103 44.9657 39.8513 43.5357 39.5654V39.1722C43.7502 39.208 43.9647 39.0293 43.9647 38.7791C43.8932 38.4574 44.1792 37.0278 43.6787 36.9563L44.0004 36.2772C44.5367 36.5632 44.8584 35.0263 45.0729 34.7761C45.1802 34.5617 45.1087 34.3115 44.8942 34.24L45.1444 33.7396C45.0729 33.6681 44.9299 33.4537 44.7869 33.2393L44.3937 34.0613ZM44.1434 40.8163C43.7859 42.8536 41.1763 40.8521 43.071 39.9943C43.1425 40.173 43.4642 40.2087 43.5357 39.9943C43.8932 40.1015 44.1434 40.4232 44.1434 40.8163ZM43.5357 38.7434C43.5715 38.4574 43.214 38.2787 43.0352 38.5289C43.071 38.4217 42.928 37.3137 43.1425 37.3137C43.214 37.3852 43.357 37.3852 43.4285 37.3137C43.5 37.3137 43.5357 37.3852 43.5357 37.4567V38.6361C43.5715 38.7076 43.5715 38.7434 43.5357 38.7434ZM44.6439 34.7404C44.5724 34.8119 44.1792 35.9556 44.0362 35.9198C43.9647 35.8126 43.8574 35.7769 43.7502 35.8126C43.6787 35.7769 43.6787 35.7054 43.7145 35.6339C43.786 35.5624 44.1792 34.383 44.3579 34.4544C44.3937 34.5617 44.5367 34.6332 44.6439 34.5974C44.6797 34.6332 44.6797 34.7046 44.6439 34.7404Z" fill="#0B0C0C"/>
<path d="M15.4724 31.5234L15.6154 32.0238L17.8676 31.7379L17.7604 31.309C17.6531 31.2732 16.2231 31.5592 16.2231 31.5592C16.2231 31.5592 17.5459 29.9866 17.5101 29.8079L15.2222 30.058L15.2579 30.4512C15.3652 30.4512 16.5806 30.2725 16.5806 30.2725C16.5806 30.2725 15.5082 31.4877 15.4724 31.5234Z" fill="#0B0C0C"/>
<path d="M16.259 34.3827C17.3315 35.4192 19.0832 33.7393 17.9392 32.6671C16.8668 31.6306 15.1151 33.3104 16.259 34.3827ZM16.402 33.239C16.8668 32.3812 18.4755 32.8816 17.832 33.8823C17.3315 34.7043 15.7585 34.2397 16.402 33.239Z" fill="#0B0C0C"/>
<path d="M17.7961 36.8491L18.1894 37.3852C18.5826 36.8849 19.4406 36.2773 20.0126 36.0628L19.6193 35.5267C19.4763 35.7769 19.1546 35.9913 18.9043 36.1701L18.3323 35.348C18.5826 35.1693 18.9043 34.9191 19.1903 34.8476L18.7971 34.3115C18.4038 34.8119 17.5459 35.4195 16.9739 35.6339L17.3671 36.1701C17.5101 35.9199 17.8319 35.7054 18.0821 35.5267L18.6541 36.3488C18.4038 36.5632 18.0464 36.8134 17.7961 36.8491Z" fill="#0B0C0C"/>
<path d="M17.5815 28.9859L17.6173 28.5212C16.9738 28.6285 15.9371 28.6285 15.2936 28.5212L15.2578 28.9859C15.9013 28.8787 16.938 28.8787 17.5815 28.9859Z" fill="#0B0C0C"/>
<path d="M33.9548 38.7432C35.349 38.1356 35.0273 36.7775 33.4543 37.3851C32.8108 37.2064 33.6331 36.5273 34.0621 36.6703L33.7403 36.2771C33.2398 36.4915 32.4534 37.1349 32.8823 37.7067C33.1683 38.0641 33.7403 37.671 34.1336 37.671C34.7771 37.7782 34.0978 38.4573 33.7046 38.4216" fill="#0B0C0C"/>
<path d="M37.7442 33.9539L38.1375 32.6315C37.923 32.6315 36.1355 32.1311 35.9925 32.0239L35.635 33.2749L35.9925 33.5965C35.9568 33.3106 35.9925 32.9889 36.0998 32.6315L36.779 32.846C36.7075 33.0604 36.6002 33.4893 36.493 33.5965L36.8147 33.6323L37.0292 32.8817L37.6727 33.0604C37.6012 33.3106 37.494 33.4893 37.351 33.6323L37.7442 33.9539Z" fill="#0B0C0C"/>
<path d="M36.8149 35.705L37.0294 35.2761L35.2777 34.0967L35.099 34.4541C35.1705 34.5256 36.3145 35.2046 36.3145 35.2046C36.3145 35.2046 34.4197 35.4548 34.3125 35.5978L36.0642 36.813L36.2787 36.5271C36.2072 36.4556 35.2062 35.848 35.2062 35.848C35.2062 35.848 36.7792 35.705 36.8149 35.705Z" fill="#0B0C0C"/>
<path d="M31.953 40.0656L33.1684 39.3508C33.0254 39.2436 32.0602 37.671 32.0244 37.4565L30.8447 38.1356L30.8805 38.6002C31.0592 38.3858 31.3095 38.1714 31.667 37.9569L32.0244 38.5645C31.8457 38.6717 31.4167 38.9219 31.2737 38.9219L31.4882 39.1721L32.1674 38.779L32.5249 39.3508C32.3104 39.4938 32.0959 39.5295 31.8815 39.5653L31.953 40.0656Z" fill="#0B0C0C"/>
<path d="M18.2253 24.5183C17.8678 24.2324 17.3673 24.7327 17.0098 24.84C16.3663 24.8757 16.8668 24.0894 17.26 24.0179L16.9383 23.8035C16.3663 24.0894 15.9015 25.3403 16.8668 25.3761C17.0813 25.3761 17.5818 25.0187 17.7248 24.9829C18.1538 24.9114 18.0108 25.4833 17.7605 25.6263C17.9035 25.6263 18.0108 25.5905 18.1538 25.6263C18.404 25.2688 18.5827 24.7685 18.2253 24.5183Z" fill="#0B0C0C"/>
<path d="M18.6898 23.8392C17.653 23.7677 17.4385 22.0164 18.6898 22.2666V21.8377C17.081 21.7305 17.1168 24.3039 18.6898 24.2324V23.8392Z" fill="#0B0C0C"/>
<path d="M21.2282 20.6941H21.9432C21.693 20.2652 21.4427 19.9078 21.4427 19.9078C21.693 19.7648 22.2292 19.5504 22.4437 19.5861L21.8717 19.1572L20.1558 20.1937L20.3703 20.837C20.5133 20.5511 20.7277 20.3367 20.9422 20.2295C21.0137 20.3009 21.121 20.4796 21.2282 20.6941Z" fill="#0B0C0C"/>
<path d="M26.233 20.4082C25.9112 20.6941 25.4465 20.5869 25.089 20.3725C24.0165 20.9801 22.8726 19.5862 23.7305 18.6569C24.6243 17.5847 26.4117 18.7999 25.5537 19.9793C25.8397 20.1938 26.0542 20.3367 26.233 20.4082ZM24.9103 20.0508C25.7682 19.7291 25.0175 18.4067 24.2668 18.6927C23.4088 19.0143 24.1595 20.3725 24.9103 20.0508Z" fill="#0B0C0C"/>
<path d="M26.5548 19.443C26.5548 19.0856 26.5905 18.4423 26.4475 18.1206H27.1982C27.091 18.478 26.8408 20.0506 27.52 19.9434C27.7702 19.9434 28.0205 19.7647 28.0205 19.5145C28.0205 19.1571 28.0562 18.4423 27.9132 18.1206H28.664C28.4852 18.7282 28.4852 19.7289 28.664 20.3365H28.0205C28.0205 20.3008 28.0562 20.2293 28.0562 20.1221C27.377 20.5867 26.4833 20.3365 26.5548 19.443Z" fill="#0B0C0C"/>
<path d="M29.7721 20.5512C29.9151 20.0151 30.0939 19.0858 30.4156 18.6212L29.8079 18.4067C29.8079 18.9786 29.4861 19.9079 29.3074 20.4797C29.5219 20.4797 29.5219 20.4797 29.7721 20.5512Z" fill="#0B0C0C"/>
<path d="M33.3828 27.9136H33.776V21.9092H28.2349V27.5562V27.9136H28.6281H33.3828ZM28.4136 25.1973V25.2688C28.4136 25.1616 28.5924 25.2331 28.5209 25.3046L28.5566 25.3403C28.7354 25.376 28.7711 25.0901 28.5924 25.0901L28.8069 24.9829V24.9114L28.5924 24.8042C28.7711 24.8042 28.7354 24.5183 28.5566 24.554L28.5209 24.5897C28.6281 24.6612 28.4136 24.7327 28.4136 24.6255V24.697V22.2666H28.5924V22.0879H30.6301C30.7373 22.1236 30.6301 22.2666 30.5586 22.1951L30.5228 22.2308C30.4871 22.4096 30.8088 22.4096 30.8088 22.2308L30.9161 22.4453H30.9876L31.0948 22.2308C31.0948 22.4096 31.3808 22.4096 31.3808 22.2308L31.345 22.1951C31.2735 22.2666 31.1663 22.1236 31.2735 22.0879H33.347V22.2666H33.5258C33.49 22.2308 33.5972 25.1973 33.4185 24.554L33.3828 24.5183C33.204 24.4825 33.1683 24.7684 33.347 24.7684L33.1325 24.8757V24.9472L33.347 25.0544C33.1683 25.0544 33.204 25.3403 33.3828 25.3046L33.4185 25.2688C33.5972 24.5897 33.49 27.6277 33.5258 27.5562H33.347V27.7349H31.3093C31.202 27.7349 31.2735 27.5562 31.345 27.6277L31.3808 27.592C31.4165 27.4133 31.0948 27.4133 31.0948 27.5562L30.9876 27.3418H30.9161L30.8088 27.5562C30.8088 27.3775 30.5228 27.4133 30.5228 27.592L30.5586 27.6277C30.6301 27.5562 30.7373 27.6992 30.5943 27.7349H28.5924V27.5562H28.4136V25.1973Z" fill="#0B0C0C"/>
<path d="M34.5626 28.1638C34.5626 28.0566 34.4196 27.9494 34.3123 27.9851V28.0208C34.0978 29.0216 34.2051 24.9471 34.1693 25.0901L34.3838 25.1616V24.6969L34.1693 24.7684V21.7662C34.2051 21.6232 34.4196 21.7304 34.3123 21.8377V21.8734C34.5983 21.9449 34.6698 21.516 34.3838 21.516L34.5626 21.1943L34.5268 21.1586L34.2051 21.3373C34.2051 21.0514 33.7404 21.1228 33.8119 21.4088H33.8476C33.9549 21.3016 34.0978 21.516 33.9191 21.5517H31.1664L31.2379 21.373H30.7374L30.8089 21.5517H28.0562C27.8775 21.516 28.0205 21.3016 28.1277 21.4088H28.1635C28.2707 21.1586 27.7702 21.0871 27.7702 21.3373L27.4485 21.1586L27.4127 21.1943L27.5915 21.516C27.3055 21.516 27.377 21.9806 27.663 21.8734V21.8377C27.8775 20.8369 27.7702 24.9114 27.806 24.7684L27.5915 24.6969V25.1616L27.806 25.0901C27.7702 25.0186 27.8775 28.9858 27.663 28.0208V27.9851C27.377 27.9136 27.3055 28.3425 27.5915 28.3425L27.4127 28.6642L27.4485 28.6999L27.7702 28.5212C27.7702 28.8071 28.235 28.7357 28.1635 28.4497H28.1277C28.092 28.5212 27.9847 28.4855 27.9847 28.414C27.9847 28.3782 28.0205 28.3425 28.0562 28.3425H30.8447L30.7732 28.5212H31.2737L31.2022 28.3425H33.9549C33.9906 28.3425 34.0263 28.3782 34.0263 28.414C34.0263 28.4855 33.9191 28.5212 33.8834 28.4497H33.8476C33.7761 28.6999 34.2408 28.7714 34.2408 28.5212L34.5626 28.6999L34.5983 28.6642L34.4196 28.3425C34.4911 28.3425 34.5626 28.271 34.5626 28.1638ZM31.2379 21.6947H34.0263V28.1638H27.9847V24.9114V21.6947H31.2379Z" fill="#0B0C0C"/>
<path d="M8.35815 13.8675L8.50115 13.7603C8.5369 13.2242 8.82289 12.7238 9.25189 12.4021C9.21614 12.3664 9.18039 12.3307 9.18039 12.2949C8.6799 12.6523 8.3939 13.2242 8.35815 13.8675Z" fill="#0B0C0C"/>
<path d="M9.68193 13.117L9.82515 13.0813C9.75354 12.8311 9.53871 12.4022 9.28808 12.152C9.21647 12.0805 9.14486 12.1877 9.18067 12.2592C9.35969 12.4022 9.53871 12.7238 9.68193 13.117Z" fill="#0B0C0C"/>
<path d="M8.50136 12.6522C8.75155 12.6522 8.75155 12.259 8.50136 12.259C8.25117 12.259 8.25117 12.6522 8.50136 12.6522Z" fill="#0B0C0C"/>
<path d="M12.291 11.7946C12.1123 11.9733 11.8264 11.6874 12.0051 11.5087C12.1838 11.3657 12.4697 11.6159 12.291 11.7946Z" fill="#0B0C0C"/>
<path d="M12.6841 12.1521C12.5054 12.3308 12.2194 12.0449 12.3981 11.8661C12.5768 11.6874 12.8628 11.9734 12.6841 12.1521Z" fill="#0B0C0C"/>
<path d="M10.8608 11.5085C10.6821 11.6872 10.3962 11.4013 10.5749 11.2226C10.7179 11.0439 11.0395 11.3298 10.8608 11.5085Z" fill="#0B0C0C"/>
<path d="M11.8259 11.6157C11.6472 11.7944 11.3613 11.5085 11.54 11.3298C11.7187 11.1511 12.0403 11.4013 11.8259 11.6157Z" fill="#0B0C0C"/>
<path d="M12.3265 12.2235L12.1477 12.2593C11.7187 11.9019 11.1825 11.7589 10.682 11.8304C10.682 11.7947 10.682 11.7232 10.6462 11.6874C11.2182 11.616 11.826 11.7947 12.3265 12.2235Z" fill="#0B0C0C"/>
<path d="M10.825 12.6167L10.7178 12.6881C10.6106 12.4737 10.4319 12.0091 10.4319 11.6517C10.4319 11.5802 10.5748 11.5444 10.5748 11.6517C10.5391 11.9018 10.6463 12.2593 10.825 12.6167Z" fill="#0B0C0C"/>
<path d="M11.3611 11.4728C11.1824 11.6515 10.8964 11.3656 11.0751 11.1869C11.2181 11.0439 11.5398 11.2941 11.3611 11.4728Z" fill="#0B0C0C"/>
<path d="M32.7035 32.8103C33.2755 32.8103 34.5982 32.1669 33.633 31.6308C33.0967 31.5236 32.5605 31.8095 32.0242 31.9168C29.915 32.7388 31.1663 31.7381 29.8435 31.8453C30.2725 32.9532 31.3808 32.3814 32.2387 32.1312C32.2745 32.2384 32.0957 32.2742 32.1315 32.4171C32.4175 32.3457 32.6677 32.3099 32.9537 32.2384C33.061 31.7023 34.0619 31.7023 33.5972 32.2384C32.4532 32.7388 31.0948 32.6316 29.8793 32.989C29.0571 35.0977 27.6628 33.6681 27.6986 34.2757C27.3768 34.3114 27.3768 34.5973 27.6986 34.5973C27.6986 35.2049 29.2715 34.4901 29.5575 34.3114C29.629 34.1684 29.7005 34.0255 29.772 33.8825C30.2368 34.097 30.5943 33.4179 30.9875 33.3107C31.3808 33.2392 31.917 32.846 32.2745 33.2034C32.6677 33.6323 33.2397 32.989 33.5972 33.4179C33.4542 33.7395 33.633 33.5966 33.7045 33.811C33.7045 33.9897 34.0262 33.9897 34.0262 33.811C34.0262 33.7395 34.0262 33.6681 34.1334 33.6323C34.3122 33.3821 33.9547 33.0962 33.8117 32.846C33.4542 32.5958 32.9895 33.0962 32.7035 32.8103Z" fill="#0B0C0C"/>
<path d="M27.5199 31.8809C27.6271 31.9166 27.5914 32.0238 27.6271 32.0953C28.1276 32.1311 28.6281 31.9881 29.1286 31.9523C29.4861 31.9523 29.4861 31.6307 29.7721 31.5949C30.4156 31.6307 30.8446 31.0588 31.4523 30.9516C31.9528 30.8086 32.632 30.6299 33.061 30.9873C33.1683 31.0946 33.3113 31.1303 33.49 31.0946C33.7045 31.0588 33.9548 31.0231 34.062 31.2733C34.0263 31.309 33.9905 31.3448 33.9548 31.3805C33.9905 31.4162 33.9905 31.4877 34.0263 31.5235C34.1335 31.5235 34.1335 31.5949 34.1693 31.6664C34.2407 31.7736 34.348 31.7736 34.3837 31.6664C34.4195 31.5592 34.5267 31.5949 34.5625 31.5235C34.5982 31.2018 34.5267 30.8444 34.205 30.7014C34.062 30.5585 33.4543 30.8444 33.4543 30.5585C33.8833 30.6657 34.7412 30.0938 34.1693 29.7007C33.1683 29.4862 32.0958 29.9509 31.0948 30.0581C30.7016 30.1296 30.9161 29.522 30.0223 29.6649C30.5943 30.8444 31.7741 30.0223 32.7393 29.9866C32.7393 30.0938 32.5605 30.0938 32.5963 30.201C32.8823 30.1296 33.347 30.2725 33.49 29.9866C33.5615 29.6649 34.2765 29.7364 34.062 30.1296C33.5258 30.4512 32.775 30.3083 32.1315 30.3797C31.3808 30.4512 30.5586 30.4512 29.8436 30.7372C29.7006 31.166 29.5218 31.6307 29.0214 31.7379C28.6639 31.3805 28.1634 31.8094 27.7701 31.452C27.6629 31.4877 27.6271 31.5592 27.5914 31.6307C27.3769 31.6664 27.3054 31.7736 27.5199 31.8809Z" fill="#0B0C0C"/>
<path d="M33.0612 34.9547C32.0602 34.8118 32.239 35.4908 31.7385 35.3479C31.81 35.2406 32.0602 35.1692 31.9887 35.0262C31.2737 35.3479 30.523 35.5623 29.7723 35.884C29.4148 36.2771 29.522 37.0634 28.6998 37.1349C28.6641 37.5281 28.0921 37.814 27.7703 37.6353C27.6273 37.7782 27.6988 37.814 27.6988 37.9212C27.5916 38.0284 27.4128 38.2786 27.6631 38.2786C27.7346 38.2786 27.8061 38.1357 27.8776 38.1714C27.8776 38.2071 27.8776 38.2786 27.8418 38.3501C27.9133 38.3501 27.9848 38.3858 28.0206 38.3501C28.1278 38.2071 28.3066 38.3144 28.4138 38.2071C28.8428 37.9212 29.4505 37.671 29.4148 37.0634C30.1655 36.7418 30.5945 35.5266 31.5597 35.9555C32.0245 36.2056 32.1675 35.4193 32.5965 35.4193C32.7037 35.7053 32.7752 35.6695 32.9182 35.5981C33.2042 35.8125 33.1327 35.4908 33.24 35.3121C33.3472 35.1334 33.2042 34.9547 33.0612 34.9547Z" fill="#0B0C0C"/>
<path d="M28.5922 30.2013C28.4492 30.6659 28.5922 31.2378 29.0212 31.4879C29.4859 31.2735 29.8077 30.6659 29.6289 30.1298C29.7362 30.0226 29.8792 29.9868 29.8434 29.8439C29.7719 29.6652 29.4859 29.8081 29.4144 29.5937C29.2357 29.3435 28.9855 29.5579 28.8425 29.7009C28.7352 29.7009 28.628 29.6652 28.5207 29.7009C28.4492 29.9153 28.7352 30.0226 28.5922 30.2013Z" fill="#0B0C0C"/>
<path d="M28.4853 36.4916C28.9501 37.5996 29.6293 36.2057 29.4863 35.5981C29.808 35.3479 29.7008 35.1692 29.3433 35.1692C29.2003 34.8833 28.9143 34.8475 28.6998 35.0977C28.6283 35.1692 28.5211 35.1692 28.4138 35.1692C28.1993 35.2764 28.3423 35.4909 28.4853 35.5266C28.4138 35.8125 28.3423 36.1342 28.4853 36.4916Z" fill="#0B0C0C"/>
<path d="M29.7365 32.3813C29.6292 32.3456 29.522 32.3098 29.4505 32.3456C29.2718 31.9167 28.9858 32.0954 28.7355 32.3456C28.378 32.2026 28.4138 32.5243 28.6283 32.703C28.4495 33.1319 28.5568 33.7752 29.0215 33.9897C29.522 33.7752 29.665 33.2034 29.6292 32.703C29.808 32.6315 29.9152 32.4528 29.7365 32.3813Z" fill="#0B0C0C"/>
<path d="M33.2758 33.8111C32.3821 33.5251 31.0236 35.4194 30.4158 34.8833C30.2728 34.5616 29.8439 34.5974 29.5579 34.7046C29.8796 34.9548 30.0584 35.4552 30.5588 35.3122C31.1308 35.205 31.5598 34.7403 32.0603 34.5259C32.0603 34.7046 31.9173 34.7761 31.8458 34.919C32.1676 34.8118 32.4893 34.7046 32.7395 34.4902C32.7038 33.5609 34.0265 34.2042 32.7395 34.7761C32.954 34.7761 33.1328 34.8833 33.2758 34.7046C33.5975 34.4187 33.5975 34.0613 33.2758 33.8111Z" fill="#0B0C0C"/>
<path d="M31.2736 35.9556C31.0234 36.027 30.7731 36.027 30.5944 36.313C30.6659 36.3845 30.7374 36.4917 30.7731 36.5632C30.6659 36.8848 30.3441 36.8133 30.0224 36.8491C30.0581 36.9563 30.0581 36.992 30.0939 37.0635C29.9509 37.135 29.9151 37.2422 29.9509 37.3852C29.9866 37.3852 30.0224 37.4209 30.0581 37.4209C30.1296 37.3137 30.3084 37.2065 30.3441 37.4209C30.8804 37.2422 31.3809 36.9206 31.6311 36.4202C31.4881 36.313 31.3451 36.17 31.2736 35.9556Z" fill="#0B0C0C"/>
<path d="M30.5586 34.0612C30.4514 34.0612 30.4157 34.2041 30.4871 34.2756C30.5586 34.3471 30.6301 34.2756 30.7374 34.3113C30.7374 34.3471 30.7374 34.4186 30.7374 34.4543C31.2021 34.49 31.9171 34.0612 32.1674 33.668C32.0601 33.525 31.9886 33.3821 31.8814 33.2034C31.6311 33.2749 31.3451 33.2749 31.1664 33.525C31.2736 33.6323 31.3451 33.7037 31.4166 33.811C31.2379 33.9182 31.0591 34.0612 30.8446 33.9182C30.7731 33.8467 30.5586 33.8824 30.5944 34.0254C30.5944 34.0612 30.5944 34.0612 30.5944 34.0969C30.6301 34.0612 30.5944 34.0612 30.5586 34.0612Z" fill="#0B0C0C"/>
<path d="M28.5569 36.9206C28.3781 36.5632 28.0921 36.2773 27.9849 35.9199C28.1279 35.7055 28.0564 35.4195 27.7704 35.5982C27.6989 35.4553 27.5917 35.4195 27.4487 35.4553C27.4129 35.5625 27.3772 35.634 27.4844 35.7055V35.7412C27.4487 35.7412 27.4129 35.7769 27.3772 35.7769C27.3057 35.9556 27.4844 36.0629 27.5559 36.2058C27.7704 36.5632 28.0921 37.3495 28.5569 36.9206Z" fill="#0B0C0C"/>
<path d="M28.5565 31.309C28.5207 30.8444 27.9845 30.5227 28.1632 30.0581C28.199 29.9866 28.199 29.8794 28.0917 29.8079C27.9487 29.8436 27.9487 29.8436 27.8057 29.7722C27.5912 29.6649 27.5555 29.8794 27.5912 30.0581C27.5555 30.0938 27.5197 30.0938 27.4482 30.1296C27.5912 30.487 28.0202 31.5235 28.5565 31.309Z" fill="#0B0C0C"/>
<path d="M27.4839 32.9174C27.6984 33.2391 27.7341 33.7037 28.0916 33.8824C28.2346 33.8824 28.4848 34.0254 28.5921 33.8467C28.4848 33.4893 28.0558 33.2748 28.0916 32.8459C28.1273 32.7387 28.0916 32.6672 27.9843 32.56C27.8056 32.5958 27.4481 32.2026 27.5911 32.703C27.4839 32.7387 27.4124 32.8102 27.4839 32.9174Z" fill="#0B0C0C"/>
<path d="M19.6907 23.4461C19.7622 23.4461 19.8337 23.3746 19.9052 23.4461C19.9052 23.4818 19.9052 23.5176 19.8694 23.5533C20.3342 23.7678 20.8704 23.5176 21.3709 23.4104C21.5497 23.3389 21.6569 23.1602 21.8714 23.1602C22.3719 23.1959 22.6579 22.767 23.0511 22.6598C23.5874 22.5526 24.0878 22.4811 24.6241 22.4811C25.2318 23.3031 25.3391 22.6241 25.9111 22.8743C25.9111 22.9457 25.8753 23.0172 25.8753 23.1244C25.9468 23.1602 25.9826 23.1602 26.0183 23.1602C25.9468 23.3746 26.2685 23.4818 26.3043 23.2317C26.3043 23.1959 26.3043 23.1602 26.34 23.1602C26.6618 22.9815 26.1613 22.1237 25.8038 22.3381C25.6251 22.4096 25.4106 22.5168 25.2676 22.3024C25.5893 22.1952 25.9468 22.1952 26.1613 21.9092C26.3043 21.7305 26.3043 21.3374 26.0183 21.2302C25.2676 21.0157 24.4453 21.4089 23.6589 21.4804C22.1931 21.8735 23.2299 21.1587 22.0859 21.1587C22.5149 22.3381 23.7304 21.5876 24.5883 21.4804C24.5168 21.6233 24.3738 21.6591 24.3381 21.802C24.6598 21.7305 25.0531 21.8735 25.2676 21.6233C25.3748 21.3017 26.1613 21.2659 25.9826 21.6948C25.2676 22.4096 22.9796 21.7305 21.9429 22.1952C21.7999 22.6598 21.5139 22.9815 21.0849 23.0887C20.7274 22.8743 20.5487 23.1244 20.1912 23.0172C20.0839 22.91 19.9767 22.767 19.8337 22.91C19.8337 22.9457 19.8337 23.0172 19.8337 23.0887C19.6907 23.0887 19.5119 23.3389 19.6907 23.4461Z" fill="#0B0C0C"/>
<path d="M20.9422 21.659C20.6562 22.1594 20.7635 22.5883 21.0852 23.0172C21.693 23.0529 21.9432 22.2309 21.836 21.7305C21.9075 21.6948 21.9432 21.659 22.0147 21.5875C22.0147 21.5161 21.979 21.4803 21.979 21.4088C21.8717 21.4088 21.7645 21.4088 21.693 21.4088C21.4785 21.1229 21.3355 21.1229 21.0852 21.3731C20.9065 21.3016 20.9065 21.3016 20.7992 21.4446C20.7992 21.5161 20.835 21.5875 20.9422 21.659Z" fill="#0B0C0C"/>
<path d="M23.8735 22.6954C23.8378 22.8383 23.9808 22.9098 23.9808 23.017C23.8378 23.1243 23.659 23.1243 23.4803 23.16C23.373 23.0528 23.3373 22.9098 23.1943 22.9456C23.1228 22.9813 23.1586 23.0528 23.0871 23.0885C22.9083 23.0885 22.9083 23.0885 22.8726 23.2672C22.9083 23.303 22.9798 23.3387 23.0513 23.3744C22.9083 23.982 24.5885 23.3387 24.8388 23.16C24.7673 23.017 24.66 22.9098 24.6243 22.7668C24.5528 22.4809 24.0523 22.6954 23.8735 22.6954Z" fill="#0B0C0C"/>
<path d="M20.6918 22.7671C20.656 22.5527 20.6203 22.3025 20.4415 22.1595C20.2628 21.9451 20.1913 21.6949 20.37 21.4804C20.2628 21.3732 20.1555 21.4804 20.0483 21.3375C19.941 21.1945 19.8695 21.3732 19.8338 21.5162C19.4763 21.5519 19.6908 21.6949 19.7623 21.8736C19.9053 22.1595 20.2985 22.9101 20.6918 22.7671Z" fill="#0B0C0C"/>
<path d="M25.804 25.0903C25.6252 25.1618 25.375 25.269 25.2677 25.0546C25.5895 24.9474 25.947 24.9474 26.1615 24.6614C26.3045 24.4827 26.3045 24.0896 26.0185 23.9824C25.232 23.7679 24.4097 24.1611 23.659 24.2326C22.1933 24.6257 23.23 23.9109 22.086 23.9109C22.515 25.0903 23.7663 24.3398 24.6242 24.2326C24.5527 24.3755 24.4097 24.4113 24.374 24.5542C24.6957 24.4827 25.089 24.6257 25.3035 24.3755C25.4107 24.0539 26.1972 24.0181 26.0185 24.447C25.2677 25.1618 22.9798 24.4827 21.9788 24.9474C21.8358 25.412 21.5498 25.7337 21.1208 25.8409C20.7276 25.6979 20.5488 25.8409 20.2986 25.8409C20.2986 25.9124 20.3343 26.0196 20.3701 26.0911C20.3701 26.1983 20.3701 26.2698 20.3701 26.3413C20.6918 26.3055 20.9778 26.1983 21.2996 26.1268C21.4783 26.0553 21.5856 25.8766 21.8001 25.8766C22.3005 25.9124 22.5865 25.4835 23.0155 25.3763C23.5518 25.269 24.088 25.1976 24.6242 25.1976C25.232 26.0553 25.3392 25.3405 25.9112 25.6265C25.9112 25.6979 25.8755 25.8052 25.8755 25.8766C25.947 25.9124 25.9827 25.9124 26.0185 25.9124C25.947 26.1268 26.2687 26.234 26.3045 25.9839C26.3045 25.9481 26.3045 25.9124 26.3402 25.9124C26.6619 25.7337 26.1615 24.8402 25.804 25.0903Z" fill="#0B0C0C"/>
<path d="M20.8707 24.3397C20.5847 24.8401 20.692 25.2689 21.0137 25.6978C21.6214 25.7336 21.8717 24.9115 21.7644 24.4112C21.8359 24.3754 21.8717 24.3397 21.9432 24.2682C21.9432 24.1967 21.9074 24.161 21.9074 24.0895C21.8002 24.0895 21.6929 24.0895 21.6214 24.0895C21.4069 23.8036 21.264 23.8036 21.0137 24.0538C20.835 23.9823 20.835 23.9823 20.7277 24.161C20.7277 24.2325 20.7635 24.3039 20.8707 24.3397Z" fill="#0B0C0C"/>
<path d="M23.8018 25.412C23.766 25.5549 23.909 25.6264 23.909 25.7336C23.766 25.8408 23.5873 25.8408 23.4085 25.8408C23.3013 25.7336 23.2655 25.5907 23.1225 25.6264C23.051 25.6621 23.0868 25.7336 23.0153 25.7694C22.8365 25.7694 22.8365 25.7694 22.8008 25.9481C22.8365 25.9838 22.908 26.0196 22.9795 26.0553C22.8365 26.6629 24.5525 26.0196 24.8027 25.8408C24.7312 25.6979 24.624 25.5907 24.5882 25.4477C24.5167 25.1975 24.0163 25.412 23.8018 25.412Z" fill="#0B0C0C"/>
<path d="M20.6205 25.4832C20.5847 25.2687 20.549 25.0185 20.3702 24.8756C20.1915 24.6611 20.12 24.4109 20.2988 24.1965C20.1915 24.0893 20.0843 24.1965 19.977 24.0535C19.8698 23.9106 19.7625 24.0893 19.7625 24.2322C19.405 24.268 19.6195 24.4109 19.691 24.5896C19.834 24.8756 20.2272 25.6261 20.6205 25.4832Z" fill="#0B0C0C"/>
<path d="M25.8398 27.6279C25.661 27.6994 25.4108 27.8066 25.3035 27.5922C25.6253 27.485 25.9828 27.485 26.1973 27.199C26.3403 27.0203 26.3403 26.6272 26.0543 26.52C25.2678 26.3055 24.4456 26.6987 23.6948 26.7702C22.2291 27.1633 23.2658 26.4485 22.1219 26.4485C22.5509 27.6279 23.8021 26.8774 24.6601 26.7702C24.5886 26.9131 24.4456 26.9489 24.4098 27.0918C24.7316 27.0203 25.1248 27.1633 25.3393 26.9131C25.4465 26.5915 26.233 26.5557 26.0543 26.9846C25.3393 27.6994 23.0156 27.0203 22.0146 27.485C21.8716 27.9496 21.5856 28.2713 21.1566 28.3785C20.7991 28.164 20.6204 28.4142 20.2629 28.307C20.2272 28.2713 20.1914 28.2355 20.1557 28.1998C20.1557 28.1998 20.1199 28.1998 20.1199 28.164C20.1199 28.164 20.0842 28.1641 20.0842 28.1283C20.0842 28.3428 20.0484 28.5572 19.9412 28.7359C20.4059 28.9146 20.9421 28.7002 21.4069 28.5572C21.5856 28.4857 21.6929 28.307 21.9074 28.307C22.4079 28.3428 22.6939 27.9139 23.1228 27.8066C23.6591 27.6994 24.1953 27.6279 24.7316 27.6279C25.3393 28.4857 25.4465 27.7709 26.0185 28.0568C26.0185 28.1283 25.9828 28.2355 25.9828 28.307C26.0543 28.3428 26.09 28.3428 26.1258 28.3428C26.0543 28.5572 26.376 28.6644 26.4118 28.4142C26.4118 28.3785 26.4118 28.3428 26.4475 28.3428C26.6978 28.2713 26.1973 27.3778 25.8398 27.6279Z" fill="#0B0C0C"/>
<path d="M20.9422 26.8773C20.6562 27.3777 20.7635 27.8065 21.0852 28.2354C21.693 28.2712 21.9432 27.4491 21.836 26.9488C21.9075 26.913 21.9432 26.8773 22.0147 26.8058C22.0147 26.7343 21.979 26.6986 21.979 26.6271C21.8717 26.6271 21.7645 26.6271 21.693 26.6271C21.4785 26.3412 21.3355 26.3412 21.0852 26.5914C20.9065 26.5199 20.9065 26.5199 20.7992 26.6986C20.7635 26.7701 20.835 26.8415 20.9422 26.8773Z" fill="#0B0C0C"/>
<path d="M23.8735 27.9495C23.8378 28.0925 23.9808 28.164 23.9808 28.2712C23.802 28.3784 23.659 28.3784 23.4803 28.4141C23.373 28.3069 23.3373 28.164 23.1943 28.1997C23.0871 28.2354 23.1586 28.3069 23.0871 28.3427C22.9083 28.3427 22.9083 28.3427 22.8726 28.5214C22.9083 28.5571 22.9798 28.5929 23.0513 28.6286C22.9083 29.2362 24.6243 28.5928 24.8745 28.4141C24.803 28.2712 24.6958 28.164 24.66 28.021C24.5885 27.7351 24.088 27.9495 23.8735 27.9495Z" fill="#0B0C0C"/>
<path d="M20.4415 27.4131C20.4058 27.3774 20.3701 27.3416 20.3343 27.3059C20.3343 27.4131 20.3701 27.5561 20.3701 27.6633C20.3701 27.7348 20.3343 27.8778 20.2986 27.9492C20.4415 28.0922 20.513 28.0922 20.656 28.0565C20.6917 27.8063 20.6202 27.5561 20.4415 27.4131Z" fill="#0B0C0C"/>
<path d="M29.2717 23.0173C29.4147 23.0888 29.4862 23.4819 29.5934 23.5534C29.7364 23.7679 30.0582 24.2682 30.3799 24.161C30.4872 24.1253 30.5587 23.8751 30.5587 23.8036C30.5587 23.8036 30.4872 23.7321 30.4514 23.6964C30.1654 23.4462 29.9867 23.196 29.9867 22.9816C29.9867 22.9101 30.1654 22.8029 30.1297 22.7314C30.1297 22.4812 29.9152 22.7671 29.8079 22.7314C29.7722 22.6599 29.5934 22.4454 29.4862 22.5527C29.4147 22.5884 29.4862 22.7314 29.4504 22.7671C29.4147 22.8029 29.4147 22.8029 29.3432 22.8029C29.093 22.8029 29.0572 22.9458 29.2717 23.0173Z" fill="#0B0C0C"/>
<path d="M30.4871 24.8043C30.5586 24.7329 30.8088 24.4827 30.8088 24.4469C30.8446 24.4112 30.8446 24.3754 30.9876 24.3754C31.4523 24.304 31.6668 24.1253 31.8098 23.6249C31.8813 23.4819 31.8098 23.1603 31.7026 23.0888C31.6668 23.053 31.6668 23.0173 31.6668 23.0173C31.7383 23.0173 31.9171 22.9458 31.9528 22.8386C31.9171 22.7314 31.7741 22.8028 31.6311 22.7671C31.5238 22.6956 31.2021 22.6241 31.0591 22.6956C30.9518 22.8028 30.4513 22.8028 30.5228 22.9816C30.5586 23.053 30.5943 23.1603 30.5943 23.1603L30.8446 23.196V23.3747C30.8446 23.3747 30.6658 23.4104 30.6301 23.4104C30.4871 23.6249 30.9876 23.6249 31.0948 23.4819C31.1663 23.3747 31.3093 23.3747 31.3093 23.4819C31.2378 23.6249 31.0233 23.6964 30.8803 23.7679C30.6658 23.8036 30.6301 24.1967 30.4513 24.3397C30.0224 24.4112 29.8436 24.4112 29.4146 24.0538C29.2716 23.8751 29.1286 24.018 29.2359 24.161C29.1644 24.1967 28.7354 23.9466 28.9499 24.3397L28.9856 24.3754C28.7711 24.6614 29.0929 24.5541 29.2359 24.6614C29.6291 24.7686 30.0224 24.8758 30.4871 24.8043Z" fill="#0B0C0C"/>
<path d="M31.9171 24.5183L32.0958 24.9115C32.0958 24.9115 32.4891 25.0902 32.5606 25.1616C32.775 25.3403 32.7393 25.7692 32.5606 25.7335C32.2388 25.5905 32.0243 25.1259 31.8098 24.84C31.7383 24.8042 31.5953 24.3039 31.4881 24.4468C30.0939 24.7685 31.7383 25.1259 31.4881 25.6263C31.4523 25.6978 31.2736 26.0552 31.3451 26.1266C31.4523 26.2696 31.7383 26.3768 31.8456 26.5555C32.0601 26.77 31.8813 27.0202 31.5953 26.8057C31.4523 26.6985 31.2378 26.8415 31.4166 27.0202C31.4166 27.0559 31.3093 27.0916 31.3093 27.0916C31.1306 27.3061 31.4166 27.3061 31.5596 27.1989C31.6311 27.1631 31.5596 27.4133 31.7026 27.3418C31.9528 27.2703 32.3461 27.1631 32.4176 26.77C32.5606 26.4126 32.2031 26.4841 32.1316 26.1624C32.0243 26.0194 32.0243 25.5548 32.2388 25.7335C32.4176 25.9479 32.6678 26.0909 32.8823 25.8765C33.0968 25.6978 32.918 25.1974 32.8108 24.9829C32.5963 24.554 32.3818 24.1609 32.3818 23.6605C32.6678 23.3389 32.9895 23.9107 33.1683 22.9814C32.5248 23.0172 31.8813 23.4461 32.2031 24.1966C32.3461 24.6255 32.3103 24.6255 31.9171 24.5183Z" fill="#0B0C0C"/>
<path d="M30.8805 25.3046C30.523 25.3046 30.2728 25.2688 30.38 25.662C30.4158 25.7692 30.4515 26.0551 30.4873 26.1266C30.523 26.1623 30.523 26.1981 30.4873 26.2338C30.3443 26.3053 29.8081 26.0909 29.8796 25.9122C29.8796 25.7692 29.7366 25.7334 29.7008 25.8407C29.6651 25.8764 29.6293 25.8764 29.5936 25.8407C29.4863 25.6977 29.3433 25.8764 29.4148 25.9836C29.4506 26.0194 29.4148 26.0551 29.3433 26.0909C29.2003 26.1623 29.2003 26.341 29.4148 26.341C29.8438 26.5555 30.237 26.7699 30.7375 26.6985C31.3095 26.6627 31.0235 26.5555 30.9878 26.1623C30.8448 25.7334 31.5598 25.4833 30.8805 25.3046Z" fill="#0B0C0C"/>
<path d="M31.3808 31.2733C31.345 31.2375 31.2378 31.2733 31.2378 31.309C31.2378 31.4877 31.0233 31.452 30.9875 31.5592C31.0233 31.6307 31.0948 31.7022 31.1663 31.7022C31.2735 31.7022 31.2735 31.8094 31.345 31.8451C31.8098 31.6307 32.346 31.7022 32.7393 31.3448C32.5963 31.2375 32.5605 31.0588 32.5248 30.8801C32.2745 30.9159 31.9885 30.8444 31.774 30.9874C31.7383 31.0946 31.8455 31.1661 31.8813 31.2733C31.7383 31.309 31.5595 31.3448 31.3808 31.2733Z" fill="#0B0C0C"/>
<path d="M38.7455 26.1266C38.5668 25.7334 38.1378 23.5532 37.53 24.0536C40.3185 29.236 38.4595 36.0625 33.6334 39.3507C32.2034 40.2085 30.4517 41.6381 28.8072 40.6731C29.8797 36.4557 35.0633 38.2427 36.1716 30.2368C36.0286 30.1653 35.9928 30.1295 35.8498 30.0938C35.6711 31.2018 35.4208 32.3097 34.9918 33.3105C35.4566 32.131 35.1706 28.3782 35.2421 28.1638C35.2063 28.0923 35.1348 28.0923 34.9918 27.8779C35.0276 28.3425 34.9918 28.4855 34.9918 29.093H27.127V20.9084H34.8488V25.519C34.8488 25.5547 34.8846 25.7691 34.8846 25.8406C34.9918 25.6619 34.9918 25.6619 35.0633 25.6262V20.6582H18.9404V24.8399H19.1907V20.9084H26.9483V29.093H19.4409C19.4052 29.1288 19.4409 28.9501 19.4052 28.9858C19.4052 28.9501 19.3694 29.1288 19.3694 29.093H19.1549C19.1549 28.6999 19.1549 28.4855 19.1549 28.4497H18.9047C18.7259 29.0573 19.2264 34.204 20.0844 35.0975C18.4042 33.4534 17.868 30.5584 18.1897 28.3782C18.1897 28.3782 18.0467 28.271 17.868 28.0923C17.3317 31.166 18.5114 34.204 20.6564 36.4199C20.8351 36.6344 21.0496 36.4199 21.2641 36.3484C21.2284 36.3127 21.1211 36.2055 21.0496 36.134C21.1211 36.2055 21.1926 36.3127 21.2641 36.3484L21.1569 36.0268C19.4767 34.7401 19.1907 31.0231 19.1549 29.3432H26.9125C26.9125 29.3432 26.9125 39.6009 26.9125 39.6366C25.2681 39.5651 24.1598 37.7781 22.5511 37.7423C24.8391 39.1005 29.0217 42.3529 31.6672 40.9233C31.7029 40.959 31.6672 40.959 31.7029 40.959C31.4169 41.3164 30.4517 41.9598 30.0227 41.7811C29.3077 41.3522 28.1995 42.1385 28.7 42.9248C28.7715 43.032 28.8072 43.1035 28.7357 43.2107C25.8758 42.9248 23.3018 41.2449 20.9066 39.7796C20.8709 39.8153 20.8709 39.8153 20.8709 39.8153C21.8004 41.0662 25.0893 42.6031 25.0893 42.6031V44.4616C25.0893 44.4616 25.3038 44.6046 25.4468 44.7118V42.7103C26.3048 42.9963 28.0565 43.5681 28.0565 43.5681V44.819L28.3782 44.6046V43.6753L28.843 43.5324C29.129 43.4609 29.3435 43.175 29.3077 42.8533C29.1647 42.7818 29.0575 42.6388 29.129 42.4601C29.2005 42.1027 29.6295 42.1027 29.8082 42.3172C30.1657 42.4601 30.5232 42.0312 30.8807 41.9598C31.3812 41.6738 31.9889 41.3879 32.2392 40.8161C32.2749 40.6731 32.3464 40.6016 32.4894 40.5301C33.4904 39.9583 34.4556 39.3149 35.2778 38.4929C38.674 35.5621 39.9252 30.4512 38.7455 26.1266ZM27.1628 29.3075H35.0276C35.6711 35.312 32.1677 37.3135 27.1628 39.4222V29.3075ZM27.27 40.0298C27.842 39.5294 28.1995 39.3507 28.9145 39.2077C28.7 39.6366 28.5212 40.0655 28.3425 40.5301C27.985 40.3514 27.6633 40.2085 27.27 40.0298Z" fill="#0B0C0C"/>
<path d="M9.75248 43.3538C9.57373 43.2466 9.35924 43.2108 9.07324 43.2466C9.14474 43.6397 9.28774 44.3903 9.39498 44.7834C10.1457 44.6405 10.3602 43.7469 9.75248 43.3538Z" fill="#0B0C0C"/>
<path d="M19.8695 40.6018C15.4365 40.6018 11.0036 42.4961 6.53499 42.4961C5.99875 42.4961 5.46251 42.4603 4.92627 42.4246C6.32049 43.4968 6.21324 45.677 8.2152 45.677C8.2867 45.677 8.39395 45.677 8.50119 45.677C11.2181 45.3911 13.9351 44.6048 16.6163 44.1759C17.081 44.1044 19.2975 43.5683 20.5844 43.5683C21.0492 43.5683 21.4067 43.6398 21.5139 43.8185C21.6569 44.0687 20.7632 44.8192 20.7632 44.855C20.8347 44.855 21.3352 44.569 21.6927 44.3189C23.1584 43.3181 20.1197 40.6018 19.8695 40.6018ZM10.5032 44.3189C10.2529 44.8907 9.53792 45.0337 8.96593 45.1409C9.00168 44.9622 8.64419 43.2824 8.53694 43.1394C9.50217 42.7105 10.9321 43.1037 10.5032 44.3189ZM11.0751 44.6405C11.1109 44.0687 10.8964 43.1751 10.6461 42.639L11.2181 42.5318C11.1824 43.1037 11.3969 43.9972 11.6471 44.5333L11.0751 44.6405ZM13.2558 44.1759L12.0761 44.4261C12.1119 44.2474 11.7186 42.6033 11.6114 42.4603L12.8269 42.1744L12.7196 42.5676C12.5409 42.5318 12.3621 42.5318 12.1119 42.5676L12.2549 43.1751L12.9341 43.0322L13.0413 43.3181C12.8984 43.2824 12.5051 43.3896 12.3264 43.4253L12.5051 44.0687C12.8269 43.9972 13.1128 43.89 13.3273 43.747L13.2558 44.1759ZM14.4356 43.9972C13.5776 44.0329 13.4703 42.8177 13.2558 42.2101L13.6848 42.1387C13.8636 42.6748 13.8278 43.89 14.6858 43.7113C15.3293 43.4253 14.7931 42.4246 14.7573 41.9242L15.1506 41.8527C15.3293 42.6748 15.6868 44.0687 14.4356 43.9972ZM17.8317 43.3896L16.652 43.6398C16.6878 43.4611 16.2945 41.8527 16.1873 41.674L17.4028 41.3881L17.2955 41.817C17.1168 41.7813 16.938 41.7813 16.6878 41.817L16.8308 42.4246L17.51 42.2816L17.6173 42.5676C17.4743 42.5318 17.081 42.639 16.9023 42.6748L17.0453 43.2824C17.367 43.2109 17.653 43.1037 17.8675 42.925L17.8317 43.3896ZM19.0472 41.4238L19.369 43.1037L18.9757 43.1751L18.6182 41.4953C18.368 41.5311 18.2607 41.5311 17.939 41.674V41.2809L19.6192 41.0664L19.7265 41.3881C19.5835 41.3524 19.0472 41.4238 19.0472 41.4238Z" fill="#0B0C0C"/>
<path d="M40.461 42.4958C40.3538 42.8533 40.2108 43.5681 40.175 43.9612C41.033 44.1399 41.319 42.6746 40.461 42.4958Z" fill="#0B0C0C"/>
<path d="M43.8573 43.0678C43.1781 42.8891 42.9636 44.283 43.5356 44.4974C44.2148 44.6761 44.4293 43.318 43.8573 43.0678Z" fill="#0B0C0C"/>
<path d="M42.1416 42.8176L41.9268 43.5682C42.4996 43.6754 42.7503 42.9248 42.1416 42.8176Z" fill="#0B0C0C"/>
<path d="M36.7789 41.7813C36.0997 41.6026 35.8137 43.0322 36.3857 43.2824C37.1007 43.4611 37.3866 42.0315 36.7789 41.7813Z" fill="#0B0C0C"/>
<path d="M46.7175 42.496C46.1455 42.496 45.645 42.496 45.359 42.4602C42.4276 42.1743 39.5319 41.3523 36.6005 40.8876C35.7425 40.7447 35.0633 40.6375 34.4555 40.6375C33.2043 40.6375 32.3821 41.1736 31.3811 43.318C30.9521 44.1401 32.3821 44.8906 32.7038 44.9264C31.5241 43.9256 31.9531 43.6397 32.8826 43.6397C34.1695 43.6397 36.4217 44.2115 36.8865 44.2473C39.5677 44.6762 42.2846 45.4267 45.0016 45.7484C45.1088 45.7484 45.1803 45.7484 45.2875 45.7484C47.2895 45.7484 47.1823 43.5682 48.5765 42.496C48.2905 42.496 47.504 42.496 46.7175 42.496ZM35.7068 41.3523C35.6353 41.4238 35.385 43.0678 35.4208 43.2465L34.956 43.1751C35.0275 43.0321 35.1348 41.8884 35.1348 41.8884L34.384 43.0678L33.9193 41.7097C33.9193 41.7097 33.7405 42.6747 33.7405 42.9964L33.3116 42.9249C33.4546 42.7104 33.7405 40.9949 33.7405 40.9949L34.2053 41.0663C34.2053 41.1736 34.5628 42.3173 34.5628 42.3173C34.5628 42.3173 35.1705 41.3165 35.2063 41.2451L35.7068 41.3523ZM37.3512 42.8176C36.958 44.1758 35.385 43.4252 35.8498 42.2101C36.243 40.8876 37.816 41.6025 37.3512 42.8176ZM38.8884 43.9971C38.7454 43.9614 37.9947 42.4602 37.9947 42.4602C37.9947 42.4602 37.816 43.6397 37.7802 43.7112L37.4585 43.6754L37.8517 41.8169L38.2092 41.8526C38.2092 41.8884 38.8169 43.1393 38.8169 43.1393C38.8169 43.1393 39.0314 42.1386 39.0314 42.0313L39.3174 42.1028L38.8884 43.9971ZM40.6401 44.1758C40.3899 44.283 39.9967 44.1758 39.7107 44.1043L40.0682 42.2101C41.3551 42.1028 41.8556 43.7112 40.6401 44.1758ZM42.8566 43.2823C42.7851 43.4967 42.6421 43.6397 42.3919 43.7112C42.4991 44.0686 42.5706 44.2115 42.7494 44.6047L42.4634 44.5689C42.3919 44.5332 42.0344 43.9971 41.9271 43.7112C41.8556 43.9614 41.7841 44.2473 41.8199 44.4617L41.3194 44.3902C41.4266 44.2473 41.8199 42.6747 41.7841 42.5317C42.2131 42.6032 42.9996 42.6747 42.8566 43.2823ZM43.8218 44.7834C42.6779 44.9978 42.6779 43.1036 43.6073 42.8176C44.7513 42.6032 44.7513 44.5332 43.8218 44.7834ZM45.0016 43.6754C44.9658 43.9971 44.7871 44.7119 44.8586 45.0336L44.4296 44.9621C44.6083 44.4617 44.7513 43.6397 44.7156 43.1036L45.1446 43.1751C45.0731 43.2823 45.0373 43.461 45.0016 43.6754ZM46.0383 43.6039C46.0383 43.6039 45.788 45.0693 45.788 45.1765L45.359 45.1051C45.359 45.1051 45.645 43.8184 45.6808 43.5325C45.5378 43.4967 45.359 43.5325 45.1803 43.5682L45.359 43.2108L46.5388 43.4252L46.6103 43.8184C46.5388 43.7469 46.217 43.6397 46.0383 43.6039Z" fill="#0B0C0C"/>
<path d="M60.731 17.2986H62.4827C62.4827 18.3351 63.0904 18.8712 64.3416 18.8712C65.5929 18.8712 66.2006 18.4781 66.2006 17.7275C66.2006 17.0485 65.7359 16.7983 63.9126 16.5124C61.7677 16.1549 60.8382 15.3686 60.8382 13.8318C60.8382 12.1162 62.0894 11.1155 64.2701 11.1155C66.4508 11.1155 67.7021 12.152 67.7021 13.939H65.9503C65.9503 13.0812 65.4141 12.6523 64.2701 12.6523C63.1619 12.6523 62.5899 13.0097 62.5899 13.7603C62.5899 14.4394 63.0547 14.6896 64.8779 15.0112C67.0586 15.4044 67.9881 16.1907 67.9881 17.6918C67.9881 19.4074 66.6653 20.4081 64.3416 20.4081C62.0179 20.4081 60.731 19.2644 60.731 17.2986Z" fill="#0B0C0C"/>
<path d="M75.9604 18.5853V20.1937H69.3826V11.2942H75.8889V12.8668H71.1343V14.8683H75.6029V16.4051H71.1343V18.5496H75.9604V18.5853Z" fill="#0B0C0C"/>
<path d="M77.0327 15.7975C77.0327 12.974 78.7487 11.1155 81.3226 11.1155C83.4676 11.1155 84.8261 12.2234 85.112 14.1892V14.4036H83.3603C83.1816 13.2599 82.5023 12.6881 81.3226 12.6881C79.6782 12.6881 78.8202 13.6888 78.8202 15.7618C78.8202 17.7275 79.6424 18.764 81.2511 18.764C82.5381 18.764 83.2888 18.1207 83.5033 16.834H85.255V17.0485C84.8975 19.1572 83.4318 20.3724 81.2511 20.3724C78.7129 20.3724 77.0327 18.5853 77.0327 15.7975Z" fill="#0B0C0C"/>
<path d="M93.9418 19.9792V20.1937H92.0828C92.0828 20.1937 91.9398 19.8005 91.7968 18.5496C91.6896 17.2987 91.2249 16.9412 89.8664 16.9412H88.4722V20.1937H86.7205V11.2942H90.7244C92.6906 11.2942 93.7988 12.3307 93.7988 14.1177C93.7988 15.2614 93.3341 16.012 92.3688 16.3694C93.0838 16.6553 93.4056 17.2272 93.5128 18.2279C93.6916 19.6218 93.9418 19.9792 93.9418 19.9792ZM90.5456 15.4401C91.6181 15.4401 92.0828 15.047 92.0828 14.1535C92.0828 13.2599 91.6181 12.8668 90.5814 12.8668H88.5437V15.4401H90.5456Z" fill="#0B0C0C"/>
<path d="M102.093 18.5853V20.1937H95.5149V11.2942H102.021V12.8668H97.2666V14.8683H101.735V16.4051H97.2666V18.5496H102.093V18.5853Z" fill="#0B0C0C"/>
<path d="M110.887 12.8668H107.848V20.1937H106.061V12.8668H103.022V11.2942H110.887V12.8668Z" fill="#0B0C0C"/>
<path d="M61.1956 22.5168H62.983V31.4163H61.1956V22.5168Z" fill="#0B0C0C"/>
<path d="M65.0566 22.5168H66.8441L71.0983 28.6285H71.134V22.5168H72.8142V31.4163H71.0268L66.7726 25.3046H66.7369V31.4163H65.0566V22.5168Z" fill="#0B0C0C"/>
<path d="M81.7872 24.0894H78.7485V31.4163H76.961V24.0894H73.9224V22.5168H81.7872V24.0894Z" fill="#0B0C0C"/>
<path d="M89.4375 29.808V31.4163H82.8596V22.5168H89.366V24.0894H84.6113V26.0909H89.08V27.6278H84.6113V29.7722H89.4375V29.808Z" fill="#0B0C0C"/>
<path d="M97.1237 29.7722V31.3806H90.9749V22.5168H92.7623V29.7722H97.1237Z" fill="#0B0C0C"/>
<path d="M104.524 29.7722V31.3806H98.3748V22.5168H100.162V29.7722H104.524Z" fill="#0B0C0C"/>
<path d="M105.703 22.5168H107.491V31.4163H105.703V22.5168Z" fill="#0B0C0C"/>
<path d="M109.1 27.0918C109.1 24.0895 110.78 22.3025 113.533 22.3025C115.606 22.3025 117.072 23.4462 117.287 25.1618V25.3762H115.535C115.428 24.4469 114.713 23.9108 113.533 23.9108C111.781 23.9108 110.888 24.9473 110.888 27.0918C110.888 28.9146 111.781 29.9868 113.354 29.9868C114.641 29.9868 115.535 29.2362 115.749 27.9496H113.533V26.5199H117.501V31.3807H116.107V29.9868H116.035C115.606 31.059 114.677 31.5594 113.176 31.5594C110.709 31.5951 109.1 29.8438 109.1 27.0918Z" fill="#0B0C0C"/>
<path d="M125.866 29.808V31.4163H119.288V22.5168H125.83V24.0894H121.076V26.0909H125.544V27.6278H121.076V29.7722H125.866V29.808Z" fill="#0B0C0C"/>
<path d="M127.403 22.5168H129.191L133.445 28.6285H133.48V22.5168H135.161V31.4163H133.373L129.119 25.3046H129.083V31.4163H127.403V22.5168Z" fill="#0B0C0C"/>
<path d="M136.734 26.9845C136.734 24.161 138.45 22.3025 141.024 22.3025C143.169 22.3025 144.527 23.4105 144.813 25.3762V25.5907H143.061C142.883 24.4469 142.203 23.8751 141.024 23.8751C139.379 23.8751 138.521 24.8758 138.521 26.9488C138.521 28.9146 139.343 29.951 140.952 29.951C142.239 29.951 142.99 29.3077 143.204 28.021H144.956V28.2355C144.598 30.3442 143.133 31.5594 140.952 31.5594C138.414 31.5951 136.734 29.7723 136.734 26.9845Z" fill="#0B0C0C"/>
<path d="M153 29.808V31.4163H146.422V22.5168H152.928V24.0894H148.174V26.0909H152.642V27.6278H148.174V29.7722H153V29.808Z" fill="#0B0C0C"/>
<path d="M60.731 39.7081H62.4827C62.4827 40.7446 63.0904 41.2807 64.3416 41.2807C65.5929 41.2807 66.2006 40.8875 66.2006 40.137C66.2006 39.4579 65.7359 39.2077 63.9126 38.9218C61.7677 38.5644 60.8382 37.7781 60.8382 36.2412C60.8382 34.5256 62.0894 33.5249 64.2701 33.5249C66.4508 33.5249 67.7021 34.5614 67.7021 36.3484H65.9503C65.9503 35.4907 65.4141 35.0618 64.2701 35.0618C63.1619 35.0618 62.5899 35.4192 62.5899 36.1697C62.5899 36.8488 63.0547 37.099 64.8779 37.4207C67.0586 37.8138 67.9881 38.6001 67.9881 40.1012C67.9881 41.8168 66.6653 42.8175 64.3416 42.8175C62.0179 42.8175 60.731 41.6738 60.731 39.7081Z" fill="#0B0C0C"/>
<path d="M75.9604 40.9948V42.6031H69.3826V33.7036H75.8889V35.2762H71.1343V37.2777H75.6029V38.8146H71.1343V40.959H75.9604V40.9948Z" fill="#0B0C0C"/>
<path d="M84.6833 42.3886V42.6031H82.8243C82.8243 42.6031 82.6813 42.2099 82.5383 40.959C82.4311 39.7081 81.9663 39.3507 80.6078 39.3507H79.2136V42.6031H77.4619V33.7036H81.4658C83.432 33.7036 84.5403 34.7401 84.5403 36.5271C84.5403 37.6709 84.0755 38.4214 83.1103 38.7788C83.8253 39.0647 84.147 39.6366 84.2543 40.6373C84.433 42.0312 84.6833 42.3886 84.6833 42.3886ZM81.2871 37.8138C82.3596 37.8138 82.8243 37.4207 82.8243 36.5271C82.8243 35.6336 82.3596 35.2405 81.3228 35.2405H79.2851V37.8138H81.2871Z" fill="#0B0C0C"/>
<path d="M85.2549 33.9181V33.7036H87.0781L89.366 40.4944H89.4018L91.7255 33.7036H93.513V33.9181L90.3313 42.6031H88.4008L85.2549 33.9181Z" fill="#0B0C0C"/>
<path d="M94.6213 33.7036H96.4088V42.6031H94.6213V33.7036Z" fill="#0B0C0C"/>
<path d="M97.9814 38.1713C97.9814 35.3478 99.6974 33.4893 102.271 33.4893C104.416 33.4893 105.775 34.5972 106.061 36.563V36.7774H104.309C104.13 35.6337 103.451 35.0619 102.271 35.0619C100.627 35.0619 99.7689 36.0626 99.7689 38.1356C99.7689 40.1013 100.591 41.1378 102.2 41.1378C103.487 41.1378 104.238 40.4945 104.452 39.2078H106.204V39.4222C105.846 41.531 104.381 42.7461 102.2 42.7461C99.6617 42.7819 97.9814 40.9591 97.9814 38.1713Z" fill="#0B0C0C"/>
<path d="M114.283 40.9948V42.6031H107.706V33.7036H114.212V35.2762H109.457V37.2777H113.926V38.8146H109.457V40.959H114.283V40.9948Z" fill="#0B0C0C"/>
<path d="M119.467 33.7036H120.253L123.757 41.8168H123.792L127.296 33.7036H128.082V42.6031H127.546V34.9188L127.582 34.4899H127.546L124.007 42.6031H123.578L120.039 34.4899H120.003V34.9188V42.6031H119.467V33.7036Z" fill="#0B0C0C"/>
<path d="M130.549 33.7036H131.122V42.6031H130.549V33.7036Z" fill="#0B0C0C"/>
<path d="M139.129 39.8154C139.129 41.5667 138.021 42.7462 136.341 42.7462C134.374 42.7462 133.302 41.3523 133.302 38.5288C133.302 35.2764 134.41 33.5608 136.448 33.5608C137.806 33.5608 138.7 34.3828 138.95 35.8125V35.9197H138.45C138.271 34.7045 137.592 34.0254 136.448 34.0254C134.696 34.0254 133.838 35.5265 133.838 38.5288C133.838 38.6717 133.838 38.8147 133.838 38.9577C134.267 37.671 135.197 36.9204 136.448 36.9204C138.057 36.9204 139.129 38.0641 139.129 39.8154ZM138.593 39.8154C138.593 38.3143 137.771 37.3851 136.376 37.3851C135.089 37.3851 134.196 38.2786 133.91 39.8512C134.16 41.4595 134.982 42.2458 136.305 42.2458C137.735 42.2816 138.593 41.3523 138.593 39.8154Z" fill="#0B0C0C"/>
</svg>
