<svg width="1600" height="1600" viewBox="0 0 1600 1600" fill="none" xmlns="http://www.w3.org/2000/svg">
<rect width="1600" height="1600" fill="#1E1E1E"/>
<rect width="1600" height="1600" fill="#07277E"/>
<mask id="path-2-inside-1_0_1" fill="white">
<path d="M1161.56 608.776C1161.05 611.484 1160.7 614.23 1160.01 616.879C1156.8 629.18 1148.88 637.921 1138.8 644.942C1127.58 652.736 1115.1 657.938 1102.31 662.425C1082.58 669.329 1062.89 676.292 1043.18 683.235C1013.03 693.852 982.905 704.47 952.758 715.088C942.357 718.743 932.282 723.036 923.32 729.709C918.619 733.209 916.066 737.831 915.011 743.517C913.149 753.632 912.862 763.844 913.994 773.997C916.22 794.111 918.849 814.185 921.363 834.28C923.205 848.939 924.721 863.676 927.081 878.259C929.979 896.303 933.568 914.231 936.888 932.198C942.184 960.898 947.519 989.599 952.834 1018.3C958.399 1048.3 963.965 1078.27 969.549 1108.27C974.557 1135.25 979.547 1162.25 984.613 1189.21C989.737 1216.53 973.425 1238.95 947.941 1245.6C937.06 1248.44 926.045 1248.89 915.088 1246.28C900.484 1242.82 890.352 1233.57 883.424 1220.48C877.744 1209.75 875.019 1198.08 872.735 1186.25C867.612 1159.65 862.641 1133.02 856.961 1106.55C849.919 1073.67 842.434 1040.89 834.739 1008.16C829.654 986.562 823.724 965.153 816.202 944.247C813.266 936.104 810.291 927.943 805.283 920.768C801.176 914.888 797.645 914.869 793.462 920.71C788.28 927.943 785.229 936.24 782.312 944.537C773.811 968.653 767.517 993.428 761.894 1018.34C755.696 1045.82 749.785 1073.36 744.105 1100.94C739.461 1123.47 735.412 1146.12 730.998 1168.69C728.676 1180.46 726.412 1192.26 723.553 1203.92C721.288 1213.17 717.22 1221.74 711.348 1229.34C703.653 1239.3 693.597 1245.27 681.239 1247.07C667.403 1249.08 653.951 1247.69 641.304 1241.33C621.711 1231.48 611.848 1211.74 615.762 1189.98C621.5 1157.95 627.372 1125.95 633.187 1093.92C638.618 1063.98 644.029 1034.02 649.46 1004.08C655.985 968.054 662.375 931.985 669.091 895.993C672.833 875.918 674.964 855.65 677.689 835.44C679.972 818.479 682.313 801.518 684.424 784.537C686.209 770.206 687.111 755.837 685.173 741.39C683.599 729.612 677.477 721.392 666.827 716.809C659.861 713.83 652.684 711.316 645.449 709.034C614.995 699.345 584.502 689.83 554.028 680.256C534.589 674.145 514.938 668.594 495.748 661.748C482.814 657.126 470.111 651.498 459.019 642.95C444.761 631.945 437.411 617.827 439.368 599.396C441.076 583.267 446.776 568.974 458.942 557.97C469.477 548.455 481.778 545.631 495.461 549.518C512.482 554.373 529.427 559.517 546.525 564.101C577.536 572.417 608.797 579.65 640.249 585.993C665.963 591.177 691.793 595.702 717.815 599.164C744.796 602.742 771.835 605.237 799.065 605.295C817.219 605.333 835.334 604.192 853.411 602.413C880.699 599.744 907.776 595.625 934.719 590.674C964.156 585.259 993.44 579.128 1022.44 571.701C1049.17 564.836 1075.82 557.583 1102.4 550.137C1113.65 546.985 1124.35 546.849 1134.68 552.826C1142.47 557.332 1148.23 563.888 1152.64 571.682C1157.53 580.346 1160.45 589.668 1161.24 599.628C1161.28 600.034 1161.49 600.421 1161.6 600.808V608.679L1161.56 608.776Z"/>
</mask>
<path d="M1161.56 608.776C1161.05 611.484 1160.7 614.23 1160.01 616.879C1156.8 629.18 1148.88 637.921 1138.8 644.942C1127.58 652.736 1115.1 657.938 1102.31 662.425C1082.58 669.329 1062.89 676.292 1043.18 683.235C1013.03 693.852 982.905 704.47 952.758 715.088C942.357 718.743 932.282 723.036 923.32 729.709C918.619 733.209 916.066 737.831 915.011 743.517C913.149 753.632 912.862 763.844 913.994 773.997C916.22 794.111 918.849 814.185 921.363 834.28C923.205 848.939 924.721 863.676 927.081 878.259C929.979 896.303 933.568 914.231 936.888 932.198C942.184 960.898 947.519 989.599 952.834 1018.3C958.399 1048.3 963.965 1078.27 969.549 1108.27C974.557 1135.25 979.547 1162.25 984.613 1189.21C989.737 1216.53 973.425 1238.95 947.941 1245.6C937.06 1248.44 926.045 1248.89 915.088 1246.28C900.484 1242.82 890.352 1233.57 883.424 1220.48C877.744 1209.75 875.019 1198.08 872.735 1186.25C867.612 1159.65 862.641 1133.02 856.961 1106.55C849.919 1073.67 842.434 1040.89 834.739 1008.16C829.654 986.562 823.724 965.153 816.202 944.247C813.266 936.104 810.291 927.943 805.283 920.768C801.176 914.888 797.645 914.869 793.462 920.71C788.28 927.943 785.229 936.24 782.312 944.537C773.811 968.653 767.517 993.428 761.894 1018.34C755.696 1045.82 749.785 1073.36 744.105 1100.94C739.461 1123.47 735.412 1146.12 730.998 1168.69C728.676 1180.46 726.412 1192.26 723.553 1203.92C721.288 1213.17 717.22 1221.74 711.348 1229.34C703.653 1239.3 693.597 1245.27 681.239 1247.07C667.403 1249.08 653.951 1247.69 641.304 1241.33C621.711 1231.48 611.848 1211.74 615.762 1189.98C621.5 1157.95 627.372 1125.95 633.187 1093.92C638.618 1063.98 644.029 1034.02 649.46 1004.08C655.985 968.054 662.375 931.985 669.091 895.993C672.833 875.918 674.964 855.65 677.689 835.44C679.972 818.479 682.313 801.518 684.424 784.537C686.209 770.206 687.111 755.837 685.173 741.39C683.599 729.612 677.477 721.392 666.827 716.809C659.861 713.83 652.684 711.316 645.449 709.034C614.995 699.345 584.502 689.83 554.028 680.256C534.589 674.145 514.938 668.594 495.748 661.748C482.814 657.126 470.111 651.498 459.019 642.95C444.761 631.945 437.411 617.827 439.368 599.396C441.076 583.267 446.776 568.974 458.942 557.97C469.477 548.455 481.778 545.631 495.461 549.518C512.482 554.373 529.427 559.517 546.525 564.101C577.536 572.417 608.797 579.65 640.249 585.993C665.963 591.177 691.793 595.702 717.815 599.164C744.796 602.742 771.835 605.237 799.065 605.295C817.219 605.333 835.334 604.192 853.411 602.413C880.699 599.744 907.776 595.625 934.719 590.674C964.156 585.259 993.44 579.128 1022.44 571.701C1049.17 564.836 1075.82 557.583 1102.4 550.137C1113.65 546.985 1124.35 546.849 1134.68 552.826C1142.47 557.332 1148.23 563.888 1152.64 571.682C1157.53 580.346 1160.45 589.668 1161.24 599.628C1161.28 600.034 1161.49 600.421 1161.6 600.808V608.679L1161.56 608.776Z" fill="#07277E" stroke="white" stroke-width="28.8" mask="url(#path-2-inside-1_0_1)"/>
<mask id="path-3-inside-2_0_1" fill="white">
<path d="M807.389 352C811.151 352.58 814.969 352.948 818.673 353.779C855.384 361.979 880.906 383.698 892.516 419.728C904.26 456.184 896.297 489.352 870.486 517.55C853.445 536.174 831.761 546.424 806.699 547.701C768.798 549.615 739.016 534.221 718.041 502.291C707.64 486.451 702.785 468.678 702.958 449.725C703.188 423.693 712.188 401.007 730.092 382.151C746.346 365.035 766.38 355.346 789.696 352.522C790.828 352.387 791.941 352.174 793.074 352.019C797.852 352.019 802.63 352.019 807.389 352.019V352Z"/>
</mask>
<path d="M807.389 352C811.151 352.58 814.969 352.948 818.673 353.779C855.384 361.979 880.906 383.698 892.516 419.728C904.26 456.184 896.297 489.352 870.486 517.55C853.445 536.174 831.761 546.424 806.699 547.701C768.798 549.615 739.016 534.221 718.041 502.291C707.64 486.451 702.785 468.678 702.958 449.725C703.188 423.693 712.188 401.007 730.092 382.151C746.346 365.035 766.38 355.346 789.696 352.522C790.828 352.387 791.941 352.174 793.074 352.019C797.852 352.019 802.63 352.019 807.389 352.019V352Z" fill="#07277E" stroke="white" stroke-width="28.8" mask="url(#path-3-inside-2_0_1)"/>
</svg>
