<svg width="1600" height="1600" viewBox="0 0 1600 1600" fill="none" xmlns="http://www.w3.org/2000/svg">
<rect width="1600" height="1600" fill="#07277E"/>
<mask id="path-2-inside-1_743_11317" fill="white">
<rect x="336" y="368.422" width="887.579" height="887.579" rx="2.5"/>
</mask>
<rect x="336" y="368.422" width="887.579" height="887.579" rx="2.5" stroke="white" stroke-width="28.48" mask="url(#path-2-inside-1_743_11317)"/>
<rect x="992" y="192" width="384" height="384" fill="#07277E"/>
<path fill-rule="evenodd" clip-rule="evenodd" d="M1013.19 462.663C1013.55 460.396 1014.61 458.3 1016.24 456.68L1233.92 238.995C1235.95 236.97 1238.7 235.833 1241.56 235.833C1244.42 235.833 1247.17 236.97 1249.2 238.995L1333.22 323.019C1335.24 325.044 1336.37 327.785 1336.37 330.644C1336.37 333.502 1335.24 336.244 1333.22 338.269L1115.49 555.975C1113.87 557.592 1111.77 558.651 1109.51 558.999L1010.26 574.249C1008.58 574.506 1006.87 574.364 1005.26 573.837C1003.65 573.309 1002.18 572.409 1000.98 571.21C999.784 570.011 998.884 568.547 998.356 566.936C997.829 565.325 997.687 563.612 997.944 561.937L1013.19 462.663ZM1034.02 469.446L1021.55 550.662L1102.75 538.177L1310.3 330.644L1241.55 261.913L1034.02 469.446Z" fill="white"/>
<path fill-rule="evenodd" clip-rule="evenodd" d="M1262.2 384.535L1185.8 308.287L1201.07 292.994L1277.45 369.242L1262.2 384.535Z" fill="white"/>
<path d="M1193.55 292.494L1024.56 461.482L1012.49 570.118L1096.99 558.047L1145.27 521.835L1265.98 389.059L1193.55 292.494Z" fill="white"/>
</svg>
