<svg width="248" height="140" viewBox="0 0 248 140" fill="none" xmlns="http://www.w3.org/2000/svg">
<rect width="248" height="140" fill="#1E1E1E"/>
<rect width="248" height="140" fill="#07277E"/>
<g clip-path="url(#clip0_0_1)">
<mask id="path-2-inside-1_0_1" fill="white">
<path d="M157 54.4996C156.952 54.7474 156.92 54.9987 156.856 55.2412C156.559 56.3669 155.824 57.1669 154.89 57.8094C153.849 58.5227 152.692 58.9988 151.505 59.4094C149.676 60.0413 147.851 60.6785 146.023 61.3139C143.228 62.2856 140.434 63.2573 137.638 64.229C136.674 64.5635 135.74 64.9565 134.909 65.5671C134.473 65.8875 134.236 66.3105 134.138 66.8308C133.966 67.7565 133.939 68.6911 134.044 69.6203C134.25 71.461 134.494 73.2982 134.727 75.1372C134.898 76.4788 135.039 77.8275 135.258 79.1621C135.526 80.8134 135.859 82.4542 136.167 84.0985C136.658 86.7251 137.153 89.3517 137.646 91.9783C138.162 94.7235 138.678 97.4669 139.195 100.212C139.66 102.681 140.123 105.152 140.592 107.619C141.067 110.12 139.555 112.172 137.192 112.78C136.183 113.041 135.162 113.081 134.146 112.842C132.791 112.526 131.852 111.68 131.209 110.481C130.683 109.499 130.43 108.432 130.218 107.349C129.743 104.915 129.282 102.478 128.756 100.055C128.103 97.0456 127.409 94.0456 126.695 91.0508C126.224 89.0738 125.674 87.1145 124.976 85.2011C124.704 84.456 124.428 83.7091 123.964 83.0524C123.583 82.5144 123.256 82.5126 122.868 83.0471C122.387 83.7091 122.104 84.4684 121.834 85.2277C121.046 87.4348 120.462 89.7021 119.941 91.9818C119.366 94.4969 118.818 97.0173 118.291 99.5413C117.86 101.603 117.485 103.676 117.076 105.741C116.86 106.819 116.65 107.899 116.385 108.966C116.175 109.812 115.798 110.596 115.254 111.292C114.54 112.203 113.608 112.75 112.462 112.915C111.179 113.099 109.931 112.972 108.759 112.389C106.942 111.488 106.027 109.681 106.39 107.69C106.922 104.759 107.467 101.83 108.006 98.8988C108.51 96.1589 109.011 93.4173 109.515 90.6774C110.12 87.38 110.713 84.079 111.335 80.7851C111.682 78.9479 111.88 77.093 112.132 75.2434C112.344 73.6912 112.561 72.1389 112.757 70.5849C112.923 69.2734 113.006 67.9583 112.826 66.6361C112.681 65.5582 112.113 64.806 111.125 64.3865C110.479 64.114 109.814 63.8839 109.143 63.675C106.319 62.7883 103.492 61.9175 100.666 61.0413C98.8634 60.482 97.0413 59.9741 95.2619 59.3475C94.0626 58.9245 92.8846 58.4094 91.8561 57.6271C90.534 56.62 89.8525 55.3279 90.034 53.6412C90.1924 52.165 90.7209 50.857 91.849 49.8499C92.8259 48.9791 93.9665 48.7207 95.2352 49.0765C96.8136 49.5207 98.3848 49.9915 99.9702 50.411C102.846 51.1721 105.744 51.8341 108.661 52.4146C111.045 52.8889 113.44 53.3031 115.853 53.6199C118.355 53.9474 120.862 54.1757 123.387 54.181C125.071 54.1845 126.75 54.0801 128.426 53.9173C130.957 53.673 133.468 53.296 135.966 52.8429C138.695 52.3473 141.411 51.7863 144.1 51.1066C146.578 50.4783 149.05 49.8145 151.514 49.1331C152.557 48.8446 153.55 48.8322 154.507 49.3791C155.23 49.7915 155.764 50.3915 156.173 51.1048C156.627 51.8978 156.897 52.7509 156.97 53.6624C156.974 53.6996 156.993 53.735 157.004 53.7704V54.4907L157 54.4996Z"/>
</mask>
<path d="M157 54.4996C156.952 54.7474 156.92 54.9987 156.856 55.2412C156.559 56.3669 155.824 57.1669 154.89 57.8094C153.849 58.5227 152.692 58.9988 151.505 59.4094C149.676 60.0413 147.851 60.6785 146.023 61.3139C143.228 62.2856 140.434 63.2573 137.638 64.229C136.674 64.5635 135.74 64.9565 134.909 65.5671C134.473 65.8875 134.236 66.3105 134.138 66.8308C133.966 67.7565 133.939 68.6911 134.044 69.6203C134.25 71.461 134.494 73.2982 134.727 75.1372C134.898 76.4788 135.039 77.8275 135.258 79.1621C135.526 80.8134 135.859 82.4542 136.167 84.0985C136.658 86.7251 137.153 89.3517 137.646 91.9783C138.162 94.7235 138.678 97.4669 139.195 100.212C139.66 102.681 140.123 105.152 140.592 107.619C141.067 110.12 139.555 112.172 137.192 112.78C136.183 113.041 135.162 113.081 134.146 112.842C132.791 112.526 131.852 111.68 131.209 110.481C130.683 109.499 130.43 108.432 130.218 107.349C129.743 104.915 129.282 102.478 128.756 100.055C128.103 97.0456 127.409 94.0456 126.695 91.0508C126.224 89.0738 125.674 87.1145 124.976 85.2011C124.704 84.456 124.428 83.7091 123.964 83.0524C123.583 82.5144 123.256 82.5126 122.868 83.0471C122.387 83.7091 122.104 84.4684 121.834 85.2277C121.046 87.4348 120.462 89.7021 119.941 91.9818C119.366 94.4969 118.818 97.0173 118.291 99.5413C117.86 101.603 117.485 103.676 117.076 105.741C116.86 106.819 116.65 107.899 116.385 108.966C116.175 109.812 115.798 110.596 115.254 111.292C114.54 112.203 113.608 112.75 112.462 112.915C111.179 113.099 109.931 112.972 108.759 112.389C106.942 111.488 106.027 109.681 106.39 107.69C106.922 104.759 107.467 101.83 108.006 98.8988C108.51 96.1589 109.011 93.4173 109.515 90.6774C110.12 87.38 110.713 84.079 111.335 80.7851C111.682 78.9479 111.88 77.093 112.132 75.2434C112.344 73.6912 112.561 72.1389 112.757 70.5849C112.923 69.2734 113.006 67.9583 112.826 66.6361C112.681 65.5582 112.113 64.806 111.125 64.3865C110.479 64.114 109.814 63.8839 109.143 63.675C106.319 62.7883 103.492 61.9175 100.666 61.0413C98.8634 60.482 97.0413 59.9741 95.2619 59.3475C94.0626 58.9245 92.8846 58.4094 91.8561 57.6271C90.534 56.62 89.8525 55.3279 90.034 53.6412C90.1924 52.165 90.7209 50.857 91.849 49.8499C92.8259 48.9791 93.9665 48.7207 95.2352 49.0765C96.8136 49.5207 98.3848 49.9915 99.9702 50.411C102.846 51.1721 105.744 51.8341 108.661 52.4146C111.045 52.8889 113.44 53.3031 115.853 53.6199C118.355 53.9474 120.862 54.1757 123.387 54.181C125.071 54.1845 126.75 54.0801 128.426 53.9173C130.957 53.673 133.468 53.296 135.966 52.8429C138.695 52.3473 141.411 51.7863 144.1 51.1066C146.578 50.4783 149.05 49.8145 151.514 49.1331C152.557 48.8446 153.55 48.8322 154.507 49.3791C155.23 49.7915 155.764 50.3915 156.173 51.1048C156.627 51.8978 156.897 52.7509 156.97 53.6624C156.974 53.6996 156.993 53.735 157.004 53.7704V54.4907L157 54.4996Z" fill="#07277E" stroke="white" stroke-width="1.80645" mask="url(#path-2-inside-1_0_1)"/>
<mask id="path-3-inside-2_0_1" fill="white">
<path d="M124.159 31C124.508 31.0531 124.862 31.0867 125.205 31.1628C128.609 31.9133 130.976 33.9009 132.052 37.1984C133.141 40.5347 132.403 43.5702 130.01 46.1508C128.43 47.8552 126.419 48.7933 124.095 48.9101C120.581 49.0853 117.819 47.6765 115.874 44.7543C114.91 43.3047 114.459 41.6781 114.476 39.9436C114.497 37.5612 115.331 35.4851 116.992 33.7594C118.499 32.1929 120.356 31.3062 122.518 31.0478C122.623 31.0354 122.727 31.0159 122.832 31.0018C123.275 31.0018 123.718 31.0018 124.159 31.0018V31Z"/>
</mask>
<path d="M124.159 31C124.508 31.0531 124.862 31.0867 125.205 31.1628C128.609 31.9133 130.976 33.9009 132.052 37.1984C133.141 40.5347 132.403 43.5702 130.01 46.1508C128.43 47.8552 126.419 48.7933 124.095 48.9101C120.581 49.0853 117.819 47.6765 115.874 44.7543C114.91 43.3047 114.459 41.6781 114.476 39.9436C114.497 37.5612 115.331 35.4851 116.992 33.7594C118.499 32.1929 120.356 31.3062 122.518 31.0478C122.623 31.0354 122.727 31.0159 122.832 31.0018C123.275 31.0018 123.718 31.0018 124.159 31.0018V31Z" fill="#07277E" stroke="white" stroke-width="1.80645" mask="url(#path-3-inside-2_0_1)"/>
</g>
<defs>
<clipPath id="clip0_0_1">
<rect width="67" height="82" fill="white" transform="translate(90 31)"/>
</clipPath>
</defs>
</svg>
