<svg width="1600" height="1600" viewBox="0 0 1600 1600" fill="none" xmlns="http://www.w3.org/2000/svg">
<rect width="1600" height="1600" fill="#07277E"/>
<path d="M940.833 940.834C1018.61 940.834 1081.67 877.78 1081.67 800C1081.67 722.22 1018.61 659.167 940.833 659.167C863.053 659.167 800 722.22 800 800C800 877.78 863.053 940.834 940.833 940.834Z" stroke="white" stroke-width="16" stroke-linecap="round" stroke-linejoin="round"/>
<path d="M659.167 940.833C631.313 940.833 604.084 949.093 580.924 964.568C557.764 980.043 539.713 1002.04 529.054 1027.77C518.395 1053.51 515.606 1081.82 521.04 1109.14C526.474 1136.46 539.887 1161.55 559.583 1181.25C579.279 1200.95 604.373 1214.36 631.692 1219.79C659.011 1225.23 687.328 1222.44 713.061 1211.78C738.795 1201.12 760.791 1183.07 776.266 1159.91C791.74 1136.75 800 1109.52 800 1081.67V940.833M659.167 940.833H800M659.167 940.833C621.816 940.833 585.994 925.996 559.583 899.584C533.171 873.173 518.334 837.351 518.334 800C518.334 762.649 533.171 726.827 559.583 700.416C585.994 674.004 621.816 659.167 659.167 659.167M800 940.833V659.167M800 377.5H940.834C978.185 377.5 1014.01 392.338 1040.42 418.749C1066.83 445.16 1081.67 480.982 1081.67 518.333C1081.67 555.685 1066.83 591.506 1040.42 617.918C1014.01 644.329 978.185 659.167 940.834 659.167H800M800 377.5V659.167M800 377.5H659.167C621.816 377.5 585.994 392.338 559.583 418.749C533.171 445.16 518.334 480.982 518.334 518.333C518.334 555.685 533.171 591.506 559.583 617.918C585.994 644.329 621.816 659.167 659.167 659.167M800 659.167H659.167" stroke="white" stroke-width="16" stroke-linecap="round" stroke-linejoin="round"/>
</svg>
