<svg width="248" height="140" viewBox="0 0 248 140" fill="none" xmlns="http://www.w3.org/2000/svg">
<rect width="248" height="140" fill="#07277E"/>
<path d="M140.13 85.6303C147.796 85.6303 154.01 79.4159 154.01 71.7501C154.01 64.0843 147.796 57.8699 140.13 57.8699C132.464 57.8699 126.25 64.0843 126.25 71.7501C126.25 79.4159 132.464 85.6303 140.13 85.6303Z" stroke="white" stroke-linecap="round" stroke-linejoin="round"/>
<path d="M112.37 85.6302C109.624 85.6302 106.941 86.4443 104.658 87.9694C102.376 89.4946 100.597 91.6624 99.5461 94.1987C98.4955 96.735 98.2206 99.5258 98.7562 102.218C99.2918 104.911 100.614 107.384 102.555 109.325C104.496 111.266 106.969 112.588 109.662 113.124C112.354 113.659 115.145 113.385 117.681 112.334C120.218 111.284 122.386 109.504 123.911 107.222C125.436 104.939 126.25 102.256 126.25 99.5104V85.6302M112.37 85.6302H126.25M112.37 85.6302C108.688 85.6302 105.158 84.1678 102.555 81.5648C99.9519 78.9617 98.4895 75.4313 98.4895 71.75C98.4895 68.0687 99.9519 64.5383 102.555 61.9352C105.158 59.3322 108.688 57.8698 112.37 57.8698M126.25 85.6302V57.8698M126.25 30.1094H140.13C143.811 30.1094 147.342 31.5717 149.945 34.1748C152.548 36.7778 154.01 40.3083 154.01 43.9896C154.01 47.6708 152.548 51.2013 149.945 53.8044C147.342 56.4074 143.811 57.8698 140.13 57.8698H126.25M126.25 30.1094V57.8698M126.25 30.1094H112.37C108.688 30.1094 105.158 31.5717 102.555 34.1748C99.9519 36.7778 98.4895 40.3083 98.4895 43.9896C98.4895 47.6708 99.9519 51.2013 102.555 53.8044C105.158 56.4074 108.688 57.8698 112.37 57.8698M126.25 57.8698H112.37" stroke="white" stroke-linecap="round" stroke-linejoin="round"/>
</svg>
