<svg width="248" height="140" viewBox="0 0 248 140" fill="none" xmlns="http://www.w3.org/2000/svg">
<rect width="248" height="140" fill="#07277E"/>
<path fill-rule="evenodd" clip-rule="evenodd" d="M159.643 65.6013C159.688 65.3022 159.821 65.0257 160.024 64.8119L187.22 36.0896C187.473 35.8224 187.816 35.6724 188.174 35.6724C188.532 35.6724 188.875 35.8224 189.128 36.0896L199.625 47.1761C199.877 47.4432 200.019 47.805 200.019 48.1821C200.019 48.5593 199.877 48.9211 199.625 49.1882L172.424 77.9133C172.221 78.1267 171.959 78.2664 171.676 78.3123L159.276 80.3244C159.067 80.3583 158.853 80.3397 158.652 80.2701C158.451 80.2004 158.268 80.0817 158.118 79.9235C157.968 79.7653 157.856 79.5722 157.79 79.3596C157.724 79.147 157.706 78.921 157.738 78.6999L159.643 65.6013ZM162.245 66.4962L160.688 77.2122L170.832 75.5649L196.762 48.1821L188.173 39.1134L162.245 66.4962Z" fill="white"/>
<path fill-rule="evenodd" clip-rule="evenodd" d="M190.752 55.2927L181.208 45.2322L183.115 43.2144L192.657 53.2749L190.752 55.2927Z" fill="white"/>
<path d="M182.176 43.1484L161.064 65.4455L159.556 79.7793L170.112 78.1867L176.144 73.4087L191.224 55.8896L182.176 43.1484Z" fill="white"/>
<path d="M60 84.257C124.966 111.745 111.31 63.7574 156 84.257" stroke="white"/>
</svg>
