<svg width="248" height="140" viewBox="0 0 248 140" fill="none" xmlns="http://www.w3.org/2000/svg">
<rect width="248" height="140" fill="#07277E"/>
<path d="M127.113 24C128.846 24.2673 130.605 24.4366 132.312 24.8197C149.224 28.5975 160.982 38.6032 166.331 55.2021C171.741 71.9971 168.072 87.2774 156.182 100.268C148.331 108.848 138.341 113.57 126.795 114.158C109.335 115.04 95.6138 107.948 85.9509 93.2381C81.1592 85.941 78.9225 77.7529 79.002 69.0212C79.1081 57.0286 83.2544 46.5774 91.5028 37.8904C98.9909 30.0052 108.221 25.5414 118.962 24.2406C119.484 24.1782 119.996 24.0802 120.518 24.0089C122.719 24.0089 124.921 24.0089 127.113 24.0089V24Z" fill="white"/>
<mask id="path-3-inside-1_767_17303" fill="white">
<path d="M135.024 107.338C135.377 98.4515 136.081 93.1197 132.207 89.2097C159.326 86.3661 152.282 58.2855 147.351 55.0864C149.464 50.1101 147.351 43.7119 146.999 43.0012C141.364 43.0012 140.66 44.4228 134.672 47.6211C125.515 45.1338 118.119 46.2001 112.484 47.6211C107.553 43.7119 102.622 43.001 100.486 43C98.3958 48.6883 98.748 51.5319 99.8046 55.0864C95.9529 58.9974 87.1475 84.9455 115.301 89.2098C113.562 91.3436 113.188 92.0535 112.484 94.8971C108.962 96.6743 104.383 97.0298 100.509 92.0535C99.0069 90.1237 98.5136 88.262 95.5785 87.0772C93.8176 86.3662 90.9997 86.3662 91 87.7881C91.3522 89.9208 94.8742 89.5653 96.9873 95.2525C100.157 104.494 110.371 101.651 112.484 101.651C112.483 104.25 112.485 107.338 112.484 108.76C112.132 115.158 107.553 111.248 101.566 109.826C117.767 120.845 147.703 114.802 144.886 109.47C134.079 115.049 135.024 110.892 135.024 107.338Z"/>
</mask>
<path d="M135.024 107.338C135.377 98.4515 136.081 93.1197 132.207 89.2097C159.326 86.3661 152.282 58.2855 147.351 55.0864C149.464 50.1101 147.351 43.7119 146.999 43.0012C141.364 43.0012 140.66 44.4228 134.672 47.6211C125.515 45.1338 118.119 46.2001 112.484 47.6211C107.553 43.7119 102.622 43.001 100.486 43C98.3958 48.6883 98.748 51.5319 99.8046 55.0864C95.9529 58.9974 87.1475 84.9455 115.301 89.2098C113.562 91.3436 113.188 92.0535 112.484 94.8971C108.962 96.6743 104.383 97.0298 100.509 92.0535C99.0069 90.1237 98.5136 88.262 95.5785 87.0772C93.8176 86.3662 90.9997 86.3662 91 87.7881C91.3522 89.9208 94.8742 89.5653 96.9873 95.2525C100.157 104.494 110.371 101.651 112.484 101.651C112.483 104.25 112.485 107.338 112.484 108.76C112.132 115.158 107.553 111.248 101.566 109.826C117.767 120.845 147.703 114.802 144.886 109.47C134.079 115.049 135.024 110.892 135.024 107.338Z" fill="#07277E"/>
<path d="M132.207 89.2097L132.103 88.2152L130.029 88.4326L131.497 89.9136L132.207 89.2097ZM135.024 107.338L134.025 107.298L134.024 107.318V107.338H135.024ZM144.886 109.47L145.77 109.003L145.307 108.128L144.427 108.582L144.886 109.47ZM101.566 109.826L101.797 108.853L101.003 110.653L101.566 109.826ZM112.484 108.76L113.482 108.815L113.484 108.787L113.484 108.76L112.484 108.76ZM112.484 101.651L113.484 101.651L113.484 100.651H112.484V101.651ZM96.9873 95.2525L97.9332 94.9281L97.9291 94.9161L97.9247 94.9042L96.9873 95.2525ZM91 87.7881L90 87.7883L90 87.8702L90.0134 87.951L91 87.7881ZM95.5785 87.0772L95.2042 88.0044L95.2042 88.0044L95.5785 87.0772ZM100.509 92.0535L99.7202 92.6678L99.7202 92.6678L100.509 92.0535ZM112.484 94.8971L112.934 95.7899L113.344 95.5831L113.455 95.1375L112.484 94.8971ZM115.301 89.2098L116.077 89.8416L117.184 88.4835L115.451 88.2211L115.301 89.2098ZM99.8046 55.0864L100.517 55.7881L100.931 55.3674L100.763 54.8015L99.8046 55.0864ZM100.486 43L100.487 42L99.7886 41.9997L99.5477 42.655L100.486 43ZM112.484 47.6211L111.862 48.4047L112.249 48.7115L112.728 48.5908L112.484 47.6211ZM134.672 47.6211L134.41 48.5862L134.793 48.6902L135.143 48.5032L134.672 47.6211ZM146.999 43.0012L147.895 42.5569L147.619 42.0012L146.999 42.0012L146.999 43.0012ZM147.351 55.0864L146.431 54.6955L146.103 55.4683L146.807 55.9253L147.351 55.0864ZM131.497 89.9136C133.218 91.651 133.954 93.7108 134.205 96.4973C134.461 99.3446 134.204 102.792 134.025 107.298L136.024 107.377C136.197 102.997 136.468 99.3356 136.197 96.3179C135.919 93.2395 135.07 90.6784 132.917 88.5059L131.497 89.9136ZM134.024 107.338C134.024 108.13 133.964 109.187 134.051 110.054C134.138 110.931 134.4 111.993 135.326 112.646C136.241 113.292 137.499 113.323 139.017 112.963C140.565 112.596 142.617 111.767 145.345 110.359L144.427 108.582C141.751 109.963 139.869 110.706 138.555 111.017C137.211 111.336 136.678 111.152 136.479 111.012C136.291 110.879 136.113 110.583 136.041 109.856C135.967 109.118 136.024 108.323 136.024 107.338H134.024ZM144.002 109.938C144.076 110.077 144.082 110.178 144.062 110.274C144.039 110.388 143.961 110.567 143.75 110.805C143.314 111.296 142.471 111.856 141.189 112.406C138.656 113.494 134.785 114.389 130.271 114.784C121.221 115.574 109.957 114.323 102.128 108.999L101.003 110.653C109.376 116.347 121.181 117.585 130.445 116.776C135.087 116.37 139.185 115.444 141.979 114.244C143.361 113.65 144.521 112.949 145.246 112.132C145.615 111.716 145.908 111.229 146.021 110.675C146.139 110.101 146.048 109.53 145.77 109.003L144.002 109.938ZM101.335 110.799C102.767 111.139 104.124 111.63 105.405 112.098C106.651 112.553 107.887 113.012 108.958 113.209C110.024 113.404 111.214 113.396 112.137 112.571C113.019 111.784 113.391 110.48 113.482 108.815L111.485 108.705C111.401 110.239 111.068 110.845 110.805 111.079C110.584 111.277 110.19 111.402 109.319 111.242C108.452 111.083 107.399 110.697 106.091 110.22C104.819 109.755 103.359 109.224 101.797 108.853L101.335 110.799ZM113.484 108.76C113.485 107.332 113.483 104.256 113.484 101.651L111.484 101.65C111.483 104.245 111.485 107.344 111.484 108.759L113.484 108.76ZM112.484 100.651C112.145 100.651 111.687 100.705 111.22 100.762C110.726 100.823 110.158 100.896 109.524 100.955C108.255 101.074 106.767 101.134 105.269 100.927C103.773 100.72 102.301 100.251 101.033 99.3393C99.7758 98.4353 98.663 97.0559 97.9332 94.9281L96.0414 95.577C96.8965 98.07 98.2491 99.8008 99.8649 100.963C101.469 102.117 103.277 102.67 104.995 102.908C106.71 103.145 108.37 103.072 109.71 102.946C110.38 102.883 110.982 102.806 111.463 102.747C111.971 102.685 112.294 102.651 112.484 102.651V100.651ZM97.9247 94.9042C96.7886 91.8466 95.2432 90.3666 93.9321 89.3864C93.6195 89.1527 93.3163 88.9447 93.0671 88.7695C92.8074 88.5869 92.6051 88.4393 92.4395 88.2966C92.1264 88.0269 92.0225 87.8425 91.9866 87.6251L90.0134 87.951C90.1536 88.8 90.6221 89.3709 91.1344 89.8121C91.3815 90.0249 91.6552 90.2216 91.9169 90.4056C92.1891 90.597 92.4528 90.7777 92.7345 90.9883C93.8007 91.7853 95.0729 92.9712 96.0499 95.6008L97.9247 94.9042ZM92 87.7878C92 87.7834 91.9988 87.8063 91.9829 87.833C91.9703 87.8541 91.9679 87.8446 92.0111 87.8166C92.1141 87.7499 92.3422 87.665 92.7245 87.6283C93.4799 87.5556 94.4638 87.7056 95.2042 88.0044L95.9529 86.1499C94.9323 85.7378 93.6267 85.5323 92.5331 85.6374C91.9908 85.6895 91.4044 85.8268 90.9241 86.1378C90.4013 86.4763 89.9998 87.0344 90 87.7883L92 87.7878ZM95.2042 88.0044C97.8068 89.0551 98.0123 90.4739 99.7202 92.6678L101.298 91.4392C100.002 89.7734 99.2203 87.4689 95.9529 86.1499L95.2042 88.0044ZM99.7202 92.6678C101.791 95.3276 104.121 96.6422 106.48 96.9968C108.814 97.3476 111.051 96.7403 112.934 95.7899L112.033 94.0043C110.395 94.8311 108.582 95.2902 106.777 95.019C104.998 94.7515 103.102 93.7557 101.298 91.4392L99.7202 92.6678ZM113.455 95.1375C113.805 93.7244 114.053 92.9279 114.4 92.2337C114.745 91.5411 115.211 90.9035 116.077 89.8416L114.526 88.5781C113.653 89.65 113.062 90.4342 112.61 91.3408C112.158 92.2459 111.868 93.2262 111.513 94.6566L113.455 95.1375ZM115.451 88.2211C108.569 87.1786 104.057 84.8294 101.17 81.9242C98.2864 79.0215 96.9432 75.4817 96.5448 71.9049C96.145 68.3165 96.7007 64.7123 97.5986 61.7594C98.5091 58.7653 99.7231 56.5943 100.517 55.7881L99.0921 54.3847C97.9602 55.534 96.6291 58.0731 95.6851 61.1775C94.7286 64.3231 94.1203 68.2058 94.5571 72.1263C94.9951 76.0584 96.4886 80.0496 99.7516 83.3338C103.012 86.6154 107.957 89.1088 115.152 90.1986L115.451 88.2211ZM100.763 54.8015C100.248 53.0671 99.9272 51.5818 99.965 49.8654C100.003 48.1434 100.404 46.1232 101.425 43.345L99.5477 42.655C98.4782 45.5651 98.0099 47.8108 97.9655 49.8213C97.921 51.8374 98.305 53.5511 98.846 55.3713L100.763 54.8015ZM100.486 44C102.441 44.001 107.14 44.661 111.862 48.4047L113.105 46.8375C107.965 42.7629 102.803 42.0011 100.487 42L100.486 44ZM112.728 48.5908C118.262 47.1952 125.473 46.1587 134.41 48.5862L134.934 46.6561C125.557 44.1088 117.975 45.205 112.239 46.6515L112.728 48.5908ZM135.143 48.5032C136.66 47.693 137.843 46.9948 138.837 46.413C139.839 45.8262 140.624 45.3733 141.388 45.019C142.854 44.3394 144.288 44.0012 146.999 44.0012L146.999 42.0012C144.075 42.0012 142.339 42.3737 140.547 43.2046C139.682 43.6055 138.816 44.1077 137.826 44.687C136.828 45.2712 135.678 45.9501 134.201 46.7391L135.143 48.5032ZM146.103 43.4455C146.103 43.4455 146.103 43.4457 146.103 43.4461C146.103 43.4465 146.104 43.4471 146.104 43.4479C146.105 43.4496 146.106 43.4519 146.107 43.455C146.11 43.4611 146.114 43.4694 146.119 43.4802C146.128 43.5017 146.14 43.5302 146.154 43.5659C146.182 43.6375 146.217 43.7316 146.257 43.8473C146.337 44.0785 146.434 44.3858 146.536 44.7557C146.74 45.496 146.961 46.4728 147.108 47.5764C147.406 49.8059 147.387 52.4433 146.431 54.6955L148.272 55.4773C149.429 52.7531 149.41 49.7034 149.091 47.312C148.773 44.9323 148.135 43.0405 147.895 42.5569L146.103 43.4455ZM146.807 55.9253C147.224 56.1958 147.777 56.8204 148.358 57.8474C148.926 58.8495 149.473 60.1478 149.92 61.653C150.817 64.6664 151.292 68.4234 150.806 72.1522C150.321 75.8739 148.887 79.5289 146 82.4218C143.117 85.31 138.703 87.5231 132.103 88.2152L132.311 90.2043C139.27 89.4746 144.145 87.1113 147.415 83.8346C150.681 80.5626 152.261 76.4643 152.789 72.4105C153.316 68.3638 152.801 64.3231 151.837 61.0828C151.355 59.4611 150.754 58.0186 150.099 56.8616C149.457 55.7295 148.711 54.7767 147.896 54.2475L146.807 55.9253Z" fill="#07277E" mask="url(#path-3-inside-1_767_17303)"/>
</svg>
