<svg width="1600" height="1600" viewBox="0 0 1600 1600" fill="none" xmlns="http://www.w3.org/2000/svg">
<rect width="1600" height="1600" fill="#07277E"/>
<rect x="1104" y="192" width="272" height="272" fill="#07277E"/>
<rect x="344.447" y="376.447" width="591.105" height="223.105" fill="white" stroke="white" stroke-width="0.894737"/>
<rect x="655.12" y="671.12" width="561.76" height="593.76" stroke="white" stroke-width="14.24"/>
<circle cx="456" cy="1160" r="104" fill="white" stroke="white" stroke-width="16"/>
<circle cx="936" cy="912" r="56" stroke="white" stroke-width="16"/>
<path d="M848 1064C848 1040.66 857.271 1018.28 873.775 1001.77C890.278 985.271 912.661 976 936 976C959.339 976 981.722 985.271 998.225 1001.77C1014.73 1018.28 1024 1040.66 1024 1064" stroke="white" stroke-width="16"/>
<line x1="344" y1="672" x2="568" y2="672" stroke="white" stroke-width="16"/>
<line x1="344" y1="776" x2="568" y2="776" stroke="white" stroke-width="16"/>
<line x1="344" y1="872" x2="568" y2="872" stroke="white" stroke-width="16"/>
<line x1="344" y1="968" x2="568" y2="968" stroke="white" stroke-width="16"/>
<path d="M1206.91 586.712L1207.48 586.146L1206.91 585.581L1135.87 514.539C1148.12 500.157 1155.47 481.448 1155.47 461C1155.47 438.952 1146.71 417.806 1131.12 402.216C1115.53 386.625 1094.38 377.867 1072.33 377.867C1050.29 377.867 1029.14 386.625 1013.55 402.216C997.959 417.806 989.2 438.952 989.2 461C989.2 483.048 997.959 504.193 1013.55 519.784C1029.14 535.374 1050.28 544.133 1072.33 544.133C1091.88 544.153 1110.8 537.25 1125.74 524.661L1196.79 595.706L1197.35 596.271L1197.92 595.706L1206.91 586.712ZM1023.64 412.304C1036.55 399.389 1054.07 392.133 1072.33 392.133C1081.38 392.133 1090.33 393.914 1098.69 397.375C1107.04 400.836 1114.63 405.909 1121.03 412.304C1127.42 418.699 1132.5 426.29 1135.96 434.646C1139.42 443.001 1141.2 451.956 1141.2 461C1141.2 470.044 1139.42 478.999 1135.96 487.354C1132.5 495.709 1127.42 503.301 1121.03 509.696C1114.63 516.091 1107.04 521.163 1098.69 524.624C1090.33 528.085 1081.38 529.867 1072.33 529.867C1054.07 529.867 1036.55 522.611 1023.64 509.696C1010.72 496.781 1003.47 479.264 1003.47 461C1003.47 442.735 1010.72 425.219 1023.64 412.304Z" fill="white" stroke="white" stroke-width="1.6"/>
</svg>
