<svg width="1600" height="1600" viewBox="0 0 1600 1600" fill="none" xmlns="http://www.w3.org/2000/svg">
<rect width="1600" height="1600" fill="#07277E"/>
<rect x="1040" y="192" width="336" height="336" fill="#07277E"/>
<path d="M682.295 655V352.455H746.261V477.284H876.114V352.455H939.932V655H876.114V530.023H746.261V655H682.295ZM1122.52 352.455V655H1058.56V413.17H1056.78L987.5 456.602V399.875L1062.4 352.455H1122.52Z" fill="white"/>
<path d="M677.807 995V773.909H717.858V867.506H820.307V773.909H860.466V995H820.307V901.08H717.858V995H677.807ZM901.866 995V966.068L978.622 890.824C985.963 883.411 992.08 876.826 996.974 871.068C1001.87 865.311 1005.54 859.733 1007.99 854.335C1010.43 848.937 1011.66 843.18 1011.66 837.062C1011.66 830.081 1010.07 824.108 1006.91 819.142C1003.74 814.104 999.385 810.218 993.844 807.483C988.302 804.748 982.005 803.381 974.952 803.381C967.683 803.381 961.313 804.892 955.844 807.915C950.374 810.866 946.128 815.076 943.105 820.545C940.154 826.015 938.679 832.528 938.679 840.085H900.571C900.571 826.051 903.774 813.852 910.179 803.489C916.584 793.125 925.401 785.1 936.628 779.415C947.927 773.729 960.882 770.886 975.491 770.886C990.317 770.886 1003.34 773.657 1014.57 779.199C1025.8 784.741 1034.51 792.333 1040.7 801.977C1046.96 811.621 1050.09 822.633 1050.09 835.011C1050.09 843.288 1048.5 851.42 1045.34 859.409C1042.17 867.398 1036.59 876.25 1028.61 885.966C1020.69 895.682 1009.57 907.449 995.247 921.267L957.139 960.023V961.534H1053.43V995H901.866Z" fill="white"/>
<path d="M672.619 1246V1094.73H695.443V1160.47H770.858V1094.73H793.756V1246H770.858V1180.04H695.443V1246H672.619ZM877.591 1248.07C867.447 1248.07 858.386 1246.32 850.409 1242.82C842.481 1239.33 836.203 1234.48 831.574 1228.27C826.994 1222.02 824.532 1214.78 824.188 1206.56H847.381C847.676 1211.04 849.178 1214.93 851.886 1218.23C854.644 1221.48 858.239 1223.99 862.67 1225.76C867.102 1227.53 872.027 1228.42 877.443 1228.42C883.402 1228.42 888.67 1227.39 893.25 1225.32C897.879 1223.25 901.498 1220.37 904.108 1216.68C906.718 1212.93 908.023 1208.62 908.023 1203.75C908.023 1198.68 906.718 1194.22 904.108 1190.38C901.547 1186.49 897.78 1183.44 892.807 1181.22C887.883 1179.01 881.924 1177.9 874.932 1177.9H862.153V1159.28H874.932C880.545 1159.28 885.47 1158.27 889.705 1156.26C893.989 1154.24 897.337 1151.43 899.75 1147.84C902.163 1144.19 903.369 1139.93 903.369 1135.06C903.369 1130.38 902.311 1126.32 900.193 1122.87C898.125 1119.37 895.17 1116.64 891.33 1114.67C887.538 1112.7 883.057 1111.72 877.886 1111.72C872.962 1111.72 868.358 1112.63 864.074 1114.45C859.839 1116.22 856.392 1118.78 853.733 1122.13C851.074 1125.43 849.646 1129.39 849.449 1134.02H827.364C827.61 1125.85 830.023 1118.66 834.602 1112.45C839.231 1106.25 845.337 1101.4 852.92 1097.9C860.504 1094.41 868.924 1092.66 878.182 1092.66C887.883 1092.66 896.254 1094.55 903.295 1098.35C910.386 1102.09 915.852 1107.09 919.693 1113.34C923.583 1119.59 925.504 1126.44 925.455 1133.88C925.504 1142.34 923.14 1149.53 918.364 1155.44C913.636 1161.35 907.333 1165.32 899.455 1167.34V1168.52C909.5 1170.04 917.28 1174.03 922.795 1180.48C928.36 1186.93 931.117 1194.94 931.068 1204.49C931.117 1212.81 928.803 1220.27 924.125 1226.87C919.496 1233.47 913.169 1238.66 905.142 1242.45C897.116 1246.2 887.932 1248.07 877.591 1248.07Z" fill="white"/>
<line x1="456" y1="346" x2="456" y2="1226" stroke="white" stroke-width="16"/>
<path d="M352 1156L456 1236L552 1156" stroke="white" stroke-width="16"/>
</svg>
